<?xml version="1.0" encoding="UTF-8"?>
<!-- Created by grConvert v0.1-0 -->
<svg xmlns="http://www.w3.org/2000/svg" xmlns:xlink="http://www.w3.org/1999/xlink" width="1416pt" height="1000pt" viewBox="0 0 1416 1000" version="1.1">
<g id="surface1">
<rect x="0" y="0" width="1416" height="1000" style="fill:rgb(5.882353%,12.54902%,29.411765%);fill-opacity:1;stroke:none;"/>
<path style=" stroke:none;fill-rule:nonzero;fill:rgb(100%,71.372549%,7.058824%);fill-opacity:1;" d="M 1158 130 L 1141.929688 179.453125 L 1166.660156 187.488281 Z "/>
<path style=" stroke:none;fill-rule:nonzero;fill:rgb(100%,71.372549%,7.058824%);fill-opacity:1;" d="M 1158 130 L 1174.070312 179.453125 L 1149.339844 187.488281 Z "/>
<path style=" stroke:none;fill-rule:nonzero;fill:rgb(100%,71.372549%,7.058824%);fill-opacity:1;" d="M 1207.453125 165.929688 L 1155.453125 165.929688 L 1155.453125 191.929688 Z "/>
<path style=" stroke:none;fill-rule:nonzero;fill:rgb(100%,71.372549%,7.058824%);fill-opacity:1;" d="M 1207.453125 165.929688 L 1165.386719 196.496094 L 1150.105469 175.460938 Z "/>
<path style=" stroke:none;fill-rule:nonzero;fill:rgb(100%,71.372549%,7.058824%);fill-opacity:1;" d="M 1108.546875 165.929688 L 1150.613281 196.496094 L 1165.894531 175.460938 Z "/>
<path style=" stroke:none;fill-rule:nonzero;fill:rgb(100%,71.372549%,7.058824%);fill-opacity:1;" d="M 1108.546875 165.929688 L 1160.546875 165.929688 L 1160.546875 191.929688 Z "/>
<path style=" stroke:none;fill-rule:nonzero;fill:rgb(100%,71.372549%,7.058824%);fill-opacity:1;" d="M 1188.566406 224.070312 L 1172.496094 174.613281 L 1147.769531 182.648438 Z "/>
<path style=" stroke:none;fill-rule:nonzero;fill:rgb(100%,71.372549%,7.058824%);fill-opacity:1;" d="M 1188.566406 224.070312 L 1146.496094 193.503906 L 1161.777344 172.46875 Z "/>
<path style=" stroke:none;fill-rule:nonzero;fill:rgb(100%,71.372549%,7.058824%);fill-opacity:1;" d="M 1127.433594 224.070312 L 1169.503906 193.503906 L 1154.222656 172.46875 Z "/>
<path style=" stroke:none;fill-rule:nonzero;fill:rgb(100%,71.372549%,7.058824%);fill-opacity:1;" d="M 1127.433594 224.070312 L 1143.503906 174.613281 L 1168.230469 182.648438 Z "/>
<path style=" stroke:none;fill-rule:nonzero;fill:rgb(100%,71.372549%,7.058824%);fill-opacity:1;" d="M 229 365 L 219.421875 394.484375 L 234.160156 399.273438 Z "/>
<path style=" stroke:none;fill-rule:nonzero;fill:rgb(100%,71.372549%,7.058824%);fill-opacity:1;" d="M 229 365 L 238.578125 394.484375 L 223.839844 399.273438 Z "/>
<path style=" stroke:none;fill-rule:nonzero;fill:rgb(100%,71.372549%,7.058824%);fill-opacity:1;" d="M 258.484375 386.421875 L 227.484375 386.421875 L 227.484375 401.921875 Z "/>
<path style=" stroke:none;fill-rule:nonzero;fill:rgb(100%,71.372549%,7.058824%);fill-opacity:1;" d="M 258.484375 386.421875 L 233.402344 404.640625 L 224.292969 392.101562 Z "/>
<path style=" stroke:none;fill-rule:nonzero;fill:rgb(100%,71.372549%,7.058824%);fill-opacity:1;" d="M 199.515625 386.421875 L 224.597656 404.640625 L 233.707031 392.101562 Z "/>
<path style=" stroke:none;fill-rule:nonzero;fill:rgb(100%,71.372549%,7.058824%);fill-opacity:1;" d="M 199.515625 386.421875 L 230.515625 386.421875 L 230.515625 401.921875 Z "/>
<path style=" stroke:none;fill-rule:nonzero;fill:rgb(100%,71.372549%,7.058824%);fill-opacity:1;" d="M 247.222656 421.078125 L 237.640625 391.597656 L 222.902344 396.386719 Z "/>
<path style=" stroke:none;fill-rule:nonzero;fill:rgb(100%,71.372549%,7.058824%);fill-opacity:1;" d="M 247.222656 421.078125 L 222.140625 402.859375 L 231.253906 390.320312 Z "/>
<path style=" stroke:none;fill-rule:nonzero;fill:rgb(100%,71.372549%,7.058824%);fill-opacity:1;" d="M 210.777344 421.078125 L 235.859375 402.859375 L 226.746094 390.320312 Z "/>
<path style=" stroke:none;fill-rule:nonzero;fill:rgb(100%,71.372549%,7.058824%);fill-opacity:1;" d="M 210.777344 421.078125 L 220.359375 391.597656 L 235.097656 396.386719 Z "/>
<path style=" stroke:none;fill-rule:nonzero;fill:rgb(100%,71.372549%,7.058824%);fill-opacity:1;" d="M 396 427 L 386.421875 456.484375 L 401.160156 461.273438 Z "/>
<path style=" stroke:none;fill-rule:nonzero;fill:rgb(100%,71.372549%,7.058824%);fill-opacity:1;" d="M 396 427 L 405.578125 456.484375 L 390.839844 461.273438 Z "/>
<path style=" stroke:none;fill-rule:nonzero;fill:rgb(100%,71.372549%,7.058824%);fill-opacity:1;" d="M 425.484375 448.421875 L 394.484375 448.421875 L 394.484375 463.921875 Z "/>
<path style=" stroke:none;fill-rule:nonzero;fill:rgb(100%,71.372549%,7.058824%);fill-opacity:1;" d="M 425.484375 448.421875 L 400.402344 466.640625 L 391.292969 454.101562 Z "/>
<path style=" stroke:none;fill-rule:nonzero;fill:rgb(100%,71.372549%,7.058824%);fill-opacity:1;" d="M 366.515625 448.421875 L 391.597656 466.640625 L 400.707031 454.101562 Z "/>
<path style=" stroke:none;fill-rule:nonzero;fill:rgb(100%,71.372549%,7.058824%);fill-opacity:1;" d="M 366.515625 448.421875 L 397.515625 448.421875 L 397.515625 463.921875 Z "/>
<path style=" stroke:none;fill-rule:nonzero;fill:rgb(100%,71.372549%,7.058824%);fill-opacity:1;" d="M 414.222656 483.078125 L 404.640625 453.597656 L 389.902344 458.386719 Z "/>
<path style=" stroke:none;fill-rule:nonzero;fill:rgb(100%,71.372549%,7.058824%);fill-opacity:1;" d="M 414.222656 483.078125 L 389.140625 464.859375 L 398.253906 452.320312 Z "/>
<path style=" stroke:none;fill-rule:nonzero;fill:rgb(100%,71.372549%,7.058824%);fill-opacity:1;" d="M 377.777344 483.078125 L 402.859375 464.859375 L 393.746094 452.320312 Z "/>
<path style=" stroke:none;fill-rule:nonzero;fill:rgb(100%,71.372549%,7.058824%);fill-opacity:1;" d="M 377.777344 483.078125 L 387.359375 453.597656 L 402.097656 458.386719 Z "/>
<path style=" stroke:none;fill-rule:nonzero;fill:rgb(100%,71.372549%,7.058824%);fill-opacity:1;" d="M 479 516 L 469.421875 545.484375 L 484.160156 550.273438 Z "/>
<path style=" stroke:none;fill-rule:nonzero;fill:rgb(100%,71.372549%,7.058824%);fill-opacity:1;" d="M 479 516 L 488.578125 545.484375 L 473.839844 550.273438 Z "/>
<path style=" stroke:none;fill-rule:nonzero;fill:rgb(100%,71.372549%,7.058824%);fill-opacity:1;" d="M 508.484375 537.421875 L 477.484375 537.421875 L 477.484375 552.921875 Z "/>
<path style=" stroke:none;fill-rule:nonzero;fill:rgb(100%,71.372549%,7.058824%);fill-opacity:1;" d="M 508.484375 537.421875 L 483.402344 555.640625 L 474.292969 543.101562 Z "/>
<path style=" stroke:none;fill-rule:nonzero;fill:rgb(100%,71.372549%,7.058824%);fill-opacity:1;" d="M 449.515625 537.421875 L 474.597656 555.640625 L 483.707031 543.101562 Z "/>
<path style=" stroke:none;fill-rule:nonzero;fill:rgb(100%,71.372549%,7.058824%);fill-opacity:1;" d="M 449.515625 537.421875 L 480.515625 537.421875 L 480.515625 552.921875 Z "/>
<path style=" stroke:none;fill-rule:nonzero;fill:rgb(100%,71.372549%,7.058824%);fill-opacity:1;" d="M 497.222656 572.078125 L 487.640625 542.597656 L 472.902344 547.386719 Z "/>
<path style=" stroke:none;fill-rule:nonzero;fill:rgb(100%,71.372549%,7.058824%);fill-opacity:1;" d="M 497.222656 572.078125 L 472.140625 553.859375 L 481.253906 541.320312 Z "/>
<path style=" stroke:none;fill-rule:nonzero;fill:rgb(100%,71.372549%,7.058824%);fill-opacity:1;" d="M 460.777344 572.078125 L 485.859375 553.859375 L 476.746094 541.320312 Z "/>
<path style=" stroke:none;fill-rule:nonzero;fill:rgb(100%,71.372549%,7.058824%);fill-opacity:1;" d="M 460.777344 572.078125 L 470.359375 542.597656 L 485.097656 547.386719 Z "/>
<path style=" stroke:none;fill-rule:nonzero;fill:rgb(100%,71.372549%,7.058824%);fill-opacity:1;" d="M 563 609 L 553.421875 638.484375 L 568.160156 643.273438 Z "/>
<path style=" stroke:none;fill-rule:nonzero;fill:rgb(100%,71.372549%,7.058824%);fill-opacity:1;" d="M 563 609 L 572.578125 638.484375 L 557.839844 643.273438 Z "/>
<path style=" stroke:none;fill-rule:nonzero;fill:rgb(100%,71.372549%,7.058824%);fill-opacity:1;" d="M 592.484375 630.421875 L 561.484375 630.421875 L 561.484375 645.921875 Z "/>
<path style=" stroke:none;fill-rule:nonzero;fill:rgb(100%,71.372549%,7.058824%);fill-opacity:1;" d="M 592.484375 630.421875 L 567.402344 648.640625 L 558.292969 636.101562 Z "/>
<path style=" stroke:none;fill-rule:nonzero;fill:rgb(100%,71.372549%,7.058824%);fill-opacity:1;" d="M 533.515625 630.421875 L 558.597656 648.640625 L 567.707031 636.101562 Z "/>
<path style=" stroke:none;fill-rule:nonzero;fill:rgb(100%,71.372549%,7.058824%);fill-opacity:1;" d="M 533.515625 630.421875 L 564.515625 630.421875 L 564.515625 645.921875 Z "/>
<path style=" stroke:none;fill-rule:nonzero;fill:rgb(100%,71.372549%,7.058824%);fill-opacity:1;" d="M 581.222656 665.078125 L 571.640625 635.597656 L 556.902344 640.386719 Z "/>
<path style=" stroke:none;fill-rule:nonzero;fill:rgb(100%,71.372549%,7.058824%);fill-opacity:1;" d="M 581.222656 665.078125 L 556.140625 646.859375 L 565.253906 634.320312 Z "/>
<path style=" stroke:none;fill-rule:nonzero;fill:rgb(100%,71.372549%,7.058824%);fill-opacity:1;" d="M 544.777344 665.078125 L 569.859375 646.859375 L 560.746094 634.320312 Z "/>
<path style=" stroke:none;fill-rule:nonzero;fill:rgb(100%,71.372549%,7.058824%);fill-opacity:1;" d="M 544.777344 665.078125 L 554.359375 635.597656 L 569.097656 640.386719 Z "/>
<path style=" stroke:none;fill-rule:nonzero;fill:rgb(100%,71.372549%,7.058824%);fill-opacity:1;" d="M 813 698 L 803.421875 727.484375 L 818.160156 732.273438 Z "/>
<path style=" stroke:none;fill-rule:nonzero;fill:rgb(100%,71.372549%,7.058824%);fill-opacity:1;" d="M 813 698 L 822.578125 727.484375 L 807.839844 732.273438 Z "/>
<path style=" stroke:none;fill-rule:nonzero;fill:rgb(100%,71.372549%,7.058824%);fill-opacity:1;" d="M 842.484375 719.421875 L 811.484375 719.421875 L 811.484375 734.921875 Z "/>
<path style=" stroke:none;fill-rule:nonzero;fill:rgb(100%,71.372549%,7.058824%);fill-opacity:1;" d="M 842.484375 719.421875 L 817.402344 737.640625 L 808.292969 725.101562 Z "/>
<path style=" stroke:none;fill-rule:nonzero;fill:rgb(100%,71.372549%,7.058824%);fill-opacity:1;" d="M 783.515625 719.421875 L 808.597656 737.640625 L 817.707031 725.101562 Z "/>
<path style=" stroke:none;fill-rule:nonzero;fill:rgb(100%,71.372549%,7.058824%);fill-opacity:1;" d="M 783.515625 719.421875 L 814.515625 719.421875 L 814.515625 734.921875 Z "/>
<path style=" stroke:none;fill-rule:nonzero;fill:rgb(100%,71.372549%,7.058824%);fill-opacity:1;" d="M 831.222656 754.078125 L 821.640625 724.597656 L 806.902344 729.386719 Z "/>
<path style=" stroke:none;fill-rule:nonzero;fill:rgb(100%,71.372549%,7.058824%);fill-opacity:1;" d="M 831.222656 754.078125 L 806.140625 735.859375 L 815.253906 723.320312 Z "/>
<path style=" stroke:none;fill-rule:nonzero;fill:rgb(100%,71.372549%,7.058824%);fill-opacity:1;" d="M 794.777344 754.078125 L 819.859375 735.859375 L 810.746094 723.320312 Z "/>
<path style=" stroke:none;fill-rule:nonzero;fill:rgb(100%,71.372549%,7.058824%);fill-opacity:1;" d="M 794.777344 754.078125 L 804.359375 724.597656 L 819.097656 729.386719 Z "/>
<path style=" stroke:none;fill-rule:nonzero;fill:rgb(100%,71.372549%,7.058824%);fill-opacity:1;" d="M 552 740 L 542.421875 769.484375 L 557.160156 774.273438 Z "/>
<path style=" stroke:none;fill-rule:nonzero;fill:rgb(100%,71.372549%,7.058824%);fill-opacity:1;" d="M 552 740 L 561.578125 769.484375 L 546.839844 774.273438 Z "/>
<path style=" stroke:none;fill-rule:nonzero;fill:rgb(100%,71.372549%,7.058824%);fill-opacity:1;" d="M 581.484375 761.421875 L 550.484375 761.421875 L 550.484375 776.921875 Z "/>
<path style=" stroke:none;fill-rule:nonzero;fill:rgb(100%,71.372549%,7.058824%);fill-opacity:1;" d="M 581.484375 761.421875 L 556.402344 779.640625 L 547.292969 767.101562 Z "/>
<path style=" stroke:none;fill-rule:nonzero;fill:rgb(100%,71.372549%,7.058824%);fill-opacity:1;" d="M 522.515625 761.421875 L 547.597656 779.640625 L 556.707031 767.101562 Z "/>
<path style=" stroke:none;fill-rule:nonzero;fill:rgb(100%,71.372549%,7.058824%);fill-opacity:1;" d="M 522.515625 761.421875 L 553.515625 761.421875 L 553.515625 776.921875 Z "/>
<path style=" stroke:none;fill-rule:nonzero;fill:rgb(100%,71.372549%,7.058824%);fill-opacity:1;" d="M 570.222656 796.078125 L 560.640625 766.597656 L 545.902344 771.386719 Z "/>
<path style=" stroke:none;fill-rule:nonzero;fill:rgb(100%,71.372549%,7.058824%);fill-opacity:1;" d="M 570.222656 796.078125 L 545.140625 777.859375 L 554.253906 765.320312 Z "/>
<path style=" stroke:none;fill-rule:nonzero;fill:rgb(100%,71.372549%,7.058824%);fill-opacity:1;" d="M 533.777344 796.078125 L 558.859375 777.859375 L 549.746094 765.320312 Z "/>
<path style=" stroke:none;fill-rule:nonzero;fill:rgb(100%,71.372549%,7.058824%);fill-opacity:1;" d="M 533.777344 796.078125 L 543.359375 766.597656 L 558.097656 771.386719 Z "/>
<path style=" stroke:none;fill-rule:nonzero;fill:rgb(100%,71.372549%,7.058824%);fill-opacity:1;" d="M 740 802 L 730.421875 831.484375 L 745.160156 836.273438 Z "/>
<path style=" stroke:none;fill-rule:nonzero;fill:rgb(100%,71.372549%,7.058824%);fill-opacity:1;" d="M 740 802 L 749.578125 831.484375 L 734.839844 836.273438 Z "/>
<path style=" stroke:none;fill-rule:nonzero;fill:rgb(100%,71.372549%,7.058824%);fill-opacity:1;" d="M 769.484375 823.421875 L 738.484375 823.421875 L 738.484375 838.921875 Z "/>
<path style=" stroke:none;fill-rule:nonzero;fill:rgb(100%,71.372549%,7.058824%);fill-opacity:1;" d="M 769.484375 823.421875 L 744.402344 841.640625 L 735.292969 829.101562 Z "/>
<path style=" stroke:none;fill-rule:nonzero;fill:rgb(100%,71.372549%,7.058824%);fill-opacity:1;" d="M 710.515625 823.421875 L 735.597656 841.640625 L 744.707031 829.101562 Z "/>
<path style=" stroke:none;fill-rule:nonzero;fill:rgb(100%,71.372549%,7.058824%);fill-opacity:1;" d="M 710.515625 823.421875 L 741.515625 823.421875 L 741.515625 838.921875 Z "/>
<path style=" stroke:none;fill-rule:nonzero;fill:rgb(100%,71.372549%,7.058824%);fill-opacity:1;" d="M 758.222656 858.078125 L 748.640625 828.597656 L 733.902344 833.386719 Z "/>
<path style=" stroke:none;fill-rule:nonzero;fill:rgb(100%,71.372549%,7.058824%);fill-opacity:1;" d="M 758.222656 858.078125 L 733.140625 839.859375 L 742.253906 827.320312 Z "/>
<path style=" stroke:none;fill-rule:nonzero;fill:rgb(100%,71.372549%,7.058824%);fill-opacity:1;" d="M 721.777344 858.078125 L 746.859375 839.859375 L 737.746094 827.320312 Z "/>
<path style=" stroke:none;fill-rule:nonzero;fill:rgb(100%,71.372549%,7.058824%);fill-opacity:1;" d="M 721.777344 858.078125 L 731.359375 828.597656 L 746.097656 833.386719 Z "/>
</g>
</svg>
