<?xml version="1.0" encoding="UTF-8"?>
<!-- Created by grConvert v0.1-0 -->
<svg xmlns="http://www.w3.org/2000/svg" xmlns:xlink="http://www.w3.org/1999/xlink" width="450pt" height="300pt" viewBox="0 0 450 300" version="1.1">
<g id="surface1">
<rect x="0" y="0" width="450" height="300" style="fill:rgb(74.901961%,3.921569%,18.823529%);fill-opacity:1;stroke:none;"/>
<path style=" stroke:none;fill-rule:nonzero;fill:rgb(0%,15.686275%,40.784314%);fill-opacity:1;" d="M 37.5 148.839844 L 224.222656 275 L 412.5 148.59375 L 224.222656 25 Z "/>
<path style=" stroke:none;fill-rule:nonzero;fill:rgb(100%,100%,100%);fill-opacity:1;" d="M 84 149.128906 L 224.417969 244 L 366 148.945312 L 224.417969 56 Z "/>
<path style=" stroke:none;fill-rule:nonzero;fill:rgb(0%,15.686275%,40.784314%);fill-opacity:1;" d="M 148.175781 145.015625 L 156.011719 145.015625 L 157.371094 149.390625 L 162.1875 149.390625 L 154.710938 128.160156 L 149.59375 128.160156 L 142.027344 149.390625 L 146.695312 149.390625 Z M 152.078125 132.953125 L 152.136719 132.953125 L 154.769531 141.347656 L 149.359375 141.347656 Z M 165.046875 149.390625 L 169.394531 149.390625 L 169.394531 141.082031 L 173.976562 141.082031 C 175.554688 141.066406 176.542969 141.375 176.9375 142.003906 C 177.328125 142.636719 177.496094 143.667969 177.433594 145.101562 C 177.4375 146.175781 177.476562 147.039062 177.5625 147.691406 C 177.644531 148.339844 177.757812 148.90625 177.90625 149.390625 L 182.816406 149.390625 L 182.816406 148.828125 C 182.363281 148.691406 182.085938 148.328125 181.988281 147.746094 C 181.890625 147.160156 181.851562 146.113281 181.871094 144.601562 C 181.867188 142.691406 181.636719 141.394531 181.179688 140.710938 C 180.722656 140.03125 180.054688 139.53125 179.179688 139.21875 C 180.234375 138.84375 181.042969 138.203125 181.605469 137.300781 C 182.171875 136.398438 182.457031 135.351562 182.460938 134.164062 C 182.484375 133.511719 182.324219 132.722656 181.984375 131.792969 C 181.644531 130.863281 180.988281 130.035156 180.019531 129.308594 C 179.054688 128.585938 177.640625 128.203125 175.78125 128.160156 L 165.046875 128.160156 Z M 169.394531 137.503906 L 169.394531 131.828125 L 174.921875 131.828125 C 176.191406 131.875 177.03125 132.195312 177.449219 132.796875 C 177.867188 133.394531 178.058594 134 178.027344 134.605469 C 178.027344 135.644531 177.742188 136.390625 177.175781 136.84375 C 176.609375 137.292969 175.75 137.515625 174.597656 137.503906 Z M 191.171875 142.207031 L 193.242188 140.078125 L 199.804688 149.390625 L 205.511719 149.390625 L 196.347656 136.855469 L 205.007812 128.160156 L 199.273438 128.160156 L 191.171875 136.792969 L 191.171875 128.160156 L 186.738281 128.160156 L 186.738281 149.390625 L 191.171875 149.390625 Z M 212.273438 145.015625 L 220.105469 145.015625 L 221.46875 149.390625 L 226.285156 149.390625 L 218.804688 128.160156 L 213.691406 128.160156 L 206.121094 149.390625 L 210.792969 149.390625 Z M 216.175781 132.953125 L 216.234375 132.953125 L 218.867188 141.347656 L 213.457031 141.347656 Z M 242.09375 142.945312 L 242.035156 142.945312 L 233.609375 128.160156 L 228.9375 128.160156 L 228.9375 149.390625 L 233.078125 149.390625 L 233.078125 134.253906 L 233.136719 134.253906 L 241.796875 149.390625 L 246.234375 149.390625 L 246.234375 128.160156 L 242.09375 128.160156 Z M 249.417969 142.855469 C 249.386719 143.773438 249.59375 144.773438 250.046875 145.863281 C 250.5 146.953125 251.382812 147.898438 252.695312 148.695312 C 254.011719 149.492188 255.941406 149.914062 258.492188 149.953125 C 259.183594 149.984375 260.179688 149.855469 261.488281 149.570312 C 262.796875 149.28125 264.003906 148.640625 265.105469 147.644531 C 266.207031 146.644531 266.789062 145.101562 266.859375 143.003906 C 266.808594 141.140625 266.246094 139.800781 265.167969 138.984375 C 264.089844 138.171875 262.800781 137.605469 261.300781 137.296875 L 256.128906 136.027344 C 255.644531 135.945312 255.160156 135.757812 254.671875 135.460938 C 254.183594 135.164062 253.917969 134.613281 253.878906 133.808594 C 253.929688 132.863281 254.335938 132.199219 255.097656 131.816406 C 255.859375 131.433594 256.683594 131.25 257.574219 131.265625 C 259.445312 131.339844 260.636719 131.753906 261.15625 132.507812 C 261.675781 133.261719 261.929688 133.914062 261.921875 134.460938 L 266.179688 134.460938 C 266.1875 133.554688 265.949219 132.578125 265.464844 131.523438 C 264.980469 130.472656 264.136719 129.5625 262.933594 128.800781 C 261.726562 128.035156 260.050781 127.636719 257.902344 127.601562 C 255.632812 127.636719 253.90625 128.027344 252.722656 128.769531 C 251.542969 129.511719 250.742188 130.382812 250.324219 131.390625 C 249.910156 132.394531 249.714844 133.308594 249.742188 134.132812 C 249.808594 136.386719 250.503906 137.910156 251.824219 138.707031 C 253.148438 139.5 254.699219 140.054688 256.480469 140.371094 L 258.757812 140.90625 C 259.902344 141.144531 260.824219 141.441406 261.523438 141.796875 C 262.222656 142.15625 262.582031 142.734375 262.601562 143.535156 C 262.546875 144.632812 262.070312 145.371094 261.171875 145.753906 C 260.273438 146.132812 259.269531 146.3125 258.167969 146.285156 C 256.289062 146.214844 255.058594 145.792969 254.480469 145.015625 C 253.898438 144.234375 253.632812 143.515625 253.671875 142.855469 Z M 274.753906 145.015625 L 282.585938 145.015625 L 283.949219 149.390625 L 288.765625 149.390625 L 281.285156 128.160156 L 276.171875 128.160156 L 268.601562 149.390625 L 273.273438 149.390625 Z M 278.65625 132.953125 L 278.714844 132.953125 L 281.347656 141.347656 L 275.933594 141.347656 Z M 290.53125 142.855469 C 290.5 143.773438 290.710938 144.773438 291.164062 145.863281 C 291.613281 146.953125 292.5 147.898438 293.8125 148.695312 C 295.125 149.492188 297.054688 149.914062 299.605469 149.953125 C 300.296875 149.984375 301.296875 149.855469 302.605469 149.570312 C 303.914062 149.28125 305.117188 148.640625 306.21875 147.644531 C 307.320312 146.644531 307.90625 145.101562 307.972656 143.003906 C 307.921875 141.140625 307.359375 139.800781 306.28125 138.984375 C 305.203125 138.171875 303.914062 137.605469 302.414062 137.296875 L 297.242188 136.027344 C 296.761719 135.945312 296.273438 135.757812 295.785156 135.460938 C 295.296875 135.164062 295.035156 134.613281 294.996094 133.808594 C 295.042969 132.863281 295.449219 132.199219 296.210938 131.816406 C 296.972656 131.433594 297.800781 131.25 298.691406 131.265625 C 300.558594 131.339844 301.753906 131.753906 302.273438 132.507812 C 302.792969 133.261719 303.046875 133.914062 303.035156 134.460938 L 307.292969 134.460938 C 307.304688 133.554688 307.066406 132.578125 306.582031 131.523438 C 306.09375 130.472656 305.25 129.5625 304.046875 128.800781 C 302.84375 128.035156 301.164062 127.636719 299.015625 127.601562 C 296.746094 127.636719 295.019531 128.027344 293.839844 128.769531 C 292.65625 129.511719 291.855469 130.382812 291.441406 131.390625 C 291.023438 132.394531 290.828125 133.308594 290.855469 134.132812 C 290.921875 136.386719 291.617188 137.910156 292.941406 138.707031 C 294.261719 139.5 295.816406 140.054688 297.597656 140.371094 L 299.875 140.90625 C 301.015625 141.144531 301.9375 141.441406 302.636719 141.796875 C 303.335938 142.15625 303.695312 142.734375 303.71875 143.535156 C 303.664062 144.632812 303.1875 145.371094 302.285156 145.753906 C 301.386719 146.132812 300.386719 146.3125 299.28125 146.285156 C 297.402344 146.214844 296.171875 145.792969 295.59375 145.015625 C 295.015625 144.234375 294.746094 143.515625 294.789062 142.855469 Z "/>
<path style=" stroke:none;fill-rule:nonzero;fill:rgb(100%,100%,100%);fill-opacity:1;" d="M 229.484375 49.980469 L 223.964844 45.980469 L 218.453125 50 L 220.546875 43.507812 L 215.023438 39.503906 L 221.839844 39.492188 L 223.9375 33 L 226.054688 39.484375 L 232.875 39.472656 L 227.367188 43.492188 Z "/>
<path style=" stroke:none;fill-rule:nonzero;fill:rgb(0%,15.686275%,40.784314%);fill-opacity:1;" d="M 234.964844 190 L 225 197.082031 L 215.023438 190.007812 L 218.832031 201.457031 L 208.867188 208.546875 L 221.1875 208.542969 L 225.003906 220 L 228.808594 208.546875 L 241.132812 208.539062 L 231.164062 201.460938 Z "/>
<path style=" stroke:none;fill-rule:nonzero;fill:rgb(0%,15.686275%,40.784314%);fill-opacity:1;" d="M 202.699219 190 L 192.734375 182.917969 L 182.757812 189.992188 L 186.570312 178.542969 L 176.605469 171.453125 L 188.921875 171.457031 L 192.738281 160 L 196.542969 171.453125 L 208.867188 171.464844 L 198.898438 178.539062 Z "/>
<path style=" stroke:none;fill-rule:nonzero;fill:rgb(100%,100%,100%);fill-opacity:1;" d="M 215.980469 243.542969 L 211.980469 249.0625 L 216 254.574219 L 209.507812 252.476562 L 205.503906 258 L 205.492188 251.183594 L 199 249.085938 L 205.484375 246.96875 L 205.472656 240.148438 L 209.492188 245.65625 Z "/>
<path style=" stroke:none;fill-rule:nonzero;fill:rgb(100%,100%,100%);fill-opacity:1;" d="M 233.019531 243.542969 L 237.019531 249.0625 L 233 254.574219 L 239.492188 252.476562 L 243.496094 258 L 243.507812 251.183594 L 250 249.085938 L 243.515625 246.96875 L 243.527344 240.148438 L 239.507812 245.65625 Z "/>
<path style=" stroke:none;fill-rule:nonzero;fill:rgb(0%,15.686275%,40.784314%);fill-opacity:1;" d="M 267.226562 190 L 257.265625 182.917969 L 247.289062 189.992188 L 251.097656 178.542969 L 241.132812 171.453125 L 253.449219 171.457031 L 257.269531 160 L 261.070312 171.453125 L 273.394531 171.464844 L 263.429688 178.539062 Z "/>
<path style=" stroke:none;fill-rule:nonzero;fill:rgb(0%,15.686275%,40.784314%);fill-opacity:1;" d="M 234.964844 105 L 225 97.917969 L 215.023438 104.992188 L 218.832031 93.542969 L 208.867188 86.453125 L 221.1875 86.457031 L 225.003906 75 L 228.808594 86.453125 L 241.132812 86.464844 L 231.164062 93.539062 Z "/>
<path style=" stroke:none;fill-rule:nonzero;fill:rgb(100%,100%,100%);fill-opacity:1;" d="M 367.457031 124.542969 L 363.460938 130.0625 L 367.476562 135.574219 L 360.988281 133.476562 L 356.984375 139 L 356.972656 132.183594 L 350.476562 130.085938 L 356.960938 127.96875 L 356.953125 121.148438 L 360.972656 126.65625 Z "/>
<path style=" stroke:none;fill-rule:nonzero;fill:rgb(100%,100%,100%);fill-opacity:1;" d="M 340.457031 106.542969 L 336.460938 112.0625 L 340.476562 117.574219 L 333.988281 115.476562 L 329.984375 121 L 329.972656 114.183594 L 323.476562 112.085938 L 329.960938 109.96875 L 329.953125 103.148438 L 333.972656 108.65625 Z "/>
<path style=" stroke:none;fill-rule:nonzero;fill:rgb(100%,100%,100%);fill-opacity:1;" d="M 313.457031 88.542969 L 309.460938 94.0625 L 313.476562 99.574219 L 306.988281 97.476562 L 302.984375 103 L 302.972656 96.183594 L 296.476562 94.085938 L 302.960938 91.96875 L 302.953125 85.148438 L 306.972656 90.65625 Z "/>
<path style=" stroke:none;fill-rule:nonzero;fill:rgb(100%,100%,100%);fill-opacity:1;" d="M 286.457031 71.542969 L 282.460938 77.0625 L 286.476562 82.574219 L 279.988281 80.476562 L 275.984375 86 L 275.972656 79.183594 L 269.476562 77.085938 L 275.960938 74.96875 L 275.953125 68.148438 L 279.972656 73.65625 Z "/>
<path style=" stroke:none;fill-rule:nonzero;fill:rgb(100%,100%,100%);fill-opacity:1;" d="M 259.457031 53.542969 L 255.460938 59.0625 L 259.476562 64.574219 L 252.988281 62.476562 L 248.984375 68 L 248.972656 61.183594 L 242.476562 59.085938 L 248.960938 56.96875 L 248.953125 50.148438 L 252.972656 55.65625 Z "/>
<path style=" stroke:none;fill-rule:nonzero;fill:rgb(100%,100%,100%);fill-opacity:1;" d="M 95.980469 161.542969 L 91.980469 167.0625 L 96 172.574219 L 89.507812 170.476562 L 85.503906 176 L 85.492188 169.183594 L 79 167.085938 L 85.484375 164.96875 L 85.472656 158.148438 L 89.492188 163.65625 Z "/>
<path style=" stroke:none;fill-rule:nonzero;fill:rgb(100%,100%,100%);fill-opacity:1;" d="M 119.980469 177.542969 L 115.980469 183.0625 L 120 188.574219 L 113.507812 186.476562 L 109.503906 192 L 109.492188 185.183594 L 103 183.085938 L 109.484375 180.96875 L 109.472656 174.148438 L 113.492188 179.65625 Z "/>
<path style=" stroke:none;fill-rule:nonzero;fill:rgb(100%,100%,100%);fill-opacity:1;" d="M 143.980469 193.542969 L 139.980469 199.0625 L 144 204.574219 L 137.507812 202.476562 L 133.503906 208 L 133.492188 201.183594 L 127 199.085938 L 133.484375 196.96875 L 133.472656 190.148438 L 137.492188 195.65625 Z "/>
<path style=" stroke:none;fill-rule:nonzero;fill:rgb(100%,100%,100%);fill-opacity:1;" d="M 167.980469 210.542969 L 163.980469 216.0625 L 168 221.574219 L 161.507812 219.476562 L 157.503906 225 L 157.492188 218.183594 L 151 216.085938 L 157.484375 213.96875 L 157.472656 207.148438 L 161.492188 212.65625 Z "/>
<path style=" stroke:none;fill-rule:nonzero;fill:rgb(100%,100%,100%);fill-opacity:1;" d="M 191.980469 226.542969 L 187.980469 232.0625 L 192 237.574219 L 185.507812 235.476562 L 181.503906 241 L 181.492188 234.183594 L 175 232.085938 L 181.484375 229.96875 L 181.472656 223.148438 L 185.492188 228.65625 Z "/>
<path style=" stroke:none;fill-rule:nonzero;fill:rgb(100%,100%,100%);fill-opacity:1;" d="M 71.980469 144.464844 L 67.980469 149.988281 L 72 155.496094 L 65.507812 153.402344 L 61.503906 158.925781 L 61.492188 152.109375 L 55 150.011719 L 61.484375 147.894531 L 61.472656 141.074219 L 65.492188 146.582031 Z "/>
<path style=" stroke:none;fill-rule:nonzero;fill:rgb(100%,100%,100%);fill-opacity:1;" d="M 82.019531 124.542969 L 86.019531 130.0625 L 82 135.574219 L 88.492188 133.476562 L 92.496094 139 L 92.507812 132.183594 L 99 130.085938 L 92.515625 127.96875 L 92.527344 121.148438 L 88.507812 126.65625 Z "/>
<path style=" stroke:none;fill-rule:nonzero;fill:rgb(100%,100%,100%);fill-opacity:1;" d="M 109.019531 106.542969 L 113.019531 112.0625 L 109 117.574219 L 115.492188 115.476562 L 119.496094 121 L 119.507812 114.183594 L 126 112.085938 L 119.515625 109.96875 L 119.527344 103.148438 L 115.507812 108.65625 Z "/>
<path style=" stroke:none;fill-rule:nonzero;fill:rgb(100%,100%,100%);fill-opacity:1;" d="M 136.019531 88.542969 L 140.019531 94.0625 L 136 99.574219 L 142.492188 97.476562 L 146.496094 103 L 146.507812 96.183594 L 153 94.085938 L 146.515625 91.96875 L 146.527344 85.148438 L 142.507812 90.65625 Z "/>
<path style=" stroke:none;fill-rule:nonzero;fill:rgb(100%,100%,100%);fill-opacity:1;" d="M 163.019531 71.542969 L 167.019531 77.0625 L 163 82.574219 L 169.492188 80.476562 L 173.496094 86 L 173.507812 79.183594 L 180 77.085938 L 173.515625 74.96875 L 173.527344 68.148438 L 169.507812 73.65625 Z "/>
<path style=" stroke:none;fill-rule:nonzero;fill:rgb(100%,100%,100%);fill-opacity:1;" d="M 190.019531 53.542969 L 194.019531 59.0625 L 190 64.574219 L 196.492188 62.476562 L 200.496094 68 L 200.507812 61.183594 L 207 59.085938 L 200.515625 56.96875 L 200.527344 50.148438 L 196.507812 55.65625 Z "/>
<path style=" stroke:none;fill-rule:nonzero;fill:rgb(100%,100%,100%);fill-opacity:1;" d="M 377.019531 144.464844 L 381.019531 149.988281 L 377 155.496094 L 383.492188 153.402344 L 387.496094 158.925781 L 387.507812 152.109375 L 394 150.011719 L 387.515625 147.894531 L 387.527344 141.074219 L 383.507812 146.582031 Z "/>
<path style=" stroke:none;fill-rule:nonzero;fill:rgb(100%,100%,100%);fill-opacity:1;" d="M 353.019531 161.542969 L 357.019531 167.0625 L 353 172.574219 L 359.492188 170.476562 L 363.496094 176 L 363.507812 169.183594 L 370 167.085938 L 363.515625 164.96875 L 363.527344 158.148438 L 359.507812 163.65625 Z "/>
<path style=" stroke:none;fill-rule:nonzero;fill:rgb(100%,100%,100%);fill-opacity:1;" d="M 329.019531 177.542969 L 333.019531 183.0625 L 329 188.574219 L 335.492188 186.476562 L 339.496094 192 L 339.507812 185.183594 L 346 183.085938 L 339.515625 180.96875 L 339.527344 174.148438 L 335.507812 179.65625 Z "/>
<path style=" stroke:none;fill-rule:nonzero;fill:rgb(100%,100%,100%);fill-opacity:1;" d="M 305.019531 193.542969 L 309.019531 199.0625 L 305 204.574219 L 311.492188 202.476562 L 315.496094 208 L 315.507812 201.183594 L 322 199.085938 L 315.515625 196.96875 L 315.527344 190.148438 L 311.507812 195.65625 Z "/>
<path style=" stroke:none;fill-rule:nonzero;fill:rgb(100%,100%,100%);fill-opacity:1;" d="M 281.019531 210.542969 L 285.019531 216.0625 L 281 221.574219 L 287.492188 219.476562 L 291.496094 225 L 291.507812 218.183594 L 298 216.085938 L 291.515625 213.96875 L 291.527344 207.148438 L 287.507812 212.65625 Z "/>
<path style=" stroke:none;fill-rule:nonzero;fill:rgb(100%,100%,100%);fill-opacity:1;" d="M 257.019531 226.542969 L 261.019531 232.0625 L 257 237.574219 L 263.492188 235.476562 L 267.496094 241 L 267.507812 234.183594 L 274 232.085938 L 267.515625 229.96875 L 267.527344 223.148438 L 263.507812 228.65625 Z "/>
</g>
</svg>
