<?xml version="1.0" encoding="UTF-8"?>
<!-- Created by grConvert v0.1-0 -->
<svg xmlns="http://www.w3.org/2000/svg" xmlns:xlink="http://www.w3.org/1999/xlink" width="900pt" height="600pt" viewBox="0 0 900 600" version="1.1">
<defs>
<clipPath id="clip1">
  <path d="M 28 0 L 359 0 L 359 341 L 28 341 Z "/>
</clipPath>
<clipPath id="clip2">
  <path d="M -133.648438 430.351562 C 38.664062 430.351562 178.351562 290.664062 178.351562 118.351562 C 178.351562 -53.960938 38.664062 -193.648438 -133.648438 -193.648438 L 520.351562 -193.648438 C 348.039062 -193.648438 208.351562 -53.960938 208.351562 118.351562 C 208.351562 290.664062 348.039062 430.351562 520.351562 430.351562 Z "/>
</clipPath>
<clipPath id="clip3">
  <path d="M 0 0 L 416 0 L 416 284 L 0 284 Z "/>
</clipPath>
<clipPath id="clip4">
  <path d="M -118.648438 -208.648438 C -118.648438 -36.335938 21.039062 103.351562 193.351562 103.351562 C 365.664062 103.351562 505.351562 -36.335938 505.351562 -208.648438 L 505.351562 445.351562 C 505.351562 273.039062 365.664062 133.351562 193.351562 133.351562 C 21.039062 133.351562 -118.648438 273.039062 -118.648438 445.351562 Z "/>
</clipPath>
<clipPath id="clip5">
  <path d="M 541 259 L 872 259 L 872 600 L 541 600 Z "/>
</clipPath>
<clipPath id="clip6">
  <path d="M 379.648438 793.648438 C 551.960938 793.648438 691.648438 653.960938 691.648438 481.648438 C 691.648438 309.335938 551.960938 169.648438 379.648438 169.648438 L 1033.648438 169.648438 C 861.335938 169.648438 721.648438 309.335938 721.648438 481.648438 C 721.648438 653.960938 861.335938 793.648438 1033.648438 793.648438 Z "/>
</clipPath>
<clipPath id="clip7">
  <path d="M 484 316 L 900 316 L 900 600 L 484 600 Z "/>
</clipPath>
<clipPath id="clip8">
  <path d="M 394.648438 154.648438 C 394.648438 326.960938 534.335938 466.648438 706.648438 466.648438 C 878.960938 466.648438 1018.648438 326.960938 1018.648438 154.648438 L 1018.648438 808.648438 C 1018.648438 636.335938 878.960938 496.648438 706.648438 496.648438 C 534.335938 496.648438 394.648438 636.335938 394.648438 808.648438 Z "/>
</clipPath>
<clipPath id="clip9">
  <path d="M 541 0 L 872 0 L 872 341 L 541 341 Z "/>
</clipPath>
<clipPath id="clip10">
  <path d="M 379.648438 430.351562 C 551.960938 430.351562 691.648438 290.664062 691.648438 118.351562 C 691.648438 -53.960938 551.960938 -193.648438 379.648438 -193.648438 L 1033.648438 -193.648438 C 861.335938 -193.648438 721.648438 -53.960938 721.648438 118.351562 C 721.648438 290.664062 861.335938 430.351562 1033.648438 430.351562 Z "/>
</clipPath>
<clipPath id="clip11">
  <path d="M 484 0 L 900 0 L 900 284 L 484 284 Z "/>
</clipPath>
<clipPath id="clip12">
  <path d="M 394.648438 -208.648438 C 394.648438 -36.335938 534.335938 103.351562 706.648438 103.351562 C 878.960938 103.351562 1018.648438 -36.335938 1018.648438 -208.648438 L 1018.648438 445.351562 C 1018.648438 273.039062 878.960938 133.351562 706.648438 133.351562 C 534.335938 133.351562 394.648438 273.039062 394.648438 445.351562 Z "/>
</clipPath>
<clipPath id="clip13">
  <path d="M 28 259 L 359 259 L 359 600 L 28 600 Z "/>
</clipPath>
<clipPath id="clip14">
  <path d="M -133.648438 793.648438 C 38.664062 793.648438 178.351562 653.960938 178.351562 481.648438 C 178.351562 309.335938 38.664062 169.648438 -133.648438 169.648438 L 520.351562 169.648438 C 348.039062 169.648438 208.351562 309.335938 208.351562 481.648438 C 208.351562 653.960938 348.039062 793.648438 520.351562 793.648438 Z "/>
</clipPath>
<clipPath id="clip15">
  <path d="M 0 316 L 416 316 L 416 600 L 0 600 Z "/>
</clipPath>
<clipPath id="clip16">
  <path d="M -118.648438 154.648438 C -118.648438 326.960938 21.039062 466.648438 193.351562 466.648438 C 365.664062 466.648438 505.351562 326.960938 505.351562 154.648438 L 505.351562 808.648438 C 505.351562 636.335938 365.664062 496.648438 193.351562 496.648438 C 21.039062 496.648438 -118.648438 636.335938 -118.648438 808.648438 Z "/>
</clipPath>
</defs>
<g id="surface1">
<rect x="0" y="0" width="900" height="600" style="fill:rgb(100%,100%,100%);fill-opacity:1;stroke:none;"/>
<path style=" stroke:none;fill-rule:nonzero;fill:rgb(100%,0%,0%);fill-opacity:1;" d="M 390 0 L 390 240 L 0 240 L 0 360 L 390 360 L 390 600 L 510 600 L 510 360 L 900 360 L 900 240 L 510 240 L 510 0 Z "/>
<g clip-path="url(#clip1)" clip-rule="nonzero">
<g clip-path="url(#clip2)" clip-rule="nonzero">
<path style=" stroke:none;fill-rule:nonzero;fill:rgb(100%,0%,0%);fill-opacity:1;" d="M 28.351562 340.351562 C 28.351562 249.222656 102.222656 175.351562 193.351562 175.351562 C 284.476562 175.351562 358.351562 249.222656 358.351562 340.351562 L 358.351562 -103.648438 C 358.351562 -12.523438 284.476562 61.351562 193.351562 61.351562 C 102.222656 61.351562 28.351562 -12.523438 28.351562 -103.648438 Z "/>
</g>
</g>
<g clip-path="url(#clip3)" clip-rule="nonzero">
<g clip-path="url(#clip4)" clip-rule="nonzero">
<path style=" stroke:none;fill-rule:nonzero;fill:rgb(100%,0%,0%);fill-opacity:1;" d="M -28.648438 -46.648438 C 62.476562 -46.648438 136.351562 27.222656 136.351562 118.351562 C 136.351562 209.476562 62.476562 283.351562 -28.648438 283.351562 L 415.351562 283.351562 C 324.222656 283.351562 250.351562 209.476562 250.351562 118.351562 C 250.351562 27.222656 324.222656 -46.648438 415.351562 -46.648438 Z "/>
</g>
</g>
<g clip-path="url(#clip5)" clip-rule="nonzero">
<g clip-path="url(#clip6)" clip-rule="nonzero">
<path style=" stroke:none;fill-rule:nonzero;fill:rgb(100%,0%,0%);fill-opacity:1;" d="M 541.648438 703.648438 C 541.648438 612.523438 615.523438 538.648438 706.648438 538.648438 C 797.777344 538.648438 871.648438 612.523438 871.648438 703.648438 L 871.648438 259.648438 C 871.648438 350.777344 797.777344 424.648438 706.648438 424.648438 C 615.523438 424.648438 541.648438 350.777344 541.648438 259.648438 Z "/>
</g>
</g>
<g clip-path="url(#clip7)" clip-rule="nonzero">
<g clip-path="url(#clip8)" clip-rule="nonzero">
<path style=" stroke:none;fill-rule:nonzero;fill:rgb(100%,0%,0%);fill-opacity:1;" d="M 484.648438 316.648438 C 575.777344 316.648438 649.648438 390.523438 649.648438 481.648438 C 649.648438 572.777344 575.777344 646.648438 484.648438 646.648438 L 928.648438 646.648438 C 837.523438 646.648438 763.648438 572.777344 763.648438 481.648438 C 763.648438 390.523438 837.523438 316.648438 928.648438 316.648438 Z "/>
</g>
</g>
<g clip-path="url(#clip9)" clip-rule="nonzero">
<g clip-path="url(#clip10)" clip-rule="nonzero">
<path style=" stroke:none;fill-rule:nonzero;fill:rgb(100%,0%,0%);fill-opacity:1;" d="M 541.648438 340.351562 C 541.648438 249.222656 615.523438 175.351562 706.648438 175.351562 C 797.777344 175.351562 871.648438 249.222656 871.648438 340.351562 L 871.648438 -103.648438 C 871.648438 -12.523438 797.777344 61.351562 706.648438 61.351562 C 615.523438 61.351562 541.648438 -12.523438 541.648438 -103.648438 Z "/>
</g>
</g>
<g clip-path="url(#clip11)" clip-rule="nonzero">
<g clip-path="url(#clip12)" clip-rule="nonzero">
<path style=" stroke:none;fill-rule:nonzero;fill:rgb(100%,0%,0%);fill-opacity:1;" d="M 484.648438 -46.648438 C 575.777344 -46.648438 649.648438 27.222656 649.648438 118.351562 C 649.648438 209.476562 575.777344 283.351562 484.648438 283.351562 L 928.648438 283.351562 C 837.523438 283.351562 763.648438 209.476562 763.648438 118.351562 C 763.648438 27.222656 837.523438 -46.648438 928.648438 -46.648438 Z "/>
</g>
</g>
<g clip-path="url(#clip13)" clip-rule="nonzero">
<g clip-path="url(#clip14)" clip-rule="nonzero">
<path style=" stroke:none;fill-rule:nonzero;fill:rgb(100%,0%,0%);fill-opacity:1;" d="M 28.351562 703.648438 C 28.351562 612.523438 102.222656 538.648438 193.351562 538.648438 C 284.476562 538.648438 358.351562 612.523438 358.351562 703.648438 L 358.351562 259.648438 C 358.351562 350.777344 284.476562 424.648438 193.351562 424.648438 C 102.222656 424.648438 28.351562 350.777344 28.351562 259.648438 Z "/>
</g>
</g>
<g clip-path="url(#clip15)" clip-rule="nonzero">
<g clip-path="url(#clip16)" clip-rule="nonzero">
<path style=" stroke:none;fill-rule:nonzero;fill:rgb(100%,0%,0%);fill-opacity:1;" d="M -28.648438 316.648438 C 62.476562 316.648438 136.351562 390.523438 136.351562 481.648438 C 136.351562 572.777344 62.476562 646.648438 -28.648438 646.648438 L 415.351562 646.648438 C 324.222656 646.648438 250.351562 572.777344 250.351562 481.648438 C 250.351562 390.523438 324.222656 316.648438 415.351562 316.648438 Z "/>
</g>
</g>
</g>
</svg>
