<?xml version="1.0" encoding="UTF-8"?>
<!-- Created by grConvert v0.1-0 -->
<svg xmlns="http://www.w3.org/2000/svg" xmlns:xlink="http://www.w3.org/1999/xlink" width="744pt" height="496pt" viewBox="0 0 744 496" version="1.1">
<g id="surface1">
<rect x="0" y="0" width="744" height="496" style="fill:rgb(0%,5.882353%,36.470588%);fill-opacity:1;stroke:none;"/>
<path style=" stroke:none;fill-rule:nonzero;fill:rgb(100%,90.588235%,0%);fill-opacity:1;" d="M 387.4375 221.9375 C 392.121094 217.851562 392.578125 193.296875 389.664062 184.242188 C 386.9375 179.976562 383.667969 177.011719 383.582031 173.347656 C 383.046875 167.75 390.40625 159.59375 391.761719 158.058594 C 396.652344 152.917969 372.308594 163.359375 366.390625 171.097656 C 364.28125 173.101562 362.5 172.222656 364.699219 170.546875 C 363.566406 167.121094 354.324219 177.25 354.113281 188.667969 C 354.078125 197.191406 357.605469 215.175781 364.125 222.007812 "/>
<path style=" stroke:none;fill-rule:nonzero;fill:rgb(100%,90.588235%,0%);fill-opacity:1;" d="M 344.183594 175.863281 C 340.957031 186.09375 330.988281 212.484375 342.621094 220.355469 C 346.902344 223.257812 355.722656 222.003906 360.699219 222.003906 C 353.371094 208.703125 346.703125 192.042969 344.183594 175.863281 Z "/>
<path style=" stroke:none;fill-rule:nonzero;fill:rgb(100%,90.588235%,0%);fill-opacity:1;" d="M 338.015625 225.050781 L 338.015625 232.28125 L 407.078125 232.28125 L 407.078125 225.050781 Z "/>
<path style=" stroke:none;fill-rule:nonzero;fill:rgb(100%,90.588235%,0%);fill-opacity:1;" d="M 345.519531 237.589844 C 350.675781 245.347656 361.320312 272.816406 359.460938 281.582031 L 386.234375 281.628906 C 383.546875 272.96875 393.964844 245.128906 398.246094 237.910156 Z "/>
<path style=" stroke:none;fill-rule:nonzero;fill:rgb(100%,90.588235%,0%);fill-opacity:1;" d="M 356.03125 284.195312 L 356.03125 290.796875 L 389.0625 290.796875 L 389.0625 284.195312 Z "/>
<path style=" stroke:none;fill-rule:nonzero;fill:rgb(100%,90.588235%,0%);fill-opacity:1;" d="M 360.535156 293.042969 L 366.539062 366.824219 L 350.023438 366.824219 L 350.023438 368.269531 L 363.539062 375.503906 L 357.53125 392.863281 L 363.539062 389.96875 C 363.953125 409.328125 362.988281 432.6875 371.042969 450.730469 L 374.046875 450.730469 C 382.847656 433.117188 378.550781 407.628906 378.550781 388.523438 L 386.058594 392.863281 L 380.054688 375.503906 L 393.566406 368.269531 L 393.566406 366.824219 L 377.050781 363.929688 L 380.441406 348.015625 L 384.558594 293.042969 Z "/>
<path style=" stroke:none;fill-rule:evenodd;fill:rgb(100%,90.588235%,0%);fill-opacity:1;" d="M 195.433594 348.527344 L 180.65625 337.570312 L 165.75 348.34375 L 171.515625 330.785156 L 156.75 319.816406 L 175.089844 319.921875 L 180.871094 302.367188 L 186.4375 319.992188 L 204.78125 320.113281 L 189.878906 330.898438 Z "/>
<path style=" stroke:none;fill-rule:evenodd;fill:rgb(100%,90.588235%,0%);fill-opacity:1;" d="M 250.902344 418.503906 L 236.125 407.546875 L 221.21875 418.320312 L 226.984375 400.761719 L 212.21875 389.792969 L 230.558594 389.898438 L 236.339844 372.34375 L 241.90625 389.96875 L 260.25 390.089844 L 245.347656 400.875 Z "/>
<path style=" stroke:none;fill-rule:evenodd;fill:rgb(100%,90.588235%,0%);fill-opacity:1;" d="M 520.242188 418.503906 L 505.46875 407.546875 L 490.558594 418.320312 L 496.324219 400.761719 L 481.558594 389.792969 L 499.898438 389.898438 L 505.679688 372.34375 L 511.25 389.96875 L 529.589844 390.089844 L 514.691406 400.875 Z "/>
<path style=" stroke:none;fill-rule:evenodd;fill:rgb(100%,90.588235%,0%);fill-opacity:1;" d="M 332.105469 468.644531 L 317.328125 457.6875 L 302.421875 468.464844 L 308.1875 450.902344 L 293.421875 439.933594 L 311.761719 440.039062 L 317.542969 422.484375 L 323.109375 440.109375 L 341.453125 440.230469 L 326.550781 451.015625 Z "/>
<path style=" stroke:none;fill-rule:evenodd;fill:rgb(100%,90.588235%,0%);fill-opacity:1;" d="M 436.183594 468.644531 L 421.40625 457.6875 L 406.496094 468.464844 L 412.265625 450.902344 L 397.496094 439.933594 L 415.835938 440.039062 L 421.617188 422.484375 L 427.1875 440.109375 L 445.527344 440.230469 L 430.628906 451.015625 Z "/>
<path style=" stroke:none;fill-rule:evenodd;fill:rgb(100%,90.588235%,0%);fill-opacity:1;" d="M 473.5 358.996094 L 458.722656 348.039062 L 443.816406 358.8125 L 449.582031 341.253906 L 434.816406 330.285156 L 453.15625 330.390625 L 458.9375 312.835938 L 464.503906 330.460938 L 482.847656 330.582031 L 467.945312 341.367188 Z "/>
<path style=" stroke:none;fill-rule:evenodd;fill:rgb(100%,90.588235%,0%);fill-opacity:1;" d="M 298.789062 358.445312 L 284.011719 347.488281 L 269.105469 358.261719 L 274.871094 340.703125 L 260.105469 329.734375 L 278.445312 329.839844 L 284.226562 312.285156 L 289.792969 329.910156 L 308.136719 330.03125 L 293.234375 340.816406 Z "/>
<path style=" stroke:none;fill-rule:evenodd;fill:rgb(0%,5.882353%,36.470588%);fill-opacity:1;" d="M 395.972656 406.308594 L 371.871094 388.433594 L 347.558594 406.007812 L 356.964844 377.371094 L 332.878906 359.476562 L 362.792969 359.652344 L 372.222656 331.019531 L 381.300781 359.765625 L 411.21875 359.960938 L 386.914062 377.554688 Z "/>
<path style=" stroke:none;fill-rule:evenodd;fill:rgb(100%,90.588235%,0%);fill-opacity:1;" d="M 386.144531 392.058594 L 371.367188 381.097656 L 356.460938 391.875 L 362.226562 374.316406 L 347.460938 363.34375 L 365.800781 363.449219 L 371.582031 345.894531 L 377.148438 363.519531 L 395.492188 363.640625 L 380.589844 374.425781 Z "/>
<path style=" stroke:none;fill-rule:evenodd;fill:rgb(100%,90.588235%,0%);fill-opacity:1;" d="M 576.855469 348.527344 L 562.078125 337.570312 L 547.171875 348.34375 L 552.9375 330.785156 L 538.171875 319.816406 L 556.511719 319.921875 L 562.292969 302.367188 L 567.859375 319.992188 L 586.203125 320.113281 L 571.300781 330.898438 Z "/>
<path style=" stroke:none;fill-rule:evenodd;fill:rgb(100%,90.588235%,0%);fill-opacity:1;" d="M 591.722656 251 L 576.949219 240.042969 L 562.039062 250.816406 L 567.808594 233.257812 L 553.039062 222.289062 L 571.378906 222.394531 L 577.160156 204.839844 L 582.730469 222.464844 L 601.070312 222.585938 L 586.171875 233.371094 Z "/>
<path style=" stroke:none;fill-rule:evenodd;fill:rgb(100%,90.588235%,0%);fill-opacity:1;" d="M 515.097656 274.835938 L 500.320312 263.878906 L 485.410156 274.652344 L 491.179688 257.09375 L 476.410156 246.125 L 494.753906 246.230469 L 500.535156 228.675781 L 506.101562 246.300781 L 524.441406 246.421875 L 509.542969 257.207031 Z "/>
<path style=" stroke:none;fill-rule:evenodd;fill:rgb(100%,90.588235%,0%);fill-opacity:1;" d="M 555.125 163.941406 L 540.351562 152.984375 L 525.441406 163.757812 L 531.207031 146.199219 L 516.441406 135.230469 L 534.78125 135.335938 L 540.5625 117.78125 L 546.132812 135.40625 L 564.472656 135.527344 L 549.574219 146.3125 Z "/>
<path style=" stroke:none;fill-rule:evenodd;fill:rgb(100%,90.588235%,0%);fill-opacity:1;" d="M 483.074219 103.332031 L 468.296875 92.375 L 453.386719 103.148438 L 459.15625 85.589844 L 444.386719 74.621094 L 462.730469 74.726562 L 468.511719 57.171875 L 474.078125 74.796875 L 492.417969 74.917969 L 477.519531 85.703125 Z "/>
<path style=" stroke:none;fill-rule:evenodd;fill:rgb(100%,90.588235%,0%);fill-opacity:1;" d="M 384.714844 73.578125 L 369.9375 62.621094 L 355.03125 73.394531 L 360.796875 55.835938 L 346.03125 44.867188 L 364.371094 44.972656 L 370.152344 27.417969 L 375.71875 45.042969 L 394.0625 45.164062 L 379.160156 55.949219 Z "/>
<path style=" stroke:none;fill-rule:evenodd;fill:rgb(100%,90.588235%,0%);fill-opacity:1;" d="M 288.644531 103.332031 L 273.867188 92.375 L 258.960938 103.148438 L 264.726562 85.589844 L 249.960938 74.621094 L 268.300781 74.726562 L 274.082031 57.171875 L 279.648438 74.796875 L 297.992188 74.917969 L 283.089844 85.703125 Z "/>
<path style=" stroke:none;fill-rule:evenodd;fill:rgb(100%,90.588235%,0%);fill-opacity:1;" d="M 221.738281 163.941406 L 206.960938 152.984375 L 192.054688 163.757812 L 197.820312 146.199219 L 183.054688 135.230469 L 201.394531 135.335938 L 207.175781 117.78125 L 212.742188 135.40625 L 231.085938 135.527344 L 216.183594 146.3125 Z "/>
<path style=" stroke:none;fill-rule:evenodd;fill:rgb(100%,90.588235%,0%);fill-opacity:1;" d="M 262.339844 275.9375 L 247.5625 264.980469 L 232.65625 275.753906 L 238.421875 258.195312 L 223.65625 247.226562 L 241.996094 247.332031 L 247.777344 229.777344 L 253.34375 247.402344 L 271.6875 247.523438 L 256.785156 258.308594 Z "/>
<path style=" stroke:none;fill-rule:evenodd;fill:rgb(100%,90.588235%,0%);fill-opacity:1;" d="M 181.710938 251 L 166.933594 240.042969 L 152.023438 250.816406 L 157.792969 233.257812 L 143.023438 222.289062 L 161.367188 222.394531 L 167.148438 204.839844 L 172.714844 222.464844 L 191.054688 222.585938 L 176.15625 233.371094 Z "/>
<path style=" stroke:none;fill-rule:evenodd;fill:rgb(100%,90.588235%,0%);fill-opacity:1;" d="M 388.832031 151.601562 L 370.007812 137.644531 L 351.015625 151.371094 L 358.363281 129.003906 L 339.550781 115.027344 L 362.914062 115.164062 L 370.28125 92.800781 L 377.371094 115.253906 L 400.734375 115.40625 L 381.753906 129.144531 Z "/>
<path style=" stroke:none;fill-rule:nonzero;fill:rgb(100%,90.588235%,0%);fill-opacity:1;" d="M 403.527344 221.941406 C 407.382812 219.453125 409.8125 210.054688 410.605469 190.976562 L 407.757812 192.582031 L 406.261719 192.445312 L 398.628906 174.40625 C 391.101562 181.003906 397.953125 214.105469 390.761719 221.9375 "/>
<path style=" stroke:none;fill-rule:evenodd;fill:rgb(100%,90.588235%,0%);fill-opacity:1;" d="M 371.757812 160.765625 L 368.835938 160.773438 L 369.105469 143.113281 L 372.027344 143.109375 Z "/>
<path style=" stroke:none;fill-rule:evenodd;fill:rgb(100%,90.588235%,0%);fill-opacity:1;" d="M 422.6875 184.359375 L 422.019531 179.433594 L 516.359375 147.933594 L 517.027344 152.859375 Z "/>
<path style=" stroke:none;fill-rule:evenodd;fill:rgb(100%,90.588235%,0%);fill-opacity:1;" d="M 341.433594 161.804688 L 338.84375 164.621094 L 291.058594 105.917969 L 293.648438 103.101562 Z "/>
<path style=" stroke:none;fill-rule:evenodd;fill:rgb(100%,90.588235%,0%);fill-opacity:1;" d="M 325.511719 184.015625 L 320.5625 185.71875 L 229.347656 150.199219 L 234.292969 148.496094 Z "/>
<path style=" stroke:none;fill-rule:evenodd;fill:rgb(100%,90.588235%,0%);fill-opacity:1;" d="M 547.992188 222.164062 L 545.929688 225.566406 L 418.917969 210.511719 L 420.980469 207.109375 Z "/>
<path style=" stroke:none;fill-rule:evenodd;fill:rgb(100%,90.588235%,0%);fill-opacity:1;" d="M 198.597656 226.164062 L 199.691406 222.480469 L 328.390625 205.871094 L 327.300781 209.554688 Z "/>
<path style=" stroke:none;fill-rule:evenodd;fill:rgb(100%,90.588235%,0%);fill-opacity:1;" d="M 406.984375 171.550781 L 404.992188 168.308594 L 448.214844 106.933594 L 450.207031 110.175781 Z "/>
<path style=" stroke:none;fill-rule:nonzero;fill:rgb(100%,90.588235%,0%);fill-opacity:1;" d="M 334.214844 114.085938 L 318.855469 106.207031 L 319.921875 104.121094 L 335.285156 112 L 334.214844 114.085938 M 336.832031 108.410156 L 324.421875 96.414062 L 326.203125 94.570312 L 340.824219 97.488281 C 341.144531 97.546875 341.4375 97.617188 341.707031 97.6875 C 341.972656 97.761719 342.207031 97.84375 342.414062 97.933594 L 332.355469 88.207031 L 333.910156 86.597656 L 346.320312 98.597656 L 344.554688 100.425781 L 329.683594 97.511719 C 329.457031 97.464844 329.230469 97.40625 329.003906 97.339844 C 328.78125 97.265625 328.550781 97.179688 328.320312 97.085938 L 338.378906 106.8125 L 336.832031 108.410156 M 349.933594 79.949219 L 346.175781 81.414062 L 350.957031 93.675781 L 354.714844 92.210938 C 356.324219 91.582031 357.335938 90.589844 357.753906 89.226562 C 358.164062 87.859375 357.972656 86.152344 357.175781 84.105469 C 356.414062 82.148438 355.410156 80.8125 354.167969 80.097656 C 352.925781 79.382812 351.511719 79.332031 349.933594 79.949219 M 349.539062 96.492188 L 343.269531 80.410156 L 349.394531 78.019531 C 351.636719 77.148438 353.613281 77.148438 355.320312 78.023438 C 357.035156 78.898438 358.386719 80.597656 359.371094 83.125 C 360.390625 85.738281 360.566406 88.011719 359.894531 89.953125 C 359.230469 91.878906 357.792969 93.273438 355.578125 94.136719 L 349.539062 96.492188 M 365.773438 91.601562 L 364.410156 74.390625 L 366.746094 74.207031 L 368.109375 91.414062 L 365.773438 91.601562 M 376.332031 84.535156 L 381.617188 85.546875 L 380.425781 77.5625 L 376.332031 84.535156 M 370.078125 90.636719 L 379.628906 74.894531 L 382.171875 75.378906 L 385.238281 93.546875 L 382.738281 93.066406 L 381.914062 87.65625 L 375.242188 86.378906 L 372.460938 91.09375 L 370.078125 90.636719 M 386.953125 94.464844 L 396.710938 80.226562 L 398.828125 81.675781 L 398.390625 96.578125 C 398.382812 96.90625 398.367188 97.207031 398.339844 97.480469 C 398.3125 97.753906 398.269531 98 398.214844 98.21875 L 406.125 86.675781 L 407.972656 87.941406 L 398.214844 102.183594 L 396.117188 100.746094 L 396.507812 85.597656 C 396.515625 85.367188 396.53125 85.132812 396.5625 84.898438 C 396.597656 84.667969 396.644531 84.425781 396.699219 84.179688 L 388.789062 95.722656 L 386.953125 94.464844 M 408.414062 103.859375 L 411.277344 108.410156 L 416.300781 102.089844 L 408.414062 103.859375 M 399.683594 103.453125 L 417.707031 99.683594 L 419.085938 101.875 L 407.90625 116.515625 L 406.550781 114.363281 L 409.941406 110.070312 L 406.320312 104.316406 L 400.976562 105.507812 L 399.683594 103.453125 "/>
</g>
</svg>
