<?xml version="1.0" encoding="UTF-8"?>
<!-- Created by grConvert v0.1-0 -->
<svg xmlns="http://www.w3.org/2000/svg" xmlns:xlink="http://www.w3.org/1999/xlink" width="750pt" height="500pt" viewBox="0 0 750 500" version="1.1">
<g id="surface1">
<path style=" stroke:none;fill-rule:nonzero;fill:rgb(0%,0%,0%);fill-opacity:1;" d="M 0 0 L 375 0 L 375 250 L 0 250 Z "/>
<path style=" stroke:none;fill-rule:nonzero;fill:rgb(91.764706%,67.058824%,0%);fill-opacity:1;" d="M 0 250 L 0 41.667969 L 62.5 83.332031 L 62.5 250 L 125 250 L 125 0 L 187.5 0 L 187.5 250 L 250 250 L 250 0 L 312.5 0 L 312.5 250 L 375 250 L 375 208.332031 L 62.5 0 L 62.5 83.332031 L 312.5 250 Z "/>
<path style=" stroke:none;fill-rule:nonzero;fill:rgb(100%,100%,100%);fill-opacity:1;" d="M 375 0 L 750 0 L 750 250 L 375 250 Z "/>
<path style=" stroke:none;fill-rule:nonzero;fill:rgb(59.607843%,11.764706%,19.607843%);fill-opacity:1;" d="M 562.5 0 L 750 0 L 750 125 L 375 125 L 375 250 L 562.5 250 Z "/>
<path style=" stroke:none;fill-rule:nonzero;fill:rgb(59.607843%,11.764706%,19.607843%);fill-opacity:1;" d="M 562.5 232.5 C 571.335938 232.5 578.5 225.335938 578.5 216.5 L 578.5 208.5 L 594 208.5 C 602.835938 208.5 610 201.335938 610 192.5 C 610 183.664062 602.835938 176.5 594 176.5 L 578.5 176.5 L 578.5 141 L 678 141 L 678 156.5 C 678 165.335938 685.164062 172.5 694 172.5 C 702.835938 172.5 710 165.335938 710 156.5 L 710 141 L 724 141 C 732.835938 141 740 133.835938 740 125 L 562.5 125 Z "/>
<path style=" stroke:none;fill-rule:nonzero;fill:rgb(100%,100%,100%);fill-opacity:1;" d="M 562.5 232.5 C 553.664062 232.5 546.5 225.335938 546.5 216.5 L 546.5 208.5 L 531 208.5 C 522.164062 208.5 515 201.335938 515 192.5 C 515 183.664062 522.164062 176.5 531 176.5 L 546.5 176.5 L 546.5 141 L 447 141 L 447 156.5 C 447 165.335938 439.835938 172.5 431 172.5 C 422.164062 172.5 415 165.335938 415 156.5 L 415 141 L 401 141 C 392.164062 141 385 133.835938 385 125 L 562.5 125 Z "/>
<path style=" stroke:none;fill-rule:nonzero;fill:rgb(100%,100%,100%);fill-opacity:1;" d="M 562.5 17.5 C 571.335938 17.5 578.5 24.664062 578.5 33.5 L 578.5 41.5 L 594 41.5 C 602.835938 41.5 610 48.664062 610 57.5 C 610 66.335938 602.835938 73.5 594 73.5 L 578.5 73.5 L 578.5 109 L 678 109 L 678 93.5 C 678 84.664062 685.164062 77.5 694 77.5 C 702.835938 77.5 710 84.664062 710 93.5 L 710 109 L 724 109 C 732.835938 109 740 116.164062 740 125 L 562.5 125 Z "/>
<path style=" stroke:none;fill-rule:nonzero;fill:rgb(59.607843%,11.764706%,19.607843%);fill-opacity:1;" d="M 562.5 17.5 C 553.664062 17.5 546.5 24.664062 546.5 33.5 L 546.5 41.5 L 531 41.5 C 522.164062 41.5 515 48.664062 515 57.5 C 515 66.335938 522.164062 73.5 531 73.5 L 546.5 73.5 L 546.5 109 L 447 109 L 447 93.5 C 447 84.664062 439.835938 77.5 431 77.5 C 422.164062 77.5 415 84.664062 415 93.5 L 415 109 L 401 109 C 392.164062 109 385 116.164062 385 125 L 562.5 125 Z "/>
<path style=" stroke:none;fill-rule:nonzero;fill:rgb(100%,100%,100%);fill-opacity:1;" d="M 0 250 L 375 250 L 375 500 L 0 500 Z "/>
<path style=" stroke:none;fill-rule:nonzero;fill:rgb(59.607843%,11.764706%,19.607843%);fill-opacity:1;" d="M 187.5 250 L 375 250 L 375 375 L 0 375 L 0 500 L 187.5 500 Z "/>
<path style=" stroke:none;fill-rule:nonzero;fill:rgb(59.607843%,11.764706%,19.607843%);fill-opacity:1;" d="M 187.5 482.5 C 196.335938 482.5 203.5 475.335938 203.5 466.5 L 203.5 458.5 L 219 458.5 C 227.835938 458.5 235 451.335938 235 442.5 C 235 433.664062 227.835938 426.5 219 426.5 L 203.5 426.5 L 203.5 391 L 303 391 L 303 406.5 C 303 415.335938 310.164062 422.5 319 422.5 C 327.835938 422.5 335 415.335938 335 406.5 L 335 391 L 349 391 C 357.835938 391 365 383.835938 365 375 L 187.5 375 Z "/>
<path style=" stroke:none;fill-rule:nonzero;fill:rgb(100%,100%,100%);fill-opacity:1;" d="M 187.5 482.5 C 178.664062 482.5 171.5 475.335938 171.5 466.5 L 171.5 458.5 L 156 458.5 C 147.164062 458.5 140 451.335938 140 442.5 C 140 433.664062 147.164062 426.5 156 426.5 L 171.5 426.5 L 171.5 391 L 72 391 L 72 406.5 C 72 415.335938 64.835938 422.5 56 422.5 C 47.164062 422.5 40 415.335938 40 406.5 L 40 391 L 26 391 C 17.164062 391 10 383.835938 10 375 L 187.5 375 Z "/>
<path style=" stroke:none;fill-rule:nonzero;fill:rgb(100%,100%,100%);fill-opacity:1;" d="M 187.5 267.5 C 196.335938 267.5 203.5 274.664062 203.5 283.5 L 203.5 291.5 L 219 291.5 C 227.835938 291.5 235 298.664062 235 307.5 C 235 316.335938 227.835938 323.5 219 323.5 L 203.5 323.5 L 203.5 359 L 303 359 L 303 343.5 C 303 334.664062 310.164062 327.5 319 327.5 C 327.835938 327.5 335 334.664062 335 343.5 L 335 359 L 349 359 C 357.835938 359 365 366.164062 365 375 L 187.5 375 Z "/>
<path style=" stroke:none;fill-rule:nonzero;fill:rgb(59.607843%,11.764706%,19.607843%);fill-opacity:1;" d="M 187.5 267.5 C 178.664062 267.5 171.5 274.664062 171.5 283.5 L 171.5 291.5 L 156 291.5 C 147.164062 291.5 140 298.664062 140 307.5 C 140 316.335938 147.164062 323.5 156 323.5 L 171.5 323.5 L 171.5 359 L 72 359 L 72 343.5 C 72 334.664062 64.835938 327.5 56 327.5 C 47.164062 327.5 40 334.664062 40 343.5 L 40 359 L 26 359 C 17.164062 359 10 366.164062 10 375 L 187.5 375 Z "/>
<path style=" stroke:none;fill-rule:nonzero;fill:rgb(0%,0%,0%);fill-opacity:1;" d="M 375 250 L 750 250 L 750 500 L 375 500 Z "/>
<path style=" stroke:none;fill-rule:nonzero;fill:rgb(91.764706%,67.058824%,0%);fill-opacity:1;" d="M 375 500 L 375 291.667969 L 437.5 333.332031 L 437.5 500 L 500 500 L 500 250 L 562.5 250 L 562.5 500 L 625 500 L 625 250 L 687.5 250 L 687.5 500 L 750 500 L 750 458.332031 L 437.5 250 L 437.5 333.332031 L 687.5 500 Z "/>
</g>
</svg>
