<?xml version="1.0" encoding="UTF-8"?>
<!-- Created by grConvert v0.1-0 -->
<svg xmlns="http://www.w3.org/2000/svg" xmlns:xlink="http://www.w3.org/1999/xlink" width="750pt" height="500pt" viewBox="0 0 750 500" version="1.1">
<defs>
<radialGradient id="radial0" gradientUnits="userSpaceOnUse" cx="79.311195" cy="182.97906" fx="79.311195" fy="182.97906" r="10.848755" gradientTransform="matrix(1,0.000000000000000028,0,0.948274,-0.000000000000001776,9.464744)">
<stop offset="0" style="stop-color:rgb(0.392157%,25.098039%,1.568627%);stop-opacity:1;"/>
<stop offset="1" style="stop-color:rgb(0.392157%,25.098039%,1.568627%);stop-opacity:0;"/>
</radialGradient>
<radialGradient id="radial1" gradientUnits="userSpaceOnUse" cx="86.411697" cy="158.86601" fx="86.411697" fy="158.86601" r="10.747751" gradientTransform="matrix(1,0,0,1.016389,-0.000000000000001776,-2.603596)">
<stop offset="0" style="stop-color:rgb(0.392157%,25.098039%,1.568627%);stop-opacity:1;"/>
<stop offset="1" style="stop-color:rgb(0.392157%,25.098039%,1.568627%);stop-opacity:0;"/>
</radialGradient>
<radialGradient id="radial2" gradientUnits="userSpaceOnUse" cx="63.26545" cy="165.39787" fx="63.26545" fy="165.39787" r="6.975572" gradientTransform="matrix(1,-0.000000000000000028,0,1.351548,0,-58.145304)">
<stop offset="0" style="stop-color:rgb(0.392157%,25.098039%,1.568627%);stop-opacity:1;"/>
<stop offset="1" style="stop-color:rgb(0.392157%,25.098039%,1.568627%);stop-opacity:0;"/>
</radialGradient>
<radialGradient id="radial3" gradientUnits="userSpaceOnUse" cx="62.873631" cy="141.39333" fx="62.873631" fy="141.39333" r="9.732916" gradientTransform="matrix(1,-0.000000000000000056,0,0.725878,0,38.759054)">
<stop offset="0" style="stop-color:rgb(0.392157%,25.098039%,1.568627%);stop-opacity:1;"/>
<stop offset="1" style="stop-color:rgb(0.392157%,25.098039%,1.568627%);stop-opacity:0;"/>
</radialGradient>
<radialGradient id="radial4" gradientUnits="userSpaceOnUse" cx="59.14267" cy="118.90606" fx="59.14267" fy="118.90606" r="6.907371" gradientTransform="matrix(1,-0.000000000000000028,0,1.157971,-0.000000000000001776,-18.783666)">
<stop offset="0" style="stop-color:rgb(0.392157%,25.098039%,1.568627%);stop-opacity:1;"/>
<stop offset="1" style="stop-color:rgb(0.392157%,25.098039%,1.568627%);stop-opacity:0;"/>
</radialGradient>
<radialGradient id="radial5" gradientUnits="userSpaceOnUse" cx="77.340126" cy="102.59047" fx="77.340126" fy="102.59047" r="8.255014" gradientTransform="matrix(1,-0.000000000000000028,-0.000000000000000007,0.694891,0,31.30127)">
<stop offset="0" style="stop-color:rgb(0.392157%,25.098039%,1.568627%);stop-opacity:1;"/>
<stop offset="1" style="stop-color:rgb(0.392157%,25.098039%,1.568627%);stop-opacity:0;"/>
</radialGradient>
<radialGradient id="radial6" gradientUnits="userSpaceOnUse" cx="95.646194" cy="127.45675" fx="95.646194" fy="127.45675" r="9.389383" gradientTransform="matrix(1,-0.000000000000000028,0,0.977248,0.000000000000001776,2.89989)">
<stop offset="0" style="stop-color:rgb(0.392157%,25.098039%,1.568627%);stop-opacity:1;"/>
<stop offset="1" style="stop-color:rgb(0.392157%,25.098039%,1.568627%);stop-opacity:0;"/>
</radialGradient>
<radialGradient id="radial7" gradientUnits="userSpaceOnUse" cx="79.311195" cy="182.97906" fx="79.311195" fy="182.97906" r="10.848755" gradientTransform="matrix(1,-0.000000000000000028,0,0.948274,-0.000000000000056843,9.464744)">
<stop offset="0" style="stop-color:rgb(0.392157%,25.098039%,1.568627%);stop-opacity:1;"/>
<stop offset="1" style="stop-color:rgb(0.392157%,25.098039%,1.568627%);stop-opacity:0;"/>
</radialGradient>
<radialGradient id="radial8" gradientUnits="userSpaceOnUse" cx="86.411697" cy="158.86601" fx="86.411697" fy="158.86601" r="10.747751" gradientTransform="matrix(1,0.000000000000000028,0.000000000000000014,1.016389,0.000000000000113687,-2.603596)">
<stop offset="0" style="stop-color:rgb(0.392157%,25.098039%,1.568627%);stop-opacity:1;"/>
<stop offset="1" style="stop-color:rgb(0.392157%,25.098039%,1.568627%);stop-opacity:0;"/>
</radialGradient>
<radialGradient id="radial9" gradientUnits="userSpaceOnUse" cx="63.26545" cy="165.39787" fx="63.26545" fy="165.39787" r="6.975572" gradientTransform="matrix(1,0.000000000000000028,0,1.351548,0.000000000000056843,-58.145304)">
<stop offset="0" style="stop-color:rgb(0.392157%,25.098039%,1.568627%);stop-opacity:1;"/>
<stop offset="1" style="stop-color:rgb(0.392157%,25.098039%,1.568627%);stop-opacity:0;"/>
</radialGradient>
<radialGradient id="radial10" gradientUnits="userSpaceOnUse" cx="62.873631" cy="141.39333" fx="62.873631" fy="141.39333" r="9.732916" gradientTransform="matrix(1,-0.000000000000000028,0,0.725878,0,38.759054)">
<stop offset="0" style="stop-color:rgb(0.392157%,25.098039%,1.568627%);stop-opacity:1;"/>
<stop offset="1" style="stop-color:rgb(0.392157%,25.098039%,1.568627%);stop-opacity:0;"/>
</radialGradient>
<radialGradient id="radial11" gradientUnits="userSpaceOnUse" cx="59.14267" cy="118.90606" fx="59.14267" fy="118.90606" r="6.907371" gradientTransform="matrix(1,-0.000000000000000028,-0.000000000000000014,1.157971,0,-18.783666)">
<stop offset="0" style="stop-color:rgb(0.392157%,25.098039%,1.568627%);stop-opacity:1;"/>
<stop offset="1" style="stop-color:rgb(0.392157%,25.098039%,1.568627%);stop-opacity:0;"/>
</radialGradient>
<radialGradient id="radial12" gradientUnits="userSpaceOnUse" cx="77.340126" cy="102.59047" fx="77.340126" fy="102.59047" r="8.255014" gradientTransform="matrix(1,0.000000000000000028,0,0.694891,0,31.30127)">
<stop offset="0" style="stop-color:rgb(0.392157%,25.098039%,1.568627%);stop-opacity:1;"/>
<stop offset="1" style="stop-color:rgb(0.392157%,25.098039%,1.568627%);stop-opacity:0;"/>
</radialGradient>
<radialGradient id="radial13" gradientUnits="userSpaceOnUse" cx="95.646194" cy="127.45675" fx="95.646194" fy="127.45675" r="9.389383" gradientTransform="matrix(1,0,-0.000000000000000014,0.977248,0,2.89989)">
<stop offset="0" style="stop-color:rgb(0.392157%,25.098039%,1.568627%);stop-opacity:1;"/>
<stop offset="1" style="stop-color:rgb(0.392157%,25.098039%,1.568627%);stop-opacity:0;"/>
</radialGradient>
</defs>
<g id="surface1">
<rect x="0" y="0" width="750" height="500" style="fill:rgb(0%,27.843137%,67.058824%);fill-opacity:1;stroke:none;"/>
<path style="fill-rule:evenodd;fill:rgb(100%,87.45098%,0%);fill-opacity:0.941176;stroke-width:1.25;stroke-linecap:butt;stroke-linejoin:miter;stroke:rgb(0%,0%,0%);stroke-opacity:1;stroke-miterlimit:4;" d="M 61.462433 74.334079 C 54.466812 86.826326 34.976525 86.826326 33.978808 91.323072 C 32.977224 95.819818 36.975826 100.066103 36.975826 100.066103 C 36.975826 100.066103 65.708531 91.07261 71.702567 82.079118 C 77.700471 73.085625 61.462433 74.334079 61.462433 74.334079 Z " transform="matrix(-1.010119,0,0,1.013754,303.248405,9.670889)"/>
<path style="fill-rule:evenodd;fill:rgb(100%,87.45098%,0%);fill-opacity:1;stroke-width:1.25;stroke-linecap:butt;stroke-linejoin:miter;stroke:rgb(0%,0%,0%);stroke-opacity:1;stroke-miterlimit:4;" d="M 33.82799 92.949145 C 33.460614 96.182024 45.220527 92.070603 47.718687 92.321064 C 50.216847 92.571526 52.715006 95.569357 51.717289 97.318734 C 50.715705 99.068111 44.470306 101.81548 41.221925 102.065942 C 37.977411 102.316403 33.305929 96.609735 33.82799 92.949145 Z " transform="matrix(-1.010119,0,0,1.013754,303.248405,9.670889)"/>
<path style="fill-rule:evenodd;fill:rgb(100%,87.45098%,0%);fill-opacity:0.941176;stroke-width:1.25;stroke-linecap:butt;stroke-linejoin:miter;stroke:rgb(0%,0%,0%);stroke-opacity:1;stroke-miterlimit:4;" d="M 39.972845 111.140353 C 36.975826 101.896399 54.091701 95.365134 47.571736 93.64273 C 51.083082 93.461627 56.338498 97.584608 53.716591 101.152721 C 52.769146 102.439707 40.723066 105.144691 39.972845 111.140353 Z " transform="matrix(-1.010119,0,0,1.013754,303.248405,9.670889)"/>
<path style="fill-rule:evenodd;fill:rgb(100%,87.45098%,0%);fill-opacity:1;stroke-width:1.25;stroke-linecap:butt;stroke-linejoin:miter;stroke:rgb(0%,0%,0%);stroke-opacity:1;stroke-miterlimit:4;" d="M 61.460729 74.332914 C 54.465108 86.825161 34.978689 86.825161 33.977104 91.321907 C 32.979387 95.818654 36.97799 100.064939 36.97799 100.064939 C 36.97799 100.064939 65.706827 91.071446 71.704731 82.077953 C 77.698767 73.08446 61.460729 74.332914 61.460729 74.332914 Z " transform="matrix(1.010119,0,0,1.013754,12.296284,9.125194)"/>
<path style="fill-rule:evenodd;fill:rgb(100%,87.45098%,0%);fill-opacity:0.941176;stroke-width:1.25;stroke-linecap:butt;stroke-linejoin:miter;stroke:rgb(0%,0%,0%);stroke-opacity:1;stroke-miterlimit:4;" d="M 33.830154 92.951834 C 33.462777 96.18086 45.22269 92.073292 47.72085 92.3199 C 50.21901 92.570362 52.71717 95.568192 51.715585 97.317569 C 50.717868 99.066946 44.472469 101.814316 41.224088 102.064777 C 37.975707 102.315239 33.308093 96.612424 33.830154 92.951834 Z " transform="matrix(1.010119,0,0,1.013754,12.296284,9.125194)"/>
<path style="fill-rule:evenodd;fill:rgb(100%,87.45098%,0%);fill-opacity:1;stroke-width:1.25;stroke-linecap:butt;stroke-linejoin:miter;stroke:rgb(0%,0%,0%);stroke-opacity:1;stroke-miterlimit:4;" d="M 39.975008 109.809816 C 36.97799 100.565862 54.093865 94.034598 47.5739 92.312194 C 51.081378 92.131091 56.340661 96.250218 53.714887 99.818331 C 52.767442 101.105317 40.725229 103.814154 39.975008 109.809816 Z " transform="matrix(1.010119,0,0,1.013754,12.296284,9.125194)"/>
<path style="fill-rule:evenodd;fill:rgb(100%,87.45098%,0%);fill-opacity:1;stroke-width:1.25;stroke-linecap:butt;stroke-linejoin:miter;stroke:rgb(0%,0%,0%);stroke-opacity:1;stroke-miterlimit:4;" d="M 37.162712 56.017799 C 32.332679 45.698787 49.765657 33.861593 33.249186 42.523706 C 34.81537 32.913693 46.637157 37.23319 46.637157 40.959286 C 46.637157 44.681528 41.698844 48.326706 41.776187 51.320683 C 41.857396 54.318514 46.799576 56.42239 46.799576 56.42239 Z " transform="matrix(-1.010119,0,0,1.013754,302.413745,8.825025)"/>
<path style="fill-rule:evenodd;fill:rgb(100%,87.45098%,0%);fill-opacity:1;stroke-width:1.25;stroke-linecap:butt;stroke-linejoin:miter;stroke:rgb(0%,0%,0%);stroke-opacity:1;stroke-miterlimit:4;" d="M 63.018279 38.497057 C 53.30794 37.475945 48.141467 55.443664 37.182048 56.26826 C 36.880412 57.277813 39.738214 60.075274 45.233392 60.102247 C 53.408485 60.144633 69.762537 43.876198 69.762537 43.876198 Z " transform="matrix(-1.010119,0,0,1.013754,302.413745,8.825025)"/>
<path style="fill-rule:evenodd;fill:rgb(100%,87.45098%,0%);fill-opacity:1;stroke-width:1.25;stroke-linecap:butt;stroke-linejoin:miter;stroke:rgb(0%,0%,0%);stroke-opacity:1;stroke-miterlimit:4;" d="M 51.556134 68.829865 C 51.838434 61.774559 65.431362 52.495925 66.618568 44.966669 C 67.465467 39.60294 62.384071 38.473937 62.384071 38.473937 C 62.384071 38.473937 68.876966 36.497218 82.991956 55.975413 C 97.106945 75.453608 51.734022 68.856838 51.556134 68.829865 Z " transform="matrix(-1.010119,0,0,1.013754,302.413745,8.825025)"/>
<path style="fill-rule:evenodd;fill:rgb(100%,87.45098%,0%);fill-opacity:1;stroke-width:1.25;stroke-linecap:butt;stroke-linejoin:miter;stroke:rgb(0%,0%,0%);stroke-opacity:1;stroke-miterlimit:4;" d="M 37.163612 56.018402 C 32.333578 45.69939 49.766557 33.862197 33.250086 42.52431 C 34.816269 32.914297 46.634189 37.233793 46.634189 40.959889 C 46.634189 44.682132 41.695877 48.327309 41.777086 51.321287 C 41.858296 54.319118 46.796608 56.422994 46.796608 56.422994 Z " transform="matrix(1.010119,0,0,1.013754,12.296284,9.125194)"/>
<path style="fill-rule:evenodd;fill:rgb(100%,87.45098%,0%);fill-opacity:1;stroke-width:1.25;stroke-linecap:butt;stroke-linejoin:miter;stroke:rgb(0%,0%,0%);stroke-opacity:1;stroke-miterlimit:4;" d="M 63.019178 38.49766 C 53.308839 37.472695 48.142366 55.444268 37.182947 56.268864 C 36.881312 57.278416 39.739114 60.075878 45.230425 60.102851 C 53.409384 60.145236 69.763436 43.876802 69.763436 43.876802 Z " transform="matrix(1.010119,0,0,1.013754,12.296284,9.125194)"/>
<path style="fill-rule:evenodd;fill:rgb(100%,87.45098%,0%);fill-opacity:1;stroke-width:1.25;stroke-linecap:butt;stroke-linejoin:miter;stroke:rgb(0%,0%,0%);stroke-opacity:1;stroke-miterlimit:4;" d="M 51.553166 68.830469 C 51.835466 61.771309 65.432261 52.492676 66.619467 44.967272 C 67.466367 39.603544 62.384971 38.474541 62.384971 38.474541 C 62.384971 38.474541 68.877866 36.497822 82.992855 55.976017 C 97.107844 75.454211 51.734921 68.857442 51.553166 68.830469 Z " transform="matrix(1.010119,0,0,1.013754,12.296284,9.125194)"/>
<path style="fill-rule:evenodd;fill:rgb(100%,87.45098%,0%);fill-opacity:1;stroke-width:1.25;stroke-linecap:butt;stroke-linejoin:miter;stroke:rgb(0%,0%,0%);stroke-opacity:1;stroke-miterlimit:4;" d="M 52.187374 68.687899 C 71.646724 68.934507 94.354455 31.080148 143.749183 31.080148 C 193.314065 31.080148 220.418712 67.304581 234.452492 67.928808 C 241.270225 68.233215 216.346634 91.984667 212.610996 92.200449 C 204.358561 92.674399 173.398395 58.993114 144.23644 58.993114 C 119.034417 58.993114 91.179549 90.959702 75.158069 90.585936 C 72.114645 90.512724 47.171719 68.626247 52.187374 68.687899 Z " transform="matrix(1.010119,0,0,1.013754,12.296284,9.125194)"/>
<path style=" stroke:none;fill-rule:nonzero;fill:rgb(0%,0%,0%);fill-opacity:1;" d="M 225.117188 75.195312 L 214.226562 88.851562 L 211.578125 86.722656 L 214.957031 79.25 L 210.003906 85.457031 L 207.476562 83.425781 L 218.367188 69.773438 L 220.894531 71.804688 L 217.6875 79.3125 L 222.589844 73.164062 L 225.117188 75.195312 "/>
<path style=" stroke:none;fill-rule:nonzero;fill:rgb(0%,0%,0%);fill-opacity:1;" d="M 206.144531 61.570312 L 208.464844 63.03125 C 210.015625 64.003906 211.019531 64.730469 211.476562 65.214844 C 211.941406 65.699219 212.160156 66.339844 212.144531 67.136719 C 212.132812 67.929688 211.734375 68.957031 210.945312 70.222656 C 210.226562 71.375 209.621094 72.074219 209.128906 72.316406 C 208.636719 72.558594 208.007812 72.496094 207.242188 72.125 C 207.773438 72.722656 208.050781 73.25 208.078125 73.707031 C 208.101562 74.164062 208.058594 74.546875 207.941406 74.847656 C 207.835938 75.144531 207.410156 75.894531 206.664062 77.089844 L 204.222656 81 L 201.175781 79.085938 L 204.25 74.15625 C 204.742188 73.363281 204.996094 72.839844 205.003906 72.582031 C 205.019531 72.328125 204.800781 72.058594 204.347656 71.773438 L 200.179688 78.457031 L 196.894531 76.394531 L 206.144531 61.570312 M 207.84375 66.167969 L 205.785156 69.464844 C 206.15625 69.695312 206.449219 69.800781 206.667969 69.777344 C 206.894531 69.75 207.210938 69.410156 207.617188 68.753906 L 208.125 67.941406 C 208.421875 67.46875 208.539062 67.117188 208.484375 66.878906 C 208.4375 66.644531 208.222656 66.40625 207.84375 66.167969 "/>
<path style=" stroke:none;fill-rule:nonzero;fill:rgb(0%,0%,0%);fill-opacity:1;" d="M 196.21875 67.863281 C 195.515625 69.441406 194.984375 70.542969 194.625 71.171875 C 194.273438 71.800781 193.808594 72.308594 193.234375 72.699219 C 192.660156 73.09375 192.027344 73.308594 191.332031 73.347656 C 190.632812 73.382812 189.910156 73.230469 189.15625 72.894531 C 188.441406 72.574219 187.855469 72.148438 187.40625 71.621094 C 186.964844 71.085938 186.691406 70.46875 186.589844 69.765625 C 186.488281 69.058594 186.546875 68.367188 186.769531 67.691406 C 186.992188 67.015625 187.460938 65.871094 188.183594 64.257812 L 189.378906 61.570312 C 190.082031 59.996094 190.609375 58.894531 190.960938 58.269531 C 191.320312 57.636719 191.785156 57.125 192.359375 56.730469 C 192.933594 56.339844 193.574219 56.125 194.269531 56.089844 C 194.964844 56.050781 195.691406 56.203125 196.445312 56.542969 C 197.160156 56.863281 197.738281 57.289062 198.179688 57.820312 C 198.632812 58.351562 198.90625 58.964844 199.011719 59.671875 C 199.113281 60.375 199.050781 61.066406 198.828125 61.742188 C 198.609375 62.417969 198.136719 63.5625 197.417969 65.179688 L 196.21875 67.863281 M 195.042969 61.148438 C 195.371094 60.417969 195.542969 59.9375 195.558594 59.703125 C 195.585938 59.46875 195.492188 59.300781 195.277344 59.203125 C 195.09375 59.125 194.917969 59.144531 194.742188 59.269531 C 194.578125 59.386719 194.316406 59.851562 193.953125 60.660156 L 190.6875 67.988281 C 190.28125 68.898438 190.0625 69.472656 190.027344 69.714844 C 190 69.957031 190.101562 70.128906 190.332031 70.234375 C 190.566406 70.339844 190.773438 70.285156 190.949219 70.070312 C 191.125 69.851562 191.417969 69.285156 191.828125 68.359375 L 195.042969 61.148438 "/>
<path style=" stroke:none;fill-rule:nonzero;fill:rgb(0%,0%,0%);fill-opacity:1;" d="M 177.988281 49.996094 L 181.703125 51.0625 C 182.875 51.402344 183.730469 51.761719 184.273438 52.152344 C 184.816406 52.539062 185.183594 53.117188 185.367188 53.878906 C 185.550781 54.636719 185.4375 55.746094 185.023438 57.199219 C 184.742188 58.179688 184.414062 58.828125 184.039062 59.140625 C 183.667969 59.453125 183.066406 59.601562 182.234375 59.589844 C 183.03125 60.066406 183.507812 60.613281 183.660156 61.234375 C 183.816406 61.847656 183.738281 62.703125 183.425781 63.796875 L 182.984375 65.355469 C 182.660156 66.488281 182.308594 67.300781 181.925781 67.78125 C 181.550781 68.265625 181.09375 68.539062 180.554688 68.601562 C 180.015625 68.664062 178.996094 68.480469 177.496094 68.046875 L 173.191406 66.8125 L 177.988281 49.996094 M 180.890625 53.941406 L 179.824219 57.683594 C 179.984375 57.722656 180.109375 57.753906 180.199219 57.777344 C 180.5625 57.882812 180.828125 57.847656 180.984375 57.667969 C 181.148438 57.480469 181.371094 56.890625 181.65625 55.894531 C 181.804688 55.367188 181.867188 54.988281 181.84375 54.757812 C 181.824219 54.519531 181.753906 54.351562 181.632812 54.257812 C 181.519531 54.164062 181.273438 54.058594 180.890625 53.941406 M 179.078125 60.300781 L 177.734375 65.003906 C 178.265625 65.132812 178.625 65.132812 178.816406 65 C 179.015625 64.871094 179.210938 64.464844 179.402344 63.785156 L 179.851562 62.21875 C 180.054688 61.496094 180.113281 61.042969 180.027344 60.855469 C 179.941406 60.664062 179.625 60.480469 179.078125 60.300781 "/>
<path style=" stroke:none;fill-rule:nonzero;fill:rgb(0%,0%,0%);fill-opacity:1;" d="M 153.945312 46.648438 L 160.4375 46.648438 L 160.4375 50.167969 L 157.839844 50.167969 L 157.839844 53.507812 L 160.273438 53.507812 L 160.273438 56.851562 L 157.839844 56.851562 L 157.839844 59.980469 L 160.699219 59.980469 L 160.699219 63.492188 L 153.945312 63.492188 L 153.945312 46.648438 "/>
<path style=" stroke:none;fill-rule:nonzero;fill:rgb(0%,0%,0%);fill-opacity:1;" d="M 144.113281 47.878906 L 146.710938 61.253906 L 150.507812 60.488281 L 151.175781 63.800781 L 143.660156 65.328125 L 140.410156 48.605469 L 144.113281 47.878906 "/>
<path style=" stroke:none;fill-rule:nonzero;fill:rgb(0%,0%,0%);fill-opacity:1;" d="M 134.027344 50.410156 L 135.226562 53.695312 L 133.066406 54.488281 L 137.859375 67.625 L 134.222656 68.960938 L 129.433594 55.824219 L 127.28125 56.613281 L 126.082031 53.328125 L 134.027344 50.410156 "/>
<path style=" stroke:none;fill-rule:nonzero;fill:rgb(0%,0%,0%);fill-opacity:1;" d="M 121.238281 55.542969 L 122.796875 58.671875 L 120.742188 59.703125 L 126.988281 72.210938 L 123.527344 73.953125 L 117.28125 61.445312 L 115.234375 62.476562 L 113.671875 59.34375 L 121.238281 55.542969 "/>
<path style=" stroke:none;fill-rule:nonzero;fill:rgb(0%,0%,0%);fill-opacity:1;" d="M 107.761719 63.371094 L 119.09375 76.84375 L 115.765625 79.003906 L 113.902344 76.472656 L 112.738281 77.230469 L 114.246094 79.992188 L 110.878906 82.179688 L 103.0625 66.425781 L 107.761719 63.371094 M 112.132812 73.929688 C 110.894531 72.375 109.40625 70.429688 107.664062 68.09375 C 109.144531 71.113281 110.261719 73.296875 111.019531 74.652344 L 112.132812 73.929688 "/>
<path style=" stroke:none;fill-rule:nonzero;fill:rgb(0%,0%,0%);fill-opacity:1;" d="M 89.9375 74.492188 L 93.105469 72.277344 C 94.105469 71.574219 94.925781 71.136719 95.566406 70.960938 C 96.210938 70.78125 96.886719 70.863281 97.59375 71.203125 C 98.296875 71.535156 99.078125 72.320312 99.941406 73.5625 C 100.523438 74.402344 100.816406 75.066406 100.820312 75.554688 C 100.828125 76.039062 100.566406 76.601562 100.03125 77.242188 C 100.898438 76.921875 101.625 76.898438 102.199219 77.171875 C 102.773438 77.4375 103.386719 78.035156 104.035156 78.96875 L 104.957031 80.296875 C 105.628906 81.265625 106.035156 82.050781 106.167969 82.652344 C 106.304688 83.25 106.226562 83.777344 105.933594 84.238281 C 105.640625 84.699219 104.855469 85.375 103.578125 86.269531 L 99.902344 88.839844 L 89.9375 74.492188 M 94.816406 74.726562 L 97.035156 77.914062 C 97.164062 77.8125 97.269531 77.738281 97.34375 77.683594 C 97.65625 77.464844 97.792969 77.238281 97.753906 77 C 97.714844 76.757812 97.398438 76.210938 96.804688 75.359375 C 96.496094 74.914062 96.242188 74.625 96.046875 74.496094 C 95.851562 74.363281 95.675781 74.3125 95.527344 74.34375 C 95.386719 74.375 95.148438 74.503906 94.816406 74.726562 M 98.585938 80.148438 L 101.375 84.164062 C 101.808594 83.832031 102.035156 83.550781 102.054688 83.316406 C 102.078125 83.082031 101.886719 82.675781 101.484375 82.097656 L 100.554688 80.757812 C 100.128906 80.144531 99.816406 79.808594 99.613281 79.757812 C 99.414062 79.703125 99.070312 79.835938 98.585938 80.148438 "/>
<path style=" stroke:none;fill-rule:evenodd;fill:rgb(78.823529%,75.294118%,73.333333%);fill-opacity:1;" d="M 157.347656 78.570312 L 166.417969 103.757812 L 192.421875 103.757812 L 170.652344 119.839844 L 179.421875 145.023438 L 158.558594 128.941406 L 136.183594 144.71875 L 144.347656 119.839844 L 122.578125 103.757812 L 149.789062 103.148438 Z "/>
<path style="fill-rule:evenodd;fill:rgb(0.392157%,48.235294%,12.941176%);fill-opacity:1;stroke-width:1.250264;stroke-linecap:butt;stroke-linejoin:miter;stroke:rgb(0.392157%,25.098039%,1.568627%);stroke-opacity:1;stroke-miterlimit:4;" d="M 178.466286 223.039406 C 173.780511 226.447902 165.26258 209.833742 142.686988 206.428684 C 120.115622 203.018834 122.244282 224.314446 111.169647 217.501994 C 100.095331 210.685621 126.50075 206.85391 126.50075 206.85391 C 126.50075 206.85391 119.689337 207.279289 115.429708 206.854681 C 111.170398 206.426151 103.928791 211.112857 98.817504 211.536442 C 93.705899 211.963947 91.150323 208.556978 90.298782 205.147343 C 89.446922 201.741628 89.021091 198.760639 89.021091 198.760639 C 89.021091 198.760639 95.410208 204.296407 98.817819 204.722348 C 102.225431 205.148289 109.040752 204.722039 109.040752 204.722039 C 109.040752 204.722039 103.503316 202.168555 99.244064 199.611111 C 94.984494 197.057589 90.299174 193.224639 90.299174 193.224639 C 90.299174 193.224639 82.206007 197.481405 74.538907 196.203504 C 66.871806 194.925603 61.760871 182.575703 61.760871 182.575703 C 61.760871 182.575703 69.427697 191.518479 74.965053 192.3704 C 80.502409 193.222321 83.910039 190.668567 83.910039 190.668567 C 83.910039 190.668567 78.373217 184.276764 75.391752 180.017719 C 72.410286 175.758674 71.984199 177.462864 72.410286 175.758674 C 72.836374 174.054484 72.836293 172.352921 72.836293 172.352921 L 66.873187 170.221573 L 63.039704 165.963861 C 63.039704 165.963861 57.928772 160.424134 57.502802 157.870495 C 57.07715 155.312936 62.610815 150.629767 64.74042 151.483098 C 66.870344 152.332508 63.462436 155.740965 63.892175 158.721083 C 64.318006 161.702073 71.132892 165.537572 71.132892 165.537572 C 71.132892 165.537572 67.721589 159.576541 67.721787 157.020276 C 67.721985 154.464011 67.296234 153.184584 67.296234 153.184584 C 67.296234 153.184584 68.147834 154.465305 65.166588 151.480471 C 62.185024 148.499559 56.647569 148.92577 56.647727 145.518724 C 56.647884 142.111677 56.221954 140.40882 56.221954 140.40882 C 56.221954 140.40882 58.351819 143.387144 60.907315 145.092551 C 63.46281 146.797957 65.592694 146.796586 65.592694 146.796586 C 65.592694 146.796586 63.037297 143.813047 60.055832 139.554002 C 57.074367 135.294957 46.425662 130.185362 46.851888 128.053821 C 47.277796 125.926201 48.555722 123.797248 48.555722 123.797248 C 48.555722 123.797248 49.833471 128.055037 54.09292 128.056216 C 58.352688 128.053473 58.352922 119.537816 58.352922 119.537816 C 58.352922 119.537816 60.908201 126.779184 63.463935 126.779107 C 66.019668 126.779029 69.001865 122.941928 69.001865 122.941928 C 69.001865 122.941928 68.149434 131.035487 66.445341 133.167066 C 64.741566 135.294725 62.185456 137.427637 63.889293 139.981237 C 65.592811 142.538758 69.000067 148.928011 69.000067 148.928011 C 69.000067 148.928011 70.277974 149.778754 71.982166 146.369042 C 73.68604 142.96325 76.241989 137.427212 73.686732 134.016322 C 71.131156 130.609352 68.149453 128.055791 68.149453 128.055791 C 68.149453 128.055791 71.982994 130.184589 72.834971 129.332475 C 73.686948 128.480361 71.983408 122.092363 70.279868 115.704365 C 68.576646 109.312446 64.743262 103.776601 64.743262 103.776601 C 64.743262 103.776601 68.576705 107.183532 74.965899 107.61069 C 81.355411 108.033927 88.592634 106.759061 88.592634 106.759061 C 88.592634 106.759061 83.910866 108.888552 81.355173 109.739411 C 78.79948 110.59027 76.669497 111.869774 76.669497 111.869774 C 76.669497 111.869774 81.780924 111.018838 81.354836 112.723028 C 80.929067 114.423297 74.539496 116.128973 74.965327 119.109963 C 75.391158 122.090953 81.780708 116.554799 86.040534 114.423142 C 90.300042 112.295406 95.83345 112.297417 95.83345 112.297417 C 95.83345 112.297417 90.299588 119.536851 87.743756 120.815061 C 85.187923 122.093271 78.372583 125.499217 78.372583 125.499217 C 78.372583 125.499217 80.502229 127.203329 83.058061 125.925119 C 85.613893 124.646909 87.743836 122.516624 87.743836 122.516624 C 87.743836 122.516624 86.039486 129.333383 83.057706 131.888431 C 80.075926 134.44348 77.094303 133.591481 77.094303 133.591481 C 77.094303 133.591481 76.668354 134.86832 76.667879 138.279288 C 76.667721 141.686334 75.815825 144.240012 75.815825 144.240012 C 75.815825 144.240012 81.779524 138.702564 83.057589 136.14626 C 84.335335 133.593876 89.872889 131.889532 89.872889 131.889532 L 88.594945 136.998181 L 95.410442 130.185188 L 97.114081 135.295053 C 97.114081 135.295053 97.540011 136.99791 100.095744 136.997833 C 102.651477 136.997756 103.929205 137.425068 103.929205 137.425068 C 103.929205 137.425068 97.965802 139.128119 92.428347 139.55433 C 86.890892 139.980542 83.909229 138.277762 83.057153 140.408009 C 82.205077 142.538256 83.056996 143.815056 80.501244 146.794828 C 77.945174 149.778522 75.389027 157.870826 75.388869 161.277872 C 75.388712 164.684919 76.6663 165.539583 76.6663 165.539583 C 76.6663 165.539583 76.666479 165.963013 78.79648 161.703814 C 80.926482 157.444614 85.612355 152.757986 85.612355 152.757986 C 85.612355 152.757986 82.204092 162.129755 80.926028 164.686059 C 79.647963 167.242363 77.521969 170.222558 79.225528 173.630861 C 80.929086 177.039163 89.873819 186.832682 94.132972 190.668258 C 98.392442 194.499913 102.651734 197.908138 102.651734 197.908138 C 102.651734 197.908138 100.096118 193.650387 101.80035 191.091457 C 103.500356 188.537318 108.615335 193.648823 110.319033 196.629774 C 112.02273 199.610725 113.726289 203.019027 115.855895 203.872358 C 117.985818 204.721769 117.55979 204.297044 117.55979 204.297044 L 117.130387 198.333309 C 117.130387 198.333309 119.685645 201.7442 122.667586 202.592277 C 125.649209 203.444276 129.48267 203.871511 129.48267 203.871511 C 129.48267 203.871511 124.3715 200.037267 120.964046 196.204279 C 117.556592 192.371291 114.574889 189.81773 113.297063 190.66855 C 112.019236 191.51937 110.741172 194.075674 108.611625 191.093429 C 106.482078 188.111184 104.778519 184.702882 101.796757 184.278234 C 98.814995 183.853587 96.688763 188.539267 96.688763 188.539267 C 96.688763 188.539267 95.837321 183.851499 95.833431 180.872675 C 95.833768 177.889058 100.093217 177.890236 99.241577 175.758734 C 98.389619 173.631153 96.259914 174.055954 94.556275 168.946089 C 92.852955 163.832303 88.593623 159.573297 88.593623 159.573297 C 88.593623 159.573297 95.83434 166.389785 97.964044 165.964983 C 100.094067 165.536261 104.35401 159.146776 104.35401 159.146776 C 104.35401 159.146776 103.501598 164.260639 103.501382 169.7966 C 103.501165 175.332561 103.500631 180.872443 106.056543 181.295796 C 108.612138 181.72307 107.760377 177.039223 110.74208 179.592785 C 113.723465 182.150267 116.278923 189.815065 118.834558 191.09312 C 121.390192 192.371175 122.668256 189.814871 121.390547 186.407863 C 120.112838 183.000855 116.705267 183.425695 116.279396 179.593924 C 115.853843 175.758232 116.705641 174.482688 116.705641 174.482688 C 116.705641 174.482688 118.409181 180.870685 120.112897 180.871941 C 121.816931 180.869276 123.521358 168.943907 123.521358 168.943907 C 123.521358 168.943907 129.484288 177.461997 129.058003 181.722452 C 128.631718 185.982907 124.798257 185.555672 124.7981 188.962719 C 124.797942 192.369766 124.371559 197.908353 126.501263 197.483551 C 128.630968 197.05875 131.613323 189.814601 131.613323 189.814601 C 131.613323 189.814601 132.464904 194.075018 134.168602 197.055969 C 135.872299 200.03692 137.575679 203.021792 137.575679 203.021792 C 137.575679 203.021792 138.853644 201.74362 137.576312 196.203777 C 136.298662 190.667855 134.594964 187.686904 134.169133 184.705914 C 133.74362 181.721004 135.873343 178.316506 138.003267 179.165916 C 140.132873 180.019247 140.132716 183.426294 139.706511 189.388312 C 139.279988 195.354251 138.853823 202.167051 140.557539 202.168306 C 142.261256 202.169562 154.188025 204.722853 162.706846 209.833819 C 171.225668 214.944785 180.170298 219.206264 178.466286 223.039406 Z " transform="matrix(1.017934,0.226238,0.0825966,1.014681,-12.636144,-3.529585)"/>
<path style="fill-rule:evenodd;fill:rgb(100%,87.45098%,0%);fill-opacity:1;stroke-width:1;stroke-linecap:butt;stroke-linejoin:miter;stroke:url(#radial0);stroke-miterlimit:4;" d="M 73.514382 182.345772 C 70.852189 180.063597 67.428984 180.823 69.709851 177.400202 C 71.994627 173.976532 75.037556 174.356743 77.320302 175.876581 C 79.602729 177.400339 75.798287 172.832022 79.220804 173.216143 C 82.647547 173.595471 87.971474 178.92217 86.071112 180.824179 C 84.166843 182.72706 88.733535 182.72518 89.495966 185.388586 C 90.25449 188.052864 88.352469 193.758778 84.550187 192.61624 C 80.743996 191.474574 76.176845 192.238804 75.798228 189.574514 C 75.415703 186.911096 73.896037 178.91911 73.514382 182.345772 Z " transform="matrix(1.017934,0.226238,0.0825966,1.014681,-12.636144,-3.529585)"/>
<path style="fill-rule:evenodd;fill:rgb(100%,87.45098%,0%);fill-opacity:1;stroke-width:1;stroke-linecap:butt;stroke-linejoin:miter;stroke:url(#radial1);stroke-miterlimit:4;" d="M 79.036471 160.968902 C 81.908716 168.513021 84.783909 169.588936 88.734755 169.231601 C 92.682011 168.871218 98.790787 159.890561 95.9162 156.300637 C 93.041614 152.710714 88.374268 159.533661 88.374268 159.533661 C 88.374268 159.533661 88.374006 157.739745 87.656286 155.944108 C 86.938565 154.148471 85.142644 154.148525 85.142644 154.148525 C 85.142644 154.148525 87.298149 155.58124 90.169722 154.147937 C 93.041614 152.710714 93.402354 150.913302 91.607851 149.47709 C 89.80944 148.04175 83.347125 148.042817 79.755545 149.836842 C 76.163647 151.634787 76.164981 156.300363 76.162696 158.456722 C 76.164318 160.612209 76.165186 159.892116 79.036471 160.968902 Z " transform="matrix(1.017934,0.226238,0.0825966,1.014681,-12.636144,-3.529585)"/>
<path style="fill-rule:evenodd;fill:rgb(100%,87.45098%,0%);fill-opacity:1;stroke-width:1;stroke-linecap:butt;stroke-linejoin:miter;stroke:url(#radial2);stroke-miterlimit:4;" d="M 60.909743 171.073842 C 55.37205 173.205537 56.22458 163.833846 58.78065 160.850152 C 61.336402 157.870379 62.184709 155.313653 64.314355 157.017765 C 66.444001 158.721878 63.039961 161.278681 65.595972 160.423902 C 68.147757 159.573914 66.444019 155.742182 68.573943 156.591592 C 70.703549 157.444923 69.429473 161.701919 68.577298 165.110298 C 67.725124 168.518678 66.872989 172.777839 64.743145 173.629991 C 62.613302 174.482144 60.057609 175.333003 60.909743 171.073842 Z " transform="matrix(1.017934,0.226238,0.0825966,1.014681,-12.636144,-3.529585)"/>
<path style="fill-rule:evenodd;fill:rgb(100%,87.45098%,0%);fill-opacity:1;stroke-width:1;stroke-linecap:butt;stroke-linejoin:miter;stroke:url(#radial3);stroke-miterlimit:4;" d="M 63.036822 147.224014 C 56.221639 147.222913 57.073477 146.79815 56.647686 144.667942 C 56.221896 142.537734 59.629368 143.391026 57.073832 140.834838 C 54.518297 138.27865 54.09229 141.684403 53.666459 138.703413 C 53.240628 135.722423 57.926066 135.297545 61.333955 134.868784 C 64.741526 134.443943 62.611624 137.42501 65.593207 137.426227 C 68.574789 137.427444 70.278784 136.573997 70.278784 136.573997 L 69.00062 140.408434 C 69.00062 140.408434 72.834319 139.130185 71.982283 142.111213 C 71.130248 145.092242 70.277974 149.778754 63.036822 147.224014 Z " transform="matrix(1.017934,0.226238,0.0825966,1.014681,-12.636144,-3.529585)"/>
<path style="fill-rule:evenodd;fill:rgb(100%,87.45098%,0%);fill-opacity:1;stroke-width:1;stroke-linecap:butt;stroke-linejoin:miter;stroke:url(#radial4);stroke-miterlimit:4;" d="M 58.353101 119.961247 C 57.074978 124.646465 59.630335 126.779223 55.796874 126.351987 C 51.963413 125.924752 52.815409 122.092942 52.815705 118.258544 C 52.816002 114.424146 54.946043 111.015728 58.779504 111.442963 C 62.612965 111.870199 65.594569 115.701893 63.464667 118.68296 C 61.334446 121.667947 67.724076 117.833356 64.742157 120.815756 C 61.760555 123.794235 60.05666 123.369549 58.353101 119.961247 Z " transform="matrix(1.017934,0.226238,0.0825966,1.014681,-12.636144,-3.529585)"/>
<path style="fill-rule:evenodd;fill:rgb(100%,87.45098%,0%);fill-opacity:1;stroke-width:1;stroke-linecap:butt;stroke-linejoin:miter;stroke:url(#radial5);stroke-miterlimit:4;" d="M 70.707101 97.811802 C 71.984671 101.646161 66.446781 106.334122 72.410166 107.610767 C 78.37355 108.887413 86.889115 104.20154 84.759429 101.646646 C 82.629743 99.091752 80.073812 101.648095 76.66997 101.648633 C 73.262538 101.646123 74.110684 95.68627 70.707101 97.811802 Z " transform="matrix(1.017934,0.226238,0.0825966,1.014681,-12.636144,-3.529585)"/>
<path style="fill-rule:evenodd;fill:rgb(100%,87.45098%,0%);fill-opacity:1;stroke-width:1;stroke-linecap:butt;stroke-linejoin:miter;stroke:url(#radial6);stroke-miterlimit:4;" d="M 103.929224 134.445373 C 101.373512 138.275927 98.391908 134.444233 94.984296 134.018292 C 91.576685 133.592351 87.742946 134.019818 86.891266 131.037534 C 86.039585 128.05525 89.447138 130.610106 91.576941 128.907171 C 93.706745 127.204237 91.577278 125.923555 93.706844 125.926104 C 95.836727 125.924733 95.410739 126.35079 97.114535 128.053609 C 98.818014 129.760348 96.262775 123.369762 97.5407 121.240809 C 98.818625 119.111856 102.648694 116.979777 103.078334 121.238028 C 103.504066 125.49715 101.799735 129.334213 100.947937 130.609758 C 100.095822 131.889223 106.485312 128.481983 103.929224 134.445373 Z " transform="matrix(1.017934,0.226238,0.0825966,1.014681,-12.636144,-3.529585)"/>
<path style="fill-rule:evenodd;fill:rgb(0.392157%,48.235294%,12.941176%);fill-opacity:1;stroke-width:1.250264;stroke-linecap:butt;stroke-linejoin:miter;stroke:rgb(0.392157%,25.098039%,1.568627%);stroke-opacity:1;stroke-miterlimit:4;" d="M 178.466391 223.038046 C 173.780617 226.446541 165.262368 209.836302 142.687096 206.427323 C 120.115733 203.017473 122.244075 224.317005 111.169759 217.500632 C 100.095126 210.68818 126.500861 206.852549 126.500861 206.852549 C 126.500861 206.852549 119.689448 207.277928 115.42982 206.853319 C 111.170192 206.42871 103.928904 211.111495 98.817299 211.539 C 93.706012 211.962585 91.150437 208.555615 90.298578 205.149901 C 89.447036 201.740266 89.021205 198.759276 89.021205 198.759276 C 89.021205 198.759276 95.410003 204.298965 98.817614 204.724906 C 102.225225 205.150848 109.040546 204.724598 109.040546 204.724598 C 109.040546 204.724598 103.503429 202.167193 99.243859 199.61367 C 94.984608 197.056226 90.299288 193.223277 90.299288 193.223277 C 90.299288 193.223277 82.205804 197.483963 74.538704 196.206062 C 66.871604 194.928161 61.760988 182.57434 61.760988 182.57434 C 61.760988 182.57434 69.427495 191.521037 74.96485 192.372958 C 80.502206 193.22488 83.910154 190.667204 83.910154 190.667204 C 83.910154 190.667204 78.373014 184.279322 75.391549 180.020277 C 72.410084 175.761232 71.984315 177.461501 72.410084 175.761232 C 72.836172 174.057042 72.83641 172.351558 72.83641 172.351558 L 66.872985 170.224131 L 63.039821 165.962498 C 63.039821 165.962498 57.928572 160.426691 57.50292 157.869132 C 57.07695 155.315493 62.610932 150.628404 64.740538 151.481735 C 66.870143 152.335066 63.462554 155.739602 63.891975 158.723641 C 64.317805 161.704631 71.133009 165.536209 71.133009 165.536209 C 71.133009 165.536209 67.721706 159.575178 67.721904 157.018913 C 67.722101 154.462648 67.296033 153.187142 67.296033 153.187142 C 67.296033 153.187142 68.147951 154.463942 65.166387 151.483029 C 62.184823 148.502117 56.647687 148.924407 56.647845 145.51736 C 56.648002 142.110314 56.222072 140.407457 56.222072 140.407457 C 56.222072 140.407457 58.351619 143.389702 60.907432 145.091188 C 63.462928 146.796594 65.592811 146.795223 65.592811 146.795223 C 65.592811 146.795223 63.037097 143.815604 60.055632 139.556559 C 57.074167 135.297514 46.425781 130.183998 46.851689 128.056378 C 47.277915 125.924837 48.555841 123.795884 48.555841 123.795884 C 48.555841 123.795884 49.83359 128.053674 54.093039 128.054852 C 58.352487 128.056031 58.35304 119.536453 58.35304 119.536453 C 58.35304 119.536453 60.908319 126.777821 63.464052 126.777744 C 66.019785 126.777666 69.001664 122.944485 69.001664 122.944485 C 69.001664 122.944485 68.149233 131.038044 66.445458 133.165703 C 64.741366 135.297282 62.185574 137.426274 63.88941 139.979874 C 65.592929 142.537395 69.000184 148.926648 69.000184 148.926648 C 69.000184 148.926648 70.278091 149.777391 71.981964 146.3716 C 73.686156 142.961888 76.242105 137.425849 73.68653 134.01888 C 71.130955 130.61191 68.14957 128.054428 68.14957 128.054428 C 68.14957 128.054428 71.983111 130.183226 72.835087 129.331112 C 73.686746 128.482919 71.983525 122.091 70.279985 115.703002 C 68.576445 109.315004 64.74338 103.775238 64.74338 103.775238 C 64.74338 103.775238 68.576822 107.182169 74.966015 107.609327 C 81.355209 108.036485 88.592749 106.757699 88.592749 106.757699 C 88.592749 106.757699 83.910982 108.88719 81.355289 109.738048 C 78.799278 110.592828 76.669614 111.868411 76.669614 111.868411 C 76.669614 111.868411 81.78104 111.017475 81.354952 112.721665 C 80.928865 114.425855 74.539613 116.127611 74.965444 119.1086 C 75.390956 122.093511 81.780823 116.553436 86.040331 114.4257 C 90.300157 112.294044 95.833564 112.296055 95.833564 112.296055 C 95.833564 112.296055 90.299702 119.535488 87.743871 120.813698 C 85.188039 122.091908 78.372699 125.497854 78.372699 125.497854 C 78.372699 125.497854 80.502345 127.201966 83.058177 125.923757 C 85.614009 124.645547 87.743633 122.519182 87.743633 122.519182 C 87.743633 122.519182 86.039602 129.33202 83.057822 131.887069 C 80.075723 134.446038 77.094101 133.594039 77.094101 133.594039 C 77.094101 133.594039 76.668152 134.870878 76.667995 138.277925 C 76.667837 141.684972 75.815623 144.24257 75.815623 144.24257 C 75.815623 144.24257 81.779322 138.705122 83.057386 136.148818 C 84.33545 133.592514 89.873003 131.88817 89.873003 131.88817 L 88.594742 137.000739 L 95.410557 130.183826 L 97.113877 135.297612 C 97.113877 135.297612 97.539807 137.000469 100.09554 137.000392 C 102.651273 137.000314 103.929318 137.423706 103.929318 137.423706 C 103.929318 137.423706 97.965598 139.130677 92.428143 139.556888 C 86.890689 139.9831 83.909344 138.276399 83.057269 140.406646 C 82.205193 142.536893 83.057111 143.813693 80.501041 146.797387 C 77.94529 149.777159 75.389143 157.869463 75.388985 161.27651 C 75.388509 164.687477 76.666416 165.53822 76.666416 165.53822 C 76.666416 165.53822 76.666277 165.965571 78.796596 161.702451 C 80.926597 157.443251 85.612152 152.760544 85.612152 152.760544 C 85.612152 152.760544 82.204207 162.128392 80.926143 164.684696 C 79.648079 167.241 77.522085 170.221196 79.225643 173.629498 C 80.929201 177.0378 89.873615 186.83524 94.133085 190.666896 C 98.392238 194.502472 102.651847 197.906776 102.651847 197.906776 C 102.651847 197.906776 100.096232 193.649025 101.800145 191.094015 C 103.500151 188.539877 108.615448 193.647461 110.319145 196.628412 C 112.022524 199.613284 113.726401 203.017666 115.856006 203.870997 C 117.985612 204.724328 117.559901 204.295682 117.559901 204.295682 L 117.130181 198.335868 C 117.130181 198.335868 119.685756 201.742838 122.667379 202.594836 C 125.649001 203.446835 129.48278 203.870149 129.48278 203.870149 C 129.48278 203.870149 124.371292 200.039826 120.963839 196.206838 C 117.556704 192.36993 114.575001 189.816368 113.297175 190.667188 C 112.019348 191.518008 110.741284 194.074312 108.611737 191.092067 C 106.481872 188.113742 104.778314 184.70544 101.796552 184.280793 C 98.815109 183.852225 96.688877 188.537904 96.688877 188.537904 C 96.688877 188.537904 95.837117 183.854057 95.833545 180.871312 C 95.833564 177.891617 100.093331 177.888874 99.241372 175.761293 C 98.389732 173.62979 96.260028 174.054592 94.556389 168.944727 C 92.852751 163.834861 88.593419 159.575855 88.593419 159.575855 C 88.593419 159.575855 95.834453 166.388423 97.964158 165.963621 C 100.093862 165.53882 104.353805 159.149335 104.353805 159.149335 C 104.353805 159.149335 103.501711 164.259277 103.501495 169.795238 C 103.50096 175.33512 103.500744 180.871081 106.056338 181.298355 C 108.61225 181.721708 107.760489 177.037861 110.741874 179.595343 C 113.723577 182.148905 116.278717 189.817623 118.834351 191.095679 C 121.390303 192.369814 122.668049 189.817431 121.390658 186.406502 C 120.11295 182.999493 116.705061 183.428254 116.279508 179.592562 C 115.853637 175.760791 116.705753 174.481326 116.705753 174.481326 C 116.705753 174.481326 118.409292 180.869324 120.113008 180.870579 C 121.816724 180.871835 123.521151 168.946466 123.521151 168.946466 C 123.521151 168.946466 129.484081 177.464556 129.058114 181.721091 C 128.631829 185.981546 124.79805 185.558231 124.797893 188.965278 C 124.797735 192.372325 124.371669 197.906992 126.501374 197.48219 C 128.631078 197.057388 131.613115 189.81716 131.613115 189.81716 C 131.613115 189.81716 132.465014 194.073656 134.168393 197.058528 C 135.872091 200.039479 137.575788 203.02043 137.575788 203.02043 C 137.575788 203.02043 138.853753 201.742259 137.576103 196.206337 C 136.298771 190.666494 134.595074 187.685542 134.169243 184.704553 C 133.743412 181.723563 135.873453 178.315145 138.003059 179.168476 C 140.132982 180.017886 140.132825 183.424933 139.706302 189.390872 C 139.280097 195.35289 138.853614 202.16961 140.557648 202.166945 C 142.261364 202.1682 154.187814 204.725412 162.706635 209.836379 C 171.225455 214.947345 180.170403 219.204903 178.466391 223.038046 Z " transform="matrix(-1.017935,0.226238,-0.0825966,1.014681,327.636159,-2.528228)"/>
<path style="fill-rule:evenodd;fill:rgb(100%,87.45098%,0%);fill-opacity:1;stroke-width:1;stroke-linecap:butt;stroke-linejoin:miter;stroke:url(#radial7);stroke-miterlimit:4;" d="M 73.514498 182.344409 C 70.852306 180.062234 67.4291 180.821637 69.709968 177.398839 C 71.994744 173.975169 75.037672 174.355381 77.320099 175.879139 C 79.602845 177.398976 75.798085 172.83458 79.22092 173.21478 C 82.647663 173.594109 87.971588 178.920808 86.071227 180.822817 C 84.166958 182.725698 88.733649 182.723817 89.496081 185.387224 C 90.254604 188.051502 88.352584 193.757416 84.549984 192.618799 C 80.743794 191.477133 76.176961 192.237441 75.798344 189.573152 C 75.415819 186.909734 73.895834 178.921668 73.514498 182.344409 Z " transform="matrix(-1.017935,0.226238,-0.0825966,1.014681,327.636159,-2.528228)"/>
<path style="fill-rule:evenodd;fill:rgb(100%,87.45098%,0%);fill-opacity:1;stroke-width:1;stroke-linecap:butt;stroke-linejoin:miter;stroke:url(#radial8);stroke-miterlimit:4;" d="M 79.036269 160.97146 C 81.908831 168.511659 84.784024 169.587573 88.734869 169.230239 C 92.682125 168.869855 98.790583 159.89312 95.915996 156.303196 C 93.041728 152.709351 88.374383 159.532299 88.374383 159.532299 C 88.374383 159.532299 88.374121 157.738382 87.6564 155.942745 C 86.93868 154.147108 85.142759 154.147162 85.142759 154.147162 C 85.142759 154.147162 87.297946 155.583799 90.169837 154.146575 C 93.041728 152.709351 93.40215 150.91586 91.607647 149.479649 C 89.809555 148.040388 83.34724 148.041454 79.755343 149.8394 C 76.163763 151.633424 76.164779 156.302921 76.162812 158.455359 C 76.164434 160.610847 76.165302 159.890754 79.036269 160.97146 Z " transform="matrix(-1.017935,0.226238,-0.0825966,1.014681,327.636159,-2.528228)"/>
<path style="fill-rule:evenodd;fill:rgb(100%,87.45098%,0%);fill-opacity:1;stroke-width:1;stroke-linecap:butt;stroke-linejoin:miter;stroke:url(#radial9);stroke-miterlimit:4;" d="M 60.909861 171.072479 C 55.372168 173.204174 56.224698 163.832483 58.78045 160.85271 C 61.33652 157.869016 62.184508 155.31621 64.314154 157.020323 C 66.443799 158.724435 63.040078 161.277318 65.595771 160.42646 C 68.147555 159.576472 66.444136 155.740819 68.573742 156.59415 C 70.703665 157.44356 69.429271 161.704476 68.577097 165.112856 C 67.72524 168.517315 66.873106 172.776476 64.743262 173.628628 C 62.613419 174.480781 60.057408 175.335561 60.909861 171.072479 Z " transform="matrix(-1.017935,0.226238,-0.0825966,1.014681,327.636159,-2.528228)"/>
<path style="fill-rule:evenodd;fill:rgb(100%,87.45098%,0%);fill-opacity:1;stroke-width:1;stroke-linecap:butt;stroke-linejoin:miter;stroke:url(#radial10);stroke-miterlimit:4;" d="M 63.036939 147.222651 C 56.221757 147.22155 57.073595 146.796787 56.647804 144.666579 C 56.222014 142.536371 59.629486 143.389663 57.07395 140.833475 C 54.518415 138.277287 54.09209 141.68696 53.666577 138.70205 C 53.240746 135.72106 57.926184 135.296181 61.333755 134.871341 C 64.741644 134.44258 62.611423 137.427568 65.593324 137.424864 C 68.574906 137.426081 70.2789 136.572634 70.2789 136.572634 L 69.000737 140.407071 C 69.000737 140.407071 72.834436 139.128822 71.9824 142.109851 C 71.130364 145.090879 70.278091 149.777391 63.036939 147.222651 Z " transform="matrix(-1.017935,0.226238,-0.0825966,1.014681,327.636159,-2.528228)"/>
<path style="fill-rule:evenodd;fill:rgb(100%,87.45098%,0%);fill-opacity:1;stroke-width:1;stroke-linecap:butt;stroke-linejoin:miter;stroke:url(#radial11);stroke-miterlimit:4;" d="M 58.352901 119.963804 C 57.074779 124.649022 59.630453 126.777859 55.796992 126.350624 C 51.963214 125.927309 52.815527 122.091579 52.815824 118.257181 C 52.815802 114.426704 54.945843 111.018286 58.779622 111.4416 C 62.613082 111.868836 65.594368 115.70445 63.464466 118.685517 C 61.334564 121.666584 67.724193 117.831993 64.742274 120.814393 C 61.760355 123.796792 60.056778 123.368186 58.352901 119.963804 Z " transform="matrix(-1.017935,0.226238,-0.0825966,1.014681,327.636159,-2.528228)"/>
<path style="fill-rule:evenodd;fill:rgb(100%,87.45098%,0%);fill-opacity:1;stroke-width:1;stroke-linecap:butt;stroke-linejoin:miter;stroke:url(#radial12);stroke-miterlimit:4;" d="M 70.7069 97.81436 C 71.98447 101.648719 66.446898 106.332759 72.410282 107.609404 C 78.373666 108.88605 86.888913 104.204098 84.759227 101.649204 C 82.629859 99.09039 80.073928 101.646732 76.670087 101.647271 C 73.262337 101.64868 74.110801 95.684907 70.7069 97.81436 Z " transform="matrix(-1.017935,0.226238,-0.0825966,1.014681,327.636159,-2.528228)"/>
<path style="fill-rule:evenodd;fill:rgb(100%,87.45098%,0%);fill-opacity:1;stroke-width:1;stroke-linecap:butt;stroke-linejoin:miter;stroke:url(#radial13);stroke-miterlimit:4;" d="M 103.929337 134.444011 C 101.373307 138.278486 98.392022 134.442871 94.984411 134.01693 C 91.5768 133.590988 87.743061 134.018455 86.891381 131.036171 C 86.039701 128.053888 89.447253 130.608743 91.577056 128.905809 C 93.706859 127.202874 91.577075 125.926113 93.706958 125.924742 C 95.836842 125.923371 95.410853 126.349428 97.114331 128.056167 C 98.818128 129.758985 96.262889 123.368399 97.540814 121.239447 C 98.818739 119.110494 102.648489 116.982335 103.078129 121.240586 C 103.503861 125.499709 101.799849 129.332851 100.947733 130.612316 C 100.095935 131.887861 106.485425 128.480621 103.929337 134.444011 Z " transform="matrix(-1.017935,0.226238,-0.0825966,1.014681,327.636159,-2.528228)"/>
<path style=" stroke:none;fill-rule:nonzero;fill:rgb(100%,87.45098%,0%);fill-opacity:1;" d="M 189.09375 148.503906 L 199.90625 158.71875 L 196.363281 161.40625 L 194.605469 159.429688 L 193.363281 160.375 L 194.746094 162.636719 L 191.164062 165.355469 L 184.089844 152.300781 L 189.09375 148.503906 M 192.941406 157.429688 C 191.765625 156.234375 190.355469 154.730469 188.710938 152.914062 C 190.046875 155.417969 191.0625 157.222656 191.757812 158.328125 L 192.941406 157.429688 "/>
<path style=" stroke:none;fill-rule:nonzero;fill:rgb(100%,87.45098%,0%);fill-opacity:1;" d="M 171.085938 160.101562 L 173.875 158.582031 C 175.675781 157.601562 176.929688 157.011719 177.640625 156.816406 C 178.359375 156.621094 178.976562 156.601562 179.488281 156.761719 C 180.003906 156.921875 180.414062 157.1875 180.726562 157.5625 C 181.03125 157.933594 181.515625 158.730469 182.175781 159.953125 L 184.613281 164.480469 C 185.238281 165.640625 185.597656 166.449219 185.683594 166.914062 C 185.777344 167.363281 185.730469 167.785156 185.550781 168.171875 C 185.367188 168.554688 185.078125 168.914062 184.6875 169.242188 C 184.289062 169.570312 183.644531 169.976562 182.753906 170.460938 L 178.054688 173.027344 L 171.085938 160.101562 M 176.003906 160.28125 L 180.589844 168.78125 C 181.125 168.488281 181.402344 168.214844 181.425781 167.953125 C 181.441406 167.691406 181.21875 167.128906 180.753906 166.265625 L 178.046875 161.246094 C 177.730469 160.660156 177.507812 160.296875 177.378906 160.152344 C 177.25 160.011719 177.089844 159.941406 176.902344 159.949219 C 176.710938 159.949219 176.414062 160.058594 176.003906 160.28125 "/>
<path style=" stroke:none;fill-rule:nonzero;fill:rgb(100%,87.45098%,0%);fill-opacity:1;" d="M 165.484375 161.214844 L 171.089844 175.015625 L 166.757812 175.984375 L 165.972656 173.453125 L 164.457031 173.792969 L 164.777344 176.425781 L 160.390625 177.40625 L 159.359375 162.582031 L 165.484375 161.214844 M 165.289062 170.9375 C 164.714844 169.359375 164.054688 167.402344 163.3125 165.066406 C 163.488281 167.902344 163.667969 169.96875 163.839844 171.261719 L 165.289062 170.9375 "/>
<path style=" stroke:none;fill-rule:nonzero;fill:rgb(100%,87.45098%,0%);fill-opacity:1;" d="M 157.863281 162.53125 L 153.671875 176.792969 L 146.945312 175.890625 L 146.324219 160.984375 L 151 161.609375 C 151.003906 165.695312 150.941406 169.136719 150.800781 171.9375 C 151.40625 169.171875 151.980469 166.714844 152.523438 164.570312 L 153.1875 161.902344 L 157.863281 162.53125 "/>
<path style=" stroke:none;fill-rule:nonzero;fill:rgb(100%,87.45098%,0%);fill-opacity:1;" d="M 134.574219 157.421875 L 144.0625 160.53125 L 143.179688 163.335938 L 139.382812 162.089844 L 138.546875 164.75 L 142.101562 165.914062 L 141.261719 168.578125 L 137.707031 167.414062 L 136.738281 170.496094 L 140.914062 171.863281 L 140.03125 174.667969 L 130.164062 171.433594 L 134.574219 157.421875 "/>
<path style=" stroke:none;fill-rule:nonzero;fill:rgb(100%,87.45098%,0%);fill-opacity:1;" d="M 133.429688 156.671875 L 125.003906 168.6875 L 121.113281 165.9375 L 122.636719 158.84375 L 118.804688 164.308594 L 115.09375 161.6875 L 123.519531 149.671875 L 127.230469 152.292969 L 125.925781 159.460938 L 129.71875 154.050781 L 133.429688 156.671875 "/>
</g>
</svg>
