<?xml version="1.0" encoding="UTF-8"?>
<!-- Created by grConvert v0.1-0 -->
<svg xmlns="http://www.w3.org/2000/svg" xmlns:xlink="http://www.w3.org/1999/xlink" width="1200pt" height="800pt" viewBox="0 0 1200 800" version="1.1">
<g id="surface1">
<rect x="0" y="0" width="1200" height="800" style="fill:rgb(100%,84.313725%,0%);fill-opacity:1;stroke:none;"/>
<path style=" stroke:none;fill-rule:nonzero;fill:rgb(74.901961%,3.921569%,18.823529%);fill-opacity:1;" d="M 612.84375 199.78125 C 610.511719 199.753906 608.273438 200.6875 606.648438 202.359375 C 605.023438 204.03125 604.15625 206.296875 604.25 208.625 L 604.25 330.5 C 602.847656 330.414062 601.425781 330.375 600 330.375 C 598.574219 330.375 597.152344 330.414062 595.75 330.5 L 595.75 208.625 C 595.78125 206.324219 594.878906 204.105469 593.25 202.480469 C 591.617188 200.855469 589.394531 199.960938 587.09375 200 C 582.414062 200.089844 578.683594 203.945312 578.75 208.625 L 578.75 333.6875 C 575.8125 334.628906 572.972656 335.757812 570.21875 337.0625 L 570.21875 242.65625 C 570.339844 239.542969 568.746094 236.609375 566.066406 235.015625 C 563.386719 233.421875 560.050781 233.421875 557.371094 235.015625 C 554.691406 236.609375 553.097656 239.542969 553.21875 242.65625 L 553.21875 348.4375 C 551.546875 349.953125 549.953125 351.546875 548.4375 353.21875 L 442.65625 353.21875 C 437.953125 353.21875 434.140625 357.03125 434.140625 361.734375 C 434.140625 366.4375 437.953125 370.25 442.65625 370.25 L 537.0625 370.25 C 535.761719 372.992188 534.625 375.824219 533.6875 378.75 L 408.625 378.75 C 405.511719 378.632812 402.582031 380.226562 400.992188 382.90625 C 399.398438 385.582031 399.398438 388.917969 400.992188 391.59375 C 402.582031 394.273438 405.511719 395.867188 408.625 395.75 L 530.5 395.75 C 530.414062 397.152344 530.375 398.574219 530.375 400 C 530.375 401.425781 530.414062 402.847656 530.5 404.25 L 408.625 404.25 C 403.921875 404.25 400.109375 408.0625 400.109375 412.765625 C 400.109375 417.46875 403.921875 421.28125 408.625 421.28125 L 533.6875 421.28125 C 534.625 424.207031 535.761719 427.039062 537.0625 429.78125 L 442.65625 429.78125 C 439.542969 429.664062 436.613281 431.257812 435.023438 433.9375 C 433.429688 436.613281 433.429688 439.949219 435.023438 442.625 C 436.613281 445.304688 439.542969 446.898438 442.65625 446.78125 L 548.4375 446.78125 C 549.953125 448.453125 551.546875 450.046875 553.21875 451.5625 L 553.21875 557.34375 C 553.097656 560.457031 554.691406 563.390625 557.371094 564.984375 C 560.050781 566.578125 563.386719 566.578125 566.066406 564.984375 C 568.746094 563.390625 570.339844 560.457031 570.21875 557.34375 L 570.21875 462.9375 C 572.972656 464.242188 575.8125 465.371094 578.75 466.3125 L 578.75 591.375 C 578.628906 594.488281 580.222656 597.421875 582.902344 599.015625 C 585.582031 600.609375 588.917969 600.609375 591.597656 599.015625 C 594.277344 597.421875 595.871094 594.488281 595.75 591.375 L 595.75 469.5 C 597.152344 469.585938 598.574219 469.625 600 469.625 C 601.425781 469.625 602.847656 469.585938 604.25 469.5 L 604.25 591.375 C 604.128906 594.488281 605.722656 597.421875 608.402344 599.015625 C 611.082031 600.609375 614.417969 600.609375 617.097656 599.015625 C 619.777344 597.421875 621.371094 594.488281 621.25 591.375 L 621.25 466.3125 C 624.1875 465.371094 627.027344 464.242188 629.78125 462.9375 L 629.78125 557.34375 C 629.660156 560.457031 631.253906 563.390625 633.933594 564.984375 C 636.613281 566.578125 639.949219 566.578125 642.628906 564.984375 C 645.308594 563.390625 646.902344 560.457031 646.78125 557.34375 L 646.78125 451.5625 C 648.453125 450.046875 650.046875 448.453125 651.5625 446.78125 L 757.34375 446.78125 C 760.457031 446.898438 763.386719 445.304688 764.976562 442.625 C 766.570312 439.949219 766.570312 436.613281 764.976562 433.9375 C 763.386719 431.257812 760.457031 429.664062 757.34375 429.78125 L 662.9375 429.78125 C 664.238281 427.039062 665.375 424.207031 666.3125 421.28125 L 791.375 421.28125 C 796.078125 421.28125 799.890625 417.46875 799.890625 412.765625 C 799.890625 408.0625 796.078125 404.25 791.375 404.25 L 669.5 404.25 C 669.585938 402.847656 669.625 401.425781 669.625 400 C 669.625 398.574219 669.585938 397.152344 669.5 395.75 L 791.375 395.75 C 794.488281 395.867188 797.417969 394.273438 799.007812 391.59375 C 800.601562 388.917969 800.601562 385.582031 799.007812 382.90625 C 797.417969 380.226562 794.488281 378.632812 791.375 378.75 L 666.3125 378.75 C 665.375 375.824219 664.238281 372.992188 662.9375 370.25 L 757.34375 370.25 C 762.046875 370.25 765.859375 366.4375 765.859375 361.734375 C 765.859375 357.03125 762.046875 353.21875 757.34375 353.21875 L 651.5625 353.21875 C 650.046875 351.546875 648.453125 349.953125 646.78125 348.4375 L 646.78125 242.65625 C 646.902344 239.542969 645.308594 236.609375 642.628906 235.015625 C 639.949219 233.421875 636.613281 233.421875 633.933594 235.015625 C 631.253906 236.609375 629.660156 239.542969 629.78125 242.65625 L 629.78125 337.0625 C 627.027344 335.757812 624.1875 334.628906 621.25 333.6875 L 621.25 208.625 C 621.339844 206.328125 620.5 204.09375 618.914062 202.425781 C 617.332031 200.761719 615.140625 199.804688 612.84375 199.78125 Z M 600 341 C 632.585938 341 659 367.414062 659 400 C 659 432.585938 632.585938 459 600 459 C 567.414062 459 541 432.585938 541 400 C 541 367.414062 567.414062 341 600 341 Z "/>
</g>
</svg>
