<?xml version="1.0" encoding="UTF-8"?>
<!-- Created by grConvert v0.1-0 -->
<svg xmlns="http://www.w3.org/2000/svg" xmlns:xlink="http://www.w3.org/1999/xlink" width="750pt" height="500pt" viewBox="0 0 750 500" version="1.1">
<g id="surface1">
<path style=" stroke:none;fill-rule:evenodd;fill:rgb(74.901961%,3.921569%,18.823529%);fill-opacity:1;" d="M 250.03125 0.0429688 L 750 0.0429688 L 750 250.109375 L 250.03125 250.109375 Z "/>
<path style=" stroke:none;fill-rule:evenodd;fill:rgb(0%,15.686275%,40.784314%);fill-opacity:1;" d="M 0 0 L 250.03125 0 L 250.03125 500 L 0 500 Z "/>
<path style=" stroke:none;fill-rule:evenodd;fill:rgb(100%,100%,100%);fill-opacity:1;" d="M 250.074219 250.167969 L 749.945312 250.167969 L 749.945312 499.996094 L 250.074219 499.996094 Z "/>
<path style="fill-rule:evenodd;fill:rgb(100%,79.215686%,0%);fill-opacity:1;stroke-width:1;stroke-linecap:butt;stroke-linejoin:miter;stroke:rgb(0%,15.686275%,40.784314%);stroke-opacity:1;stroke-miterlimit:4;" d="M 37.394531 117.308594 C 21.765625 126.035156 18.929688 129.675781 10.363281 136.371094 L 29.359375 136.769531 C 29.132812 138.539062 24.988281 160.566406 24.59375 162.117188 C 38.898438 152.613281 45.683594 148.257812 65.199219 142.757812 C 72.953125 140.605469 64.589844 132.730469 63.78125 130.632812 C 58.480469 133.027344 54.402344 135.867188 50.496094 139.347656 "/>
<path style="fill-rule:evenodd;fill:rgb(100%,79.215686%,0%);fill-opacity:1;stroke-width:1;stroke-linecap:butt;stroke-linejoin:miter;stroke:rgb(0%,15.686275%,40.784314%);stroke-opacity:1;stroke-miterlimit:4;" d="M 50.75 139.164062 C 79.886719 112.472656 176.304688 113.109375 203.160156 139.988281 C 204.027344 139.679688 221.398438 110.367188 220.535156 110.679688 C 167.808594 73.746094 73.339844 80.074219 33.691406 109.21875 L 34.160156 110.960938 Z "/>
<path style="fill:none;stroke-width:3.124997;stroke-linecap:round;stroke-linejoin:round;stroke:rgb(0%,15.686275%,40.784314%);stroke-opacity:1;stroke-miterlimit:4;" d="M 55.757812 127.582031 C 55.613281 127.199219 47.285156 111.691406 47.285156 111.691406 L 60.914062 123.707031 L 57.742188 106.152344 L 66.671875 121.171875 "/>
<path style="fill:none;stroke-width:3.124997;stroke-linecap:round;stroke-linejoin:round;stroke:rgb(0%,15.686275%,40.784314%);stroke-opacity:1;stroke-miterlimit:4;" d="M 105.195312 100.792969 C 105.253906 96.054688 109.050781 95.734375 111.667969 96.554688 C 113.203125 97.722656 114.007812 101.539062 112.167969 103.710938 L 108.476562 106.859375 C 107.199219 108.453125 105.785156 110.277344 105.878906 112.285156 L 114.21875 111.964844 "/>
<path style="fill:none;stroke-width:3.124997;stroke-linecap:round;stroke-linejoin:round;stroke:rgb(0%,15.686275%,40.784314%);stroke-opacity:1;stroke-miterlimit:4;" d="M 120.335938 95.730469 C 118.8125 96.476562 118.300781 97.652344 117.945312 99.398438 C 117.71875 101.402344 117.820312 106.144531 118.230469 108.105469 C 118.59375 109.5625 118.957031 110.523438 120.054688 111.480469 C 121.332031 112.207031 122.742188 112.074219 123.519531 111.570312 C 124.566406 110.976562 125.296875 109.746094 125.660156 108.289062 C 126.253906 106.417969 126.207031 100.945312 125.796875 98.941406 C 125.417969 97.605469 124.945312 96.539062 123.882812 95.75 C 122.605469 95.203125 121.109375 95.320312 120.335938 95.730469 Z "/>
<path style="fill:none;stroke-width:3.124996;stroke-linecap:round;stroke-linejoin:round;stroke:rgb(0%,15.686275%,40.784314%);stroke-opacity:1;stroke-miterlimit:4;" d="M 160.175781 100.285156 C 161.765625 99.625 162.972656 98.8125 164.292969 97.257812 L 161.953125 113.765625 "/>
<path style="fill:none;stroke-width:3.125001;stroke-linecap:round;stroke-linejoin:round;stroke:rgb(0%,15.686275%,40.784314%);stroke-opacity:1;stroke-miterlimit:4;" d="M 172.375 99.441406 C 172.566406 99.511719 180.304688 101.761719 180.304688 101.761719 C 176.53125 106.480469 173.4375 110.667969 170.914062 115.992188 "/>
<path style="fill:none;stroke-width:3.125004;stroke-linecap:round;stroke-linejoin:round;stroke:rgb(0%,15.686275%,40.784314%);stroke-opacity:1;stroke-miterlimit:4;" d="M 187.066406 103.554688 L 194.738281 107.339844 C 190.183594 110.59375 186.4375 114.691406 183.125 119.480469 "/>
<path style="fill:none;stroke-width:3.124999;stroke-linecap:round;stroke-linejoin:round;stroke:rgb(0%,15.686275%,40.784314%);stroke-opacity:1;stroke-miterlimit:4;" d="M 206.515625 113.480469 L 201.492188 110.535156 L 197.046875 116.550781 C 200.238281 115.921875 202.386719 116.886719 203.304688 119.785156 C 203.867188 124.050781 201.308594 126.488281 198.546875 126.5625 C 195.636719 126.496094 194.136719 124.898438 193.726562 121.546875 "/>
<path style="fill:none;stroke-width:3.125001;stroke-linecap:round;stroke-linejoin:round;stroke:rgb(0%,15.686275%,40.784314%);stroke-opacity:1;stroke-miterlimit:4;" d="M 70.9375 119.023438 C 70.9375 119.023438 71.421875 101.097656 71.605469 101.117188 C 71.683594 100.390625 81.726562 115.980469 81.726562 115.980469 "/>
<path style="fill:none;stroke-width:3.125001;stroke-linecap:round;stroke-linejoin:round;stroke:rgb(0%,15.686275%,40.784314%);stroke-opacity:1;stroke-miterlimit:4;" d="M 71.265625 112.636719 L 78.089844 110.628906 "/>
<path style=" stroke:none;fill-rule:evenodd;fill:rgb(100%,79.215686%,0%);fill-opacity:1;" d="M 31.4375 288.140625 L 41.40625 288.273438 L 41.09375 245.085938 L 60.199219 288.5 L 70.574219 288.5 L 70.574219 224.976562 L 60.449219 225.113281 L 60.601562 265.273438 L 42.742188 225.292969 L 31.59375 225.425781 Z "/>
<path style=" stroke:none;fill-rule:evenodd;fill:rgb(100%,79.215686%,0%);fill-opacity:1;" d="M 213.632812 245.132812 L 224.25 245.132812 L 224.121094 239.535156 C 223.820312 235.917969 222.453125 231.335938 218.886719 227.949219 C 216.511719 225.308594 213.703125 223.8125 210.054688 222.816406 C 206.960938 221.601562 199.382812 221.960938 195.535156 224.113281 C 190.988281 226.652344 187.144531 231.183594 184.582031 238.484375 C 181.214844 250.773438 182.734375 266.164062 184.867188 273.40625 C 187.40625 281.085938 191.386719 285.179688 196.6875 287.765625 C 199.988281 288.875 205.742188 289.71875 211.125 288.261719 C 216.992188 286.042969 219.675781 282.1875 222.003906 278.082031 C 223.417969 275.300781 225.042969 269.96875 224.757812 264.058594 L 213.679688 264.195312 C 213.6875 266.355469 213.25 268.851562 212.699219 271.015625 C 211.449219 274.039062 209.511719 276.058594 204.699219 276.058594 C 201.472656 276.054688 199.292969 274.726562 197.488281 272.347656 C 195.050781 269.996094 194.414062 264.730469 194.25 263.242188 C 193.515625 256.519531 193.496094 249.867188 195.433594 242.855469 C 196.167969 240.019531 197.636719 237.398438 199.554688 236.121094 C 202.664062 234.4375 205.882812 234.6875 207.699219 235.21875 C 210.089844 235.957031 212.292969 237.742188 212.980469 240.105469 C 213.515625 242.324219 213.601562 243.675781 213.632812 245.132812 Z "/>
<path style=" stroke:none;fill-rule:evenodd;fill:rgb(100%,100%,100%);fill-opacity:1;" d="M 151.996094 290.222656 L 128.199219 271.730469 L 103.773438 290.109375 L 113.449219 261.324219 L 88.6875 243.101562 L 118.46875 243.808594 L 127.589844 214.167969 L 136.316406 243.386719 L 166.714844 243.289062 L 142.328125 260.644531 Z "/>
<path style="fill:none;stroke-width:1.25;stroke-linecap:butt;stroke-linejoin:miter;stroke:rgb(0%,0%,0%);stroke-opacity:1;stroke-miterlimit:4;" d="M 50.757812 139.269531 L 50.757812 139.269531 "/>
<path style="fill:none;stroke-width:1;stroke-linecap:butt;stroke-linejoin:miter;stroke:rgb(0%,15.686275%,40.784314%);stroke-opacity:1;stroke-miterlimit:4;" d="M 50.832031 139.179688 C 51.878906 140.253906 53.953125 139.988281 56.8125 139.445312 C 59.09375 139.167969 61.695312 139.0625 63.742188 138.828125 C 67.132812 139.105469 69.074219 139.898438 67.679688 141.503906 "/>
<path style="fill-rule:evenodd;fill:rgb(100%,79.215686%,0%);fill-opacity:1;stroke-width:1;stroke-linecap:butt;stroke-linejoin:miter;stroke:rgb(0%,15.686275%,40.784314%);stroke-opacity:1;stroke-miterlimit:4;" d="M 216.644531 118.25 C 232.277344 126.980469 235.109375 130.621094 243.675781 137.3125 L 224.679688 137.710938 C 224.90625 139.480469 229.050781 161.507812 229.445312 163.0625 C 215.144531 153.558594 208.355469 149.199219 188.84375 143.703125 C 181.089844 141.550781 189.730469 133.53125 190.539062 131.4375 C 195.839844 133.828125 200.335938 136.671875 203.542969 140.292969 "/>
<path style="fill:none;stroke-width:1.25;stroke-linecap:butt;stroke-linejoin:miter;stroke:rgb(0%,0%,0%);stroke-opacity:1;stroke-miterlimit:4;" d="M 203.28125 140.210938 L 203.28125 140.210938 "/>
<path style="fill:none;stroke-width:1;stroke-linecap:butt;stroke-linejoin:miter;stroke:rgb(0%,15.686275%,40.784314%);stroke-opacity:1;stroke-miterlimit:4;" d="M 202.984375 140.125 C 201.230469 140.933594 199.417969 140.578125 197.226562 140.386719 C 195.148438 140.085938 192.789062 139.730469 190.453125 139.652344 C 186.539062 139.679688 185.125 141.3125 186.359375 142.449219 "/>
<path style="fill:none;stroke-width:2.249997;stroke-linecap:round;stroke-linejoin:round;stroke:rgb(0%,15.686275%,40.784314%);stroke-opacity:1;stroke-miterlimit:4;" d="M 129.375 101.867188 C 132.398438 101.921875 135.328125 102.042969 135.328125 102.042969 "/>
<path style="fill:none;stroke-width:2.250005;stroke-linecap:round;stroke-linejoin:round;stroke:rgb(0%,15.686275%,40.784314%);stroke-opacity:1;stroke-miterlimit:4;" d="M 138.667969 97.914062 L 138.3125 112.335938 "/>
<path style="fill:none;stroke-width:2.250005;stroke-linecap:round;stroke-linejoin:round;stroke:rgb(0%,15.686275%,40.784314%);stroke-opacity:1;stroke-miterlimit:4;" d="M 144.945312 112.992188 C 145.789062 102.636719 144.433594 102.269531 139.433594 102.292969 "/>
<path style="fill:none;stroke-width:2.25;stroke-linecap:round;stroke-linejoin:round;stroke:rgb(0%,15.686275%,40.784314%);stroke-opacity:1;stroke-miterlimit:4;" d="M 131.734375 97.390625 L 131.511719 109.378906 C 131.480469 111.65625 132.1875 112.304688 134.164062 112.304688 "/>
<path style="fill:none;stroke-width:3.125003;stroke-linecap:round;stroke-linejoin:round;stroke:rgb(0%,15.686275%,40.784314%);stroke-opacity:1;stroke-miterlimit:4;" d="M 80.601562 98.960938 L 88.011719 106.476562 L 89.351562 114.640625 "/>
<path style="fill:none;stroke-width:3.125003;stroke-linecap:round;stroke-linejoin:round;stroke:rgb(0%,15.686275%,40.784314%);stroke-opacity:1;stroke-miterlimit:4;" d="M 92.25 96.375 L 88.1875 106.839844 "/>
<path style="fill-rule:evenodd;fill:rgb(100%,79.215686%,0%);fill-opacity:1;stroke-width:1;stroke-linecap:butt;stroke-linejoin:miter;stroke:rgb(0%,15.686275%,40.784314%);stroke-opacity:1;stroke-miterlimit:4;" d="M 38.023438 387.449219 C 22.394531 378.914062 19.558594 375.355469 10.992188 368.808594 L 29.992188 368.421875 C 29.765625 366.691406 25.617188 345.152344 25.222656 343.632812 C 39.527344 352.925781 46.3125 357.1875 65.828125 362.5625 C 73.582031 364.667969 65.21875 372.371094 64.410156 374.421875 C 59.109375 372.082031 55.035156 369.300781 51.125 365.898438 "/>
<path style="fill-rule:evenodd;fill:rgb(100%,79.215686%,0%);fill-opacity:1;stroke-width:1;stroke-linecap:butt;stroke-linejoin:miter;stroke:rgb(0%,15.686275%,40.784314%);stroke-opacity:1;stroke-miterlimit:4;" d="M 51.378906 366.078125 C 80.519531 392.179688 176.9375 391.558594 203.789062 365.269531 C 204.65625 365.574219 222.03125 394.238281 221.164062 393.933594 C 168.441406 430.050781 73.96875 423.863281 34.320312 395.359375 L 34.789062 393.65625 Z "/>
<path style="fill:none;stroke-width:1.236091;stroke-linecap:butt;stroke-linejoin:miter;stroke:rgb(0%,0%,0%);stroke-opacity:1;stroke-miterlimit:4;" d="M 50.757812 366.289062 L 50.757812 366.289062 "/>
<path style="fill:none;stroke-width:1;stroke-linecap:butt;stroke-linejoin:miter;stroke:rgb(0%,15.686275%,40.784314%);stroke-opacity:1;stroke-miterlimit:4;" d="M 51.460938 366.0625 C 52.507812 365.011719 54.582031 365.273438 57.441406 365.804688 C 59.722656 366.074219 62.324219 366.175781 64.371094 366.40625 C 67.761719 366.136719 69.703125 365.359375 68.308594 363.789062 "/>
<path style="fill-rule:evenodd;fill:rgb(100%,79.215686%,0%);fill-opacity:1;stroke-width:1;stroke-linecap:butt;stroke-linejoin:miter;stroke:rgb(0%,15.686275%,40.784314%);stroke-opacity:1;stroke-miterlimit:4;" d="M 217.273438 386.527344 C 232.90625 377.992188 235.738281 374.433594 244.304688 367.886719 L 225.308594 367.5 C 225.535156 365.769531 229.679688 344.230469 230.074219 342.710938 C 215.773438 352.003906 208.984375 356.265625 189.472656 361.640625 C 181.71875 363.746094 190.359375 371.585938 191.167969 373.636719 C 196.46875 371.296875 200.964844 368.515625 204.171875 364.976562 "/>
<path style="fill:none;stroke-width:1.236091;stroke-linecap:butt;stroke-linejoin:miter;stroke:rgb(0%,0%,0%);stroke-opacity:1;stroke-miterlimit:4;" d="M 203.28125 365.367188 L 203.28125 365.367188 "/>
<path style="fill:none;stroke-width:1;stroke-linecap:butt;stroke-linejoin:miter;stroke:rgb(0%,15.686275%,40.784314%);stroke-opacity:1;stroke-miterlimit:4;" d="M 203.613281 365.140625 C 201.859375 364.347656 200.046875 364.699219 197.855469 364.882812 C 195.777344 365.179688 193.417969 365.523438 191.082031 365.601562 C 187.167969 365.574219 185.753906 363.976562 186.988281 362.867188 "/>
<path style="fill:none;stroke-width:3.125;stroke-linecap:round;stroke-linejoin:round;stroke:rgb(0%,15.686275%,40.784314%);stroke-opacity:1;stroke-miterlimit:4;" d="M 126.722656 400.308594 C 127.980469 396.003906 130.839844 396.53125 133.390625 397.121094 C 135.4375 398.523438 135.730469 402.355469 133.773438 404.582031 L 130.183594 407.316406 C 128.667969 408.324219 127.160156 410.195312 127.214844 412.289062 L 135.910156 412.117188 "/>
<path style="fill:none;stroke-width:3.124998;stroke-linecap:round;stroke-linejoin:round;stroke:rgb(0%,15.686275%,40.784314%);stroke-opacity:1;stroke-miterlimit:4;" d="M 117.945312 399.726562 C 119.519531 398.871094 119.898438 398.53125 121.105469 396.78125 L 120.429688 412.355469 "/>
<path style="fill:none;stroke-width:3.125001;stroke-linecap:round;stroke-linejoin:miter;stroke:rgb(0%,15.686275%,40.784314%);stroke-opacity:1;stroke-miterlimit:4;" d="M 98.769531 392.875 C 98.769531 392.972656 96.121094 409.144531 96.007812 409.808594 L 104.429688 410.996094 "/>
<path style="fill:none;stroke-width:3.124999;stroke-linecap:round;stroke-linejoin:round;stroke:rgb(0%,15.686275%,40.784314%);stroke-opacity:1;stroke-miterlimit:4;" d="M 88.882812 408.945312 L 91.472656 391.300781 "/>
<path style="fill:none;stroke-width:3.124999;stroke-linecap:round;stroke-linejoin:miter;stroke:rgb(0%,15.686275%,40.784314%);stroke-opacity:1;stroke-miterlimit:4;" d="M 58.789062 399.695312 L 65.214844 383.378906 C 67.140625 384.34375 69.621094 384.722656 71.761719 386.632812 C 73.148438 388.941406 72.507812 393.675781 68.53125 394.125 C 66.335938 393.832031 64.503906 392.773438 62.582031 391.902344 "/>
<path style="fill:none;stroke-width:3.084307;stroke-linecap:round;stroke-linejoin:round;stroke:rgb(0%,15.686275%,40.784314%);stroke-opacity:1;stroke-miterlimit:4;" d="M 163.910156 396.390625 C 165.179688 395.15625 166.042969 393.910156 166.769531 391.878906 L 170.054688 409.199219 "/>
<path style="fill:none;stroke-width:3.125003;stroke-linecap:round;stroke-linejoin:round;stroke:rgb(0%,15.686275%,40.784314%);stroke-opacity:1;stroke-miterlimit:4;" d="M 171.324219 391.40625 C 171.527344 391.355469 179.734375 388.484375 179.734375 388.484375 C 179.359375 394.765625 179.242188 400.792969 180.027344 406.367188 "/>
<path style="fill:none;stroke-width:3.124997;stroke-linecap:round;stroke-linejoin:round;stroke:rgb(0%,15.686275%,40.784314%);stroke-opacity:1;stroke-miterlimit:4;" d="M 184.042969 387 L 192.457031 383.707031 C 192.097656 390.074219 191.703125 396.855469 192.871094 401.632812 "/>
<path style="fill:none;stroke-width:3.124996;stroke-linecap:round;stroke-linejoin:round;stroke:rgb(0%,15.686275%,40.784314%);stroke-opacity:1;stroke-miterlimit:4;" d="M 204.039062 380.402344 C 203.074219 378.8125 201.605469 378.230469 199.542969 378.773438 C 197.628906 380.449219 197.273438 381.777344 197.136719 383.820312 C 197.214844 386.351562 197.914062 388.847656 199.0625 391.082031 C 199.851562 393.164062 201.554688 394.652344 202.839844 394.980469 C 204.296875 395.515625 205.382812 395.378906 206.550781 394.371094 C 207.441406 393.246094 207.84375 391.363281 207.761719 389.941406 C 207.488281 388.058594 206.636719 386.347656 204.714844 385.347656 C 203.226562 384.738281 202.613281 384.613281 201.269531 385.1875 C 199.230469 386.390625 198.859375 388.621094 199.160156 390.894531 "/>
<path style="fill:none;stroke-width:2.249999;stroke-linecap:round;stroke-linejoin:round;stroke:rgb(0%,15.686275%,40.784314%);stroke-opacity:1;stroke-miterlimit:4;" d="M 138 401.707031 C 141.023438 401.566406 143.953125 401.496094 143.953125 401.496094 "/>
<path style="fill:none;stroke-width:2.250001;stroke-linecap:round;stroke-linejoin:round;stroke:rgb(0%,15.686275%,40.784314%);stroke-opacity:1;stroke-miterlimit:4;" d="M 140.070312 397.085938 L 140.621094 409.066406 C 140.734375 411.335938 141.480469 411.9375 143.457031 411.8125 "/>
<path style="fill:none;stroke-width:2.250004;stroke-linecap:round;stroke-linejoin:round;stroke:rgb(0%,15.686275%,40.784314%);stroke-opacity:1;stroke-miterlimit:4;" d="M 145.929688 396.964844 L 147.589844 411.292969 "/>
<path style="fill:none;stroke-width:2.250004;stroke-linecap:round;stroke-linejoin:round;stroke:rgb(0%,15.686275%,40.784314%);stroke-opacity:1;stroke-miterlimit:4;" d="M 154.25 411.019531 C 153.640625 400.648438 152.25 400.472656 147.300781 401.191406 "/>
<path style="fill:none;stroke-width:3.125001;stroke-linecap:round;stroke-linejoin:round;stroke:rgb(0%,15.686275%,40.784314%);stroke-opacity:1;stroke-miterlimit:4;" d="M 43.757812 392.410156 C 43.757812 392.410156 56.632812 378.878906 56.757812 379.019531 C 57.328125 378.511719 54.226562 397.578125 54.226562 397.578125 "/>
<path style="fill:none;stroke-width:3.125001;stroke-linecap:round;stroke-linejoin:round;stroke:rgb(0%,15.686275%,40.784314%);stroke-opacity:1;stroke-miterlimit:4;" d="M 48.464844 387.699219 L 55.144531 390.902344 "/>
<path style="fill:none;stroke-width:3.124999;stroke-linecap:round;stroke-linejoin:miter;stroke:rgb(0%,15.686275%,40.784314%);stroke-opacity:1;stroke-miterlimit:4;" d="M 72.800781 405.542969 C 72.800781 405.449219 77.488281 388.039062 77.488281 388.039062 C 79.496094 388.523438 81.59375 388.820312 83.511719 389.5 C 84.851562 389.941406 86.890625 391.601562 86.101562 394.28125 C 85.734375 395.90625 84.976562 397.347656 83.828125 398.234375 "/>
<path style="fill:none;stroke-width:3.124999;stroke-linecap:round;stroke-linejoin:round;stroke:rgb(0%,15.686275%,40.784314%);stroke-opacity:1;stroke-miterlimit:4;" d="M 75.425781 396.546875 L 81.832031 398.1875 C 83.558594 398.808594 83.976562 400.320312 83.980469 400.414062 C 84.300781 401.832031 83.21875 407.941406 83.21875 407.941406 "/>
</g>
</svg>
