<?xml version="1.0" encoding="UTF-8"?>
<!-- Created by grConvert v0.1-0 -->
<svg xmlns="http://www.w3.org/2000/svg" xmlns:xlink="http://www.w3.org/1999/xlink" width="531pt" height="496pt" viewBox="0 0 531 496" version="1.1">
<g id="surface1">
<rect x="0" y="0" width="531" height="496" style="fill:rgb(99.607843%,77.254902%,0%);fill-opacity:1;stroke:none;"/>
<path style=" stroke:none;fill-rule:evenodd;fill:rgb(100%,100%,100%);fill-opacity:1;" d="M 0 17.714844 L 513.78125 17.714844 L 513.78125 478.347656 L 0 478.347656 Z "/>
<path style="fill-rule:evenodd;fill:rgb(0%,19.607843%,44.313725%);fill-opacity:1;stroke-width:0.340919;stroke-linecap:butt;stroke-linejoin:miter;stroke:rgb(100%,100%,100%);stroke-opacity:1;stroke-miterlimit:4;" d="M 224.612927 292.177964 C 224.612927 292.177964 231.548948 300.101674 234.520894 301.588757 C 237.492841 303.07362 251.857617 310.99955 251.857617 310.99955 L 251.360443 322.392381 C 251.360443 322.392381 242.941779 320.410343 233.528766 314.961405 C 224.117973 309.514687 215.697089 300.596629 215.697089 300.596629 L 225.605056 301.093803 Z " transform="matrix(1.759947,0,0,1.759947,-214.85379,-205.5811)"/>
<path style="fill-rule:evenodd;fill:rgb(0%,19.607843%,44.313725%);fill-opacity:1;stroke-width:0.340919;stroke-linecap:butt;stroke-linejoin:miter;stroke:rgb(100%,100%,100%);stroke-opacity:1;stroke-miterlimit:4;" d="M 282.072034 321.897426 C 282.072034 321.897426 293.464865 319.420434 301.390794 313.476542 C 309.314505 307.53265 317.240435 300.596629 317.240435 300.596629 L 307.829641 301.588757 L 308.81955 292.177964 C 308.81955 292.177964 301.390794 299.60672 296.436811 303.07362 C 291.482827 306.542741 281.082125 309.514687 281.082125 309.514687 Z " transform="matrix(1.759947,0,0,1.759947,-214.85379,-205.5811)"/>
<path style="fill-rule:evenodd;fill:rgb(0%,19.607843%,44.313725%);fill-opacity:1;stroke-width:0.340919;stroke-linecap:butt;stroke-linejoin:miter;stroke:rgb(100%,100%,100%);stroke-opacity:1;stroke-miterlimit:4;" d="M 241.94965 298.121856 C 241.94965 298.121856 254.829564 305.055658 265.72522 304.560703 C 276.623096 304.065749 290.492918 298.121856 290.492918 298.121856 L 290.987873 313.971496 C 290.987873 313.971496 275.633187 319.420434 266.220175 319.420434 C 256.809381 319.420434 241.94965 313.971496 241.94965 313.971496 Z " transform="matrix(1.759947,0,0,1.759947,-214.85379,-205.5811)"/>
<path style="fill:none;stroke-width:0.340919;stroke-linecap:butt;stroke-linejoin:miter;stroke:rgb(100%,100%,100%);stroke-opacity:1;stroke-miterlimit:4;" d="M 241.962967 313.878276 L 251.267223 322.232575 " transform="matrix(1.759947,0,0,1.759947,-214.85379,-205.5811)"/>
<path style="fill:none;stroke-width:0.340919;stroke-linecap:butt;stroke-linejoin:miter;stroke:rgb(100%,100%,100%);stroke-opacity:1;stroke-miterlimit:4;" d="M 290.801433 313.971496 L 282.165254 321.642181 " transform="matrix(1.759947,0,0,1.759947,-214.85379,-205.5811)"/>
<path style=" stroke:none;fill-rule:evenodd;fill:rgb(99.607843%,77.254902%,0%);fill-opacity:1;" d="M 216.6875 328.597656 L 216.40625 344.15625 L 220.929688 345.851562 L 220.929688 339.628906 L 227.71875 339.910156 L 227.4375 347.265625 L 231.964844 348.117188 L 232.246094 331.707031 L 228.285156 331.425781 L 227.71875 336.515625 L 221.214844 335.953125 L 221.214844 329.726562 Z "/>
<path style=" stroke:none;fill-rule:evenodd;fill:rgb(99.607843%,77.254902%,0%);fill-opacity:1;" d="M 280.902344 348.117188 L 280.621094 330.292969 L 292.78125 326.617188 L 292.78125 330.578125 L 284.863281 333.121094 L 284.863281 336.800781 L 292.5 333.972656 L 292.21875 338.214844 L 284.863281 339.910156 L 284.578125 344.15625 L 292.78125 341.042969 L 293.066406 343.871094 Z "/>
<path style=" stroke:none;fill-rule:evenodd;fill:rgb(99.607843%,77.254902%,0%);fill-opacity:1;" d="M 242.714844 342.175781 C 242.714844 342.175781 242.429688 336.234375 246.390625 336.234375 C 250.351562 336.234375 250.917969 340.761719 250.632812 342.742188 C 250.351562 344.722656 249.785156 348.117188 246.957031 348.398438 C 244.128906 348.679688 242.996094 346.417969 242.714844 342.175781 Z M 246.671875 351.792969 C 251.757812 351.660156 254.3125 348.398438 254.3125 341.890625 C 254.3125 335.667969 249.785156 332.839844 246.390625 332.839844 C 242.996094 332.839844 238.753906 337.082031 238.753906 342.175781 C 238.753906 347.265625 241.007812 351.941406 246.671875 351.792969 Z "/>
<path style=" stroke:none;fill-rule:evenodd;fill:rgb(99.607843%,77.254902%,0%);fill-opacity:1;" d="M 265.625 336.515625 L 265.625 340.761719 C 265.625 340.761719 271.566406 341.042969 271.566406 338.214844 C 271.566406 335.386719 266.476562 336.800781 265.625 336.515625 Z M 261.667969 351.792969 L 261.101562 334.253906 L 267.890625 333.6875 C 270.992188 333.429688 275.527344 334.820312 275.246094 337.648438 C 274.960938 340.476562 274.640625 342.992188 270.152344 343.589844 L 265.910156 344.15625 L 265.625 351.511719 Z "/>
<path style="fill-rule:evenodd;fill:rgb(99.607843%,77.254902%,0%);fill-opacity:1;stroke-width:0.710249;stroke-linecap:butt;stroke-linejoin:miter;stroke:rgb(99.607843%,77.254902%,0%);stroke-opacity:1;stroke-miterlimit:10;" d="M 264.240357 211.438242 C 264.240357 211.438242 263.745402 265.925402 263.745402 269.887257 C 263.745402 273.849113 263.745402 279.298051 259.286373 278.308142 C 254.829564 277.316013 249.380626 277.316013 241.454696 271.869295 C 233.528766 266.420357 233.528766 265.428228 233.528766 265.428228 L 240.959741 262.953456 C 240.959741 262.953456 233.528766 261.466373 228.577002 257.999472 C 223.623018 254.532572 219.658944 251.560626 219.658944 251.560626 C 219.658944 251.560626 219.163989 258.989381 221.640981 264.438319 C 224.117973 269.887257 229.071956 274.841241 229.071956 274.841241 L 229.071956 268.400175 C 229.071956 268.400175 236.005758 274.841241 238.48275 276.326104 C 240.959741 277.813187 250.865489 281.775042 254.829564 284.252034 C 258.791419 286.729026 266.717349 293.662827 266.717349 293.662827 C 266.717349 293.662827 273.65115 285.736897 278.605134 283.75708 C 283.556898 281.775042 289.997964 278.803096 292.96991 276.821059 C 295.941856 274.841241 303.865567 267.410266 303.865567 267.410266 L 303.865567 275.83115 C 303.865567 275.83115 309.314505 269.392303 310.801588 264.933274 C 312.286451 260.476464 312.781405 252.550534 312.781405 252.550534 C 312.781405 252.550534 308.81955 255.522481 305.35265 257.007344 C 301.885749 258.494427 291.977782 262.456282 291.977782 262.456282 L 299.903712 264.438319 C 299.903712 264.438319 287.026018 274.344067 282.566989 276.326104 C 278.110179 278.308142 268.697166 279.298051 268.697166 274.344067 C 268.697166 269.392303 269.192121 211.438242 269.192121 211.438242 Z " transform="matrix(1.759947,0,0,1.759947,-214.85379,-205.5811)"/>
<path style="fill-rule:evenodd;fill:rgb(99.607843%,77.254902%,0%);fill-opacity:1;stroke-width:0.568199;stroke-linecap:square;stroke-linejoin:miter;stroke:rgb(99.607843%,77.254902%,0%);stroke-opacity:1;stroke-miterlimit:10;" d="M 264.735311 193.11161 L 268.202212 193.11161 L 268.202212 207.971341 L 264.735311 207.971341 Z " transform="matrix(1.759947,0,0,1.759947,-214.85379,-205.5811)"/>
<path style="fill-rule:evenodd;fill:rgb(99.607843%,77.254902%,0%);fill-opacity:1;stroke-width:0.710249;stroke-linecap:butt;stroke-linejoin:miter;stroke:rgb(100%,100%,100%);stroke-opacity:1;stroke-miterlimit:10;" d="M 239.967613 207.971341 C 239.967613 207.971341 253.837435 204.999395 266.717349 204.999395 C 279.595042 204.999395 292.96991 207.971341 292.96991 207.971341 L 292.96991 213.420279 C 292.96991 213.420279 275.138233 215.895051 264.735311 215.895051 C 254.33239 215.895051 239.472658 212.923105 239.472658 212.923105 Z " transform="matrix(1.759947,0,0,1.759947,-214.85379,-205.5811)"/>
<path style="fill-rule:evenodd;fill:rgb(99.607843%,77.254902%,0%);fill-opacity:1;stroke-width:0.710249;stroke-linecap:square;stroke-linejoin:miter;stroke:rgb(100%,100%,100%);stroke-opacity:1;stroke-miterlimit:10;" d="M 271.669113 205.494349 C 271.669113 208.777029 269.340829 211.438242 266.468762 211.438242 C 263.596694 211.438242 261.268411 208.777029 261.268411 205.494349 C 261.268411 202.211669 263.596694 199.550457 266.468762 199.550457 C 269.340829 199.550457 271.669113 202.211669 271.669113 205.494349 Z M 274.146104 205.245762 C 274.146104 209.760279 270.599301 213.420279 266.220175 213.420279 C 261.843268 213.420279 258.296464 209.760279 258.296464 205.245762 C 258.296464 200.733464 261.843268 197.073465 266.220175 197.073465 C 270.599301 197.073465 274.146104 200.733464 274.146104 205.245762 Z " transform="matrix(1.759947,0,0,1.759947,-214.85379,-205.5811)"/>
<path style=" stroke:none;fill-rule:evenodd;fill:rgb(99.607843%,77.254902%,0%);fill-opacity:1;" d="M 254.964844 59.253906 L 262.546875 77.800781 L 282.847656 79.660156 L 267.1875 92.460938 L 271.660156 111.957031 L 254.402344 101.316406 L 236.863281 111.507812 L 241.855469 92.132812 L 226.546875 78.933594 L 246.890625 77.601562 Z "/>
<path style=" stroke:none;fill-rule:evenodd;fill:rgb(99.607843%,77.254902%,0%);fill-opacity:1;" d="M 344.777344 81.199219 L 342.105469 101.058594 L 358.777344 112.789062 L 338.824219 116.082031 L 332.984375 135.210938 L 323.324219 117.386719 L 303.039062 117.480469 L 317.023438 103.171875 L 310.332031 84.101562 L 328.632812 93.082031 Z "/>
<path style=" stroke:none;fill-rule:evenodd;fill:rgb(99.607843%,77.254902%,0%);fill-opacity:1;" d="M 410.902344 141.308594 L 399.886719 158.050781 L 409.832031 175.84375 L 390.421875 170.167969 L 376.867188 184.875 L 375.886719 164.625 L 357.566406 155.921875 L 376.367188 149.085938 L 378.601562 128.996094 L 391.203125 145.019531 Z "/>
<path style=" stroke:none;fill-rule:evenodd;fill:rgb(99.607843%,77.254902%,0%);fill-opacity:1;" d="M 442.347656 229.097656 L 424.925781 239 L 425.691406 259.371094 L 410.984375 245.488281 L 392.226562 252.425781 L 400.558594 233.945312 L 388.199219 217.863281 L 408.054688 220.320312 L 419.175781 203.445312 L 423.113281 223.445312 Z "/>
<path style=" stroke:none;fill-rule:evenodd;fill:rgb(99.607843%,77.254902%,0%);fill-opacity:1;" d="M 433.113281 320.382812 L 413.089844 321.136719 L 404.375 339.566406 L 397.726562 320.46875 L 377.878906 317.976562 L 393.796875 305.417969 L 390.242188 285.449219 L 406.726562 296.785156 L 424.378906 286.933594 L 418.652344 306.5 Z "/>
<path style=" stroke:none;fill-rule:evenodd;fill:rgb(99.607843%,77.254902%,0%);fill-opacity:1;" d="M 164.894531 80.996094 L 179.859375 94.324219 L 198.910156 87.070312 L 190.472656 105.449219 L 203.058594 120.996094 L 182.878906 119.027344 L 171.605469 135.890625 L 167.574219 116.292969 L 148.023438 111.167969 L 165.707031 101.027344 Z "/>
<path style=" stroke:none;fill-rule:evenodd;fill:rgb(99.607843%,77.254902%,0%);fill-opacity:1;" d="M 302.050781 382.847656 L 302.339844 402.886719 L 320.558594 412.023438 L 301.308594 418.226562 L 298.355469 438.007812 L 286.171875 421.804688 L 266.125 424.890625 L 277.84375 408.675781 L 268.410156 390.796875 L 287.835938 396.980469 Z "/>
<path style=" stroke:none;fill-rule:evenodd;fill:rgb(99.607843%,77.254902%,0%);fill-opacity:1;" d="M 128.628906 131.164062 L 130.277344 151.136719 L 149.078125 159.015625 L 130.296875 166.511719 L 128.695312 186.449219 L 115.4375 171.113281 L 95.648438 175.558594 L 106.234375 158.582031 L 95.605469 141.390625 L 115.40625 146.234375 Z "/>
<path style=" stroke:none;fill-rule:evenodd;fill:rgb(99.607843%,77.254902%,0%);fill-opacity:1;" d="M 87.75 203.492188 L 98.730469 220.257812 L 119.011719 218.210938 L 106.082031 233.761719 L 114.1875 252.046875 L 95.21875 244.894531 L 79.945312 258.242188 L 81.152344 238.273438 L 63.605469 228.234375 L 83.320312 223.042969 Z "/>
<path style=" stroke:none;fill-rule:evenodd;fill:rgb(99.607843%,77.254902%,0%);fill-opacity:1;" d="M 84.539062 285.796875 L 102.269531 295.136719 L 119.015625 283.515625 L 115.246094 303.382812 L 131.199219 315.449219 L 111.136719 318.386719 L 104.25 337.464844 L 95.621094 319.414062 L 75.414062 319.136719 L 90.140625 305.042969 Z "/>
<path style=" stroke:none;fill-rule:evenodd;fill:rgb(99.607843%,77.254902%,0%);fill-opacity:1;" d="M 149.84375 343.644531 L 155.28125 362.933594 L 175.238281 367.074219 L 158.234375 378.023438 L 160.472656 397.898438 L 144.527344 385.375 L 125.953125 393.519531 L 133.101562 374.832031 L 119.382812 359.988281 L 139.746094 360.960938 Z "/>
<path style=" stroke:none;fill-rule:evenodd;fill:rgb(99.607843%,77.254902%,0%);fill-opacity:1;" d="M 236.597656 391.300781 L 227.367188 409.085938 L 239.089844 425.761719 L 219.199219 422.113281 L 207.234375 438.144531 L 204.171875 418.101562 L 185.050781 411.332031 L 203.050781 402.59375 L 203.199219 382.382812 L 217.386719 397.023438 Z "/>
<path style=" stroke:none;fill-rule:evenodd;fill:rgb(99.607843%,77.254902%,0%);fill-opacity:1;" d="M 358.464844 344.542969 L 368.589844 361.835938 L 388.949219 360.808594 L 375.257812 375.691406 L 382.4375 394.359375 L 363.851562 386.265625 L 347.929688 398.832031 L 350.132812 378.945312 L 333.113281 368.042969 L 353.0625 363.847656 Z "/>
</g>
</svg>
