<?xml version="1.0" encoding="UTF-8"?>
<!-- Created by grConvert v0.1-0 -->
<svg xmlns="http://www.w3.org/2000/svg" xmlns:xlink="http://www.w3.org/1999/xlink" width="750pt" height="500pt" viewBox="0 0 750 500" version="1.1">
<g id="surface1">
<rect x="0" y="0" width="750" height="500" style="fill:rgb(0%,20%,40%);fill-opacity:1;stroke:none;"/>
<path style=" stroke:none;fill-rule:evenodd;fill:rgb(100%,100%,100%);fill-opacity:1;" d="M 41.519531 93.34375 C 20.371094 163.847656 105.40625 220.8125 163.328125 169.699219 C 224.070312 105.917969 156.285156 19.769531 85.886719 47.269531 C 137.265625 38.4375 167.890625 97.800781 133.34375 134.84375 C 99.972656 168.929688 39.117188 146.53125 41.519531 93.34375 Z "/>
<path style=" stroke:none;fill-rule:evenodd;fill:rgb(100%,100%,100%);fill-opacity:1;" d="M 412.5625 84.605469 C 409.867188 85.859375 407.878906 89.503906 406.742188 92.378906 C 404.042969 100.410156 401.265625 108.425781 398.554688 116.445312 C 397.140625 120.050781 395.773438 123.71875 394.347656 127.296875 C 391.730469 126.941406 395.378906 122.472656 395.179688 120.558594 C 396.042969 116.632812 397.964844 112.796875 398.128906 108.789062 C 397.472656 105.789062 398.195312 101.894531 396.707031 99.453125 C 394.484375 104.582031 391.667969 109.496094 389.753906 114.742188 C 388.316406 121.039062 386.382812 127.222656 385.578125 133.644531 C 385.09375 136.96875 384.511719 140.246094 383.429688 143.433594 C 380.769531 143.1875 381.472656 138.496094 379.90625 136.558594 C 378.484375 132.042969 375.625 128.132812 373.554688 123.890625 C 372.5 122.839844 370.070312 115.453125 370.113281 119.570312 C 369.878906 122.542969 369.671875 125.519531 369.402344 128.492188 C 363.484375 117.433594 357.550781 106.386719 351.625 95.332031 C 352.109375 98.921875 351.609375 102.792969 352.914062 106.1875 C 355.789062 112.378906 358.414062 118.6875 361.15625 124.9375 C 359.714844 126.304688 359.421875 124.042969 358.703125 123.125 C 353.226562 113.464844 347.753906 103.800781 342.28125 94.136719 C 340.070312 95.691406 341.609375 98.554688 341.324219 100.792969 C 342.230469 103.933594 344.308594 106.742188 345.726562 109.714844 C 348.316406 114.5625 350.980469 119.386719 353.640625 124.179688 C 351.730469 126.285156 350.695312 120.332031 349.328125 118.992188 C 344.378906 110.40625 339.480469 101.789062 334.386719 93.289062 C 332.152344 94.058594 331.460938 95.695312 331.835938 97.859375 C 331.46875 100.027344 332.367188 101.871094 333.621094 103.613281 C 337.449219 110.242188 341.316406 116.847656 345.175781 123.457031 C 343.867188 124.976562 343.46875 122.757812 342.707031 121.871094 C 336.492188 112.039062 330.28125 102.207031 324.066406 92.375 C 322.554688 91.695312 320.417969 89.882812 320.902344 92.894531 C 320.183594 96.664062 324.28125 99.300781 325.621094 102.5625 C 331.148438 111.113281 336.84375 119.710938 342.34375 128.175781 C 341.191406 129.730469 340.664062 127.746094 339.921875 126.894531 C 336.429688 121.941406 332.9375 116.988281 329.445312 112.039062 C 328.144531 111.699219 326.46875 110.851562 326.960938 112.96875 C 326.875 114.308594 326.515625 115.726562 327.65625 116.738281 C 333.242188 125.121094 338.929688 133.460938 344.453125 141.871094 C 346.242188 145.535156 347.875 149.308594 349.765625 152.902344 C 352.953125 156.1875 356.144531 159.46875 359.332031 162.75 C 357.042969 164.59375 354.722656 158.742188 352.445312 157.6875 C 350.027344 154.96875 346.78125 152.796875 345.417969 149.316406 C 343.757812 146.726562 342.808594 143.632812 340.253906 141.738281 C 337.421875 139.613281 335.246094 135.746094 331.964844 134.785156 C 330.902344 137.125 331.769531 142.390625 334.945312 144.199219 C 335.265625 145.070312 339.722656 148.074219 337.273438 147.457031 C 332.476562 146.929688 327.964844 145.25 323.46875 143.59375 C 320.75 146.199219 329.957031 148.285156 324.789062 149.347656 C 321.054688 149.398438 318.171875 146.011719 314.753906 144.757812 C 306.242188 140.101562 297.515625 135.8125 288.8125 131.542969 C 287.003906 130.996094 285.195312 130.453125 283.390625 129.90625 C 282.886719 133.058594 287.8125 133.949219 289.449219 136.179688 C 296.054688 139.746094 302.820312 143.125 309.4375 146.707031 C 309.226562 148.695312 307.429688 147.191406 306.230469 147 C 293.84375 143.011719 281.460938 139.023438 269.074219 135.035156 C 266.996094 134.539062 267.359375 135.628906 268.199219 137.03125 C 268.40625 138.65625 270.019531 138.738281 271.277344 139.207031 C 281 142.46875 290.714844 145.757812 300.441406 149.003906 C 300.824219 150.535156 301.144531 152.082031 301.480469 153.628906 C 299.269531 151.808594 297.089844 149.726562 294.0625 149.527344 C 287.730469 147.960938 281.207031 149.289062 274.789062 149.363281 C 271.363281 148.542969 270.917969 151.308594 274.328125 151.898438 C 277.070312 154.027344 280.605469 152.832031 283.792969 153 C 288.976562 152.847656 294.15625 152.679688 299.339844 152.496094 C 300.257812 155.449219 294.277344 153.472656 294.050781 155.871094 C 293.453125 158.71875 298.828125 158.71875 300.769531 158.136719 C 303.730469 158.183594 305.785156 153.792969 308.304688 154.539062 C 307.648438 157.359375 302.699219 157.988281 302.136719 160.902344 C 301.765625 163.824219 307.726562 162.964844 309.441406 161.71875 C 311.429688 160.0625 314.855469 157.570312 315.039062 161.996094 C 315.617188 165.996094 320.90625 164.449219 323.785156 165.804688 C 328.910156 166.585938 334.160156 166.910156 339.242188 167.75 C 344.101562 169.953125 348.976562 172.144531 353.828125 174.359375 C 352.832031 177.113281 348.554688 172.9375 346.339844 173.101562 C 342.671875 172.078125 339.289062 169.992188 335.390625 169.957031 C 332.019531 169.335938 328.632812 169.410156 325.25 169.800781 C 315.003906 170.660156 304.734375 171.351562 294.5 172.308594 C 284.972656 173.917969 275.421875 175.460938 265.898438 177.035156 C 263.476562 177.785156 258.21875 179.203125 263.253906 180.179688 C 274.070312 179.671875 284.863281 178.761719 295.660156 177.945312 C 296.4375 179.835938 294.121094 179.191406 292.957031 179.492188 C 283.980469 180.402344 275 181.3125 266.023438 182.226562 C 263.261719 184.269531 259.570312 185.394531 258.0625 188.738281 C 258.496094 193.496094 264.457031 189.144531 267.40625 189.460938 C 275.175781 188.15625 282.914062 186.917969 290.40625 184.519531 C 292.636719 184.699219 298.214844 180.714844 298.554688 183.578125 C 290.082031 186.191406 281.59375 188.839844 273.050781 191.207031 C 271.234375 191.632812 269.414062 192.054688 267.597656 192.480469 C 267.066406 196.851562 273.679688 194.300781 276.375 194.996094 C 282.300781 193.613281 287.949219 191.21875 293.808594 189.558594 C 296.929688 189.300781 301.664062 185.640625 303.925781 187.144531 C 301.917969 189.195312 297.246094 190.28125 294.324219 191.980469 C 288.296875 194.617188 282.183594 197.039062 276.3125 200.03125 C 272.441406 203.949219 280.421875 203.589844 282.382812 201.5625 C 288.65625 198.683594 294.855469 195.644531 301.039062 192.542969 C 302.554688 193.796875 300.324219 194.398438 299.535156 195.257812 C 296.035156 198 292.617188 200.835938 288.710938 202.992188 C 287.199219 204.207031 284.722656 204.628906 284.425781 206.859375 C 287.859375 208.808594 291.136719 206.441406 294.210938 204.90625 C 302.25 199.703125 310.378906 194.613281 318.5625 189.648438 C 322.097656 188.066406 325.726562 186.691406 329.320312 185.246094 C 330.710938 186.628906 328.441406 187.050781 327.578125 187.863281 C 323.632812 190.507812 319.667969 193.128906 315.730469 195.785156 C 311.425781 200.238281 307.527344 205.136719 302.441406 208.75 C 300.070312 210.734375 297.648438 212.519531 295.773438 214.707031 C 292.054688 218.449219 288.207031 222.054688 284.523438 225.828125 C 283.371094 229.640625 280.921875 233.222656 281.195312 237.3125 C 281.242188 241.714844 280.742188 246.167969 281.15625 250.539062 C 281.609375 252.359375 282.65625 256.5 283.011719 252.359375 C 283.210938 250.464844 284.519531 243.933594 285.921875 248.515625 C 286.691406 250.230469 287.449219 255.398438 288.363281 254.503906 C 289.703125 251.851562 289.949219 248.128906 292.105469 246.121094 C 294.023438 247.238281 295.539062 250.003906 297.367188 246.824219 C 299.6875 244.121094 299.34375 240.0625 300.5 236.773438 C 301.492188 232.503906 302.492188 228.238281 303.492188 223.972656 C 305.308594 223.445312 304.878906 225.648438 305.332031 226.777344 C 305.914062 229.40625 306.496094 232.039062 307.078125 234.667969 C 311.046875 232.949219 309.425781 227.582031 310.707031 224.1875 C 310.960938 221.644531 311.769531 214.949219 314.5 220.058594 C 316.105469 223.910156 320.554688 219.472656 320.417969 216.671875 C 321.324219 212.238281 322.195312 207.796875 323.125 203.367188 C 324.3125 205.488281 325.554688 207.582031 326.773438 209.6875 C 330.917969 209.496094 332.34375 205.339844 335.03125 202.875 C 337.445312 200.367188 339.601562 197.460938 342.28125 195.28125 C 345.335938 193.707031 348.199219 191.601562 351.34375 190.246094 C 354.410156 193.082031 349.78125 196.90625 348.039062 199.339844 C 344.152344 204.140625 339.351562 208.097656 335.285156 212.75 C 333.675781 214.601562 331.164062 216.160156 331.835938 218.917969 C 333.878906 219.832031 336.007812 220.65625 338.066406 221.582031 C 334.960938 223.136719 331.621094 224.476562 328.753906 226.363281 C 325.980469 228.765625 322.984375 230.894531 320.070312 233.125 C 319.285156 235.238281 318.777344 237.625 321.902344 236.746094 C 324.132812 236.363281 330.140625 237.316406 325.417969 239.511719 C 320.980469 242.414062 315.84375 244.222656 311.453125 247.09375 C 310.234375 248.71875 306.96875 251.269531 310.949219 251.152344 C 313.605469 250.769531 317.582031 246.722656 319.558594 248.773438 C 316.765625 251.859375 313.144531 254.835938 310.085938 257.917969 C 308.53125 259.125 305.078125 262.472656 307.121094 263.414062 C 311.964844 261.097656 315.367188 256.746094 319.492188 253.433594 C 320.941406 251.128906 324.828125 249.082031 323.597656 253.574219 C 318.808594 259.535156 314.179688 265.667969 309.25 271.476562 C 309.746094 277.308594 313.496094 269.800781 315.34375 268.238281 C 318.222656 264.835938 320.902344 261.191406 324.667969 258.707031 C 325.972656 258.421875 329.421875 253.511719 329.605469 255.519531 C 329.515625 257.1875 330.03125 259.054688 328.613281 260.351562 C 325.632812 264.367188 323.644531 268.960938 321.203125 273.300781 C 320.800781 275.175781 320.382812 280.558594 323.089844 278.019531 C 326.316406 272.007812 330.25 266.382812 332.785156 260.019531 C 335.386719 254.558594 337.144531 248.695312 339.324219 243.097656 C 341.160156 240.359375 342.058594 241.289062 341.800781 244.152344 C 342.097656 246.816406 341.984375 252.511719 343.824219 252.914062 C 347.164062 245.28125 351.359375 238.058594 354.921875 230.539062 C 356.15625 226.867188 357.621094 223.261719 359.144531 219.691406 C 361.0625 219.492188 360.183594 221.574219 360.371094 222.785156 C 360.242188 225.214844 360.628906 227.726562 360.183594 230.101562 C 358.113281 236.046875 356.558594 242.179688 353.671875 247.804688 C 351.921875 251.425781 349.449219 254.6875 347.757812 258.324219 C 346.058594 260.535156 346.6875 260.550781 348.601562 259.253906 C 351.980469 257.707031 354.25 254.804688 356.59375 252.042969 C 360.28125 249.085938 357.542969 255.808594 356.695312 257.234375 C 354.6875 262.917969 353.390625 268.882812 351.121094 274.496094 C 351.09375 276.199219 350.503906 280.109375 352.671875 277.113281 C 356.738281 273.933594 358.222656 268.839844 360.65625 264.492188 C 362.128906 266.648438 364.90625 267.894531 366.25 265.234375 C 366.027344 261.878906 364.476562 258.398438 365.988281 255.144531 C 367.480469 249.765625 368.707031 244.285156 369.550781 238.773438 C 369.953125 235.421875 370.179688 232.03125 370.597656 228.691406 C 372.460938 227.730469 371.671875 230.691406 371.824219 231.816406 C 371.824219 234.371094 371.824219 236.925781 371.824219 239.480469 C 373.648438 239.683594 377.003906 236.445312 377.957031 238.570312 C 376.113281 240.148438 373.296875 241.128906 371.625 242.847656 C 371.554688 244.984375 371.484375 247.125 371.414062 249.265625 C 373.6875 247.882812 375.964844 246.496094 378.242188 245.113281 C 379.855469 246.246094 377.714844 247.035156 376.984375 247.972656 C 375.117188 249.714844 373.25 251.457031 371.382812 253.199219 C 371.351562 254.707031 371.320312 256.21875 371.289062 257.726562 C 372.871094 257.230469 374.464844 256.769531 376.039062 256.25 C 377.335938 257.726562 375.097656 258.058594 374.167969 258.828125 C 373.121094 259.804688 370.761719 259.972656 371.101562 261.804688 C 370.980469 266.414062 370.8125 271.019531 370.628906 275.628906 C 371.460938 273.980469 374.394531 270.015625 373.964844 269.789062 C 373.003906 271.671875 369.5 271.800781 371.886719 269.839844 C 372.875 268.636719 378.277344 264.789062 376.371094 268.632812 C 374.511719 271.316406 372.894531 274.886719 370.945312 277.085938 C 370.390625 277.035156 369.722656 280.976562 371.40625 280.195312 C 372.800781 281.148438 377.113281 281.582031 374.136719 283.234375 C 372.863281 284.515625 371.265625 285.652344 370.1875 287.015625 C 370.273438 290.875 369.304688 297.300781 370.058594 299.539062 C 371.195312 297.941406 374.941406 295.050781 374.15625 294.296875 C 372.574219 295.050781 367.761719 294.691406 371.128906 293.464844 C 373.183594 292.6875 378.914062 292.46875 375.25 295.699219 C 373.300781 299.179688 368.652344 300.273438 369.53125 304.078125 C 369.546875 306.886719 368.398438 308.601562 371.835938 308.089844 C 375.769531 307.742188 376.042969 311.578125 372.496094 312.625 C 370.058594 314.046875 367.925781 313.953125 369.402344 317.1875 C 370.160156 319.3125 375.40625 320.746094 374.089844 322.945312 C 373.890625 320.464844 373.335938 323.902344 371.976562 321.414062 C 370.304688 320.078125 368.15625 316.914062 368.863281 321.113281 C 368.554688 329.128906 368.238281 337.140625 367.921875 345.15625 C 369.574219 344.648438 372.507812 346.964844 372.535156 348.039062 C 370.832031 349.617188 366.761719 342.714844 367.820312 348.179688 C 367.878906 350.644531 367.230469 355.195312 367.730469 356.339844 C 368.550781 355.652344 369.855469 357.625 370.859375 357.964844 C 372.011719 358.761719 373.160156 359.554688 374.308594 360.351562 C 373.675781 362.304688 372.328125 360.289062 371.25 359.769531 C 369.980469 358.894531 368.714844 358.015625 367.449219 357.140625 C 367.746094 360.398438 366.316406 366.394531 367.628906 368.078125 C 369.121094 369.179688 373.027344 372.347656 372.933594 374.121094 C 371 374.636719 368.207031 368.871094 366.992188 369.199219 C 366.800781 374.0625 366.628906 378.925781 366.441406 383.789062 C 368.472656 384.46875 372.585938 387.109375 373.65625 388.777344 C 371.824219 390.328125 367.949219 384.558594 366.363281 385.292969 C 366.074219 389.21875 366.3125 393.234375 365.75 397.117188 C 365.003906 399.941406 372.78125 399.246094 371.097656 402.128906 C 368.230469 401.183594 364.25 397.078125 364.226562 402.382812 C 363.613281 406.609375 359.765625 410.925781 362.761719 414.933594 C 363.914062 418.183594 367.609375 419.570312 370.375 421.222656 C 373.640625 420.710938 376.777344 419.09375 380.179688 418.96875 C 385.195312 418.191406 390.292969 417.910156 395.292969 417.101562 C 397.402344 415.5625 400.019531 414.109375 396.835938 412.136719 C 394.304688 409.023438 394.90625 404.589844 393.4375 401.058594 C 393.433594 398.183594 392.839844 396.933594 390.3125 399.011719 C 388.328125 399.402344 385.246094 403.628906 384.125 400.996094 C 387.085938 399.5625 389.773438 397.695312 392.773438 396.308594 C 392.421875 392.546875 391.691406 388.804688 391.769531 385.015625 C 389.398438 386.542969 385.898438 389.722656 383.621094 389.28125 C 384.550781 387.164062 389.082031 386.234375 391.011719 384.007812 C 392.417969 383.988281 391.5 382 391.738281 380.820312 C 391.707031 377.542969 391.675781 374.261719 391.640625 370.984375 C 389.445312 373.460938 386.816406 375.230469 383.496094 375.765625 C 381.023438 373.605469 387.269531 374.382812 388.074219 372.542969 C 389.570312 370.851562 392.332031 369.800781 391.59375 367.160156 C 391.566406 364.261719 391.542969 361.363281 391.515625 358.460938 C 389.585938 359.746094 386.042969 364.347656 384.179688 362.441406 C 386.195312 360.640625 390.5625 358.921875 391.476562 356.234375 C 391.4375 352.46875 391.398438 348.699219 391.359375 344.933594 C 389.277344 347.71875 386.433594 349.621094 383.070312 350.5 C 381.417969 352.332031 378.050781 350.703125 381.410156 349.789062 C 384.683594 348.703125 387.992188 347.515625 390.027344 344.539062 C 391.878906 343.546875 391.257812 341.785156 391.324219 339.957031 C 391.292969 337.273438 391.261719 334.59375 391.234375 331.910156 C 387.320312 335.378906 383.789062 339.222656 379.90625 342.730469 C 377.863281 340.578125 383.703125 338.707031 384.53125 336.566406 C 386.464844 334.253906 389.738281 332.015625 391.230469 330.027344 C 391.199219 327.097656 391.167969 324.171875 391.140625 321.246094 C 389.648438 322.625 387.234375 324.371094 390.289062 322.722656 C 391.65625 324.265625 389.257812 324.421875 388.25 325.089844 C 386.863281 325.738281 385.476562 326.378906 384.09375 327.035156 C 382.644531 324.316406 388.773438 322.988281 389.992188 320.597656 C 391.648438 321.003906 391.035156 319.445312 391.109375 317.839844 C 391.085938 315.796875 391.066406 313.753906 391.042969 311.714844 C 389 315.433594 384.929688 313.277344 381.679688 312.601562 C 379.277344 312.40625 381.539062 311.671875 382.535156 311.078125 C 385.109375 309.695312 387.683594 308.3125 390.257812 306.929688 C 391.710938 308.394531 389.316406 308.675781 388.34375 309.390625 C 386.820312 310.195312 385.300781 311.003906 383.777344 311.808594 C 386.632812 313.40625 390.132812 312.382812 391.007812 309.609375 C 391.015625 304.707031 390.875 299.886719 390.636719 294.976562 C 388.378906 297.242188 387.085938 299.722656 384.28125 300.734375 C 385.59375 300.128906 391 300.914062 387.363281 301.867188 C 385.277344 302.28125 378.3125 302.546875 383.1875 299.890625 C 385.675781 298.914062 387.292969 297.097656 388.875 295.007812 C 390.757812 293.921875 390.738281 293.1875 390.484375 290.972656 C 390.355469 287.957031 390.230469 284.9375 390.101562 281.921875 C 388.957031 283.324219 384.09375 287.167969 385.335938 287.164062 C 386.792969 286.25 392.5 285.980469 389.105469 287.628906 C 386.929688 287.492188 382.222656 290.523438 381.449219 287.867188 C 384.484375 286.125 386.710938 283.40625 389.246094 281.007812 C 390.730469 281.199219 389.75 279.019531 389.9375 277.667969 C 389.574219 268.609375 389.207031 259.550781 388.84375 250.492188 C 387.417969 251.757812 381.449219 256.578125 383.632812 251.792969 C 385.09375 250.117188 386.585938 247.183594 388.210938 246.613281 C 389.273438 246.070312 388.300781 244.089844 388.550781 242.972656 C 388.796875 240.199219 387.105469 237.835938 386.277344 235.292969 C 386.21875 234.25 384.269531 232.433594 385.925781 232.125 C 387.730469 233.65625 388.585938 237.820312 390.050781 240.28125 C 392.273438 245.429688 394.8125 250.464844 396.769531 255.714844 C 397.851562 260.082031 399.003906 264.4375 399.160156 268.960938 C 400.273438 268.554688 402.34375 269.222656 402.269531 267.492188 C 402.527344 265.789062 403.757812 264.03125 402.675781 262.402344 C 397.804688 249.140625 392.265625 236.148438 387.113281 222.996094 C 388.335938 221.726562 388.738281 223.457031 389.21875 224.488281 C 392.214844 230.460938 394.171875 236.886719 396.667969 243.082031 C 399.203125 249.800781 401.867188 256.480469 404.917969 262.980469 C 409.613281 260.25 405.730469 255.359375 405.066406 251.386719 C 402.875 244.121094 399.910156 237.109375 397.367188 229.960938 C 396.613281 228.6875 394.960938 228.09375 393.867188 227.082031 C 392.25 225.890625 390.59375 224.679688 389 223.5 C 390.324219 221 393.261719 225.394531 395.292969 225.613281 C 398.789062 229.292969 399.648438 223.636719 402.75 222.984375 C 403.617188 226.175781 397.726562 228.757812 400.863281 232.441406 C 403.125 240.15625 405.152344 247.945312 408.148438 255.417969 C 408.644531 256.765625 409.144531 258.109375 409.636719 259.457031 C 408.625 260.914062 410.066406 267.148438 412.132812 265.539062 C 412.839844 262.175781 414.992188 258.847656 413.164062 255.445312 C 410.480469 245.195312 406.800781 235.238281 403.699219 225.105469 C 403.742188 221.414062 406.046875 226.679688 406.304688 228.265625 C 409.867188 237.945312 413.722656 247.53125 416.875 257.351562 C 416.203125 260.234375 416.226562 266.335938 419.988281 262.886719 C 420.15625 259.035156 420.457031 255.09375 418.855469 251.46875 C 415.597656 242.796875 413.007812 233.875 410.109375 225.074219 C 408.453125 226.875 405.339844 225.148438 404.855469 223.160156 C 405.414062 218.785156 401.800781 218.910156 398.539062 219.191406 C 397.113281 219.050781 401.03125 217.007812 401.488281 216.265625 C 403.25 215.296875 407.003906 212.332031 403.386719 211.539062 C 402.226562 211.007812 401.078125 210.460938 399.917969 209.941406 C 401.644531 206.96875 403.433594 204.046875 405.722656 201.460938 C 407.132812 198.890625 406.0625 194.277344 403.328125 192.710938 C 401.34375 191.621094 401.566406 189.105469 400.78125 187.242188 C 399.746094 186.144531 400.785156 184.03125 401.609375 185.621094 C 402.125 187.394531 402.640625 189.167969 403.15625 190.9375 C 406.144531 192.542969 407.53125 195.171875 407.460938 198.492188 C 408.824219 201.585938 405.234375 203.464844 403.910156 205.808594 C 403.121094 206.957031 402.453125 208.191406 401.710938 209.375 C 403.371094 210.160156 405.070312 210.871094 406.710938 211.703125 C 407.054688 214.828125 401.660156 216.894531 402.054688 217.964844 C 407.292969 216.558594 404.113281 223.855469 408.066406 224.453125 C 409.410156 224.441406 410.578125 223.105469 411.847656 222.550781 C 414.117188 222.980469 410.898438 224.035156 411.429688 225.050781 C 415.65625 236.542969 420 248.042969 424.015625 259.585938 C 423.632812 263.757812 427.609375 264.304688 430.085938 266.035156 C 430.429688 268.257812 431.496094 272.488281 433.84375 271.578125 C 433.945312 265.625 434.316406 259.636719 434.332031 253.703125 C 434.671875 251.667969 431.21875 246.742188 434.050781 246.496094 C 435.640625 251.152344 437.742188 255.691406 438.835938 260.484375 C 439.601562 263.597656 438.070312 268.65625 442.535156 269.117188 C 444.507812 269.917969 442.980469 262.765625 445.09375 264.710938 C 446.257812 265.636719 447.421875 266.558594 448.585938 267.480469 C 453.308594 267.59375 449.796875 262.414062 449.875 259.773438 C 448.386719 256.078125 446.976562 252.339844 445.5 248.636719 C 447.703125 247.726562 444.320312 248.957031 444.957031 246.597656 C 444.449219 242.945312 442.082031 240.199219 439.960938 237.34375 C 439.0625 235.40625 439.125 233.113281 437.445312 235.863281 C 435.449219 237.515625 436.328125 240.246094 437.730469 241.988281 C 440.007812 245.515625 439.78125 250.175781 442.628906 253.367188 C 443.878906 255.421875 445.558594 257.492188 445.125 260.042969 C 445.234375 261.214844 445.328125 263.546875 443.867188 262.417969 C 443.671875 260.425781 444.398438 258.273438 443.167969 256.691406 C 441.660156 253.726562 439.496094 251.875 438.894531 248.542969 C 438.242188 245.191406 436.371094 242.328125 434.960938 239.292969 C 435.277344 238.554688 430.261719 239.695312 430.652344 238.128906 C 432.039062 237.933594 431.792969 237.324219 434.144531 237.84375 C 435.925781 236.339844 435.90625 233.503906 434.710938 231.617188 C 432.347656 226.320312 428.707031 221.679688 426.058594 216.546875 C 425.390625 213.195312 426.722656 209.074219 423.507812 206.738281 C 420.191406 203.503906 418.507812 199.144531 416.652344 194.996094 C 414.519531 192.023438 411.046875 190.273438 408.566406 187.574219 C 407.21875 188 402.128906 188.160156 404.65625 186.636719 C 408.136719 185.242188 410.535156 187.230469 412.75 189.585938 C 415.277344 191.550781 417.960938 193.582031 418.808594 196.808594 C 420.386719 200.578125 422.4375 204.0625 425.355469 206.953125 C 427.929688 209.367188 426.601562 213.230469 427.285156 216.328125 C 430.453125 222.070312 434.6875 227.3125 436.820312 233.566406 C 436.359375 236.300781 437.574219 232.691406 438.875 233.011719 C 438.75 229.914062 439.828125 225.726562 437.824219 222.839844 C 435.734375 218.949219 433.296875 215.203125 431.40625 211.230469 C 430.089844 208.394531 428.480469 204.851562 427.015625 201.757812 C 425.472656 198.179688 423.234375 194.972656 421.121094 191.726562 C 423.230469 189.519531 424.328125 195.875 425.964844 196.980469 C 429.648438 203.496094 431.96875 210.695312 435.996094 217.027344 C 437.171875 219.808594 439.660156 222.246094 440.1875 225.207031 C 440.59375 226.976562 439.484375 232.710938 440.921875 232.234375 C 441.640625 230.855469 442.367188 229.480469 443.078125 228.09375 C 444.226562 227.546875 446.5 227.894531 446.773438 226.640625 C 447.171875 222.777344 443.28125 219.960938 442.890625 216.167969 C 441.789062 210.996094 439.71875 206.101562 437.144531 201.5 C 434.382812 195.441406 430.332031 190.054688 428.144531 183.730469 C 427.566406 180.039062 430.5625 184.75 430.625 186.472656 C 432.75 191.308594 435.851562 195.652344 438.046875 200.472656 C 440.136719 204.390625 442.136719 208.347656 443.285156 212.664062 C 444.070312 216.726562 445.746094 220.476562 447.859375 224.035156 C 448.222656 225.65625 447.8125 226.921875 449.195312 227.070312 C 449.835938 228.558594 446.730469 227.804688 447.957031 230.089844 C 448.3125 231.519531 447.585938 236.921875 446.515625 233.847656 C 446.609375 231.3125 447.804688 227.191406 444.183594 229.132812 C 443.21875 229.96875 442.847656 231.5625 442.109375 232.679688 C 441.496094 234.203125 439.21875 234.097656 440.769531 236.257812 C 442.800781 239.285156 445.503906 241.976562 446.035156 245.742188 C 446.464844 249.097656 449.253906 251.375 450.941406 254.277344 C 452.773438 256.15625 454.917969 261.914062 456.753906 260.878906 C 457.574219 257.304688 454.433594 254.917969 453.285156 251.8125 C 450.832031 246.558594 448.601562 241.199219 446.257812 235.894531 C 448.164062 237.269531 450.589844 238.070312 451.679688 240.328125 C 456.042969 246.140625 460.332031 252.011719 464.816406 257.726562 C 469.515625 259.984375 466.632812 254.128906 465.195312 252.285156 C 461.613281 245.054688 456.707031 238.582031 452.472656 231.722656 C 451.550781 230.785156 448.609375 226.222656 451.355469 227.628906 C 456.191406 233.59375 461.023438 239.558594 465.855469 245.523438 C 467.488281 246.636719 470.4375 247.566406 469.457031 244.789062 C 465.3125 237.21875 460.035156 230.347656 455.421875 223.058594 C 450.59375 216.195312 446.496094 208.859375 442.167969 201.667969 C 444.445312 199.824219 447.433594 204.453125 449.972656 205.058594 C 454.035156 207.277344 457.65625 210.109375 460.980469 213.3125 C 466.585938 218.1875 471.972656 223.34375 477.796875 227.945312 C 480.699219 229.535156 482.964844 232.3125 486.085938 233.347656 C 486.136719 232.296875 482.894531 228.359375 484.253906 228.386719 C 487.527344 229.308594 490.621094 230.667969 493.640625 232.175781 C 495.664062 233.171875 502 235.554688 498.824219 231.429688 C 497.816406 229.363281 493.003906 228.242188 493.789062 226.003906 C 494.683594 225.523438 496.132812 227.03125 497.242188 227.316406 C 499.78125 228.84375 502.640625 229.539062 505.558594 229.949219 C 509.824219 229.757812 507.144531 225.316406 504.261719 225.289062 C 497.652344 221.765625 491.089844 218.140625 484.511719 214.566406 C 485.875 211.800781 490.339844 216.1875 492.910156 216.042969 C 494.414062 215.570312 499.9375 216.707031 498.003906 214.101562 C 497.1875 213.097656 495.496094 213.066406 494.324219 212.453125 C 485.308594 209.1875 476.277344 205.964844 467.273438 202.671875 C 463.429688 200.085938 459.523438 197.578125 455.664062 195.027344 C 456.253906 192.664062 460.125 195.710938 462.050781 195.46875 C 465.421875 196.351562 468.8125 197.078125 472.316406 197.035156 C 474.566406 197.097656 479.285156 197.671875 480.105469 197.296875 C 478.613281 196.492188 472.039062 194.589844 475.792969 193.5625 C 477.675781 193.445312 483.59375 193.328125 478.546875 193.140625 C 474.96875 192.769531 471.230469 192.894531 467.773438 191.945312 C 468.21875 190.667969 470.003906 191.148438 472.339844 191.398438 C 474.890625 192.269531 480.050781 190.773438 481.046875 192.910156 C 483.578125 193.722656 488.023438 192.679688 491.277344 192.878906 C 495.785156 192.480469 500.742188 193.105469 504.960938 191.992188 C 506.433594 189.699219 510.835938 188.957031 510.753906 185.980469 C 510.460938 183.21875 510.429688 180.375 509.976562 177.664062 C 509.039062 176.640625 508.839844 174.558594 507.25 174.46875 C 502.996094 173.769531 498.925781 172.601562 494.894531 171.152344 C 486.496094 170.945312 478.066406 171.023438 469.695312 170.523438 C 466.980469 170.34375 463.75 172.800781 460.632812 172.628906 C 455.816406 173.113281 450.898438 172.714844 446.226562 174.203125 C 444.425781 175.601562 441.921875 173.585938 444.808594 173.226562 C 448.417969 172.273438 452.066406 171.621094 455.8125 171.675781 C 459.617188 171.554688 463.445312 171.269531 466.976562 169.710938 C 469.140625 168.242188 469.617188 170.738281 470.042969 168.015625 C 472.023438 167.265625 478.359375 167.796875 476.867188 165.707031 C 469.046875 165.972656 461.222656 166.070312 453.398438 166.210938 C 450.585938 165.933594 446.996094 167.671875 444.210938 169.011719 C 440.949219 170.332031 443.640625 167.023438 445.660156 166.933594 C 449.121094 164.882812 453.433594 165.390625 456.796875 163.160156 C 462.054688 160.710938 466.992188 157.609375 472.117188 154.917969 C 473.449219 153.738281 477.152344 151.902344 473.234375 151.523438 C 470.15625 150.8125 466.871094 152.585938 463.683594 152.621094 C 459.484375 153.363281 463.691406 149.703125 465.269531 148.996094 C 470.175781 146.476562 474.976562 143.71875 479.667969 140.792969 C 481.15625 139.65625 485.546875 138.882812 484.132812 136.984375 C 480.15625 138.3125 476.21875 140.214844 472.148438 141.328125 C 470.769531 141.65625 464.523438 142.425781 467.609375 139.992188 C 473.605469 136.03125 479.507812 131.925781 485.457031 127.894531 C 487.4375 125.234375 486 125.164062 483.625 126.25 C 480.871094 127.089844 478.820312 129.339844 476.253906 130.648438 C 475.375 132.191406 470.441406 133.5 473.058594 130.824219 C 475.714844 128.515625 478.308594 126.132812 481.082031 123.960938 C 482.484375 122.011719 483.921875 117.363281 480.113281 119.554688 C 477.660156 120.84375 474.507812 121.039062 472.796875 123.421875 C 469.777344 126.5625 466.699219 129.679688 463.714844 132.832031 C 461.535156 130.789062 467.179688 128.53125 467.875 126.363281 C 470.324219 123.558594 472.90625 120.828125 475.105469 117.828125 C 475.570312 115.367188 475.679688 113.632812 473.179688 115.347656 C 471.964844 115.871094 470.75 116.390625 469.535156 116.914062 C 469.902344 119.453125 464.515625 122.105469 462.804688 124.621094 C 459.910156 127.09375 455.976562 128.128906 453.429688 131.070312 C 451.394531 128.898438 456.992188 127.25 458.429688 125.976562 C 462.5 123.996094 465.253906 120.265625 468.53125 117.261719 C 464.945312 117.988281 460.8125 117.839844 458.714844 121.414062 C 453.285156 126.574219 448.003906 131.914062 442.449219 136.921875 C 435.675781 141.617188 428.792969 146.222656 421.84375 150.609375 C 418.664062 151.886719 414.144531 150.835938 412.640625 154.667969 C 409.984375 158.40625 406.839844 161.746094 403.878906 165.238281 C 407.0625 164.535156 410.082031 165.261719 412.957031 166.671875 C 415.71875 167.640625 418.066406 169.550781 420.710938 170.742188 C 420.121094 173.371094 416.496094 175.363281 413.640625 174.882812 C 411.84375 174.832031 410.226562 173.621094 408.503906 173.101562 C 408.675781 171.03125 410.429688 172.703125 411.601562 172.996094 C 413.902344 174.238281 417.019531 173.753906 418.714844 171.714844 C 417.832031 169.898438 413.140625 168.066406 410.414062 167.050781 C 407.945312 165.566406 405.113281 166.585938 402.433594 166.621094 C 399.261719 167.339844 403.316406 164.53125 403.785156 163.433594 C 407.296875 159.492188 410.652344 155.425781 413.695312 151.109375 C 413.476562 147.925781 417.007812 145.675781 418.183594 142.738281 C 421.644531 137.636719 423.429688 131.625 426.082031 126.085938 C 427.214844 123.773438 426.628906 121.070312 426.925781 118.570312 C 426.839844 117.210938 427.320312 115.734375 426.847656 114.460938 C 424.382812 118.992188 421.847656 123.519531 419.484375 128.082031 C 416.570312 128.25 419.183594 123.632812 420.023438 122.433594 C 422.265625 117.90625 424.789062 113.457031 426.882812 108.894531 C 426.945312 106.984375 427.003906 105.074219 427.066406 103.167969 C 425.179688 101.527344 424.230469 107.121094 422.730469 108.433594 C 419.453125 113.894531 416.421875 119.535156 413.003906 124.890625 C 412.667969 126.703125 409.046875 128.019531 410.5 125.453125 C 415.386719 116.46875 420.402344 107.511719 425.410156 98.621094 C 427.425781 95.050781 426.777344 90.882812 427.066406 86.964844 C 425.136719 83.914062 423.789062 88.605469 422.242188 89.820312 C 420.261719 92.277344 419.535156 95.503906 418.015625 98.265625 C 415.550781 103.617188 412.992188 108.941406 410.488281 114.273438 C 407.683594 113.117188 412.105469 108.929688 412.140625 106.578125 C 414.542969 100.367188 416.933594 94.152344 419.328125 87.941406 C 418.128906 85.449219 415.4375 92.023438 414.167969 93.539062 C 411.886719 98.636719 409.238281 103.566406 406.710938 108.546875 C 404.011719 107.371094 408.359375 103.222656 408.242188 100.96875 C 409.546875 97.191406 411.269531 93.453125 412.53125 89.734375 C 412.339844 88.328125 414.332031 84.675781 412.5625 84.605469 Z M 429.867188 152.304688 C 430.488281 154.789062 426.746094 155.921875 425.210938 157.84375 C 423.277344 158.566406 416.363281 160.261719 419.339844 161.816406 C 421.308594 160.773438 423.277344 159.738281 425.242188 158.691406 C 427.753906 161.078125 431.554688 163.628906 431.257812 167.273438 C 428.871094 167.871094 429.890625 162.59375 427.046875 162.101562 C 425.738281 159.835938 424.078125 160.414062 422.316406 161.660156 C 420.914062 162.417969 419.480469 163.121094 418.101562 163.914062 C 415.753906 160.710938 418.355469 158.121094 421.730469 157.738281 C 425.082031 157.214844 427.03125 154.328125 429.550781 152.402344 L 429.621094 152.34375 Z M 447.671875 159.226562 C 447.90625 162.03125 442.976562 160.808594 441.648438 163.171875 C 439.5 164.210938 437.324219 167.402344 435.40625 167.375 C 433.285156 166.960938 437.953125 164.914062 438.695312 163.761719 C 441.382812 161.609375 444.125 159.628906 447.671875 159.226562 Z M 470.511719 170.175781 C 469.96875 170.695312 470.347656 170.59375 470.511719 170.175781 Z M 405.988281 172.914062 C 408.90625 174.011719 412.019531 174.707031 414.492188 176.726562 C 417.683594 177.855469 417.835938 181.507812 418.761719 184.265625 C 418.851562 186.042969 417.316406 191.699219 415.707031 190.488281 C 416.355469 187.882812 418.667969 184.671875 416.714844 181.691406 C 416.457031 178.414062 413.054688 177.503906 410.753906 175.921875 C 409.019531 175.308594 407.28125 174.691406 405.546875 174.078125 C 405.695312 173.6875 405.839844 173.300781 405.988281 172.914062 Z M 488.222656 173.226562 C 494.15625 173.46875 500.132812 173.730469 506.03125 174.296875 C 506.6875 174.992188 504.84375 175.03125 505.117188 175.398438 C 497.480469 175.050781 489.84375 174.121094 482.199219 174.753906 C 478.617188 174.292969 475.492188 177.027344 471.867188 176.257812 C 469.933594 176.636719 465.488281 175.601562 468.53125 174.800781 C 472.003906 175.1875 475.539062 175.230469 478.777344 173.742188 C 481.847656 173.183594 485.097656 173.558594 488.222656 173.226562 Z M 479.101562 178.199219 C 485.226562 179.070312 491.382812 179.613281 497.574219 179.539062 C 501.476562 179.757812 506.042969 179.367188 509.546875 179.988281 C 508.964844 182.589844 503.515625 180.082031 501.1875 180.855469 C 494.308594 180.777344 487.417969 180.777344 480.609375 179.644531 C 479.292969 179.683594 478.886719 179.476562 479.101562 178.199219 Z M 485.738281 185.054688 C 488.257812 187.683594 491.867188 188.15625 495.496094 187.566406 C 499.765625 187.289062 504.140625 188.445312 508.28125 186.855469 C 511.882812 186.519531 508.019531 188.882812 506.132812 188.648438 C 501.949219 189.527344 497.671875 188.363281 493.445312 188.894531 C 490.070312 190.089844 487.304688 187.242188 484.878906 186.609375 C 483.066406 187.679688 481.074219 187.914062 479.027344 187.761719 C 476.085938 187.761719 473.140625 187.761719 470.199219 187.761719 C 469.601562 185.800781 471.863281 186.695312 473.039062 186.503906 C 475.980469 186.480469 478.933594 186.546875 481.867188 186.472656 C 483.144531 185.972656 484.382812 185.3125 485.738281 185.054688 Z M 365.46875 189.050781 C 368.535156 190.3125 362.976562 193.347656 363.882812 195.347656 C 364.019531 197.441406 364.265625 198.929688 365.246094 196.035156 C 365.699219 194.683594 366.113281 193.316406 366.601562 191.976562 C 367.839844 194.023438 369.46875 195.164062 371.824219 195.1875 C 372.828125 196.914062 373.3125 200.824219 374.371094 197.210938 C 375.339844 195.34375 376.089844 193.191406 377.484375 191.664062 C 379.753906 192.960938 377.171875 197.574219 377.832031 199.9375 C 377.644531 203.660156 378.4375 207.386719 377.910156 211.121094 C 378.234375 213.34375 376.042969 219 379.992188 216.304688 C 381.355469 215.65625 381.535156 213.734375 382.371094 212.515625 C 383.886719 209.589844 383.324219 206.023438 384.3125 202.925781 C 387.242188 202.171875 384.582031 211.070312 387.410156 208.246094 C 388.234375 205.238281 386.003906 202.699219 385.757812 199.371094 C 385.757812 197.398438 385.757812 195.425781 385.757812 193.457031 C 387.722656 192.859375 386.828125 195.121094 387.019531 196.296875 C 386.875 198.667969 387.121094 201.023438 388.152344 203.207031 C 391.382812 204.953125 390.863281 198.941406 393.4375 197.734375 C 396.234375 196.613281 394.664062 190.773438 397.492188 191.410156 C 397.230469 195.011719 395.226562 197.988281 392.742188 200.441406 C 391.726562 202.15625 391.253906 206.292969 388.339844 204.625 C 390.453125 206.792969 388.054688 211.339844 385.445312 210.570312 C 384.867188 208.644531 384.820312 206.386719 384.515625 209.679688 C 384.421875 212.429688 382.5 214.605469 381.511719 217.082031 C 379.136719 218.386719 374.863281 219.816406 376.425781 215.394531 C 376.714844 210.660156 377.058594 205.921875 376.480469 201.195312 C 376.421875 199.640625 377.269531 194.757812 376.5 195.71875 C 375.40625 197.925781 374.363281 200.175781 373.269531 202.390625 C 371.917969 200.367188 372.457031 195.589844 369.253906 196.074219 C 367.476562 195.722656 366.847656 193.601562 366.410156 196.476562 C 365.625 197.328125 364.648438 202.078125 363.234375 199.9375 C 362.890625 197.320312 363.105469 193.261719 360.121094 196.445312 C 359.570312 194.320312 359.050781 192.1875 358.515625 190.058594 C 360.277344 188.988281 359.964844 191.398438 360.429688 192.5 C 360.332031 196.113281 364.195312 192.59375 364.648438 190.71875 C 364.921875 190.160156 365.191406 189.605469 365.46875 189.050781 Z M 414.796875 205 C 418.148438 211.796875 421.703125 218.511719 425.304688 225.199219 C 427.25 229.941406 429.597656 234.574219 430.417969 239.679688 C 429.648438 242.105469 435.363281 245.394531 432.570312 246.023438 C 429.488281 243.617188 429.171875 239.792969 428.324219 236.273438 C 426.3125 229.996094 423.410156 224.007812 420.1875 218.253906 C 417.863281 214.125 415.890625 209.828125 413.726562 205.628906 C 414.082031 205.421875 414.441406 205.210938 414.796875 205 Z M 407.9375 212.425781 C 411.144531 212.792969 405.027344 216.128906 409.011719 216.503906 C 411.078125 216.84375 410.546875 219.761719 412.414062 220.253906 C 417.125 220.523438 411.90625 227.222656 416.746094 226.238281 C 419.070312 228.066406 416.628906 232.800781 420.269531 234.007812 C 423.296875 235.460938 422.441406 239.050781 423.855469 241.539062 C 424.191406 243.445312 425.28125 243.15625 426.597656 242.214844 C 427.578125 241.566406 429.535156 240.558594 429.167969 242.347656 C 427.460938 243.195312 425.75 244.042969 424.046875 244.890625 C 422.6875 242.257812 421.476562 239.542969 421.183594 236.554688 C 418.515625 234.550781 416.101562 232.320312 416.519531 228.65625 C 417.152344 225.847656 411.800781 228.707031 413.214844 225.171875 C 415.066406 221.578125 410.917969 222.039062 410.0625 219.628906 C 409.824219 217.207031 406.195312 217.605469 405.988281 215.476562 C 406.585938 214.425781 407.335938 213.472656 407.9375 212.425781 Z M 388.714844 247.125 C 388.191406 248.691406 383.15625 253.390625 386.878906 250.421875 C 388.804688 249.253906 389.078125 250.011719 388.730469 247.429688 L 388.71875 247.210938 Z M 387.960938 258.292969 C 391.601562 258.914062 383.4375 262.414062 385.191406 262.503906 C 386.257812 261.726562 388.539062 261.828125 387.355469 263.171875 C 385.585938 263.71875 383.816406 264.261719 382.046875 264.804688 C 380.730469 261.980469 386.527344 260.570312 387.898438 258.355469 Z M 388.339844 270.34375 C 391.328125 270.4375 386.703125 273.453125 385.855469 274.746094 C 382.59375 277.398438 389.730469 272.121094 389.15625 274.742188 C 387.792969 275.699219 382.835938 278.816406 381.125 277.089844 C 383.265625 274.652344 386.339844 273.058594 388.339844 270.34375 Z M 370.40625 281.132812 C 370.242188 283.433594 369.800781 286.324219 372.015625 283.464844 C 374.472656 281.953125 371.757812 282.023438 370.40625 281.132812 Z M 369.335938 308.976562 C 369.285156 311.136719 368.46875 314.574219 371.320312 311.871094 C 373.429688 310.953125 375.011719 309.292969 371.613281 309.324219 C 370.855469 309.199219 370.09375 309.09375 369.335938 308.976562 Z M 368.800781 332.570312 C 370.699219 333.730469 375.550781 334.019531 375.425781 336.179688 C 374.066406 335.96875 369.042969 334.8125 368.800781 333.171875 C 368.800781 332.972656 368.800781 332.773438 368.800781 332.570312 Z M 360.152344 412.070312 C 352.71875 412.273438 345.265625 412.035156 337.847656 412.289062 C 334.640625 414.332031 330.9375 415.675781 328.429688 418.632812 C 326.53125 421.300781 331.613281 423.582031 334.226562 422.984375 C 335.546875 423.859375 340.25 422.148438 339.449219 424.621094 C 338.21875 428.191406 334.203125 428.820312 331.554688 430.976562 C 329.917969 434.371094 333.796875 438.589844 336.714844 435.351562 C 338.441406 433.707031 339.933594 433.519531 341.15625 435.546875 C 343.179688 437.132812 339.738281 441.398438 344.167969 441.167969 C 347.0625 439.710938 349.648438 437.164062 352.367188 435.234375 C 354.167969 432.929688 357.089844 430.363281 358.230469 434.71875 C 360.882812 436.984375 364.203125 436.421875 367.367188 436.214844 C 371.257812 436.082031 375.535156 435.558594 377.769531 431.898438 C 381.40625 430.160156 384.871094 433.707031 386.703125 436.550781 C 389.15625 438.160156 393.246094 438.375 391.996094 434.292969 C 391.03125 431.621094 391.867188 428.796875 395.078125 430.519531 C 398.59375 431.191406 401.324219 433.855469 404.699219 434.785156 C 404.492188 432.21875 404.457031 427.386719 408.019531 430.671875 C 411.019531 432.84375 414.15625 434.953125 417.785156 435.917969 C 417.914062 434.402344 417.515625 432.742188 418.003906 431.324219 C 420.339844 428.925781 425.007812 435.960938 423.984375 430.597656 C 424.46875 428.757812 421.949219 424.691406 424.519531 424.96875 C 428.0625 426.464844 431.804688 427.496094 435.589844 428.175781 C 433.085938 424.007812 428.609375 421.71875 424.800781 418.929688 C 421.125 417.398438 417.238281 416.183594 413.214844 416.257812 C 408.871094 415.863281 404.421875 416.042969 400.136719 415.410156 C 398.304688 414.074219 398.605469 415.265625 398.941406 415.65625 C 396.378906 419.328125 391.804688 418.617188 387.929688 419.308594 C 382.515625 419.828125 377.046875 420.367188 371.917969 422.292969 C 368.371094 422.753906 365.238281 419.628906 362.671875 417.449219 C 361.542969 415.886719 361.011719 413.832031 360.152344 412.070312 Z "/>
</g>
</svg>
