<?xml version="1.0" encoding="UTF-8"?>
<!-- Created by grConvert v0.1-0 -->
<svg xmlns="http://www.w3.org/2000/svg" xmlns:xlink="http://www.w3.org/1999/xlink" width="500pt" height="300pt" viewBox="0 0 500 300" version="1.1">
<g id="surface1">
<path style=" stroke:none;fill-rule:nonzero;fill:rgb(80%,0%,0%);fill-opacity:1;" d="M 0 0 L 462.5 0 L 462.5 300 L 0 300 Z "/>
<path style=" stroke:none;fill-rule:nonzero;fill:rgb(100%,100%,100%);fill-opacity:1;" d="M 462.5 0 L 468.75 0 L 468.75 300 L 462.5 300 Z "/>
<path style=" stroke:none;fill-rule:nonzero;fill:rgb(0%,17.647059%,39.607843%);fill-opacity:1;" d="M 468.75 0 L 500 0 L 500 300 L 468.75 300 Z "/>
<path style=" stroke:none;fill-rule:nonzero;fill:rgb(100%,100%,100%);fill-opacity:1;" d="M 312.5 150 C 312.5 194.875 276.125 231.25 231.25 231.25 C 186.375 231.25 150 194.875 150 150 C 150 105.125 186.375 68.75 231.25 68.75 C 276.125 68.75 312.5 105.125 312.5 150 Z "/>
<path style=" stroke:none;fill-rule:nonzero;fill:rgb(0%,17.647059%,39.607843%);fill-opacity:1;" d="M 306.25 150 C 306.25 191.421875 272.671875 225 231.25 225 C 189.828125 225 156.25 191.421875 156.25 150 C 156.25 108.578125 189.828125 75 231.25 75 C 272.671875 75 306.25 108.578125 306.25 150 Z "/>
<path style=" stroke:none;fill-rule:nonzero;fill:rgb(100%,100%,100%);fill-opacity:1;" d="M 230.285156 152.972656 L 209.46875 181.625 L 223.792969 192.035156 "/>
<path style=" stroke:none;fill-rule:nonzero;fill:rgb(100%,100%,100%);fill-opacity:1;" d="M 230.285156 152.972656 L 230.285156 188.390625 L 212.574219 188.390625 "/>
<path style=" stroke:none;fill-rule:nonzero;fill:rgb(100%,100%,100%);fill-opacity:1;" d="M 254.757812 186.65625 L 221.074219 175.710938 L 215.601562 192.550781 "/>
<path style=" stroke:none;fill-rule:nonzero;fill:rgb(100%,100%,100%);fill-opacity:1;" d="M 254.757812 186.65625 L 221.074219 197.601562 L 215.601562 180.757812 "/>
<path style=" stroke:none;fill-rule:nonzero;fill:rgb(100%,100%,100%);fill-opacity:1;" d="M 230.285156 220.339844 L 230.285156 184.921875 L 212.574219 184.921875 "/>
<path style=" stroke:none;fill-rule:nonzero;fill:rgb(100%,100%,100%);fill-opacity:1;" d="M 230.285156 220.339844 L 209.46875 191.6875 L 223.792969 181.277344 "/>
<path style=" stroke:none;fill-rule:nonzero;fill:rgb(100%,100%,100%);fill-opacity:1;" d="M 190.6875 207.472656 L 224.371094 196.527344 L 218.898438 179.6875 "/>
<path style=" stroke:none;fill-rule:nonzero;fill:rgb(100%,100%,100%);fill-opacity:1;" d="M 190.6875 207.472656 L 211.503906 178.820312 L 225.832031 189.230469 "/>
<path style=" stroke:none;fill-rule:nonzero;fill:rgb(100%,100%,100%);fill-opacity:1;" d="M 190.6875 165.839844 L 211.503906 194.492188 L 225.832031 184.082031 "/>
<path style=" stroke:none;fill-rule:nonzero;fill:rgb(100%,100%,100%);fill-opacity:1;" d="M 190.6875 165.839844 L 224.371094 176.78125 L 218.898438 193.625 "/>
<path style=" stroke:none;fill-rule:nonzero;fill:rgb(100%,100%,100%);fill-opacity:1;" d="M 229.160156 147.675781 L 214.753906 115.324219 L 198.578125 122.527344 "/>
<path style=" stroke:none;fill-rule:nonzero;fill:rgb(100%,100%,100%);fill-opacity:1;" d="M 229.160156 147.675781 L 198.488281 129.96875 L 207.339844 114.632812 "/>
<path style=" stroke:none;fill-rule:nonzero;fill:rgb(100%,100%,100%);fill-opacity:1;" d="M 187.753906 152.03125 L 214.070312 128.332031 L 202.222656 115.171875 "/>
<path style=" stroke:none;fill-rule:nonzero;fill:rgb(100%,100%,100%);fill-opacity:1;" d="M 187.753906 152.03125 L 195.117188 117.386719 L 212.4375 121.070312 "/>
<path style=" stroke:none;fill-rule:nonzero;fill:rgb(100%,100%,100%);fill-opacity:1;" d="M 170.816406 113.996094 L 201.488281 131.703125 L 210.34375 116.367188 "/>
<path style=" stroke:none;fill-rule:nonzero;fill:rgb(100%,100%,100%);fill-opacity:1;" d="M 170.816406 113.996094 L 206.039062 110.292969 L 207.890625 127.902344 "/>
<path style=" stroke:none;fill-rule:nonzero;fill:rgb(100%,100%,100%);fill-opacity:1;" d="M 201.757812 86.136719 L 194.394531 120.777344 L 211.714844 124.460938 "/>
<path style=" stroke:none;fill-rule:nonzero;fill:rgb(100%,100%,100%);fill-opacity:1;" d="M 201.757812 86.136719 L 216.164062 118.488281 L 199.988281 125.691406 "/>
<path style=" stroke:none;fill-rule:nonzero;fill:rgb(100%,100%,100%);fill-opacity:1;" d="M 237.816406 106.953125 L 202.59375 110.65625 L 204.445312 128.265625 "/>
<path style=" stroke:none;fill-rule:nonzero;fill:rgb(100%,100%,100%);fill-opacity:1;" d="M 237.816406 106.953125 L 211.496094 130.652344 L 199.644531 117.492188 "/>
<path style=" stroke:none;fill-rule:nonzero;fill:rgb(100%,100%,100%);fill-opacity:1;" d="M 234.308594 149.351562 L 269.53125 153.050781 L 271.378906 135.441406 "/>
<path style=" stroke:none;fill-rule:nonzero;fill:rgb(100%,100%,100%);fill-opacity:1;" d="M 234.308594 149.351562 L 264.976562 131.640625 L 273.832031 146.976562 "/>
<path style=" stroke:none;fill-rule:nonzero;fill:rgb(100%,100%,100%);fill-opacity:1;" d="M 251.242188 111.316406 L 258.605469 145.957031 L 275.925781 142.277344 "/>
<path style=" stroke:none;fill-rule:nonzero;fill:rgb(100%,100%,100%);fill-opacity:1;" d="M 251.242188 111.316406 L 277.5625 135.011719 L 265.710938 148.171875 "/>
<path style=" stroke:none;fill-rule:nonzero;fill:rgb(100%,100%,100%);fill-opacity:1;" d="M 292.648438 115.667969 L 261.976562 133.375 L 270.832031 148.710938 "/>
<path style=" stroke:none;fill-rule:nonzero;fill:rgb(100%,100%,100%);fill-opacity:1;" d="M 292.648438 115.667969 L 278.242188 148.023438 L 262.066406 140.820312 "/>
<path style=" stroke:none;fill-rule:nonzero;fill:rgb(100%,100%,100%);fill-opacity:1;" d="M 301.304688 156.390625 L 274.984375 132.695312 L 263.136719 145.851562 "/>
<path style=" stroke:none;fill-rule:nonzero;fill:rgb(100%,100%,100%);fill-opacity:1;" d="M 301.304688 156.390625 L 266.082031 152.691406 L 267.933594 135.078125 "/>
<path style=" stroke:none;fill-rule:nonzero;fill:rgb(100%,100%,100%);fill-opacity:1;" d="M 265.246094 177.210938 L 279.652344 144.855469 L 263.476562 137.652344 "/>
<path style=" stroke:none;fill-rule:nonzero;fill:rgb(100%,100%,100%);fill-opacity:1;" d="M 265.246094 177.210938 L 257.882812 142.566406 L 275.207031 138.886719 "/>
</g>
</svg>
