<?xml version="1.0" encoding="UTF-8"?>
<!-- Created by grConvert v0.1-0 -->
<svg xmlns="http://www.w3.org/2000/svg" xmlns:xlink="http://www.w3.org/1999/xlink" width="1080pt" height="720pt" viewBox="0 0 1080 720" version="1.1">
<g id="surface1">
<rect x="0" y="0" width="1080" height="720" style="fill:rgb(100%,100%,100%);fill-opacity:1;stroke:none;"/>
<path style=" stroke:none;fill-rule:nonzero;fill:rgb(74.901961%,3.921569%,18.823529%);fill-opacity:1;" d="M 0 360 L 1080 360 L 1080 720 L 0 720 Z "/>
<path style=" stroke:none;fill-rule:nonzero;fill:rgb(0%,15.686275%,40.784314%);fill-opacity:1;" d="M 0 0 L 360 0 L 360 720 L 0 720 Z "/>
<path style=" stroke:none;fill-rule:nonzero;fill:rgb(100%,100%,100%);fill-opacity:1;" d="M 180 225 L 138.28125 353.394531 L 202.480469 374.25 "/>
<path style=" stroke:none;fill-rule:nonzero;fill:rgb(100%,100%,100%);fill-opacity:1;" d="M 180 225 L 221.71875 353.394531 L 157.519531 374.25 "/>
<path style=" stroke:none;fill-rule:nonzero;fill:rgb(100%,100%,100%);fill-opacity:1;" d="M 308.394531 318.28125 L 173.394531 318.28125 L 173.394531 385.78125 "/>
<path style=" stroke:none;fill-rule:nonzero;fill:rgb(100%,100%,100%);fill-opacity:1;" d="M 308.394531 318.28125 L 199.175781 397.632812 L 159.5 343.023438 "/>
<path style=" stroke:none;fill-rule:nonzero;fill:rgb(100%,100%,100%);fill-opacity:1;" d="M 259.351562 469.21875 L 217.632812 340.824219 L 153.4375 361.683594 "/>
<path style=" stroke:none;fill-rule:nonzero;fill:rgb(100%,100%,100%);fill-opacity:1;" d="M 259.351562 469.21875 L 150.132812 389.867188 L 189.808594 335.257812 "/>
<path style=" stroke:none;fill-rule:nonzero;fill:rgb(100%,100%,100%);fill-opacity:1;" d="M 100.648438 469.21875 L 209.867188 389.867188 L 170.191406 335.257812 "/>
<path style=" stroke:none;fill-rule:nonzero;fill:rgb(100%,100%,100%);fill-opacity:1;" d="M 100.648438 469.21875 L 142.367188 340.824219 L 206.5625 361.683594 "/>
<path style=" stroke:none;fill-rule:nonzero;fill:rgb(100%,100%,100%);fill-opacity:1;" d="M 51.605469 318.28125 L 160.824219 397.632812 L 200.5 343.023438 "/>
<path style=" stroke:none;fill-rule:nonzero;fill:rgb(100%,100%,100%);fill-opacity:1;" d="M 51.605469 318.28125 L 186.605469 318.28125 L 186.605469 385.78125 "/>
</g>
</svg>
