<svg xmlns="http://www.w3.org/2000/svg" viewBox="0 0 118.29 13.28" width="119" height="14"><path d="M6.015 4.144c-.672-.736-1.648-1.136-2.736-1.136-1.696 0-2.8.944-2.8 2.032 0 1.28 1.376 1.744 1.776 1.888.624.224 1.424.416 1.968.672.608.288.72.672.72.928 0 .688-.832 1.152-1.872 1.152-1.248 0-2.048-.752-2.288-1.008-.048-.064-.048-.112-.048-.176 0-.016.016-.112-.064-.144l-.672 1.136c.864.8 1.984 1.168 3.088 1.168 2 0 3.04-1.184 3.04-2.288 0-.496-.208-1.168-1.072-1.648-.816-.464-2-.624-2.688-.96-.592-.288-.72-.64-.72-.896 0-.576.72-.992 1.536-.992 1.056 0 1.76.64 2.032 1.008l.032.144c0 .096.064.128.096.128l.672-1.008M8.795 3.164v.944h1.76v5.456h-1.856v.912h4.736v-.912h-1.712v-6.4h-2.928m2.368-3.168c-.464 0-.832.368-.832.816s.368.816.832.816.832-.368.832-.816-.368-.816-.832-.816M15.695 10.484h1.056v-4.864c0-.352.032-.672.24-1.056.256-.48.576-.672.88-.672.256 0 .544.16.672.56.096.304.08.656.08.96v5.072h1.072v-4.832c0-.384.032-.688.304-1.152.128-.192.4-.656.848-.656.24 0 .464.144.576.416.144.304.112.72.112 1.056v5.184h1.088v-5.2c0-.608.016-1.216-.304-1.712-.272-.416-.736-.576-1.136-.576-.704 0-1.36.416-1.648 1.056-.112-.608-.624-1.056-1.28-1.056-.608 0-1.168.384-1.504.896l.016-.72h-1.072v7.296M30.465 6.864c0-2.528-1.6-3.84-3.264-3.84-1.856 0-3.456 1.6-3.456 3.872 0 2.224 1.584 3.792 3.424 3.792 1.728 0 3.296-1.392 3.296-3.824m-3.344-2.864c1.056 0 2.176.912 2.176 2.912 0 1.84-1.056 2.768-2.112 2.768-1.168 0-2.224-1.088-2.224-2.896 0-1.792 1.04-2.784 2.16-2.784M32.195 10.484h1.168v-4.208c0-.48.064-.848.368-1.248.272-.368.976-1.024 1.744-1.024.368 0 .736.16.992.464.4.48.4 1.104.4 1.616v4.4h1.136v-4.432c0-.56 0-1.168-.256-1.76-.368-.816-1.12-1.28-1.952-1.28-.992 0-1.888.64-2.432 1.456v-1.28h-1.168v7.296M46.045 10.004l-.416-.768c-.512.336-1.104.528-1.728.528-1.552 0-3.392-1.216-3.392-4.336 0-2.88 1.488-4.208 2.88-4.208 1.2 0 2.144.976 2.144 2.16h-.24c-.608 0-1.248 0-1.888.256-.992.4-1.52 1.248-1.52 2.112 0 1.152.944 2.08 2.08 2.08.624 0 1.2-.272 1.6-.752v.608h.976v-3.232c0-.768-.016-1.536-.368-2.304-.512-1.136-1.584-1.776-2.736-1.776-1.744 0-3.84 1.472-3.84 5.104 0 3.712 2.224 5.2 4.208 5.2.8 0 1.584-.24 2.24-.672m-.48-5.824v.304c0 .64.016 1.248-.224 1.728-.256.48-.72.736-1.184.736-.704 0-1.264-.56-1.264-1.248 0-.416.192-.848.624-1.136.544-.384 1.216-.384 1.792-.384h.256M54.015 4.144c-.672-.736-1.648-1.136-2.736-1.136-1.696 0-2.8.944-2.8 2.032 0 1.28 1.376 1.744 1.776 1.888.624.224 1.424.416 1.968.672.608.288.72.672.72.928 0 .688-.832 1.152-1.872 1.152-1.248 0-2.048-.752-2.288-1.008-.048-.064-.048-.112-.048-.176 0-.016.016-.112-.064-.144l-.672 1.136c.864.8 1.984 1.168 3.088 1.168 2 0 3.04-1.184 3.04-2.288 0-.496-.208-1.168-1.072-1.648-.816-.464-2-.624-2.688-.96-.592-.288-.72-.64-.72-.896 0-.576.72-.992 1.536-.992 1.056 0 1.76.64 2.032 1.008l.032.144c0 .096.064.128.096.128l.672-1.008M57.105 3.164v.96h2.736v6.064c0 .4-.016.784-.192 1.168-.272.592-.848.928-1.472.928-.88 0-1.36-.64-1.424-.736-.064-.112-.032-.208-.144-.288l-.736.992c.528.656 1.328 1.024 2.224 1.024 1.056 0 2.064-.496 2.56-1.456.32-.624.336-1.216.336-1.84v-6.816h-3.888m3.328-3.168c-.464 0-.832.368-.832.816s.368.816.832.816c.448 0 .816-.368.816-.816s-.368-.816-.816-.816M64.045 3.184l.016 9.968h1.168v-3.632c.496.72 1.312 1.168 2.192 1.168 1.504 0 3.072-1.264 3.072-3.936 0-2.576-1.52-3.728-2.96-3.728-.944 0-1.824.48-2.32 1.28v-1.12h-1.168m3.056.816c.64 0 2.192.336 2.192 2.992 0 2.304-1.504 2.672-2.192 2.672s-1.392-.352-1.68-1.008c-.208-.496-.208-1.104-.208-2.16 0-.608.032-1.056.192-1.44.288-.656.96-1.056 1.696-1.056M75.855 9.744c0-.496-.416-.912-.944-.912s-.944.416-.944.912c0 .512.416.928.944.928s.944-.416.944-.928M86.395 4.384c-.576-.848-1.552-1.36-2.736-1.36-2.144 0-3.664 1.616-3.664 3.808 0 2.208 1.52 3.84 3.6 3.84 1.008 0 2-.416 2.688-1.168l-.656-.768c-.496.56-1.216.88-1.936.88-1.424 0-2.512-1.184-2.512-2.896 0-1.664 1.072-2.704 2.416-2.704 1.248 0 1.84.864 1.888.96.064.112-.032.272.096.368l.816-.96M94.465 6.864c0-2.528-1.6-3.84-3.264-3.84-1.856 0-3.456 1.6-3.456 3.872 0 2.224 1.584 3.792 3.424 3.792 1.728 0 3.296-1.392 3.296-3.824m-3.344-2.864c1.056 0 2.176.912 2.176 2.912 0 1.84-1.056 2.768-2.112 2.768-1.168 0-2.224-1.088-2.224-2.896 0-1.792 1.04-2.784 2.16-2.784M99.855 9.744c0-.496-.416-.912-.944-.912s-.944.416-.944.912c0 .512.416.928.944.928s.944-.416.944-.928M104.195 10.484h1.168v-4.208c0-.48.064-.848.368-1.248.272-.368.976-1.024 1.744-1.024.368 0 .736.16.992.464.4.48.4 1.104.4 1.616v4.4h1.136v-4.432c0-.56 0-1.168-.256-1.76-.368-.816-1.12-1.28-1.952-1.28-.992 0-1.888.64-2.432 1.456v-1.28h-1.168v7.296M112.225 3.164v1.008h4.208l-4.528 5.536v.784h6.384v-1.088c-.192-.032-.256.096-.48.096h-4.352l4.464-5.552v-.784h-5.696"/></svg>
