<?xml version="1.0" encoding="UTF-8"?>
<svg xmlns="http://www.w3.org/2000/svg" xmlns:xlink="http://www.w3.org/1999/xlink" viewBox="0 0 671 671.59" version="1.1"><g transform="translate(0, 671.59) scale(1, -1)"><g id="gridSVG" fill="none" stroke="rgb(0,0,0)" stroke-dasharray="none" stroke-width="1" font-size="16" font-family="Helvetica, Arial, FreeSans, Liberation Sans, Nimbus Sans L, sans-serif" opacity="1" stroke-linecap="round" stroke-linejoin="round" stroke-miterlimit="10" stroke-opacity="1" fill-opacity="0" font-weight="normal" font-style="normal"><g id="picture.shape.1"><defs><clipPath id="picture.shape::picture.scale.1.clipPath"><rect x="0" y="168.04" width="671" height="335.5" fill="none" stroke="none"/></clipPath></defs><g id="picture.shape::picture.scale.1" clip-path="url(#picture.shape::picture.scale.1.clipPath)"><g id="import.1.GRID.gTree.269.1"><g id="GRID.gTree.268.1"><g id="GRID.rect.445.1"><rect id="GRID.rect.445.1.1" x="30.5" y="183.29" width="610" height="305" fill="rgb(0,36,125)" stroke="rgb(255,255,255)" stroke-opacity="0" fill-opacity="1"/></g><g id="GRID.picComplexPath.2.1" stroke="rgb(255,255,255)" fill="rgb(0,0,0)" stroke-opacity="0" fill-opacity="1"><g id="GRID.pathgrob.446.1"><path id="GRID.pathgrob.446.1.1" d="M 30.5 488.29 L 335.5 335.79 Z M 30.5 335.79 L 335.5 488.29 Z" fill-rule="nonzero" stroke="rgb(255,255,255)" stroke-opacity="0"/></g><g id="GRID.polyline.447.1"><polyline id="GRID.polyline.447.1.1" points="30.5,488.29 335.5,335.79" fill="none" fill-opacity="0"/><polyline id="GRID.polyline.447.1.2" points="30.5,335.79 335.5,488.29" fill="none" fill-opacity="0"/></g></g><defs><clipPath id="picture.shape::picture.scale::GRID.VP.1.1.clipPath"><rect x="30.5" y="335.79" width="305" height="152.5" fill="none" stroke="none"/></clipPath></defs><g id="picture.shape::picture.scale::GRID.VP.1.1" clip-path="url(#picture.shape::picture.scale::GRID.VP.1.1.clipPath)"><g id="GRID.gTree.8.1"><g id="GRID.picComplexPath.5.1" fill="rgb(255,255,255)" stroke-width="30.5" stroke-linecap="butt" stroke-linejoin="miter" stroke="rgb(255,255,255)" stroke-miterlimit="4" stroke-opacity="1" fill-opacity="0"><g id="GRID.pathgrob.448.1"><path id="GRID.pathgrob.448.1.1" d="M 30.5 488.29 L 335.5 335.79 Z M 30.5 335.79 L 335.5 488.29 Z" fill-rule="nonzero" stroke="rgb(255,255,255)" stroke-opacity="0"/></g><g id="GRID.polyline.449.1"><polyline id="GRID.polyline.449.1.1" points="30.5,488.29 335.5,335.79" fill="none" fill-opacity="0"/><polyline id="GRID.polyline.449.1.2" points="30.5,335.79 335.5,488.29" fill="none" fill-opacity="0"/></g></g></g></g><defs><clipPath id="picture.shape::picture.scale::GRID.VP.2.1.clipPath"><rect x="30.5" y="335.79" width="305" height="152.5" fill="none" stroke="none"/></clipPath></defs><g id="picture.shape::picture.scale::GRID.VP.2.1" clip-path="url(#picture.shape::picture.scale::GRID.VP.2.1.clipPath)"><g id="GRID.gTree.13.1"><defs><clipPath id="picture.shape::picture.scale::GRID.VP.2::GRID.VP.3.1.clipPath"><rect x="30.5" y="335.79" width="305" height="152.5" fill="none" stroke="none"/></clipPath></defs><g id="picture.shape::picture.scale::GRID.VP.2::GRID.VP.3.1" clip-path="url(#picture.shape::picture.scale::GRID.VP.2::GRID.VP.3.1.clipPath)"><g id="GRID.gTree.12.1"><g id="GRID.picComplexPath.9.1" fill="rgb(0,0,0)" stroke-width="20.33" stroke-linecap="butt" stroke-linejoin="miter" stroke="rgb(204,20,43)" stroke-miterlimit="4" stroke-opacity="1" fill-opacity="1"><g id="GRID.pathgrob.450.1"><path id="GRID.pathgrob.450.1.1" d="M 30.5 488.29 L 335.5 335.79 Z M 30.5 335.79 L 335.5 488.29 Z" fill-rule="nonzero" stroke="rgb(255,255,255)" stroke-opacity="0"/></g><g id="GRID.polyline.451.1"><polyline id="GRID.polyline.451.1.1" points="30.5,488.29 335.5,335.79" fill="none" fill-opacity="0"/><polyline id="GRID.polyline.451.1.2" points="30.5,335.79 335.5,488.29" fill="none" fill-opacity="0"/></g></g></g></g></g></g><g id="GRID.picComplexPath.14.1" stroke="rgb(255,255,255)" fill="rgb(0,0,0)" stroke-opacity="0" fill-opacity="1"><g id="GRID.pathgrob.452.1"><path id="GRID.pathgrob.452.1.1" d="M 183 488.29 L 183 335.79 Z M 30.5 412.04 L 335.5 412.04 Z" fill-rule="nonzero" stroke="rgb(255,255,255)" stroke-opacity="0"/></g><g id="GRID.polyline.453.1"><polyline id="GRID.polyline.453.1.1" points="183,488.29 183,335.79" fill="none" fill-opacity="0"/><polyline id="GRID.polyline.453.1.2" points="30.5,412.04 335.5,412.04" fill="none" fill-opacity="0"/></g></g><defs><clipPath id="picture.shape::picture.scale::GRID.VP.4.1.clipPath"><rect x="30.5" y="335.79" width="305" height="152.5" fill="none" stroke="none"/></clipPath></defs><g id="picture.shape::picture.scale::GRID.VP.4.1" clip-path="url(#picture.shape::picture.scale::GRID.VP.4.1.clipPath)"><g id="GRID.gTree.20.1"><g id="GRID.picComplexPath.17.1" fill="rgb(255,255,255)" stroke-width="50.83" stroke-linecap="butt" stroke-linejoin="miter" stroke="rgb(255,255,255)" stroke-miterlimit="4" stroke-opacity="1" fill-opacity="0"><g id="GRID.pathgrob.454.1"><path id="GRID.pathgrob.454.1.1" d="M 183 488.29 L 183 335.79 Z M 30.5 412.04 L 335.5 412.04 Z" fill-rule="nonzero" stroke="rgb(255,255,255)" stroke-opacity="0"/></g><g id="GRID.polyline.455.1"><polyline id="GRID.polyline.455.1.1" points="183,488.29 183,335.79" fill="none" fill-opacity="0"/><polyline id="GRID.polyline.455.1.2" points="30.5,412.04 335.5,412.04" fill="none" fill-opacity="0"/></g></g></g></g><g id="GRID.picComplexPath.21.1" stroke="rgb(255,255,255)" fill="rgb(0,0,0)" stroke-opacity="0" fill-opacity="1"><g id="GRID.pathgrob.456.1"><path id="GRID.pathgrob.456.1.1" d="M 183 488.29 L 183 335.79 Z M 30.5 412.04 L 335.5 412.04 Z" fill-rule="nonzero" stroke="rgb(255,255,255)" stroke-opacity="0"/></g><g id="GRID.polyline.457.1"><polyline id="GRID.polyline.457.1.1" points="183,488.29 183,335.79" fill="none" fill-opacity="0"/><polyline id="GRID.polyline.457.1.2" points="30.5,412.04 335.5,412.04" fill="none" fill-opacity="0"/></g></g><defs><clipPath id="picture.shape::picture.scale::GRID.VP.5.1.clipPath"><rect x="30.5" y="335.79" width="305" height="152.5" fill="none" stroke="none"/></clipPath></defs><g id="picture.shape::picture.scale::GRID.VP.5.1" clip-path="url(#picture.shape::picture.scale::GRID.VP.5.1.clipPath)"><g id="GRID.gTree.27.1"><g id="GRID.picComplexPath.24.1" fill="rgb(255,255,255)" stroke-width="30.5" stroke-linecap="butt" stroke-linejoin="miter" stroke="rgb(204,20,43)" stroke-miterlimit="4" stroke-opacity="1" fill-opacity="0"><g id="GRID.pathgrob.458.1"><path id="GRID.pathgrob.458.1.1" d="M 183 488.29 L 183 335.79 Z M 30.5 412.04 L 335.5 412.04 Z" fill-rule="nonzero" stroke="rgb(255,255,255)" stroke-opacity="0"/></g><g id="GRID.polyline.459.1"><polyline id="GRID.polyline.459.1.1" points="183,488.29 183,335.79" fill="none" fill-opacity="0"/><polyline id="GRID.polyline.459.1.2" points="30.5,412.04 335.5,412.04" fill="none" fill-opacity="0"/></g></g></g></g><g id="GRID.picComplexPath.28.1" stroke="rgb(255,255,255)" fill="rgb(255,255,255)" stroke-opacity="0" fill-opacity="1"><g id="GRID.pathgrob.460.1"><path id="GRID.pathgrob.460.1.1" d="M 488 434.79 L 488 423.25 L 511.08 434.79 Z" fill-rule="nonzero" stroke="rgb(255,255,255)" stroke-opacity="0"/></g><g id="GRID.polyline.461.1"><polyline id="GRID.polyline.461.1.1" points="488,434.79 488,423.25 511.08,434.79 488,434.79" fill="none" fill-opacity="0"/></g></g><g id="GRID.picComplexPath.31.1" stroke="rgb(255,255,255)" fill="rgb(255,255,255)" stroke-opacity="0" fill-opacity="1"><g id="GRID.pathgrob.462.1"><path id="GRID.pathgrob.462.1.1" d="M 492.41 421.23 L 485.63 430.56 L 511.08 434.79 Z" fill-rule="nonzero" stroke="rgb(255,255,255)" stroke-opacity="0"/></g><g id="GRID.polyline.463.1"><polyline id="GRID.polyline.463.1.1" points="492.41,421.23 485.63,430.56 511.08,434.79 492.41,421.23" fill="none" fill-opacity="0"/></g></g><g id="GRID.picComplexPath.34.1" stroke="rgb(255,255,255)" fill="rgb(255,255,255)" stroke-opacity="0" fill-opacity="1"><g id="GRID.pathgrob.464.1"><path id="GRID.pathgrob.464.1.1" d="M 488 434.79 L 488 423.25 L 464.92 434.79 Z" fill-rule="nonzero" stroke="rgb(255,255,255)" stroke-opacity="0"/></g><g id="GRID.polyline.465.1"><polyline id="GRID.polyline.465.1.1" points="488,434.79 488,423.25 464.92,434.79 488,434.79" fill="none" fill-opacity="0"/></g></g><g id="GRID.picComplexPath.37.1" stroke="rgb(255,255,255)" fill="rgb(255,255,255)" stroke-opacity="0" fill-opacity="1"><g id="GRID.pathgrob.466.1"><path id="GRID.pathgrob.466.1.1" d="M 483.59 421.23 L 490.37 430.56 L 464.92 434.79 Z" fill-rule="nonzero" stroke="rgb(255,255,255)" stroke-opacity="0"/></g><g id="GRID.polyline.467.1"><polyline id="GRID.polyline.467.1.1" points="483.59,421.23 490.37,430.56 464.92,434.79 483.59,421.23" fill="none" fill-opacity="0"/></g></g><g id="GRID.picComplexPath.40.1" stroke="rgb(255,255,255)" fill="rgb(255,255,255)" stroke-opacity="0" fill-opacity="1"><g id="GRID.pathgrob.468.1"><path id="GRID.pathgrob.468.1.1" d="M 495.13 429.61 L 484.16 426.04 L 502.26 407.66 Z" fill-rule="nonzero" stroke="rgb(255,255,255)" stroke-opacity="0"/></g><g id="GRID.polyline.469.1"><polyline id="GRID.polyline.469.1.1" points="495.13,429.61 484.16,426.04 502.26,407.66 495.13,429.61" fill="none" fill-opacity="0"/></g></g><g id="GRID.picComplexPath.43.1" stroke="rgb(255,255,255)" fill="rgb(255,255,255)" stroke-opacity="0" fill-opacity="1"><g id="GRID.pathgrob.470.1"><path id="GRID.pathgrob.470.1.1" d="M 483.59 421.23 L 490.37 430.56 L 502.26 407.66 Z" fill-rule="nonzero" stroke="rgb(255,255,255)" stroke-opacity="0"/></g><g id="GRID.polyline.471.1"><polyline id="GRID.polyline.471.1.1" points="483.59,421.23 490.37,430.56 502.26,407.66 483.59,421.23" fill="none" fill-opacity="0"/></g></g><g id="GRID.picComplexPath.46.1" stroke="rgb(255,255,255)" fill="rgb(255,255,255)" stroke-opacity="0" fill-opacity="1"><g id="GRID.pathgrob.472.1"><path id="GRID.pathgrob.472.1.1" d="M 480.87 429.61 L 491.84 426.04 L 488 451.56 Z" fill-rule="nonzero" stroke="rgb(255,255,255)" stroke-opacity="0"/></g><g id="GRID.polyline.473.1"><polyline id="GRID.polyline.473.1.1" points="480.87,429.61 491.84,426.04 488,451.56 480.87,429.61" fill="none" fill-opacity="0"/></g></g><g id="GRID.picComplexPath.49.1" stroke="rgb(255,255,255)" fill="rgb(255,255,255)" stroke-opacity="0" fill-opacity="1"><g id="GRID.pathgrob.474.1"><path id="GRID.pathgrob.474.1.1" d="M 495.13 429.61 L 484.16 426.04 L 488 451.56 Z" fill-rule="nonzero" stroke="rgb(255,255,255)" stroke-opacity="0"/></g><g id="GRID.polyline.475.1"><polyline id="GRID.polyline.475.1.1" points="495.13,429.61 484.16,426.04 488,451.56 495.13,429.61" fill="none" fill-opacity="0"/></g></g><g id="GRID.picComplexPath.52.1" stroke="rgb(255,255,255)" fill="rgb(255,255,255)" stroke-opacity="0" fill-opacity="1"><g id="GRID.pathgrob.476.1"><path id="GRID.pathgrob.476.1.1" d="M 480.87 429.61 L 491.84 426.04 L 473.74 407.66 Z" fill-rule="nonzero" stroke="rgb(255,255,255)" stroke-opacity="0"/></g><g id="GRID.polyline.477.1"><polyline id="GRID.polyline.477.1.1" points="480.87,429.61 491.84,426.04 473.74,407.66 480.87,429.61" fill="none" fill-opacity="0"/></g></g><g id="GRID.picComplexPath.55.1" stroke="rgb(255,255,255)" fill="rgb(255,255,255)" stroke-opacity="0" fill-opacity="1"><g id="GRID.pathgrob.478.1"><path id="GRID.pathgrob.478.1.1" d="M 492.41 421.23 L 485.63 430.56 L 473.74 407.66 Z" fill-rule="nonzero" stroke="rgb(255,255,255)" stroke-opacity="0"/></g><g id="GRID.polyline.479.1"><polyline id="GRID.polyline.479.1.1" points="492.41,421.23 485.63,430.56 473.74,407.66 492.41,421.23" fill="none" fill-opacity="0"/></g></g><g id="GRID.picComplexPath.58.1" stroke="rgb(255,255,255)" fill="rgb(204,20,43)" stroke-opacity="0" fill-opacity="1"><g id="GRID.pathgrob.480.1"><path id="GRID.pathgrob.480.1.1" d="M 488 432.25 L 488 424.62 L 503.25 432.25 Z" fill-rule="nonzero" stroke="rgb(255,255,255)" stroke-opacity="0"/></g><g id="GRID.polyline.481.1"><polyline id="GRID.polyline.481.1.1" points="488,432.25 488,424.62 503.25,432.25 488,432.25" fill="none" fill-opacity="0"/></g></g><g id="GRID.picComplexPath.61.1" stroke="rgb(255,255,255)" fill="rgb(204,20,43)" stroke-opacity="0" fill-opacity="1"><g id="GRID.pathgrob.482.1"><path id="GRID.pathgrob.482.1.1" d="M 490.91 423.28 L 486.43 429.45 L 503.25 432.25 Z" fill-rule="nonzero" stroke="rgb(255,255,255)" stroke-opacity="0"/></g><g id="GRID.polyline.483.1"><polyline id="GRID.polyline.483.1.1" points="490.91,423.28 486.43,429.45 503.25,432.25 490.91,423.28" fill="none" fill-opacity="0"/></g></g><g id="GRID.picComplexPath.64.1" stroke="rgb(255,255,255)" fill="rgb(204,20,43)" stroke-opacity="0" fill-opacity="1"><g id="GRID.pathgrob.484.1"><path id="GRID.pathgrob.484.1.1" d="M 488 432.25 L 488 424.62 L 472.75 432.25 Z" fill-rule="nonzero" stroke="rgb(255,255,255)" stroke-opacity="0"/></g><g id="GRID.polyline.485.1"><polyline id="GRID.polyline.485.1.1" points="488,432.25 488,424.62 472.75,432.25 488,432.25" fill="none" fill-opacity="0"/></g></g><g id="GRID.picComplexPath.67.1" stroke="rgb(255,255,255)" fill="rgb(204,20,43)" stroke-opacity="0" fill-opacity="1"><g id="GRID.pathgrob.486.1"><path id="GRID.pathgrob.486.1.1" d="M 485.09 423.28 L 489.57 429.45 L 472.75 432.25 Z" fill-rule="nonzero" stroke="rgb(255,255,255)" stroke-opacity="0"/></g><g id="GRID.polyline.487.1"><polyline id="GRID.polyline.487.1.1" points="485.09,423.28 489.57,429.45 472.75,432.25 485.09,423.28" fill="none" fill-opacity="0"/></g></g><g id="GRID.picComplexPath.70.1" stroke="rgb(255,255,255)" fill="rgb(204,20,43)" stroke-opacity="0" fill-opacity="1"><g id="GRID.pathgrob.488.1"><path id="GRID.pathgrob.488.1.1" d="M 492.71 428.82 L 485.46 426.47 L 497.43 414.32 Z" fill-rule="nonzero" stroke="rgb(255,255,255)" stroke-opacity="0"/></g><g id="GRID.polyline.489.1"><polyline id="GRID.polyline.489.1.1" points="492.71,428.82 485.46,426.47 497.43,414.32 492.71,428.82" fill="none" fill-opacity="0"/></g></g><g id="GRID.picComplexPath.73.1" stroke="rgb(255,255,255)" fill="rgb(204,20,43)" stroke-opacity="0" fill-opacity="1"><g id="GRID.pathgrob.490.1"><path id="GRID.pathgrob.490.1.1" d="M 485.09 423.28 L 489.57 429.45 L 497.43 414.32 Z" fill-rule="nonzero" stroke="rgb(255,255,255)" stroke-opacity="0"/></g><g id="GRID.polyline.491.1"><polyline id="GRID.polyline.491.1.1" points="485.09,423.28 489.57,429.45 497.43,414.32 485.09,423.28" fill="none" fill-opacity="0"/></g></g><g id="GRID.picComplexPath.76.1" stroke="rgb(255,255,255)" fill="rgb(204,20,43)" stroke-opacity="0" fill-opacity="1"><g id="GRID.pathgrob.492.1"><path id="GRID.pathgrob.492.1.1" d="M 483.29 428.82 L 490.54 426.47 L 488 443.33 Z" fill-rule="nonzero" stroke="rgb(255,255,255)" stroke-opacity="0"/></g><g id="GRID.polyline.493.1"><polyline id="GRID.polyline.493.1.1" points="483.29,428.82 490.54,426.47 488,443.33 483.29,428.82" fill="none" fill-opacity="0"/></g></g><g id="GRID.picComplexPath.79.1" stroke="rgb(255,255,255)" fill="rgb(204,20,43)" stroke-opacity="0" fill-opacity="1"><g id="GRID.pathgrob.494.1"><path id="GRID.pathgrob.494.1.1" d="M 492.71 428.82 L 485.46 426.47 L 488 443.33 Z" fill-rule="nonzero" stroke="rgb(255,255,255)" stroke-opacity="0"/></g><g id="GRID.polyline.495.1"><polyline id="GRID.polyline.495.1.1" points="492.71,428.82 485.46,426.47 488,443.33 492.71,428.82" fill="none" fill-opacity="0"/></g></g><g id="GRID.picComplexPath.82.1" stroke="rgb(255,255,255)" fill="rgb(204,20,43)" stroke-opacity="0" fill-opacity="1"><g id="GRID.pathgrob.496.1"><path id="GRID.pathgrob.496.1.1" d="M 483.29 428.82 L 490.54 426.47 L 478.57 414.32 Z" fill-rule="nonzero" stroke="rgb(255,255,255)" stroke-opacity="0"/></g><g id="GRID.polyline.497.1"><polyline id="GRID.polyline.497.1.1" points="483.29,428.82 490.54,426.47 478.57,414.32 483.29,428.82" fill="none" fill-opacity="0"/></g></g><g id="GRID.picComplexPath.85.1" stroke="rgb(255,255,255)" fill="rgb(204,20,43)" stroke-opacity="0" fill-opacity="1"><g id="GRID.pathgrob.498.1"><path id="GRID.pathgrob.498.1.1" d="M 490.91 423.28 L 486.43 429.45 L 478.57 414.32 Z" fill-rule="nonzero" stroke="rgb(255,255,255)" stroke-opacity="0"/></g><g id="GRID.polyline.499.1"><polyline id="GRID.polyline.499.1.1" points="490.91,423.28 486.43,429.45 478.57,414.32 490.91,423.28" fill="none" fill-opacity="0"/></g></g><g id="GRID.picComplexPath.88.1" stroke="rgb(255,255,255)" fill="rgb(255,255,255)" stroke-opacity="0" fill-opacity="1"><g id="GRID.pathgrob.500.1"><path id="GRID.pathgrob.500.1.1" d="M 548.41 381.46 L 548.41 371.19 L 568.94 381.46 Z" fill-rule="nonzero" stroke="rgb(255,255,255)" stroke-opacity="0"/></g><g id="GRID.polyline.501.1"><polyline id="GRID.polyline.501.1.1" points="548.41,381.46 548.41,371.19 568.94,381.46 548.41,381.46" fill="none" fill-opacity="0"/></g></g><g id="GRID.picComplexPath.91.1" stroke="rgb(255,255,255)" fill="rgb(255,255,255)" stroke-opacity="0" fill-opacity="1"><g id="GRID.pathgrob.502.1"><path id="GRID.pathgrob.502.1.1" d="M 552.33 369.39 L 546.29 377.69 L 568.94 381.46 Z" fill-rule="nonzero" stroke="rgb(255,255,255)" stroke-opacity="0"/></g><g id="GRID.polyline.503.1"><polyline id="GRID.polyline.503.1.1" points="552.33,369.39 546.29,377.69 568.94,381.46 552.33,369.39" fill="none" fill-opacity="0"/></g></g><g id="GRID.picComplexPath.94.1" stroke="rgb(255,255,255)" fill="rgb(255,255,255)" stroke-opacity="0" fill-opacity="1"><g id="GRID.pathgrob.504.1"><path id="GRID.pathgrob.504.1.1" d="M 548.41 381.46 L 548.41 371.19 L 527.87 381.46 Z" fill-rule="nonzero" stroke="rgb(255,255,255)" stroke-opacity="0"/></g><g id="GRID.polyline.505.1"><polyline id="GRID.polyline.505.1.1" points="548.41,381.46 548.41,371.19 527.87,381.46 548.41,381.46" fill="none" fill-opacity="0"/></g></g><g id="GRID.picComplexPath.97.1" stroke="rgb(255,255,255)" fill="rgb(255,255,255)" stroke-opacity="0" fill-opacity="1"><g id="GRID.pathgrob.506.1"><path id="GRID.pathgrob.506.1.1" d="M 544.48 369.39 L 550.52 377.69 L 527.87 381.46 Z" fill-rule="nonzero" stroke="rgb(255,255,255)" stroke-opacity="0"/></g><g id="GRID.polyline.507.1"><polyline id="GRID.polyline.507.1.1" points="544.48,369.39 550.52,377.69 527.87,381.46 544.48,369.39" fill="none" fill-opacity="0"/></g></g><g id="GRID.picComplexPath.100.1" stroke="rgb(255,255,255)" fill="rgb(255,255,255)" stroke-opacity="0" fill-opacity="1"><g id="GRID.pathgrob.508.1"><path id="GRID.pathgrob.508.1.1" d="M 554.75 376.85 L 544.99 373.67 L 561.1 357.31 Z" fill-rule="nonzero" stroke="rgb(255,255,255)" stroke-opacity="0"/></g><g id="GRID.polyline.509.1"><polyline id="GRID.polyline.509.1.1" points="554.75,376.85 544.99,373.67 561.1,357.31 554.75,376.85" fill="none" fill-opacity="0"/></g></g><g id="GRID.picComplexPath.103.1" stroke="rgb(255,255,255)" fill="rgb(255,255,255)" stroke-opacity="0" fill-opacity="1"><g id="GRID.pathgrob.510.1"><path id="GRID.pathgrob.510.1.1" d="M 544.48 369.39 L 550.52 377.69 L 561.1 357.31 Z" fill-rule="nonzero" stroke="rgb(255,255,255)" stroke-opacity="0"/></g><g id="GRID.polyline.511.1"><polyline id="GRID.polyline.511.1.1" points="544.48,369.39 550.52,377.69 561.1,357.31 544.48,369.39" fill="none" fill-opacity="0"/></g></g><g id="GRID.picComplexPath.106.1" stroke="rgb(255,255,255)" fill="rgb(255,255,255)" stroke-opacity="0" fill-opacity="1"><g id="GRID.pathgrob.512.1"><path id="GRID.pathgrob.512.1.1" d="M 542.06 376.85 L 551.83 373.67 L 548.41 396.38 Z" fill-rule="nonzero" stroke="rgb(255,255,255)" stroke-opacity="0"/></g><g id="GRID.polyline.513.1"><polyline id="GRID.polyline.513.1.1" points="542.06,376.85 551.83,373.67 548.41,396.38 542.06,376.85" fill="none" fill-opacity="0"/></g></g><g id="GRID.picComplexPath.109.1" stroke="rgb(255,255,255)" fill="rgb(255,255,255)" stroke-opacity="0" fill-opacity="1"><g id="GRID.pathgrob.514.1"><path id="GRID.pathgrob.514.1.1" d="M 554.75 376.85 L 544.99 373.67 L 548.41 396.38 Z" fill-rule="nonzero" stroke="rgb(255,255,255)" stroke-opacity="0"/></g><g id="GRID.polyline.515.1"><polyline id="GRID.polyline.515.1.1" points="554.75,376.85 544.99,373.67 548.41,396.38 554.75,376.85" fill="none" fill-opacity="0"/></g></g><g id="GRID.picComplexPath.112.1" stroke="rgb(255,255,255)" fill="rgb(255,255,255)" stroke-opacity="0" fill-opacity="1"><g id="GRID.pathgrob.516.1"><path id="GRID.pathgrob.516.1.1" d="M 542.06 376.85 L 551.83 373.67 L 535.71 357.31 Z" fill-rule="nonzero" stroke="rgb(255,255,255)" stroke-opacity="0"/></g><g id="GRID.polyline.517.1"><polyline id="GRID.polyline.517.1.1" points="542.06,376.85 551.83,373.67 535.71,357.31 542.06,376.85" fill="none" fill-opacity="0"/></g></g><g id="GRID.picComplexPath.115.1" stroke="rgb(255,255,255)" fill="rgb(255,255,255)" stroke-opacity="0" fill-opacity="1"><g id="GRID.pathgrob.518.1"><path id="GRID.pathgrob.518.1.1" d="M 552.33 369.39 L 546.29 377.69 L 535.71 357.31 Z" fill-rule="nonzero" stroke="rgb(255,255,255)" stroke-opacity="0"/></g><g id="GRID.polyline.519.1"><polyline id="GRID.polyline.519.1.1" points="552.33,369.39 546.29,377.69 535.71,357.31 552.33,369.39" fill="none" fill-opacity="0"/></g></g><g id="GRID.picComplexPath.118.1" stroke="rgb(255,255,255)" fill="rgb(204,20,43)" stroke-opacity="0" fill-opacity="1"><g id="GRID.pathgrob.520.1"><path id="GRID.pathgrob.520.1.1" d="M 548.41 378.91 L 548.41 372.56 L 561.11 378.91 Z" fill-rule="nonzero" stroke="rgb(255,255,255)" stroke-opacity="0"/></g><g id="GRID.polyline.521.1"><polyline id="GRID.polyline.521.1.1" points="548.41,378.91 548.41,372.56 561.11,378.91 548.41,378.91" fill="none" fill-opacity="0"/></g></g><g id="GRID.picComplexPath.121.1" stroke="rgb(255,255,255)" fill="rgb(204,20,43)" stroke-opacity="0" fill-opacity="1"><g id="GRID.pathgrob.522.1"><path id="GRID.pathgrob.522.1.1" d="M 550.83 371.44 L 547.1 376.58 L 561.11 378.91 Z" fill-rule="nonzero" stroke="rgb(255,255,255)" stroke-opacity="0"/></g><g id="GRID.polyline.523.1"><polyline id="GRID.polyline.523.1.1" points="550.83,371.44 547.1,376.58 561.11,378.91 550.83,371.44" fill="none" fill-opacity="0"/></g></g><g id="GRID.picComplexPath.124.1" stroke="rgb(255,255,255)" fill="rgb(204,20,43)" stroke-opacity="0" fill-opacity="1"><g id="GRID.pathgrob.524.1"><path id="GRID.pathgrob.524.1.1" d="M 548.41 378.91 L 548.41 372.56 L 535.7 378.91 Z" fill-rule="nonzero" stroke="rgb(255,255,255)" stroke-opacity="0"/></g><g id="GRID.polyline.525.1"><polyline id="GRID.polyline.525.1.1" points="548.41,378.91 548.41,372.56 535.7,378.91 548.41,378.91" fill="none" fill-opacity="0"/></g></g><g id="GRID.picComplexPath.127.1" stroke="rgb(255,255,255)" fill="rgb(204,20,43)" stroke-opacity="0" fill-opacity="1"><g id="GRID.pathgrob.526.1"><path id="GRID.pathgrob.526.1.1" d="M 545.98 371.44 L 549.71 376.58 L 535.7 378.91 Z" fill-rule="nonzero" stroke="rgb(255,255,255)" stroke-opacity="0"/></g><g id="GRID.polyline.527.1"><polyline id="GRID.polyline.527.1.1" points="545.98,371.44 549.71,376.58 535.7,378.91 545.98,371.44" fill="none" fill-opacity="0"/></g></g><g id="GRID.picComplexPath.130.1" stroke="rgb(255,255,255)" fill="rgb(204,20,43)" stroke-opacity="0" fill-opacity="1"><g id="GRID.pathgrob.528.1"><path id="GRID.pathgrob.528.1.1" d="M 552.33 376.06 L 546.29 374.1 L 556.26 363.97 Z" fill-rule="nonzero" stroke="rgb(255,255,255)" stroke-opacity="0"/></g><g id="GRID.polyline.529.1"><polyline id="GRID.polyline.529.1.1" points="552.33,376.06 546.29,374.1 556.26,363.97 552.33,376.06" fill="none" fill-opacity="0"/></g></g><g id="GRID.picComplexPath.133.1" stroke="rgb(255,255,255)" fill="rgb(204,20,43)" stroke-opacity="0" fill-opacity="1"><g id="GRID.pathgrob.530.1"><path id="GRID.pathgrob.530.1.1" d="M 545.98 371.44 L 549.71 376.58 L 556.26 363.97 Z" fill-rule="nonzero" stroke="rgb(255,255,255)" stroke-opacity="0"/></g><g id="GRID.polyline.531.1"><polyline id="GRID.polyline.531.1.1" points="545.98,371.44 549.71,376.58 556.26,363.97 545.98,371.44" fill="none" fill-opacity="0"/></g></g><g id="GRID.picComplexPath.136.1" stroke="rgb(255,255,255)" fill="rgb(204,20,43)" stroke-opacity="0" fill-opacity="1"><g id="GRID.pathgrob.532.1"><path id="GRID.pathgrob.532.1.1" d="M 544.48 376.06 L 550.52 374.1 L 548.41 388.15 Z" fill-rule="nonzero" stroke="rgb(255,255,255)" stroke-opacity="0"/></g><g id="GRID.polyline.533.1"><polyline id="GRID.polyline.533.1.1" points="544.48,376.06 550.52,374.1 548.41,388.15 544.48,376.06" fill="none" fill-opacity="0"/></g></g><g id="GRID.picComplexPath.139.1" stroke="rgb(255,255,255)" fill="rgb(204,20,43)" stroke-opacity="0" fill-opacity="1"><g id="GRID.pathgrob.534.1"><path id="GRID.pathgrob.534.1.1" d="M 552.33 376.06 L 546.29 374.1 L 548.41 388.15 Z" fill-rule="nonzero" stroke="rgb(255,255,255)" stroke-opacity="0"/></g><g id="GRID.polyline.535.1"><polyline id="GRID.polyline.535.1.1" points="552.33,376.06 546.29,374.1 548.41,388.15 552.33,376.06" fill="none" fill-opacity="0"/></g></g><g id="GRID.picComplexPath.142.1" stroke="rgb(255,255,255)" fill="rgb(204,20,43)" stroke-opacity="0" fill-opacity="1"><g id="GRID.pathgrob.536.1"><path id="GRID.pathgrob.536.1.1" d="M 544.48 376.06 L 550.52 374.1 L 540.55 363.97 Z" fill-rule="nonzero" stroke="rgb(255,255,255)" stroke-opacity="0"/></g><g id="GRID.polyline.537.1"><polyline id="GRID.polyline.537.1.1" points="544.48,376.06 550.52,374.1 540.55,363.97 544.48,376.06" fill="none" fill-opacity="0"/></g></g><g id="GRID.picComplexPath.145.1" stroke="rgb(255,255,255)" fill="rgb(204,20,43)" stroke-opacity="0" fill-opacity="1"><g id="GRID.pathgrob.538.1"><path id="GRID.pathgrob.538.1.1" d="M 550.83 371.44 L 547.1 376.58 L 540.55 363.97 Z" fill-rule="nonzero" stroke="rgb(255,255,255)" stroke-opacity="0"/></g><g id="GRID.polyline.539.1"><polyline id="GRID.polyline.539.1.1" points="550.83,371.44 547.1,376.58 540.55,363.97 550.83,371.44" fill="none" fill-opacity="0"/></g></g><g id="GRID.picComplexPath.148.1" stroke="rgb(255,255,255)" fill="rgb(255,255,255)" stroke-opacity="0" fill-opacity="1"><g id="GRID.pathgrob.540.1"><path id="GRID.pathgrob.540.1.1" d="M 417.53 363.89 L 417.53 352.35 L 440.6 363.89 Z" fill-rule="nonzero" stroke="rgb(255,255,255)" stroke-opacity="0"/></g><g id="GRID.polyline.541.1"><polyline id="GRID.polyline.541.1.1" points="417.53,363.89 417.53,352.35 440.6,363.89 417.53,363.89" fill="none" fill-opacity="0"/></g></g><g id="GRID.picComplexPath.151.1" stroke="rgb(255,255,255)" fill="rgb(255,255,255)" stroke-opacity="0" fill-opacity="1"><g id="GRID.pathgrob.542.1"><path id="GRID.pathgrob.542.1.1" d="M 421.93 350.32 L 415.15 359.66 L 440.6 363.89 Z" fill-rule="nonzero" stroke="rgb(255,255,255)" stroke-opacity="0"/></g><g id="GRID.polyline.543.1"><polyline id="GRID.polyline.543.1.1" points="421.93,350.32 415.15,359.66 440.6,363.89 421.93,350.32" fill="none" fill-opacity="0"/></g></g><g id="GRID.picComplexPath.154.1" stroke="rgb(255,255,255)" fill="rgb(255,255,255)" stroke-opacity="0" fill-opacity="1"><g id="GRID.pathgrob.544.1"><path id="GRID.pathgrob.544.1.1" d="M 417.53 363.89 L 417.53 352.35 L 394.45 363.89 Z" fill-rule="nonzero" stroke="rgb(255,255,255)" stroke-opacity="0"/></g><g id="GRID.polyline.545.1"><polyline id="GRID.polyline.545.1.1" points="417.53,363.89 417.53,352.35 394.45,363.89 417.53,363.89" fill="none" fill-opacity="0"/></g></g><g id="GRID.picComplexPath.157.1" stroke="rgb(255,255,255)" fill="rgb(255,255,255)" stroke-opacity="0" fill-opacity="1"><g id="GRID.pathgrob.546.1"><path id="GRID.pathgrob.546.1.1" d="M 413.12 350.32 L 419.9 359.66 L 394.45 363.89 Z" fill-rule="nonzero" stroke="rgb(255,255,255)" stroke-opacity="0"/></g><g id="GRID.polyline.547.1"><polyline id="GRID.polyline.547.1.1" points="413.12,350.32 419.9,359.66 394.45,363.89 413.12,350.32" fill="none" fill-opacity="0"/></g></g><g id="GRID.picComplexPath.160.1" stroke="rgb(255,255,255)" fill="rgb(255,255,255)" stroke-opacity="0" fill-opacity="1"><g id="GRID.pathgrob.548.1"><path id="GRID.pathgrob.548.1.1" d="M 424.66 358.71 L 413.68 355.14 L 431.79 336.76 Z" fill-rule="nonzero" stroke="rgb(255,255,255)" stroke-opacity="0"/></g><g id="GRID.polyline.549.1"><polyline id="GRID.polyline.549.1.1" points="424.66,358.71 413.68,355.14 431.79,336.76 424.66,358.71" fill="none" fill-opacity="0"/></g></g><g id="GRID.picComplexPath.163.1" stroke="rgb(255,255,255)" fill="rgb(255,255,255)" stroke-opacity="0" fill-opacity="1"><g id="GRID.pathgrob.550.1"><path id="GRID.pathgrob.550.1.1" d="M 413.12 350.32 L 419.9 359.66 L 431.79 336.76 Z" fill-rule="nonzero" stroke="rgb(255,255,255)" stroke-opacity="0"/></g><g id="GRID.polyline.551.1"><polyline id="GRID.polyline.551.1.1" points="413.12,350.32 419.9,359.66 431.79,336.76 413.12,350.32" fill="none" fill-opacity="0"/></g></g><g id="GRID.picComplexPath.166.1" stroke="rgb(255,255,255)" fill="rgb(255,255,255)" stroke-opacity="0" fill-opacity="1"><g id="GRID.pathgrob.552.1"><path id="GRID.pathgrob.552.1.1" d="M 410.39 358.71 L 421.37 355.14 L 417.53 380.66 Z" fill-rule="nonzero" stroke="rgb(255,255,255)" stroke-opacity="0"/></g><g id="GRID.polyline.553.1"><polyline id="GRID.polyline.553.1.1" points="410.39,358.71 421.37,355.14 417.53,380.66 410.39,358.71" fill="none" fill-opacity="0"/></g></g><g id="GRID.picComplexPath.169.1" stroke="rgb(255,255,255)" fill="rgb(255,255,255)" stroke-opacity="0" fill-opacity="1"><g id="GRID.pathgrob.554.1"><path id="GRID.pathgrob.554.1.1" d="M 424.66 358.71 L 413.68 355.14 L 417.53 380.66 Z" fill-rule="nonzero" stroke="rgb(255,255,255)" stroke-opacity="0"/></g><g id="GRID.polyline.555.1"><polyline id="GRID.polyline.555.1.1" points="424.66,358.71 413.68,355.14 417.53,380.66 424.66,358.71" fill="none" fill-opacity="0"/></g></g><g id="GRID.picComplexPath.172.1" stroke="rgb(255,255,255)" fill="rgb(255,255,255)" stroke-opacity="0" fill-opacity="1"><g id="GRID.pathgrob.556.1"><path id="GRID.pathgrob.556.1.1" d="M 410.39 358.71 L 421.37 355.14 L 403.26 336.76 Z" fill-rule="nonzero" stroke="rgb(255,255,255)" stroke-opacity="0"/></g><g id="GRID.polyline.557.1"><polyline id="GRID.polyline.557.1.1" points="410.39,358.71 421.37,355.14 403.26,336.76 410.39,358.71" fill="none" fill-opacity="0"/></g></g><g id="GRID.picComplexPath.175.1" stroke="rgb(255,255,255)" fill="rgb(255,255,255)" stroke-opacity="0" fill-opacity="1"><g id="GRID.pathgrob.558.1"><path id="GRID.pathgrob.558.1.1" d="M 421.93 350.32 L 415.15 359.66 L 403.26 336.76 Z" fill-rule="nonzero" stroke="rgb(255,255,255)" stroke-opacity="0"/></g><g id="GRID.polyline.559.1"><polyline id="GRID.polyline.559.1.1" points="421.93,350.32 415.15,359.66 403.26,336.76 421.93,350.32" fill="none" fill-opacity="0"/></g></g><g id="GRID.picComplexPath.178.1" stroke="rgb(255,255,255)" fill="rgb(204,20,43)" stroke-opacity="0" fill-opacity="1"><g id="GRID.pathgrob.560.1"><path id="GRID.pathgrob.560.1.1" d="M 417.53 361.34 L 417.53 353.72 L 432.78 361.34 Z" fill-rule="nonzero" stroke="rgb(255,255,255)" stroke-opacity="0"/></g><g id="GRID.polyline.561.1"><polyline id="GRID.polyline.561.1.1" points="417.53,361.34 417.53,353.72 432.78,361.34 417.53,361.34" fill="none" fill-opacity="0"/></g></g><g id="GRID.picComplexPath.181.1" stroke="rgb(255,255,255)" fill="rgb(204,20,43)" stroke-opacity="0" fill-opacity="1"><g id="GRID.pathgrob.562.1"><path id="GRID.pathgrob.562.1.1" d="M 420.44 352.38 L 415.96 358.55 L 432.78 361.34 Z" fill-rule="nonzero" stroke="rgb(255,255,255)" stroke-opacity="0"/></g><g id="GRID.polyline.563.1"><polyline id="GRID.polyline.563.1.1" points="420.44,352.38 415.96,358.55 432.78,361.34 420.44,352.38" fill="none" fill-opacity="0"/></g></g><g id="GRID.picComplexPath.184.1" stroke="rgb(255,255,255)" fill="rgb(204,20,43)" stroke-opacity="0" fill-opacity="1"><g id="GRID.pathgrob.564.1"><path id="GRID.pathgrob.564.1.1" d="M 417.53 361.34 L 417.53 353.72 L 402.28 361.34 Z" fill-rule="nonzero" stroke="rgb(255,255,255)" stroke-opacity="0"/></g><g id="GRID.polyline.565.1"><polyline id="GRID.polyline.565.1.1" points="417.53,361.34 417.53,353.72 402.28,361.34 417.53,361.34" fill="none" fill-opacity="0"/></g></g><g id="GRID.picComplexPath.187.1" stroke="rgb(255,255,255)" fill="rgb(204,20,43)" stroke-opacity="0" fill-opacity="1"><g id="GRID.pathgrob.566.1"><path id="GRID.pathgrob.566.1.1" d="M 414.61 352.38 L 419.1 358.55 L 402.28 361.34 Z" fill-rule="nonzero" stroke="rgb(255,255,255)" stroke-opacity="0"/></g><g id="GRID.polyline.567.1"><polyline id="GRID.polyline.567.1.1" points="414.61,352.38 419.1,358.55 402.28,361.34 414.61,352.38" fill="none" fill-opacity="0"/></g></g><g id="GRID.picComplexPath.190.1" stroke="rgb(255,255,255)" fill="rgb(204,20,43)" stroke-opacity="0" fill-opacity="1"><g id="GRID.pathgrob.568.1"><path id="GRID.pathgrob.568.1.1" d="M 422.24 357.92 L 414.99 355.56 L 426.95 343.42 Z" fill-rule="nonzero" stroke="rgb(255,255,255)" stroke-opacity="0"/></g><g id="GRID.polyline.569.1"><polyline id="GRID.polyline.569.1.1" points="422.24,357.92 414.99,355.56 426.95,343.42 422.24,357.92" fill="none" fill-opacity="0"/></g></g><g id="GRID.picComplexPath.193.1" stroke="rgb(255,255,255)" fill="rgb(204,20,43)" stroke-opacity="0" fill-opacity="1"><g id="GRID.pathgrob.570.1"><path id="GRID.pathgrob.570.1.1" d="M 414.61 352.38 L 419.1 358.55 L 426.95 343.42 Z" fill-rule="nonzero" stroke="rgb(255,255,255)" stroke-opacity="0"/></g><g id="GRID.polyline.571.1"><polyline id="GRID.polyline.571.1.1" points="414.61,352.38 419.1,358.55 426.95,343.42 414.61,352.38" fill="none" fill-opacity="0"/></g></g><g id="GRID.picComplexPath.196.1" stroke="rgb(255,255,255)" fill="rgb(204,20,43)" stroke-opacity="0" fill-opacity="1"><g id="GRID.pathgrob.572.1"><path id="GRID.pathgrob.572.1.1" d="M 412.81 357.92 L 420.07 355.56 L 417.53 372.42 Z" fill-rule="nonzero" stroke="rgb(255,255,255)" stroke-opacity="0"/></g><g id="GRID.polyline.573.1"><polyline id="GRID.polyline.573.1.1" points="412.81,357.92 420.07,355.56 417.53,372.42 412.81,357.92" fill="none" fill-opacity="0"/></g></g><g id="GRID.picComplexPath.199.1" stroke="rgb(255,255,255)" fill="rgb(204,20,43)" stroke-opacity="0" fill-opacity="1"><g id="GRID.pathgrob.574.1"><path id="GRID.pathgrob.574.1.1" d="M 422.24 357.92 L 414.99 355.56 L 417.53 372.42 Z" fill-rule="nonzero" stroke="rgb(255,255,255)" stroke-opacity="0"/></g><g id="GRID.polyline.575.1"><polyline id="GRID.polyline.575.1.1" points="422.24,357.92 414.99,355.56 417.53,372.42 422.24,357.92" fill="none" fill-opacity="0"/></g></g><g id="GRID.picComplexPath.202.1" stroke="rgb(255,255,255)" fill="rgb(204,20,43)" stroke-opacity="0" fill-opacity="1"><g id="GRID.pathgrob.576.1"><path id="GRID.pathgrob.576.1.1" d="M 412.81 357.92 L 420.07 355.56 L 408.1 343.42 Z" fill-rule="nonzero" stroke="rgb(255,255,255)" stroke-opacity="0"/></g><g id="GRID.polyline.577.1"><polyline id="GRID.polyline.577.1.1" points="412.81,357.92 420.07,355.56 408.1,343.42 412.81,357.92" fill="none" fill-opacity="0"/></g></g><g id="GRID.picComplexPath.205.1" stroke="rgb(255,255,255)" fill="rgb(204,20,43)" stroke-opacity="0" fill-opacity="1"><g id="GRID.pathgrob.578.1"><path id="GRID.pathgrob.578.1.1" d="M 420.44 352.38 L 415.96 358.55 L 408.1 343.42 Z" fill-rule="nonzero" stroke="rgb(255,255,255)" stroke-opacity="0"/></g><g id="GRID.polyline.579.1"><polyline id="GRID.polyline.579.1.1" points="420.44,352.38 415.96,358.55 408.1,343.42 420.44,352.38" fill="none" fill-opacity="0"/></g></g><g id="GRID.picComplexPath.208.1" stroke="rgb(255,255,255)" fill="rgb(255,255,255)" stroke-opacity="0" fill-opacity="1"><g id="GRID.pathgrob.580.1"><path id="GRID.pathgrob.580.1.1" d="M 488 252.62 L 488 239.81 L 513.62 252.62 Z" fill-rule="nonzero" stroke="rgb(255,255,255)" stroke-opacity="0"/></g><g id="GRID.polyline.581.1"><polyline id="GRID.polyline.581.1.1" points="488,252.62 488,239.81 513.62,252.62 488,252.62" fill="none" fill-opacity="0"/></g></g><g id="GRID.picComplexPath.211.1" stroke="rgb(255,255,255)" fill="rgb(255,255,255)" stroke-opacity="0" fill-opacity="1"><g id="GRID.pathgrob.582.1"><path id="GRID.pathgrob.582.1.1" d="M 492.89 237.56 L 485.36 247.92 L 513.62 252.62 Z" fill-rule="nonzero" stroke="rgb(255,255,255)" stroke-opacity="0"/></g><g id="GRID.polyline.583.1"><polyline id="GRID.polyline.583.1.1" points="492.89,237.56 485.36,247.92 513.62,252.62 492.89,237.56" fill="none" fill-opacity="0"/></g></g><g id="GRID.picComplexPath.214.1" stroke="rgb(255,255,255)" fill="rgb(255,255,255)" stroke-opacity="0" fill-opacity="1"><g id="GRID.pathgrob.584.1"><path id="GRID.pathgrob.584.1.1" d="M 488 252.62 L 488 239.81 L 462.38 252.62 Z" fill-rule="nonzero" stroke="rgb(255,255,255)" stroke-opacity="0"/></g><g id="GRID.polyline.585.1"><polyline id="GRID.polyline.585.1.1" points="488,252.62 488,239.81 462.38,252.62 488,252.62" fill="none" fill-opacity="0"/></g></g><g id="GRID.picComplexPath.217.1" stroke="rgb(255,255,255)" fill="rgb(255,255,255)" stroke-opacity="0" fill-opacity="1"><g id="GRID.pathgrob.586.1"><path id="GRID.pathgrob.586.1.1" d="M 483.11 237.56 L 490.64 247.92 L 462.38 252.62 Z" fill-rule="nonzero" stroke="rgb(255,255,255)" stroke-opacity="0"/></g><g id="GRID.polyline.587.1"><polyline id="GRID.polyline.587.1.1" points="483.11,237.56 490.64,247.92 462.38,252.62 483.11,237.56" fill="none" fill-opacity="0"/></g></g><g id="GRID.picComplexPath.220.1" stroke="rgb(255,255,255)" fill="rgb(255,255,255)" stroke-opacity="0" fill-opacity="1"><g id="GRID.pathgrob.588.1"><path id="GRID.pathgrob.588.1.1" d="M 495.92 246.86 L 483.73 242.91 L 503.83 222.5 Z" fill-rule="nonzero" stroke="rgb(255,255,255)" stroke-opacity="0"/></g><g id="GRID.polyline.589.1"><polyline id="GRID.polyline.589.1.1" points="495.92,246.86 483.73,242.91 503.83,222.5 495.92,246.86" fill="none" fill-opacity="0"/></g></g><g id="GRID.picComplexPath.223.1" stroke="rgb(255,255,255)" fill="rgb(255,255,255)" stroke-opacity="0" fill-opacity="1"><g id="GRID.pathgrob.590.1"><path id="GRID.pathgrob.590.1.1" d="M 483.11 237.56 L 490.64 247.92 L 503.83 222.5 Z" fill-rule="nonzero" stroke="rgb(255,255,255)" stroke-opacity="0"/></g><g id="GRID.polyline.591.1"><polyline id="GRID.polyline.591.1.1" points="483.11,237.56 490.64,247.92 503.83,222.5 483.11,237.56" fill="none" fill-opacity="0"/></g></g><g id="GRID.picComplexPath.226.1" stroke="rgb(255,255,255)" fill="rgb(255,255,255)" stroke-opacity="0" fill-opacity="1"><g id="GRID.pathgrob.592.1"><path id="GRID.pathgrob.592.1.1" d="M 480.08 246.86 L 492.27 242.91 L 488 271.23 Z" fill-rule="nonzero" stroke="rgb(255,255,255)" stroke-opacity="0"/></g><g id="GRID.polyline.593.1"><polyline id="GRID.polyline.593.1.1" points="480.08,246.86 492.27,242.91 488,271.23 480.08,246.86" fill="none" fill-opacity="0"/></g></g><g id="GRID.picComplexPath.229.1" stroke="rgb(255,255,255)" fill="rgb(255,255,255)" stroke-opacity="0" fill-opacity="1"><g id="GRID.pathgrob.594.1"><path id="GRID.pathgrob.594.1.1" d="M 495.92 246.86 L 483.73 242.91 L 488 271.23 Z" fill-rule="nonzero" stroke="rgb(255,255,255)" stroke-opacity="0"/></g><g id="GRID.polyline.595.1"><polyline id="GRID.polyline.595.1.1" points="495.92,246.86 483.73,242.91 488,271.23 495.92,246.86" fill="none" fill-opacity="0"/></g></g><g id="GRID.picComplexPath.232.1" stroke="rgb(255,255,255)" fill="rgb(255,255,255)" stroke-opacity="0" fill-opacity="1"><g id="GRID.pathgrob.596.1"><path id="GRID.pathgrob.596.1.1" d="M 480.08 246.86 L 492.27 242.91 L 472.17 222.5 Z" fill-rule="nonzero" stroke="rgb(255,255,255)" stroke-opacity="0"/></g><g id="GRID.polyline.597.1"><polyline id="GRID.polyline.597.1.1" points="480.08,246.86 492.27,242.91 472.17,222.5 480.08,246.86" fill="none" fill-opacity="0"/></g></g><g id="GRID.picComplexPath.235.1" stroke="rgb(255,255,255)" fill="rgb(255,255,255)" stroke-opacity="0" fill-opacity="1"><g id="GRID.pathgrob.598.1"><path id="GRID.pathgrob.598.1.1" d="M 492.89 237.56 L 485.36 247.92 L 472.17 222.5 Z" fill-rule="nonzero" stroke="rgb(255,255,255)" stroke-opacity="0"/></g><g id="GRID.polyline.599.1"><polyline id="GRID.polyline.599.1.1" points="492.89,237.56 485.36,247.92 472.17,222.5 492.89,237.56" fill="none" fill-opacity="0"/></g></g><g id="GRID.picComplexPath.238.1" stroke="rgb(255,255,255)" fill="rgb(204,20,43)" stroke-opacity="0" fill-opacity="1"><g id="GRID.pathgrob.600.1"><path id="GRID.pathgrob.600.1.1" d="M 488 250.07 L 488 241.18 L 505.79 250.07 Z" fill-rule="nonzero" stroke="rgb(255,255,255)" stroke-opacity="0"/></g><g id="GRID.polyline.601.1"><polyline id="GRID.polyline.601.1.1" points="488,250.07 488,241.18 505.79,250.07 488,250.07" fill="none" fill-opacity="0"/></g></g><g id="GRID.picComplexPath.241.1" stroke="rgb(255,255,255)" fill="rgb(204,20,43)" stroke-opacity="0" fill-opacity="1"><g id="GRID.pathgrob.602.1"><path id="GRID.pathgrob.602.1.1" d="M 491.4 239.62 L 486.17 246.81 L 505.79 250.07 Z" fill-rule="nonzero" stroke="rgb(255,255,255)" stroke-opacity="0"/></g><g id="GRID.polyline.603.1"><polyline id="GRID.polyline.603.1.1" points="491.4,239.62 486.17,246.81 505.79,250.07 491.4,239.62" fill="none" fill-opacity="0"/></g></g><g id="GRID.picComplexPath.244.1" stroke="rgb(255,255,255)" fill="rgb(204,20,43)" stroke-opacity="0" fill-opacity="1"><g id="GRID.pathgrob.604.1"><path id="GRID.pathgrob.604.1.1" d="M 488 250.07 L 488 241.18 L 470.21 250.07 Z" fill-rule="nonzero" stroke="rgb(255,255,255)" stroke-opacity="0"/></g><g id="GRID.polyline.605.1"><polyline id="GRID.polyline.605.1.1" points="488,250.07 488,241.18 470.21,250.07 488,250.07" fill="none" fill-opacity="0"/></g></g><g id="GRID.picComplexPath.247.1" stroke="rgb(255,255,255)" fill="rgb(204,20,43)" stroke-opacity="0" fill-opacity="1"><g id="GRID.pathgrob.606.1"><path id="GRID.pathgrob.606.1.1" d="M 484.6 239.62 L 489.83 246.81 L 470.21 250.07 Z" fill-rule="nonzero" stroke="rgb(255,255,255)" stroke-opacity="0"/></g><g id="GRID.polyline.607.1"><polyline id="GRID.polyline.607.1.1" points="484.6,239.62 489.83,246.81 470.21,250.07 484.6,239.62" fill="none" fill-opacity="0"/></g></g><g id="GRID.picComplexPath.250.1" stroke="rgb(255,255,255)" fill="rgb(204,20,43)" stroke-opacity="0" fill-opacity="1"><g id="GRID.pathgrob.608.1"><path id="GRID.pathgrob.608.1.1" d="M 493.5 246.08 L 485.04 243.33 L 499 229.16 Z" fill-rule="nonzero" stroke="rgb(255,255,255)" stroke-opacity="0"/></g><g id="GRID.polyline.609.1"><polyline id="GRID.polyline.609.1.1" points="493.5,246.08 485.04,243.33 499,229.16 493.5,246.08" fill="none" fill-opacity="0"/></g></g><g id="GRID.picComplexPath.253.1" stroke="rgb(255,255,255)" fill="rgb(204,20,43)" stroke-opacity="0" fill-opacity="1"><g id="GRID.pathgrob.610.1"><path id="GRID.pathgrob.610.1.1" d="M 484.6 239.62 L 489.83 246.81 L 499 229.16 Z" fill-rule="nonzero" stroke="rgb(255,255,255)" stroke-opacity="0"/></g><g id="GRID.polyline.611.1"><polyline id="GRID.polyline.611.1.1" points="484.6,239.62 489.83,246.81 499,229.16 484.6,239.62" fill="none" fill-opacity="0"/></g></g><g id="GRID.picComplexPath.256.1" stroke="rgb(255,255,255)" fill="rgb(204,20,43)" stroke-opacity="0" fill-opacity="1"><g id="GRID.pathgrob.612.1"><path id="GRID.pathgrob.612.1.1" d="M 482.5 246.08 L 490.96 243.33 L 488 263 Z" fill-rule="nonzero" stroke="rgb(255,255,255)" stroke-opacity="0"/></g><g id="GRID.polyline.613.1"><polyline id="GRID.polyline.613.1.1" points="482.5,246.08 490.96,243.33 488,263 482.5,246.08" fill="none" fill-opacity="0"/></g></g><g id="GRID.picComplexPath.259.1" stroke="rgb(255,255,255)" fill="rgb(204,20,43)" stroke-opacity="0" fill-opacity="1"><g id="GRID.pathgrob.614.1"><path id="GRID.pathgrob.614.1.1" d="M 493.5 246.08 L 485.04 243.33 L 488 263 Z" fill-rule="nonzero" stroke="rgb(255,255,255)" stroke-opacity="0"/></g><g id="GRID.polyline.615.1"><polyline id="GRID.polyline.615.1.1" points="493.5,246.08 485.04,243.33 488,263 493.5,246.08" fill="none" fill-opacity="0"/></g></g><g id="GRID.picComplexPath.262.1" stroke="rgb(255,255,255)" fill="rgb(204,20,43)" stroke-opacity="0" fill-opacity="1"><g id="GRID.pathgrob.616.1"><path id="GRID.pathgrob.616.1.1" d="M 482.5 246.08 L 490.96 243.33 L 477 229.16 Z" fill-rule="nonzero" stroke="rgb(255,255,255)" stroke-opacity="0"/></g><g id="GRID.polyline.617.1"><polyline id="GRID.polyline.617.1.1" points="482.5,246.08 490.96,243.33 477,229.16 482.5,246.08" fill="none" fill-opacity="0"/></g></g><g id="GRID.picComplexPath.265.1" stroke="rgb(255,255,255)" fill="rgb(204,20,43)" stroke-opacity="0" fill-opacity="1"><g id="GRID.pathgrob.618.1"><path id="GRID.pathgrob.618.1.1" d="M 491.4 239.62 L 486.17 246.81 L 477 229.16 Z" fill-rule="nonzero" stroke="rgb(255,255,255)" stroke-opacity="0"/></g><g id="GRID.polyline.619.1"><polyline id="GRID.polyline.619.1.1" points="491.4,239.62 486.17,246.81 477,229.16 491.4,239.62" fill="none" fill-opacity="0"/></g></g></g></g></g></g></g></g></svg>
