<svg xmlns="http://www.w3.org/2000/svg" width="1200px" height="800px">
<rect fill="#ffd700" width="1200" height="800"/>
<path d="M 612.84375,199.78125 A 8.5063338,8.5060702 0 0 0 604.25,208.625 L 604.25,330.5 C 602.8465,330.4156 601.4247,330.375 600,330.375 C 598.5753,330.375 597.1535,330.4156 595.75,330.5 L 595.75,208.625 A 8.5063338,8.5060702 0 0 0 587.09375,200 A 8.5063338,8.5060702 0 0 0 578.75,208.625 L 578.75,333.6875 C 575.81404,334.62719 572.97077,335.75814 570.21875,337.0625 L 570.21875,242.65625 A 8.5063338,8.5060702 0 1 0 553.21875,242.65625 L 553.21875,348.4375 C 551.54735,349.9547 549.9547,351.54735 548.4375,353.21875 L 442.65625,353.21875 A 8.5158889,8.515625 0 1 0 442.65625,370.25 L 537.0625,370.25 C 535.76327,372.99411 534.62428,375.82313 533.6875,378.75 L 408.625,378.75 A 8.5063338,8.5060702 0 1 0 408.625,395.75 L 530.5,395.75 C 530.4156,397.1535 530.375,398.5753 530.375,400 C 530.375,401.4247 530.4156,402.8465 530.5,404.25 L 408.625,404.25 A 8.5158889,8.515625 0 1 0 408.625,421.28125 L 533.6875,421.28125 C 534.62538,424.20721 535.76234,427.0381 537.0625,429.78125 L 442.65625,429.78125 A 8.5063338,8.5060702 0 1 0 442.65625,446.78125 L 548.4375,446.78125 C 549.9547,448.45265 551.54735,450.0453 553.21875,451.5625 L 553.21875,557.34375 A 8.5063338,8.5060702 0 1 0 570.21875,557.34375 L 570.21875,462.9375 C 572.97077,464.24186 575.81404,465.37281 578.75,466.3125 L 578.75,591.375 A 8.5063338,8.5060702 0 1 0 595.75,591.375 L 595.75,469.5 C 597.1535,469.5844 598.5753,469.625 600,469.625 C 601.4247,469.625 602.8465,469.5844 604.25,469.5 L 604.25,591.375 A 8.5063338,8.5060702 0 1 0 621.25,591.375 L 621.25,466.3125 C 624.18596,465.37281 627.02923,464.24186 629.78125,462.9375 L 629.78125,557.34375 A 8.5063338,8.5060702 0 1 0 646.78125,557.34375 L 646.78125,451.5625 C 648.45265,450.0453 650.0453,448.45265 651.5625,446.78125 L 757.34375,446.78125 A 8.5063338,8.5060702 0 1 0 757.34375,429.78125 L 662.9375,429.78125 C 664.23766,427.0381 665.37462,424.20721 666.3125,421.28125 L 791.375,421.28125 A 8.5158889,8.515625 0 0 0 791.375,404.25 L 669.5,404.25 C 669.5844,402.8465 669.625,401.4247 669.625,400 C 669.625,398.5753 669.5844,397.1535 669.5,395.75 L 791.375,395.75 A 8.5063338,8.5060702 0 1 0 791.375,378.75 L 666.3125,378.75 C 665.37572,375.82313 664.23673,372.99411 662.9375,370.25 L 757.34375,370.25 A 8.5158889,8.515625 0 0 0 757.34375,353.21875 L 651.5625,353.21875 C 650.0453,351.54735 648.45265,349.9547 646.78125,348.4375 L 646.78125,242.65625 A 8.5063338,8.5060702 0 1 0 629.78125,242.65625 L 629.78125,337.0625 C 627.02923,335.75814 624.18596,334.62719 621.25,333.6875 L 621.25,208.625 A 8.5063338,8.5060702 0 0 0 612.84375,199.78125 z M 600,341 C 632.5848,341 659,367.4152 659,400 C 659,432.5848 632.5848,459 600,459 C 567.4152,459 541,432.5848 541,400 C 541,367.4152 567.4152,341 600,341 z" style="fill:#bf0a30"/>
</svg>
