<?xml version="1.0" encoding="utf-8"?>
<svg version="1.1" xmlns="http://www.w3.org/2000/svg" x="0px" y="0px" width="512px" height="512px" viewBox="0 0 512 512">
  <path fill="#334D5C" d="M504.079,256.007c0-137.022-111.07-248.082-248.076-248.082c-137.012,0-248.082,111.06-248.082,248.082c0,137.001,111.07,248.07,248.082,248.07C393.009,504.077,504.079,393.008,504.079,256.007z"/>
  <path fill="#E0AF4C" d="M234.596,171.384v331.764c7.058,0.604,14.194,0.93,21.407,0.93c7.201,0,14.324-0.324,21.369-0.926V171.384H234.596z"/>
  <path fill="#EDC988" d="M234.596,171.384v331.764c6.612,0.565,13.296,0.876,20.046,0.912V171.384H234.596z"/>
  <path fill="#E17A2D" d="M219.452,123.39c12.435-32.334,10.039-81.205,10.039-81.205s33.068,13.854,55.895,51.902c21.458,35.762,1.187,89.037,1.187,89.037c15.808-15.814,21.667-31.625,22.202-50.609c17.761,28.348,31.482,60.836,31.482,93.71c0,40.674-36.984,73.608-82.654,73.634c-45.651-0.025-82.655-32.96-82.655-73.634C174.947,186.633,204.788,161.522,219.452,123.39z"/>
  <g opacity="0.8">
    <path fill="#F4E028" d="M235.681,192.659c6.825-19.609,5.512-49.25,5.512-49.25s65.49,49.842,60.827,111.617c-1.862,24.598-20.306,44.645-45.394,44.656c-25.067-0.012-45.389-19.988-45.389-44.656C211.237,231.017,227.628,215.786,235.681,192.659z"/>
    <path fill="#FFFFFF" d="M243.398,231.031c4.325-12.426,3.492-31.206,3.492-31.206s41.496,31.584,38.539,70.727c-1.181,15.584-12.868,28.281-28.76,28.293c-15.882-0.012-28.76-12.668-28.76-28.293C227.91,255.333,238.302,245.686,243.398,231.031z"/>
  </g>
</svg>
