<?xml version="1.0" encoding="UTF-8"?>
<svg xmlns="http://www.w3.org/2000/svg" xmlns:xlink="http://www.w3.org/1999/xlink" width="504px" height="504px" viewBox="0 0 504 504" version="1.1">
  <metadata xmlns:gridsvg="http://www.stat.auckland.ac.nz/~paul/R/gridSVG/">
    <gridsvg:generator name="gridSVG" version="1.3-0" time="2013-09-05 23:48:32"/>
    <gridsvg:argument name="name" value="grImport2-gridSVG/Arizona.svg"/>
    <gridsvg:argument name="exportCoords" value="none"/>
    <gridsvg:argument name="exportMappings" value="none"/>
    <gridsvg:argument name="exportJS" value="none"/>
    <gridsvg:argument name="res" value="72"/>
    <gridsvg:argument name="prefix" value=""/>
    <gridsvg:argument name="addClasses" value="FALSE"/>
    <gridsvg:argument name="indent" value="TRUE"/>
    <gridsvg:argument name="htmlWrapper" value="FALSE"/>
    <gridsvg:argument name="usePaths" value="vpPaths"/>
    <gridsvg:argument name="uniqueNames" value="TRUE"/>
    <gridsvg:separator name="id.sep" value="."/>
    <gridsvg:separator name="gPath.sep" value="::"/>
    <gridsvg:separator name="vpPath.sep" value="::"/>
  </metadata>
  <g transform="translate(0, 504) scale(1, -1)">
    <g id="gridSVG" fill="none" stroke="rgb(0,0,0)" stroke-dasharray="none" stroke-width="0.75" font-size="12" font-family="Helvetica, Arial, FreeSans, Liberation Sans, Nimbus Sans L, sans-serif" opacity="1" stroke-linecap="round" stroke-linejoin="round" stroke-miterlimit="10" stroke-opacity="1" fill-opacity="0" font-weight="normal" font-style="normal">
      <g id="picture.shape::picture.scale.1">
        <defs>
          <clipPath id="picture.shape::picture.scale.2.clipPath">
            <rect x="0" y="84" width="504" height="336" fill="none" stroke="none"/>
          </clipPath>
        </defs>
        <g id="picture.shape::picture.scale.2" clip-path="url(#picture.shape::picture.scale.2.clipPath)">
          <g id="import.1.GRID.gTree.16.1">
            <g id="GRID.gTree.15.1">
              <g id="GRID.rect.24.1">
                <rect id="GRID.rect.24.1.1" x="0" y="84" width="504" height="336" fill="rgb(191,10,48)" stroke="none" stroke-opacity="0" fill-opacity="1"/>
              </g>
              <g id="GRID.picComplexPath.6.1" fill="none" stroke-width="302.4" stroke-linecap="butt" stroke-linejoin="miter" stroke="rgb(254,215,0)" stroke-dasharray="302.4,302.4" stroke-miterlimit="4" stroke-opacity="1" fill-opacity="0">
                <g id="GRID.pathgrob.25.1">
                  <path id="GRID.pathgrob.25.1.1" d="M 403.2 250.32 L 403.2 250.32 L 403.1 244.86 L 402.79 239.44 L 402.27 234.05 L 401.55 228.69 L 400.62 223.34 L 399.48 218.03 L 398.13 212.73 L 396.56 207.46 L 394.79 202.22 L 392.8 197.01 L 390.59 191.84 L 388.18 186.71 L 385.55 181.64 L 382.72 176.64 L 379.68 171.71 L 376.45 166.86 L 373.02 162.11 L 369.41 157.47 L 365.62 152.95 L 361.66 148.56 L 357.54 144.3 L 353.27 140.2 L 348.87 136.26 L 344.33 132.49 L 339.68 128.9 L 334.91 125.5 L 330.06 122.28 L 325.12 119.27 L 320.11 116.46 L 315.03 113.86 L 309.9 111.47 L 304.73 109.29 L 299.51 107.32 L 294.27 105.57 L 288.99 104.03 L 283.69 102.7 L 278.37 101.58 L 273.03 100.68 L 267.66 99.98 L 262.27 99.49 L 256.85 99.2 L 252 99.12 L 252 99.12 L 246.54 99.22 L 241.12 99.53 L 235.73 100.05 L 230.37 100.77 L 225.02 101.7 L 219.71 102.84 L 214.41 104.19 L 209.14 105.76 L 203.9 107.53 L 198.69 109.52 L 193.52 111.73 L 188.39 114.14 L 183.32 116.77 L 178.32 119.6 L 173.39 122.64 L 168.54 125.87 L 163.79 129.3 L 159.15 132.91 L 154.63 136.7 L 150.24 140.66 L 145.98 144.78 L 141.88 149.05 L 137.94 153.45 L 134.17 157.99 L 130.58 162.64 L 127.18 167.41 L 123.96 172.26 L 120.95 177.2 L 118.14 182.21 L 115.54 187.29 L 113.15 192.42 L 110.97 197.59 L 109 202.81 L 107.25 208.05 L 105.71 213.33 L 104.38 218.63 L 103.26 223.95 L 102.36 229.29 L 101.66 234.66 L 101.17 240.05 L 100.88 245.47 L 100.8 250.32 L 100.8 250.32 L 100.9 255.78 L 101.21 261.2 L 101.73 266.59 L 102.45 271.95 L 103.38 277.3 L 104.52 282.61 L 105.87 287.91 L 107.44 293.18 L 109.21 298.42 L 111.2 303.63 L 113.41 308.8 L 115.82 313.93 L 118.45 319 L 121.28 324 L 124.32 328.93 L 127.55 333.78 L 130.98 338.53 L 134.59 343.17 L 138.38 347.69 L 142.34 352.08 L 146.46 356.34 L 150.73 360.44 L 155.13 364.38 L 159.67 368.15 L 164.32 371.74 L 169.09 375.14 L 173.94 378.36 L 178.88 381.37 L 183.89 384.18 L 188.97 386.78 L 194.1 389.17 L 199.27 391.35 L 204.49 393.32 L 209.73 395.07 L 215.01 396.61 L 220.31 397.94 L 225.63 399.06 L 230.97 399.96 L 236.34 400.66 L 241.73 401.15 L 247.15 401.44 L 252 401.52 L 252 401.52 L 257.46 401.42 L 262.88 401.11 L 268.27 400.59 L 273.63 399.87 L 278.98 398.94 L 284.29 397.8 L 289.59 396.45 L 294.86 394.88 L 300.1 393.11 L 305.31 391.12 L 310.48 388.91 L 315.61 386.5 L 320.68 383.87 L 325.68 381.04 L 330.61 378 L 335.46 374.77 L 340.21 371.34 L 344.85 367.73 L 349.37 363.94 L 353.76 359.98 L 358.02 355.86 L 362.12 351.59 L 366.06 347.19 L 369.83 342.65 L 373.42 338 L 376.82 333.23 L 380.04 328.38 L 383.05 323.44 L 385.86 318.43 L 388.46 313.35 L 390.85 308.22 L 393.03 303.05 L 395 297.83 L 396.75 292.59 L 398.29 287.31 L 399.62 282.01 L 400.74 276.69 L 401.64 271.35 L 402.34 265.98 L 402.83 260.59 L 403.12 255.17 L 403.2 250.32 Z" fill-rule="nonzero" stroke="none" stroke-opacity="0"/>
                </g>
                <g id="GRID.polyline.26.1">
                  <polyline id="GRID.polyline.26.1.1" points="403.2,250.32 403.2,250.32 403.1,244.86 402.79,239.44 402.27,234.05 401.55,228.69 400.62,223.34 399.48,218.03 398.13,212.73 396.56,207.46 394.79,202.22 392.8,197.01 390.59,191.84 388.18,186.71 385.55,181.64 382.72,176.64 379.68,171.71 376.45,166.86 373.02,162.11 369.41,157.47 365.62,152.95 361.66,148.56 357.54,144.3 353.27,140.2 348.87,136.26 344.33,132.49 339.68,128.9 334.91,125.5 330.06,122.28 325.12,119.27 320.11,116.46 315.03,113.86 309.9,111.47 304.73,109.29 299.51,107.32 294.27,105.57 288.99,104.03 283.69,102.7 278.37,101.58 273.03,100.68 267.66,99.98 262.27,99.49 256.85,99.2 252,99.12 252,99.12 246.54,99.22 241.12,99.53 235.73,100.05 230.37,100.77 225.02,101.7 219.71,102.84 214.41,104.19 209.14,105.76 203.9,107.53 198.69,109.52 193.52,111.73 188.39,114.14 183.32,116.77 178.32,119.6 173.39,122.64 168.54,125.87 163.79,129.3 159.15,132.91 154.63,136.7 150.24,140.66 145.98,144.78 141.88,149.05 137.94,153.45 134.17,157.99 130.58,162.64 127.18,167.41 123.96,172.26 120.95,177.2 118.14,182.21 115.54,187.29 113.15,192.42 110.97,197.59 109,202.81 107.25,208.05 105.71,213.33 104.38,218.63 103.26,223.95 102.36,229.29 101.66,234.66 101.17,240.05 100.88,245.47 100.8,250.32 100.8,250.32 100.9,255.78 101.21,261.2 101.73,266.59 102.45,271.95 103.38,277.3 104.52,282.61 105.87,287.91 107.44,293.18 109.21,298.42 111.2,303.63 113.41,308.8 115.82,313.93 118.45,319 121.28,324 124.32,328.93 127.55,333.78 130.98,338.53 134.59,343.17 138.38,347.69 142.34,352.08 146.46,356.34 150.73,360.44 155.13,364.38 159.67,368.15 164.32,371.74 169.09,375.14 173.94,378.36 178.88,381.37 183.89,384.18 188.97,386.78 194.1,389.17 199.27,391.35 204.49,393.32 209.73,395.07 215.01,396.61 220.31,397.94 225.63,399.06 230.97,399.96 236.34,400.66 241.73,401.15 247.15,401.44 252,401.52 252,401.52 257.46,401.42 262.88,401.11 268.27,400.59 273.63,399.87 278.98,398.94 284.29,397.8 289.59,396.45 294.86,394.88 300.1,393.11 305.31,391.12 310.48,388.91 315.61,386.5 320.68,383.87 325.68,381.04 330.61,378 335.46,374.77 340.21,371.34 344.85,367.73 349.37,363.94 353.76,359.98 358.02,355.86 362.12,351.59 366.06,347.19 369.83,342.65 373.42,338 376.82,333.23 380.04,328.38 383.05,323.44 385.86,318.43 388.46,313.35 390.85,308.22 393.03,303.05 395,297.83 396.75,292.59 398.29,287.31 399.62,282.01 400.74,276.69 401.64,271.35 402.34,265.98 402.83,260.59 403.12,255.17 403.2,250.32 403.2,250.32" fill="none" fill-opacity="0"/>
                </g>
              </g>
              <g id="GRID.picComplexPath.9.1" stroke="none" fill="rgb(0,40,104)" stroke-opacity="0" fill-opacity="1">
                <g id="GRID.pathgrob.27.1">
                  <path id="GRID.pathgrob.27.1.1" d="M 0 252 L 504 252 L 504 84 L 0 84 Z" fill-rule="nonzero" stroke="none" stroke-opacity="0"/>
                </g>
                <g id="GRID.polyline.28.1">
                  <polyline id="GRID.polyline.28.1.1" points="0,252 504,252 504,84 0,84" fill="none" fill-opacity="0"/>
                </g>
              </g>
              <g id="GRID.picComplexPath.12.1" stroke="none" fill="rgb(206,92,23)" stroke-opacity="0" fill-opacity="1">
                <g id="GRID.pathgrob.29.1">
                  <path id="GRID.pathgrob.29.1.1" d="M 197.68 171.36 L 252 339.36 L 306.32 171.36 L 163.52 274.96 L 340.48 274.96 Z" fill-rule="nonzero" stroke="none" stroke-opacity="0"/>
                </g>
                <g id="GRID.polyline.30.1">
                  <polyline id="GRID.polyline.30.1.1" points="197.68,171.36 252,339.36 306.32,171.36 163.52,274.96 340.48,274.96" fill="none" fill-opacity="0"/>
                </g>
              </g>
            </g>
          </g>
        </g>
      </g>
    </g>
  </g>
</svg>