<?xml version="1.0" encoding="UTF-8"?>
<svg xmlns="http://www.w3.org/2000/svg" xmlns:xlink="http://www.w3.org/1999/xlink" width="504px" height="504px" viewBox="0 0 504 504" version="1.1">
  <metadata xmlns:gridsvg="http://www.stat.auckland.ac.nz/~paul/R/gridSVG/">
    <gridsvg:generator name="gridSVG" version="1.3-0" time="2013-09-05 23:48:36"/>
    <gridsvg:argument name="name" value="grImport2-gridSVG/Arkansas.svg"/>
    <gridsvg:argument name="exportCoords" value="none"/>
    <gridsvg:argument name="exportMappings" value="none"/>
    <gridsvg:argument name="exportJS" value="none"/>
    <gridsvg:argument name="res" value="72"/>
    <gridsvg:argument name="prefix" value=""/>
    <gridsvg:argument name="addClasses" value="FALSE"/>
    <gridsvg:argument name="indent" value="TRUE"/>
    <gridsvg:argument name="htmlWrapper" value="FALSE"/>
    <gridsvg:argument name="usePaths" value="vpPaths"/>
    <gridsvg:argument name="uniqueNames" value="TRUE"/>
    <gridsvg:separator name="id.sep" value="."/>
    <gridsvg:separator name="gPath.sep" value="::"/>
    <gridsvg:separator name="vpPath.sep" value="::"/>
  </metadata>
  <g transform="translate(0, 504) scale(1, -1)">
    <g id="gridSVG" fill="none" stroke="rgb(0,0,0)" stroke-dasharray="none" stroke-width="0.75" font-size="12" font-family="Helvetica, Arial, FreeSans, Liberation Sans, Nimbus Sans L, sans-serif" opacity="1" stroke-linecap="round" stroke-linejoin="round" stroke-miterlimit="10" stroke-opacity="1" fill-opacity="0" font-weight="normal" font-style="normal">
      <g id="picture.shape::picture.scale.1">
        <defs>
          <clipPath id="picture.shape::picture.scale.2.clipPath">
            <rect x="0" y="84" width="504" height="336" fill="none" stroke="none"/>
          </clipPath>
        </defs>
        <g id="picture.shape::picture.scale.2" clip-path="url(#picture.shape::picture.scale.2.clipPath)">
          <g id="import.1.GRID.gTree.172.1">
            <g id="GRID.gTree.171.1">
              <g id="GRID.rect.238.1">
                <rect id="GRID.rect.238.1.1" x="0" y="84" width="504" height="336" fill="rgb(191,10,48)" stroke="none" stroke-opacity="0" fill-opacity="1"/>
              </g>
              <g id="GRID.picComplexPath.75.1" stroke="none" fill="rgb(0,40,104)" stroke-opacity="0" fill-opacity="1">
                <g id="GRID.pathgrob.239.1">
                  <path id="GRID.pathgrob.239.1.1" d="M 42 253.3 L 251.13 112 L 462 253.58 L 251.13 392 Z" fill-rule="nonzero" stroke="none" stroke-opacity="0"/>
                </g>
                <g id="GRID.polyline.240.1">
                  <polyline id="GRID.polyline.240.1.1" points="42,253.3 251.13,112 462,253.58 251.13,392 42,253.3" fill="none" fill-opacity="0"/>
                </g>
              </g>
              <g id="GRID.picComplexPath.78.1" stroke="none" fill="rgb(255,255,255)" stroke-opacity="0" fill-opacity="1">
                <g id="GRID.pathgrob.241.1">
                  <path id="GRID.pathgrob.241.1.1" d="M 94.08 252.98 L 251.35 146.72 L 409.92 253.18 L 251.35 357.28 Z" fill-rule="nonzero" stroke="none" stroke-opacity="0"/>
                </g>
                <g id="GRID.polyline.242.1">
                  <polyline id="GRID.polyline.242.1.1" points="94.08,252.98 251.35,146.72 409.92,253.18 251.35,357.28 94.08,252.98" fill="none" fill-opacity="0"/>
                </g>
              </g>
              <g id="GRID.picComplexPath.81.1" stroke="none" fill="rgb(0,40,104)" stroke-opacity="0" fill-opacity="1">
                <g id="GRID.pathgrob.243.1">
                  <path id="GRID.pathgrob.243.1.1" d="M 165.96 257.58 L 174.73 257.58 L 176.26 252.68 L 181.65 252.68 L 173.28 276.46 L 167.55 276.46 L 159.07 252.68 L 164.3 252.68 Z M 170.33 271.09 L 170.39 271.09 L 173.34 261.69 L 167.28 261.69 Z M 184.85 252.68 L 189.72 252.68 L 189.72 261.99 L 194.85 261.99 L 194.85 261.99 L 195.77 261.96 L 196.61 261.83 L 197.33 261.61 L 197.85 261.31 L 198.17 260.96 L 198.17 260.96 L 198.39 260.51 L 198.56 259.9 L 198.68 259.16 L 198.74 258.34 L 198.73 257.49 L 198.73 257.49 L 198.73 256.83 L 198.75 256.18 L 198.78 255.56 L 198.82 255.02 L 198.87 254.59 L 198.87 254.59 L 198.93 254.19 L 199 253.77 L 199.08 253.37 L 199.17 253 L 199.26 252.68 L 204.75 252.68 L 204.75 253.31 L 204.75 253.31 L 204.49 253.43 L 204.25 253.62 L 204.05 253.88 L 203.91 254.18 L 203.83 254.52 L 203.83 254.52 L 203.77 254.95 L 203.73 255.55 L 203.7 256.3 L 203.69 257.15 L 203.7 258.05 L 203.7 258.05 L 203.66 259.17 L 203.57 260.23 L 203.4 261.17 L 203.18 261.89 L 202.92 262.4 L 202.92 262.4 L 202.61 262.81 L 202.2 263.2 L 201.72 263.56 L 201.21 263.85 L 200.68 264.08 L 200.68 264.08 L 201.32 264.35 L 201.94 264.71 L 202.52 265.18 L 203.01 265.69 L 203.4 266.22 L 203.4 266.22 L 203.72 266.81 L 203.99 267.49 L 204.2 268.25 L 204.32 269 L 204.36 269.74 L 204.36 269.74 L 204.35 270.17 L 204.29 270.67 L 204.17 271.24 L 204.01 271.82 L 203.82 272.39 L 203.82 272.39 L 203.57 272.97 L 203.2 273.56 L 202.73 274.16 L 202.19 274.7 L 201.62 275.17 L 201.62 275.17 L 200.96 275.59 L 200.1 275.94 L 199.09 276.22 L 197.99 276.39 L 196.88 276.46 L 184.85 276.46 Z M 189.72 266 L 189.72 272.35 L 195.91 272.35 L 195.91 272.35 L 196.66 272.29 L 197.35 272.14 L 197.96 271.91 L 198.43 271.61 L 198.74 271.27 L 198.74 271.27 L 198.98 270.89 L 199.17 270.47 L 199.31 270.04 L 199.38 269.62 L 199.39 269.24 L 199.39 269.24 L 199.35 268.62 L 199.24 268.03 L 199.03 267.49 L 198.76 267.06 L 198.44 266.74 L 198.44 266.74 L 198.04 266.48 L 197.53 266.27 L 196.91 266.11 L 196.24 266.02 L 195.55 266 Z M 214.11 260.73 L 216.43 263.11 L 223.78 252.68 L 230.17 252.68 L 219.91 266.72 L 229.61 276.46 L 223.19 276.46 L 214.11 266.79 L 214.11 276.46 L 209.15 276.46 L 209.15 252.68 L 214.11 252.68 Z M 237.75 257.58 L 246.52 257.58 L 248.05 252.68 L 253.44 252.68 L 245.06 276.46 L 239.33 276.46 L 230.86 252.68 L 236.09 252.68 Z M 242.12 271.09 L 242.18 271.09 L 245.13 261.69 L 239.07 261.69 Z M 271.15 259.9 L 271.08 259.9 L 261.64 276.46 L 256.41 276.46 L 256.41 252.68 L 261.05 252.68 L 261.05 269.64 L 261.11 269.64 L 270.81 252.68 L 275.78 252.68 L 275.78 276.46 L 271.15 276.46 Z M 279.35 260 L 279.35 260 L 279.36 259.41 L 279.44 258.74 L 279.59 258.02 L 279.8 257.31 L 280.05 256.63 L 280.05 256.63 L 280.39 255.96 L 280.89 255.27 L 281.52 254.59 L 282.24 253.98 L 283.02 253.46 L 283.02 253.46 L 283.93 253.01 L 285.09 252.61 L 286.48 252.31 L 287.98 252.13 L 289.51 252.05 L 289.51 252.05 L 289.99 252.05 L 290.59 252.1 L 291.31 252.19 L 292.08 252.32 L 292.87 252.48 L 292.87 252.48 L 293.68 252.71 L 294.54 253.05 L 295.41 253.52 L 296.21 254.05 L 296.92 254.64 L 296.92 254.64 L 297.55 255.34 L 298.09 256.26 L 298.51 257.37 L 298.77 258.58 L 298.88 259.84 L 298.88 259.84 L 298.79 260.95 L 298.54 262.01 L 298.13 262.97 L 297.6 263.76 L 296.99 264.34 L 296.99 264.34 L 296.28 264.82 L 295.45 265.27 L 294.52 265.68 L 293.58 266 L 292.66 266.23 L 286.86 267.65 L 286.86 267.65 L 286.56 267.71 L 286.22 267.82 L 285.88 267.95 L 285.54 268.11 L 285.23 268.28 L 285.23 268.28 L 284.95 268.5 L 284.71 268.81 L 284.52 269.21 L 284.4 269.66 L 284.34 270.13 L 284.34 270.13 L 284.42 270.7 L 284.61 271.23 L 284.9 271.71 L 285.27 272.09 L 285.71 272.37 L 285.71 272.37 L 286.2 272.58 L 286.75 272.76 L 287.34 272.89 L 287.93 272.97 L 288.48 272.98 L 288.48 272.98 L 289.58 272.89 L 290.58 272.7 L 291.44 272.4 L 292.08 272.02 L 292.5 271.59 L 292.5 271.59 L 292.79 271.13 L 293.04 270.65 L 293.22 270.18 L 293.32 269.76 L 293.35 269.4 L 298.12 269.4 L 298.12 269.4 L 298.09 269.99 L 298 270.64 L 297.83 271.34 L 297.6 272.04 L 297.32 272.69 L 297.32 272.69 L 296.97 273.34 L 296.49 274 L 295.88 274.66 L 295.2 275.24 L 294.49 275.74 L 294.49 275.74 L 293.66 276.18 L 292.64 276.55 L 291.43 276.84 L 290.15 277.02 L 288.85 277.09 L 288.85 277.09 L 287.49 277.02 L 286.15 276.85 L 284.91 276.57 L 283.87 276.2 L 283.05 275.78 L 283.05 275.78 L 282.35 275.29 L 281.7 274.73 L 281.12 274.1 L 280.68 273.46 L 280.36 272.84 L 280.36 272.84 L 280.13 272.22 L 279.94 271.57 L 279.8 270.91 L 279.72 270.3 L 279.71 269.77 L 279.71 269.77 L 279.81 268.57 L 280.06 267.44 L 280.47 266.41 L 281.01 265.56 L 281.64 264.93 L 282.04 264.65 L 282.04 264.65 L 282.91 264.18 L 283.91 263.73 L 285.03 263.33 L 286.16 263.01 L 287.26 262.78 L 289.81 262.19 L 289.81 262.19 L 290.5 262.03 L 291.2 261.84 L 291.86 261.62 L 292.44 261.4 L 292.91 261.19 L 292.91 261.19 L 293.3 260.93 L 293.64 260.59 L 293.9 260.18 L 294.06 259.72 L 294.11 259.24 L 294.11 259.24 L 294.03 258.59 L 293.81 257.99 L 293.47 257.46 L 293.03 257.04 L 292.51 256.76 L 292.51 256.76 L 291.93 256.54 L 291.27 256.36 L 290.55 256.24 L 289.83 256.17 L 289.15 256.16 L 289.15 256.16 L 288.04 256.25 L 287.02 256.45 L 286.14 256.75 L 285.47 257.14 L 285.02 257.58 L 285.02 257.58 L 284.69 258.07 L 284.42 258.58 L 284.23 259.1 L 284.13 259.58 L 284.11 260 Z M 307.72 257.58 L 316.5 257.58 L 318.02 252.68 L 323.42 252.68 L 315.04 276.46 L 309.31 276.46 L 300.83 252.68 L 306.07 252.68 Z M 312.1 271.09 L 312.16 271.09 L 315.11 261.69 L 309.05 261.69 Z M 325.4 260 L 325.4 260 L 325.41 259.41 L 325.49 258.74 L 325.64 258.02 L 325.85 257.31 L 326.1 256.63 L 326.1 256.63 L 326.44 255.96 L 326.93 255.27 L 327.57 254.59 L 328.3 253.98 L 329.07 253.46 L 329.07 253.46 L 329.98 253.01 L 331.14 252.61 L 332.53 252.31 L 334.03 252.13 L 335.56 252.05 L 335.56 252.05 L 336.03 252.05 L 336.64 252.1 L 337.36 252.19 L 338.13 252.32 L 338.92 252.48 L 338.92 252.48 L 339.73 252.71 L 340.59 253.05 L 341.46 253.52 L 342.26 254.05 L 342.97 254.64 L 342.97 254.64 L 343.59 255.34 L 344.14 256.26 L 344.56 257.37 L 344.82 258.58 L 344.93 259.84 L 344.93 259.84 L 344.83 260.95 L 344.58 262.01 L 344.18 262.97 L 343.65 263.76 L 343.04 264.34 L 343.04 264.34 L 342.33 264.82 L 341.5 265.27 L 340.57 265.68 L 339.62 266 L 338.7 266.23 L 332.91 267.65 L 332.91 267.65 L 332.61 267.71 L 332.27 267.82 L 331.92 267.95 L 331.59 268.11 L 331.28 268.28 L 331.28 268.28 L 331 268.5 L 330.76 268.81 L 330.57 269.21 L 330.45 269.66 L 330.4 270.13 L 330.4 270.13 L 330.47 270.7 L 330.65 271.23 L 330.95 271.71 L 331.32 272.09 L 331.76 272.37 L 331.76 272.37 L 332.25 272.58 L 332.8 272.76 L 333.39 272.89 L 333.98 272.97 L 334.53 272.98 L 334.53 272.98 L 335.63 272.89 L 336.63 272.7 L 337.49 272.4 L 338.13 272.02 L 338.55 271.59 L 338.55 271.59 L 338.84 271.13 L 339.09 270.65 L 339.27 270.18 L 339.37 269.76 L 339.4 269.4 L 344.17 269.4 L 344.17 269.4 L 344.14 269.99 L 344.05 270.64 L 343.88 271.34 L 343.65 272.04 L 343.37 272.69 L 343.37 272.69 L 343.02 273.34 L 342.53 274 L 341.92 274.66 L 341.25 275.24 L 340.53 275.74 L 340.53 275.74 L 339.71 276.18 L 338.69 276.55 L 337.48 276.84 L 336.19 277.02 L 334.9 277.09 L 334.9 277.09 L 333.53 277.02 L 332.2 276.85 L 330.96 276.57 L 329.92 276.2 L 329.1 275.78 L 329.1 275.78 L 328.4 275.29 L 327.75 274.73 L 327.17 274.1 L 326.73 273.46 L 326.41 272.84 L 326.41 272.84 L 326.18 272.22 L 325.98 271.57 L 325.84 270.91 L 325.77 270.3 L 325.76 269.77 L 325.76 269.77 L 325.86 268.57 L 326.11 267.44 L 326.52 266.41 L 327.06 265.56 L 327.69 264.93 L 328.09 264.65 L 328.09 264.65 L 328.96 264.18 L 329.96 263.73 L 331.08 263.33 L 332.21 263.01 L 333.31 262.78 L 335.86 262.19 L 335.86 262.19 L 336.55 262.03 L 337.25 261.84 L 337.91 261.62 L 338.48 261.4 L 338.95 261.19 L 338.95 261.19 L 339.35 260.93 L 339.69 260.59 L 339.95 260.18 L 340.11 259.72 L 340.17 259.24 L 340.17 259.24 L 340.08 258.59 L 339.86 257.99 L 339.52 257.46 L 339.07 257.04 L 338.56 256.76 L 338.56 256.76 L 337.98 256.54 L 337.32 256.36 L 336.6 256.24 L 335.88 256.17 L 335.19 256.16 L 335.2 256.16 L 334.09 256.25 L 333.07 256.45 L 332.18 256.75 L 331.51 257.14 L 331.07 257.58 L 331.07 257.58 L 330.74 258.07 L 330.47 258.58 L 330.28 259.1 L 330.18 259.58 L 330.16 260 Z" fill-rule="nonzero" stroke="none" stroke-opacity="0"/>
                </g>
                <g id="GRID.polyline.244.1">
                  <polyline id="GRID.polyline.244.1.1" points="165.96,257.58 174.73,257.58 176.26,252.68 181.65,252.68 173.28,276.46 167.55,276.46 159.07,252.68 164.3,252.68 165.96,257.58" fill="none" fill-opacity="0"/>
                  <polyline id="GRID.polyline.244.1.2" points="170.33,271.09 170.39,271.09 173.34,261.69 167.28,261.69 170.33,271.09" fill="none" fill-opacity="0"/>
                  <polyline id="GRID.polyline.244.1.3" points="184.85,252.68 189.72,252.68 189.72,261.99 194.85,261.99 194.85,261.99 195.77,261.96 196.61,261.83 197.33,261.61 197.85,261.31 198.17,260.96 198.17,260.96 198.39,260.51 198.56,259.9 198.68,259.16 198.74,258.34 198.73,257.49 198.73,257.49 198.73,256.83 198.75,256.18 198.78,255.56 198.82,255.02 198.87,254.59 198.87,254.59 198.93,254.19 199,253.77 199.08,253.37 199.17,253 199.26,252.68 204.75,252.68 204.75,253.31 204.75,253.31 204.49,253.43 204.25,253.62 204.05,253.88 203.91,254.18 203.83,254.52 203.83,254.52 203.77,254.95 203.73,255.55 203.7,256.3 203.69,257.15 203.7,258.05 203.7,258.05 203.66,259.17 203.57,260.23 203.4,261.17 203.18,261.89 202.92,262.4 202.92,262.4 202.61,262.81 202.2,263.2 201.72,263.56 201.21,263.85 200.68,264.08 200.68,264.08 201.32,264.35 201.94,264.71 202.52,265.18 203.01,265.69 203.4,266.22 203.4,266.22 203.72,266.81 203.99,267.49 204.2,268.25 204.32,269 204.36,269.74 204.36,269.74 204.35,270.17 204.29,270.67 204.17,271.24 204.01,271.82 203.82,272.39 203.82,272.39 203.57,272.97 203.2,273.56 202.73,274.16 202.19,274.7 201.62,275.17 201.62,275.17 200.96,275.59 200.1,275.94 199.09,276.22 197.99,276.39 196.88,276.46 184.85,276.46 184.85,252.68" fill="none" fill-opacity="0"/>
                  <polyline id="GRID.polyline.244.1.4" points="189.72,266 189.72,272.35 195.91,272.35 195.91,272.35 196.66,272.29 197.35,272.14 197.96,271.91 198.43,271.61 198.74,271.27 198.74,271.27 198.98,270.89 199.17,270.47 199.31,270.04 199.38,269.62 199.39,269.24 199.39,269.24 199.35,268.62 199.24,268.03 199.03,267.49 198.76,267.06 198.44,266.74 198.44,266.74 198.04,266.48 197.53,266.27 196.91,266.11 196.24,266.02 195.55,266 189.72,266" fill="none" fill-opacity="0"/>
                  <polyline id="GRID.polyline.244.1.5" points="214.11,260.73 216.43,263.11 223.78,252.68 230.17,252.68 219.91,266.72 229.61,276.46 223.19,276.46 214.11,266.79 214.11,276.46 209.15,276.46 209.15,252.68 214.11,252.68 214.11,260.73" fill="none" fill-opacity="0"/>
                  <polyline id="GRID.polyline.244.1.6" points="237.75,257.58 246.52,257.58 248.05,252.68 253.44,252.68 245.06,276.46 239.33,276.46 230.86,252.68 236.09,252.68 237.75,257.58" fill="none" fill-opacity="0"/>
                  <polyline id="GRID.polyline.244.1.7" points="242.12,271.09 242.18,271.09 245.13,261.69 239.07,261.69 242.12,271.09" fill="none" fill-opacity="0"/>
                  <polyline id="GRID.polyline.244.1.8" points="271.15,259.9 271.08,259.9 261.64,276.46 256.41,276.46 256.41,252.68 261.05,252.68 261.05,269.64 261.11,269.64 270.81,252.68 275.78,252.68 275.78,276.46 271.15,276.46 271.15,259.9" fill="none" fill-opacity="0"/>
                  <polyline id="GRID.polyline.244.1.9" points="279.35,260 279.35,260 279.36,259.41 279.44,258.74 279.59,258.02 279.8,257.31 280.05,256.63 280.05,256.63 280.39,255.96 280.89,255.27 281.52,254.59 282.24,253.98 283.02,253.46 283.02,253.46 283.93,253.01 285.09,252.61 286.48,252.31 287.98,252.13 289.51,252.05 289.51,252.05 289.99,252.05 290.59,252.1 291.31,252.19 292.08,252.32 292.87,252.48 292.87,252.48 293.68,252.71 294.54,253.05 295.41,253.52 296.21,254.05 296.92,254.64 296.92,254.64 297.55,255.34 298.09,256.26 298.51,257.37 298.77,258.58 298.88,259.84 298.88,259.84 298.79,260.95 298.54,262.01 298.13,262.97 297.6,263.76 296.99,264.34 296.99,264.34 296.28,264.82 295.45,265.27 294.52,265.68 293.58,266 292.66,266.23 286.86,267.65 286.86,267.65 286.56,267.71 286.22,267.82 285.88,267.95 285.54,268.11 285.23,268.28 285.23,268.28 284.95,268.5 284.71,268.81 284.52,269.21 284.4,269.66 284.34,270.13 284.34,270.13 284.42,270.7 284.61,271.23 284.9,271.71 285.27,272.09 285.71,272.37 285.71,272.37 286.2,272.58 286.75,272.76 287.34,272.89 287.93,272.97 288.48,272.98 288.48,272.98 289.58,272.89 290.58,272.7 291.44,272.4 292.08,272.02 292.5,271.59 292.5,271.59 292.79,271.13 293.04,270.65 293.22,270.18 293.32,269.76 293.35,269.4 298.12,269.4 298.12,269.4 298.09,269.99 298,270.64 297.83,271.34 297.6,272.04 297.32,272.69 297.32,272.69 296.97,273.34 296.49,274 295.88,274.66 295.2,275.24 294.49,275.74 294.49,275.74 293.66,276.18 292.64,276.55 291.43,276.84 290.15,277.02 288.85,277.09 288.85,277.09 287.49,277.02 286.15,276.85 284.91,276.57 283.87,276.2 283.05,275.78 283.05,275.78 282.35,275.29 281.7,274.73 281.12,274.1 280.68,273.46 280.36,272.84 280.36,272.84 280.13,272.22 279.94,271.57 279.8,270.91 279.72,270.3 279.71,269.77 279.71,269.77 279.81,268.57 280.06,267.44 280.47,266.41 281.01,265.56 281.64,264.93 282.04,264.65 282.04,264.65 282.91,264.18 283.91,263.73 285.03,263.33 286.16,263.01 287.26,262.78 289.81,262.19 289.81,262.19 290.5,262.03 291.2,261.84 291.86,261.62 292.44,261.4 292.91,261.19 292.91,261.19 293.3,260.93 293.64,260.59 293.9,260.18 294.06,259.72 294.11,259.24 294.11,259.24 294.03,258.59 293.81,257.99 293.47,257.46 293.03,257.04 292.51,256.76 292.51,256.76 291.93,256.54 291.27,256.36 290.55,256.24 289.83,256.17 289.15,256.16 289.15,256.16 288.04,256.25 287.02,256.45 286.14,256.75 285.47,257.14 285.02,257.58 285.02,257.58 284.69,258.07 284.42,258.58 284.23,259.1 284.13,259.58 284.11,260 279.35,260" fill="none" fill-opacity="0"/>
                  <polyline id="GRID.polyline.244.1.10" points="307.72,257.58 316.5,257.58 318.02,252.68 323.42,252.68 315.04,276.46 309.31,276.46 300.83,252.68 306.07,252.68 307.72,257.58" fill="none" fill-opacity="0"/>
                  <polyline id="GRID.polyline.244.1.11" points="312.1,271.09 312.16,271.09 315.11,261.69 309.05,261.69 312.1,271.09" fill="none" fill-opacity="0"/>
                  <polyline id="GRID.polyline.244.1.12" points="325.4,260 325.4,260 325.41,259.41 325.49,258.74 325.64,258.02 325.85,257.31 326.1,256.63 326.1,256.63 326.44,255.96 326.93,255.27 327.57,254.59 328.3,253.98 329.07,253.46 329.07,253.46 329.98,253.01 331.14,252.61 332.53,252.31 334.03,252.13 335.56,252.05 335.56,252.05 336.03,252.05 336.64,252.1 337.36,252.19 338.13,252.32 338.92,252.48 338.92,252.48 339.73,252.71 340.59,253.05 341.46,253.52 342.26,254.05 342.97,254.64 342.97,254.64 343.59,255.34 344.14,256.26 344.56,257.37 344.82,258.58 344.93,259.84 344.93,259.84 344.83,260.95 344.58,262.01 344.18,262.97 343.65,263.76 343.04,264.34 343.04,264.34 342.33,264.82 341.5,265.27 340.57,265.68 339.62,266 338.7,266.23 332.91,267.65 332.91,267.65 332.61,267.71 332.27,267.82 331.92,267.95 331.59,268.11 331.28,268.28 331.28,268.28 331,268.5 330.76,268.81 330.57,269.21 330.45,269.66 330.4,270.13 330.4,270.13 330.47,270.7 330.65,271.23 330.95,271.71 331.32,272.09 331.76,272.37 331.76,272.37 332.25,272.58 332.8,272.76 333.39,272.89 333.98,272.97 334.53,272.98 334.53,272.98 335.63,272.89 336.63,272.7 337.49,272.4 338.13,272.02 338.55,271.59 338.55,271.59 338.84,271.13 339.09,270.65 339.27,270.18 339.37,269.76 339.4,269.4 344.17,269.4 344.17,269.4 344.14,269.99 344.05,270.64 343.88,271.34 343.65,272.04 343.37,272.69 343.37,272.69 343.02,273.34 342.53,274 341.92,274.66 341.25,275.24 340.53,275.74 340.53,275.74 339.71,276.18 338.69,276.55 337.48,276.84 336.19,277.02 334.9,277.09 334.9,277.09 333.53,277.02 332.2,276.85 330.96,276.57 329.92,276.2 329.1,275.78 329.1,275.78 328.4,275.29 327.75,274.73 327.17,274.1 326.73,273.46 326.41,272.84 326.41,272.84 326.18,272.22 325.98,271.57 325.84,270.91 325.77,270.3 325.76,269.77 325.76,269.77 325.86,268.57 326.11,267.44 326.52,266.41 327.06,265.56 327.69,264.93 328.09,264.65 328.09,264.65 328.96,264.18 329.96,263.73 331.08,263.33 332.21,263.01 333.31,262.78 335.86,262.19 335.86,262.19 336.55,262.03 337.25,261.84 337.91,261.62 338.48,261.4 338.95,261.19 338.95,261.19 339.35,260.93 339.69,260.59 339.95,260.18 340.11,259.72 340.17,259.24 340.17,259.24 340.08,258.59 339.86,257.99 339.52,257.46 339.07,257.04 338.56,256.76 338.56,256.76 337.98,256.54 337.32,256.36 336.6,256.24 335.88,256.17 335.19,256.16 335.2,256.16 334.09,256.25 333.07,256.45 332.18,256.75 331.51,257.14 331.07,257.58 331.07,257.58 330.74,258.07 330.47,258.58 330.28,259.1 330.18,259.58 330.16,260 325.4,260" fill="none" fill-opacity="0"/>
                </g>
              </g>
              <g id="GRID.picComplexPath.84.1" stroke="none" fill="rgb(255,255,255)" stroke-opacity="0" fill-opacity="1">
                <g id="GRID.pathgrob.245.1">
                  <path id="GRID.pathgrob.245.1.1" d="M 257.02 364.02 L 250.84 368.5 L 244.67 364 L 247.01 371.27 L 240.83 375.76 L 248.46 375.77 L 250.81 383.04 L 253.18 375.78 L 260.82 375.79 L 254.65 371.29 Z" fill-rule="nonzero" stroke="none" stroke-opacity="0"/>
                </g>
                <g id="GRID.polyline.246.1">
                  <polyline id="GRID.polyline.246.1.1" points="257.02,364.02 250.84,368.5 244.67,364 247.01,371.27 240.83,375.76 248.46,375.77 250.81,383.04 253.18,375.78 260.82,375.79 254.65,371.29 257.02,364.02" fill="none" fill-opacity="0"/>
                </g>
              </g>
              <g id="GRID.picComplexPath.87.1" stroke="none" fill="rgb(0,40,104)" stroke-opacity="0" fill-opacity="1">
                <g id="GRID.pathgrob.247.1">
                  <path id="GRID.pathgrob.247.1.1" d="M 263.16 207.2 L 252 199.27 L 240.83 207.19 L 245.09 194.37 L 233.93 186.43 L 247.73 186.43 L 252 173.6 L 256.27 186.43 L 270.07 186.44 L 258.9 194.36 Z" fill-rule="nonzero" stroke="none" stroke-opacity="0"/>
                </g>
                <g id="GRID.polyline.248.1">
                  <polyline id="GRID.polyline.248.1.1" points="263.16,207.2 252,199.27 240.83,207.19 245.09,194.37 233.93,186.43 247.73,186.43 252,173.6 256.27,186.43 270.07,186.44 258.9,194.36 263.16,207.2" fill="none" fill-opacity="0"/>
                </g>
              </g>
              <g id="GRID.picComplexPath.90.1" stroke="none" fill="rgb(0,40,104)" stroke-opacity="0" fill-opacity="1">
                <g id="GRID.pathgrob.249.1">
                  <path id="GRID.pathgrob.249.1.1" d="M 227.02 207.2 L 215.86 215.13 L 204.69 207.21 L 208.96 220.03 L 197.8 227.97 L 211.59 227.97 L 215.87 240.8 L 220.13 227.97 L 233.93 227.96 L 222.77 220.04 Z" fill-rule="nonzero" stroke="none" stroke-opacity="0"/>
                </g>
                <g id="GRID.polyline.250.1">
                  <polyline id="GRID.polyline.250.1.1" points="227.02,207.2 215.86,215.13 204.69,207.21 208.96,220.03 197.8,227.97 211.59,227.97 215.87,240.8 220.13,227.97 233.93,227.96 222.77,220.04 227.02,207.2" fill="none" fill-opacity="0"/>
                </g>
              </g>
              <g id="GRID.picComplexPath.93.1" stroke="none" fill="rgb(255,255,255)" stroke-opacity="0" fill-opacity="1">
                <g id="GRID.pathgrob.251.1">
                  <path id="GRID.pathgrob.251.1.1" d="M 241.9 147.23 L 237.42 141.05 L 241.92 134.88 L 234.65 137.23 L 230.16 131.04 L 230.15 138.67 L 222.88 141.02 L 230.14 143.4 L 230.13 151.03 L 234.63 144.87 Z" fill-rule="nonzero" stroke="none" stroke-opacity="0"/>
                </g>
                <g id="GRID.polyline.252.1">
                  <polyline id="GRID.polyline.252.1.1" points="241.9,147.23 237.42,141.05 241.92,134.88 234.65,137.23 230.16,131.04 230.15,138.67 222.88,141.02 230.14,143.4 230.13,151.03 234.63,144.87 241.9,147.23" fill="none" fill-opacity="0"/>
                </g>
              </g>
              <g id="GRID.picComplexPath.96.1" stroke="none" fill="rgb(255,255,255)" stroke-opacity="0" fill-opacity="1">
                <g id="GRID.pathgrob.253.1">
                  <path id="GRID.pathgrob.253.1.1" d="M 260.98 147.23 L 265.46 141.05 L 260.96 134.88 L 268.23 137.23 L 272.72 131.04 L 272.73 138.67 L 280 141.02 L 272.74 143.4 L 272.75 151.03 L 268.25 144.87 Z" fill-rule="nonzero" stroke="none" stroke-opacity="0"/>
                </g>
                <g id="GRID.polyline.254.1">
                  <polyline id="GRID.polyline.254.1.1" points="260.98,147.23 265.46,141.05 260.96,134.88 268.23,137.23 272.72,131.04 272.73,138.67 280,141.02 272.74,143.4 272.75,151.03 268.25,144.87 260.98,147.23" fill="none" fill-opacity="0"/>
                </g>
              </g>
              <g id="GRID.picComplexPath.99.1" stroke="none" fill="rgb(0,40,104)" stroke-opacity="0" fill-opacity="1">
                <g id="GRID.pathgrob.255.1">
                  <path id="GRID.pathgrob.255.1.1" d="M 299.29 207.2 L 288.14 215.13 L 276.96 207.21 L 281.23 220.03 L 270.07 227.97 L 283.86 227.97 L 288.14 240.8 L 292.4 227.97 L 306.2 227.96 L 295.04 220.04 Z" fill-rule="nonzero" stroke="none" stroke-opacity="0"/>
                </g>
                <g id="GRID.polyline.256.1">
                  <polyline id="GRID.polyline.256.1.1" points="299.29,207.2 288.14,215.13 276.96,207.21 281.23,220.03 270.07,227.97 283.86,227.97 288.14,240.8 292.4,227.97 306.2,227.96 295.04,220.04 299.29,207.2" fill="none" fill-opacity="0"/>
                </g>
              </g>
              <g id="GRID.picComplexPath.102.1" stroke="none" fill="rgb(0,40,104)" stroke-opacity="0" fill-opacity="1">
                <g id="GRID.pathgrob.257.1">
                  <path id="GRID.pathgrob.257.1.1" d="M 263.16 302.4 L 252 310.33 L 240.83 302.41 L 245.09 315.23 L 233.93 323.17 L 247.73 323.17 L 252 336 L 256.27 323.17 L 270.07 323.16 L 258.9 315.24 Z" fill-rule="nonzero" stroke="none" stroke-opacity="0"/>
                </g>
                <g id="GRID.polyline.258.1">
                  <polyline id="GRID.polyline.258.1.1" points="263.16,302.4 252,310.33 240.83,302.41 245.09,315.23 233.93,323.17 247.73,323.17 252,336 256.27,323.17 270.07,323.16 258.9,315.24 263.16,302.4" fill="none" fill-opacity="0"/>
                </g>
              </g>
              <g id="GRID.picComplexPath.105.1" stroke="none" fill="rgb(255,255,255)" stroke-opacity="0" fill-opacity="1">
                <g id="GRID.pathgrob.259.1">
                  <path id="GRID.pathgrob.259.1.1" d="M 411.55 280.51 L 407.08 274.33 L 411.57 268.16 L 404.31 270.51 L 399.82 264.32 L 399.81 271.95 L 392.53 274.3 L 399.8 276.68 L 399.79 284.31 L 404.29 278.15 Z" fill-rule="nonzero" stroke="none" stroke-opacity="0"/>
                </g>
                <g id="GRID.polyline.260.1">
                  <polyline id="GRID.polyline.260.1.1" points="411.55,280.51 407.08,274.33 411.57,268.16 404.31,270.51 399.82,264.32 399.81,271.95 392.53,274.3 399.8,276.68 399.79,284.31 404.29,278.15 411.55,280.51" fill="none" fill-opacity="0"/>
                </g>
              </g>
              <g id="GRID.picComplexPath.108.1" stroke="none" fill="rgb(255,255,255)" stroke-opacity="0" fill-opacity="1">
                <g id="GRID.pathgrob.261.1">
                  <path id="GRID.pathgrob.261.1.1" d="M 381.31 300.67 L 376.84 294.49 L 381.33 288.32 L 374.07 290.67 L 369.58 284.48 L 369.57 292.11 L 362.29 294.46 L 369.56 296.84 L 369.55 304.47 L 374.05 298.31 Z" fill-rule="nonzero" stroke="none" stroke-opacity="0"/>
                </g>
                <g id="GRID.polyline.262.1">
                  <polyline id="GRID.polyline.262.1.1" points="381.31,300.67 376.84,294.49 381.33,288.32 374.07,290.67 369.58,284.48 369.57,292.11 362.29,294.46 369.56,296.84 369.55,304.47 374.05,298.31 381.31,300.67" fill="none" fill-opacity="0"/>
                </g>
              </g>
              <g id="GRID.picComplexPath.111.1" stroke="none" fill="rgb(255,255,255)" stroke-opacity="0" fill-opacity="1">
                <g id="GRID.pathgrob.263.1">
                  <path id="GRID.pathgrob.263.1.1" d="M 351.07 320.83 L 346.6 314.65 L 351.09 308.48 L 343.83 310.83 L 339.34 304.64 L 339.33 312.27 L 332.05 314.62 L 339.32 317 L 339.31 324.63 L 343.81 318.47 Z" fill-rule="nonzero" stroke="none" stroke-opacity="0"/>
                </g>
                <g id="GRID.polyline.264.1">
                  <polyline id="GRID.polyline.264.1.1" points="351.07,320.83 346.6,314.65 351.09,308.48 343.83,310.83 339.34,304.64 339.33,312.27 332.05,314.62 339.32,317 339.31,324.63 343.81,318.47 351.07,320.83" fill="none" fill-opacity="0"/>
                </g>
              </g>
              <g id="GRID.picComplexPath.114.1" stroke="none" fill="rgb(255,255,255)" stroke-opacity="0" fill-opacity="1">
                <g id="GRID.pathgrob.265.1">
                  <path id="GRID.pathgrob.265.1.1" d="M 320.83 339.87 L 316.36 333.69 L 320.85 327.52 L 313.59 329.87 L 309.1 323.68 L 309.09 331.31 L 301.81 333.66 L 309.08 336.04 L 309.07 343.67 L 313.57 337.5 Z" fill-rule="nonzero" stroke="none" stroke-opacity="0"/>
                </g>
                <g id="GRID.polyline.266.1">
                  <polyline id="GRID.polyline.266.1.1" points="320.83,339.87 316.36,333.69 320.85,327.52 313.59,329.87 309.1,323.68 309.09,331.31 301.81,333.66 309.08,336.04 309.07,343.67 313.57,337.5 320.83,339.87" fill="none" fill-opacity="0"/>
                </g>
              </g>
              <g id="GRID.picComplexPath.117.1" stroke="none" fill="rgb(255,255,255)" stroke-opacity="0" fill-opacity="1">
                <g id="GRID.pathgrob.267.1">
                  <path id="GRID.pathgrob.267.1.1" d="M 290.59 360.03 L 286.12 353.85 L 290.61 347.68 L 283.35 350.03 L 278.86 343.84 L 278.85 351.47 L 271.57 353.82 L 278.84 356.2 L 278.83 363.83 L 283.33 357.67 Z" fill-rule="nonzero" stroke="none" stroke-opacity="0"/>
                </g>
                <g id="GRID.polyline.268.1">
                  <polyline id="GRID.polyline.268.1.1" points="290.59,360.03 286.12,353.85 290.61,347.68 283.35,350.03 278.86,343.84 278.85,351.47 271.57,353.82 278.84,356.2 278.83,363.83 283.33,357.67 290.59,360.03" fill="none" fill-opacity="0"/>
                </g>
              </g>
              <g id="GRID.picComplexPath.120.1" stroke="none" fill="rgb(255,255,255)" stroke-opacity="0" fill-opacity="1">
                <g id="GRID.pathgrob.269.1">
                  <path id="GRID.pathgrob.269.1.1" d="M 107.5 239.07 L 103.02 232.89 L 107.52 226.72 L 100.25 229.07 L 95.76 222.88 L 95.75 230.51 L 88.48 232.86 L 95.74 235.24 L 95.73 242.87 L 100.23 236.71 Z" fill-rule="nonzero" stroke="none" stroke-opacity="0"/>
                </g>
                <g id="GRID.polyline.270.1">
                  <polyline id="GRID.polyline.270.1.1" points="107.5,239.07 103.02,232.89 107.52,226.72 100.25,229.07 95.76,222.88 95.75,230.51 88.48,232.86 95.74,235.24 95.73,242.87 100.23,236.71 107.5,239.07" fill="none" fill-opacity="0"/>
                </g>
              </g>
              <g id="GRID.picComplexPath.123.1" stroke="none" fill="rgb(255,255,255)" stroke-opacity="0" fill-opacity="1">
                <g id="GRID.pathgrob.271.1">
                  <path id="GRID.pathgrob.271.1.1" d="M 134.38 221.15 L 129.9 214.97 L 134.4 208.8 L 127.13 211.15 L 122.64 204.96 L 122.63 212.59 L 115.36 214.94 L 122.62 217.32 L 122.61 224.95 L 127.11 218.79 Z" fill-rule="nonzero" stroke="none" stroke-opacity="0"/>
                </g>
                <g id="GRID.polyline.272.1">
                  <polyline id="GRID.polyline.272.1.1" points="134.38,221.15 129.9,214.97 134.4,208.8 127.13,211.15 122.64,204.96 122.63,212.59 115.36,214.94 122.62,217.32 122.61,224.95 127.11,218.79 134.38,221.15" fill="none" fill-opacity="0"/>
                </g>
              </g>
              <g id="GRID.picComplexPath.126.1" stroke="none" fill="rgb(255,255,255)" stroke-opacity="0" fill-opacity="1">
                <g id="GRID.pathgrob.273.1">
                  <path id="GRID.pathgrob.273.1.1" d="M 161.26 203.23 L 156.78 197.05 L 161.28 190.88 L 154.01 193.23 L 149.52 187.04 L 149.51 194.67 L 142.24 197.02 L 149.5 199.4 L 149.49 207.03 L 153.99 200.87 Z" fill-rule="nonzero" stroke="none" stroke-opacity="0"/>
                </g>
                <g id="GRID.polyline.274.1">
                  <polyline id="GRID.polyline.274.1.1" points="161.26,203.23 156.78,197.05 161.28,190.88 154.01,193.23 149.52,187.04 149.51,194.67 142.24,197.02 149.5,199.4 149.49,207.03 153.99,200.87 161.26,203.23" fill="none" fill-opacity="0"/>
                </g>
              </g>
              <g id="GRID.picComplexPath.129.1" stroke="none" fill="rgb(255,255,255)" stroke-opacity="0" fill-opacity="1">
                <g id="GRID.pathgrob.275.1">
                  <path id="GRID.pathgrob.275.1.1" d="M 188.14 184.19 L 183.66 178.01 L 188.16 171.84 L 180.89 174.19 L 176.4 168 L 176.39 175.63 L 169.12 177.98 L 176.38 180.36 L 176.37 187.99 L 180.87 181.83 Z" fill-rule="nonzero" stroke="none" stroke-opacity="0"/>
                </g>
                <g id="GRID.polyline.276.1">
                  <polyline id="GRID.polyline.276.1.1" points="188.14,184.19 183.66,178.01 188.16,171.84 180.89,174.19 176.4,168 176.39,175.63 169.12,177.98 176.38,180.36 176.37,187.99 180.87,181.83 188.14,184.19" fill="none" fill-opacity="0"/>
                </g>
              </g>
              <g id="GRID.picComplexPath.132.1" stroke="none" fill="rgb(255,255,255)" stroke-opacity="0" fill-opacity="1">
                <g id="GRID.pathgrob.277.1">
                  <path id="GRID.pathgrob.277.1.1" d="M 215.02 166.27 L 210.54 160.09 L 215.04 153.92 L 207.77 156.27 L 203.28 150.08 L 203.27 157.71 L 196 160.06 L 203.26 162.44 L 203.25 170.07 L 207.75 163.91 Z" fill-rule="nonzero" stroke="none" stroke-opacity="0"/>
                </g>
                <g id="GRID.polyline.278.1">
                  <polyline id="GRID.polyline.278.1.1" points="215.02,166.27 210.54,160.09 215.04,153.92 207.77,156.27 203.28,150.08 203.27,157.71 196,160.06 203.26,162.44 203.25,170.07 207.75,163.91 215.02,166.27" fill="none" fill-opacity="0"/>
                </g>
              </g>
              <g id="GRID.picComplexPath.135.1" stroke="none" fill="rgb(255,255,255)" stroke-opacity="0" fill-opacity="1">
                <g id="GRID.pathgrob.279.1">
                  <path id="GRID.pathgrob.279.1.1" d="M 80.62 258.2 L 76.14 252.01 L 80.64 245.84 L 73.37 248.19 L 68.88 242 L 68.87 249.64 L 61.6 251.99 L 68.86 254.36 L 68.85 262 L 73.35 255.83 Z" fill-rule="nonzero" stroke="none" stroke-opacity="0"/>
                </g>
                <g id="GRID.polyline.280.1">
                  <polyline id="GRID.polyline.280.1.1" points="80.62,258.2 76.14,252.01 80.64,245.84 73.37,248.19 68.88,242 68.87,249.64 61.6,251.99 68.86,254.36 68.85,262 73.35,255.83 80.62,258.2" fill="none" fill-opacity="0"/>
                </g>
              </g>
              <g id="GRID.picComplexPath.138.1" stroke="none" fill="rgb(255,255,255)" stroke-opacity="0" fill-opacity="1">
                <g id="GRID.pathgrob.281.1">
                  <path id="GRID.pathgrob.281.1.1" d="M 91.86 280.51 L 96.34 274.33 L 91.84 268.16 L 99.11 270.51 L 103.6 264.32 L 103.61 271.95 L 110.88 274.3 L 103.62 276.68 L 103.63 284.31 L 99.13 278.15 Z" fill-rule="nonzero" stroke="none" stroke-opacity="0"/>
                </g>
                <g id="GRID.polyline.282.1">
                  <polyline id="GRID.polyline.282.1.1" points="91.86,280.51 96.34,274.33 91.84,268.16 99.11,270.51 103.6,264.32 103.61,271.95 110.88,274.3 103.62,276.68 103.63,284.31 99.13,278.15 91.86,280.51" fill="none" fill-opacity="0"/>
                </g>
              </g>
              <g id="GRID.picComplexPath.141.1" stroke="none" fill="rgb(255,255,255)" stroke-opacity="0" fill-opacity="1">
                <g id="GRID.pathgrob.283.1">
                  <path id="GRID.pathgrob.283.1.1" d="M 122.1 300.67 L 126.58 294.49 L 122.08 288.32 L 129.35 290.67 L 133.84 284.48 L 133.85 292.11 L 141.12 294.46 L 133.86 296.84 L 133.87 304.47 L 129.37 298.31 Z" fill-rule="nonzero" stroke="none" stroke-opacity="0"/>
                </g>
                <g id="GRID.polyline.284.1">
                  <polyline id="GRID.polyline.284.1.1" points="122.1,300.67 126.58,294.49 122.08,288.32 129.35,290.67 133.84,284.48 133.85,292.11 141.12,294.46 133.86,296.84 133.87,304.47 129.37,298.31 122.1,300.67" fill="none" fill-opacity="0"/>
                </g>
              </g>
              <g id="GRID.picComplexPath.144.1" stroke="none" fill="rgb(255,255,255)" stroke-opacity="0" fill-opacity="1">
                <g id="GRID.pathgrob.285.1">
                  <path id="GRID.pathgrob.285.1.1" d="M 152.34 320.83 L 156.82 314.65 L 152.32 308.48 L 159.59 310.83 L 164.08 304.64 L 164.09 312.27 L 171.36 314.62 L 164.1 317 L 164.11 324.63 L 159.61 318.47 Z" fill-rule="nonzero" stroke="none" stroke-opacity="0"/>
                </g>
                <g id="GRID.polyline.286.1">
                  <polyline id="GRID.polyline.286.1.1" points="152.34,320.83 156.82,314.65 152.32,308.48 159.59,310.83 164.08,304.64 164.09,312.27 171.36,314.62 164.1,317 164.11,324.63 159.61,318.47 152.34,320.83" fill="none" fill-opacity="0"/>
                </g>
              </g>
              <g id="GRID.picComplexPath.147.1" stroke="none" fill="rgb(255,255,255)" stroke-opacity="0" fill-opacity="1">
                <g id="GRID.pathgrob.287.1">
                  <path id="GRID.pathgrob.287.1.1" d="M 182.58 339.87 L 187.06 333.69 L 182.56 327.52 L 189.83 329.87 L 194.32 323.68 L 194.33 331.31 L 201.6 333.66 L 194.34 336.04 L 194.35 343.67 L 189.85 337.5 Z" fill-rule="nonzero" stroke="none" stroke-opacity="0"/>
                </g>
                <g id="GRID.polyline.288.1">
                  <polyline id="GRID.polyline.288.1.1" points="182.58,339.87 187.06,333.69 182.56,327.52 189.83,329.87 194.32,323.68 194.33,331.31 201.6,333.66 194.34,336.04 194.35,343.67 189.85,337.5 182.58,339.87" fill="none" fill-opacity="0"/>
                </g>
              </g>
              <g id="GRID.picComplexPath.150.1" stroke="none" fill="rgb(255,255,255)" stroke-opacity="0" fill-opacity="1">
                <g id="GRID.pathgrob.289.1">
                  <path id="GRID.pathgrob.289.1.1" d="M 212.82 360.03 L 217.3 353.85 L 212.8 347.68 L 220.07 350.03 L 224.56 343.84 L 224.57 351.47 L 231.84 353.82 L 224.58 356.2 L 224.59 363.83 L 220.09 357.67 Z" fill-rule="nonzero" stroke="none" stroke-opacity="0"/>
                </g>
                <g id="GRID.polyline.290.1">
                  <polyline id="GRID.polyline.290.1.1" points="212.82,360.03 217.3,353.85 212.8,347.68 220.07,350.03 224.56,343.84 224.57,351.47 231.84,353.82 224.58,356.2 224.59,363.83 220.09,357.67 212.82,360.03" fill="none" fill-opacity="0"/>
                </g>
              </g>
              <g id="GRID.picComplexPath.153.1" stroke="none" fill="rgb(255,255,255)" stroke-opacity="0" fill-opacity="1">
                <g id="GRID.pathgrob.291.1">
                  <path id="GRID.pathgrob.291.1.1" d="M 422.26 258.2 L 426.74 252.01 L 422.24 245.84 L 429.51 248.19 L 434 242 L 434.01 249.64 L 441.28 251.99 L 434.02 254.36 L 434.03 262 L 429.53 255.83 Z" fill-rule="nonzero" stroke="none" stroke-opacity="0"/>
                </g>
                <g id="GRID.polyline.292.1">
                  <polyline id="GRID.polyline.292.1.1" points="422.26,258.2 426.74,252.01 422.24,245.84 429.51,248.19 434,242 434.01,249.64 441.28,251.99 434.02,254.36 434.03,262 429.53,255.83 422.26,258.2" fill="none" fill-opacity="0"/>
                </g>
              </g>
              <g id="GRID.picComplexPath.156.1" stroke="none" fill="rgb(255,255,255)" stroke-opacity="0" fill-opacity="1">
                <g id="GRID.pathgrob.293.1">
                  <path id="GRID.pathgrob.293.1.1" d="M 395.38 239.07 L 399.86 232.89 L 395.36 226.72 L 402.63 229.07 L 407.12 222.88 L 407.13 230.51 L 414.4 232.86 L 407.14 235.24 L 407.15 242.87 L 402.65 236.71 Z" fill-rule="nonzero" stroke="none" stroke-opacity="0"/>
                </g>
                <g id="GRID.polyline.294.1">
                  <polyline id="GRID.polyline.294.1.1" points="395.38,239.07 399.86,232.89 395.36,226.72 402.63,229.07 407.12,222.88 407.13,230.51 414.4,232.86 407.14,235.24 407.15,242.87 402.65,236.71 395.38,239.07" fill="none" fill-opacity="0"/>
                </g>
              </g>
              <g id="GRID.picComplexPath.159.1" stroke="none" fill="rgb(255,255,255)" stroke-opacity="0" fill-opacity="1">
                <g id="GRID.pathgrob.295.1">
                  <path id="GRID.pathgrob.295.1.1" d="M 368.5 221.15 L 372.98 214.97 L 368.48 208.8 L 375.75 211.15 L 380.24 204.96 L 380.25 212.59 L 387.52 214.94 L 380.26 217.32 L 380.27 224.95 L 375.77 218.79 Z" fill-rule="nonzero" stroke="none" stroke-opacity="0"/>
                </g>
                <g id="GRID.polyline.296.1">
                  <polyline id="GRID.polyline.296.1.1" points="368.5,221.15 372.98,214.97 368.48,208.8 375.75,211.15 380.24,204.96 380.25,212.59 387.52,214.94 380.26,217.32 380.27,224.95 375.77,218.79 368.5,221.15" fill="none" fill-opacity="0"/>
                </g>
              </g>
              <g id="GRID.picComplexPath.162.1" stroke="none" fill="rgb(255,255,255)" stroke-opacity="0" fill-opacity="1">
                <g id="GRID.pathgrob.297.1">
                  <path id="GRID.pathgrob.297.1.1" d="M 341.62 203.23 L 346.1 197.05 L 341.6 190.88 L 348.87 193.23 L 353.36 187.04 L 353.37 194.67 L 360.64 197.02 L 353.38 199.4 L 353.39 207.03 L 348.89 200.87 Z" fill-rule="nonzero" stroke="none" stroke-opacity="0"/>
                </g>
                <g id="GRID.polyline.298.1">
                  <polyline id="GRID.polyline.298.1.1" points="341.62,203.23 346.1,197.05 341.6,190.88 348.87,193.23 353.36,187.04 353.37,194.67 360.64,197.02 353.38,199.4 353.39,207.03 348.89,200.87 341.62,203.23" fill="none" fill-opacity="0"/>
                </g>
              </g>
              <g id="GRID.picComplexPath.165.1" stroke="none" fill="rgb(255,255,255)" stroke-opacity="0" fill-opacity="1">
                <g id="GRID.pathgrob.299.1">
                  <path id="GRID.pathgrob.299.1.1" d="M 314.74 184.19 L 319.22 178.01 L 314.72 171.84 L 321.99 174.19 L 326.48 168 L 326.49 175.63 L 333.76 177.98 L 326.5 180.36 L 326.51 187.99 L 322.01 181.83 Z" fill-rule="nonzero" stroke="none" stroke-opacity="0"/>
                </g>
                <g id="GRID.polyline.300.1">
                  <polyline id="GRID.polyline.300.1.1" points="314.74,184.19 319.22,178.01 314.72,171.84 321.99,174.19 326.48,168 326.49,175.63 333.76,177.98 326.5,180.36 326.51,187.99 322.01,181.83 314.74,184.19" fill="none" fill-opacity="0"/>
                </g>
              </g>
              <g id="GRID.picComplexPath.168.1" stroke="none" fill="rgb(255,255,255)" stroke-opacity="0" fill-opacity="1">
                <g id="GRID.pathgrob.301.1">
                  <path id="GRID.pathgrob.301.1.1" d="M 287.86 166.27 L 292.34 160.09 L 287.84 153.92 L 295.11 156.27 L 299.6 150.08 L 299.61 157.71 L 306.88 160.06 L 299.62 162.44 L 299.63 170.07 L 295.13 163.91 Z" fill-rule="nonzero" stroke="none" stroke-opacity="0"/>
                </g>
                <g id="GRID.polyline.302.1">
                  <polyline id="GRID.polyline.302.1.1" points="287.86,166.27 292.34,160.09 287.84,153.92 295.11,156.27 299.6,150.08 299.61,157.71 306.88,160.06 299.62,162.44 299.63,170.07 295.13,163.91 287.86,166.27" fill="none" fill-opacity="0"/>
                </g>
              </g>
            </g>
          </g>
        </g>
      </g>
    </g>
  </g>
</svg>