<?xml version="1.0" encoding="UTF-8"?>
<svg xmlns="http://www.w3.org/2000/svg" xmlns:xlink="http://www.w3.org/1999/xlink" width="504px" height="504px" viewBox="0 0 504 504" version="1.1">
  <metadata xmlns:gridsvg="http://www.stat.auckland.ac.nz/~paul/R/gridSVG/">
    <gridsvg:generator name="gridSVG" version="1.3-0" time="2013-09-05 23:48:38"/>
    <gridsvg:argument name="name" value="grImport2-gridSVG/Colorado.svg"/>
    <gridsvg:argument name="exportCoords" value="none"/>
    <gridsvg:argument name="exportMappings" value="none"/>
    <gridsvg:argument name="exportJS" value="none"/>
    <gridsvg:argument name="res" value="72"/>
    <gridsvg:argument name="prefix" value=""/>
    <gridsvg:argument name="addClasses" value="FALSE"/>
    <gridsvg:argument name="indent" value="TRUE"/>
    <gridsvg:argument name="htmlWrapper" value="FALSE"/>
    <gridsvg:argument name="usePaths" value="vpPaths"/>
    <gridsvg:argument name="uniqueNames" value="TRUE"/>
    <gridsvg:separator name="id.sep" value="."/>
    <gridsvg:separator name="gPath.sep" value="::"/>
    <gridsvg:separator name="vpPath.sep" value="::"/>
  </metadata>
  <g transform="translate(0, 504) scale(1, -1)">
    <g id="gridSVG" fill="none" stroke="rgb(0,0,0)" stroke-dasharray="none" stroke-width="0.75" font-size="12" font-family="Helvetica, Arial, FreeSans, Liberation Sans, Nimbus Sans L, sans-serif" opacity="1" stroke-linecap="round" stroke-linejoin="round" stroke-miterlimit="10" stroke-opacity="1" fill-opacity="0" font-weight="normal" font-style="normal">
      <g id="picture.shape::picture.scale.1">
        <defs>
          <clipPath id="picture.shape::picture.scale.2.clipPath">
            <rect x="0" y="84" width="504" height="336" fill="none" stroke="none"/>
          </clipPath>
        </defs>
        <g id="picture.shape::picture.scale.2" clip-path="url(#picture.shape::picture.scale.2.clipPath)">
          <g id="import.1.GRID.gTree.20.1">
            <g id="GRID.gTree.19.1">
              <g id="GRID.rect.28.1">
                <rect id="GRID.rect.28.1.1" x="0" y="84" width="504" height="336" fill="rgb(0,40,104)" stroke="none" stroke-opacity="0" fill-opacity="1"/>
              </g>
              <g id="GRID.picComplexPath.10.1" stroke="none" fill="rgb(255,255,255)" stroke-opacity="0" fill-opacity="1">
                <g id="GRID.pathgrob.29.1">
                  <path id="GRID.pathgrob.29.1.1" d="M 0 308 L 504 308 L 504 196 L 0 196 Z" fill-rule="nonzero" stroke="none" stroke-opacity="0"/>
                </g>
                <g id="GRID.polyline.30.1">
                  <polyline id="GRID.polyline.30.1.1" points="0,308 504,308 504,196 0,196 0,308" fill="none" fill-opacity="0"/>
                </g>
              </g>
              <g id="GRID.picComplexPath.13.1" stroke="none" fill="rgb(191,10,48)" stroke-opacity="0" fill-opacity="1">
                <g id="GRID.pathgrob.31.1">
                  <path id="GRID.pathgrob.31.1.1" d="M 316.68 210 L 316.68 210 L 315.49 207.18 L 314.23 204.4 L 312.88 201.67 L 311.46 198.97 L 309.95 196.32 L 308.36 193.7 L 306.69 191.11 L 304.93 188.57 L 303.09 186.06 L 301.16 183.58 L 299.14 181.15 L 297.04 178.76 L 294.86 176.42 L 292.59 174.12 L 290.24 171.87 L 287.81 169.67 L 285.3 167.53 L 282.72 165.45 L 280.07 163.43 L 277.35 161.48 L 274.57 159.6 L 271.73 157.79 L 268.83 156.06 L 265.89 154.4 L 262.9 152.83 L 259.87 151.35 L 256.8 149.95 L 253.71 148.64 L 250.59 147.42 L 247.46 146.29 L 244.31 145.26 L 241.15 144.32 L 237.98 143.48 L 234.81 142.73 L 231.65 142.08 L 228.49 141.52 L 225.34 141.06 L 222.2 140.69 L 219.08 140.41 L 215.97 140.23 L 212.87 140.14 L 209.79 140.14 L 206.73 140.24 L 203.68 140.42 L 200.64 140.69 L 197.62 141.05 L 194.6 141.5 L 191.59 142.04 L 191.46 142.06 L 191.46 142.06 L 188.46 142.69 L 185.5 143.4 L 182.56 144.2 L 179.64 145.08 L 176.74 146.05 L 173.87 147.11 L 171.01 148.26 L 168.18 149.5 L 165.36 150.83 L 162.56 152.25 L 159.79 153.77 L 157.04 155.37 L 154.32 157.07 L 151.63 158.86 L 148.98 160.74 L 146.36 162.7 L 143.78 164.75 L 141.24 166.89 L 138.76 169.11 L 136.32 171.4 L 133.94 173.77 L 131.62 176.22 L 129.37 178.73 L 127.19 181.3 L 125.07 183.94 L 123.03 186.63 L 121.08 189.37 L 119.2 192.15 L 117.41 194.98 L 115.7 197.84 L 114.09 200.74 L 112.56 203.66 L 111.13 206.61 L 109.79 209.57 L 108.54 212.55 L 107.39 215.55 L 106.34 218.55 L 105.38 221.56 L 104.51 224.58 L 103.74 227.59 L 103.06 230.62 L 102.47 233.64 L 101.98 236.66 L 101.58 239.69 L 101.26 242.72 L 101.04 245.76 L 100.9 248.81 L 100.85 251.87 L 100.85 252 L 100.85 252 L 100.9 255.06 L 101.03 258.11 L 101.25 261.15 L 101.56 264.18 L 101.96 267.21 L 102.45 270.23 L 103.03 273.25 L 103.71 276.28 L 104.47 279.29 L 105.34 282.31 L 106.29 285.32 L 107.35 288.32 L 108.49 291.32 L 109.73 294.3 L 111.07 297.27 L 112.5 300.21 L 114.02 303.14 L 115.63 306.03 L 117.33 308.9 L 119.12 311.73 L 120.99 314.52 L 122.95 317.26 L 124.98 319.95 L 127.09 322.59 L 129.27 325.16 L 131.53 327.68 L 133.84 330.12 L 136.22 332.5 L 138.65 334.8 L 141.13 337.02 L 143.67 339.16 L 146.25 341.21 L 148.86 343.18 L 151.52 345.06 L 154.21 346.85 L 156.93 348.56 L 159.67 350.17 L 162.44 351.68 L 165.24 353.11 L 168.05 354.44 L 170.89 355.69 L 173.74 356.84 L 176.62 357.9 L 179.51 358.88 L 182.43 359.76 L 185.37 360.57 L 188.33 361.28 L 191.33 361.91 L 191.46 361.94 L 191.46 361.94 L 194.47 362.48 L 197.49 362.93 L 200.51 363.3 L 203.55 363.57 L 206.6 363.76 L 209.66 363.85 L 212.74 363.86 L 215.83 363.77 L 218.94 363.6 L 222.07 363.33 L 225.2 362.96 L 228.35 362.5 L 231.51 361.95 L 234.68 361.3 L 237.84 360.56 L 241.01 359.72 L 244.17 358.78 L 247.32 357.76 L 250.46 356.63 L 253.58 355.42 L 256.67 354.11 L 259.73 352.72 L 262.77 351.23 L 265.76 349.67 L 268.7 348.02 L 271.6 346.29 L 274.44 344.48 L 277.23 342.6 L 279.95 340.65 L 282.61 338.64 L 285.19 336.56 L 287.7 334.42 L 290.13 332.23 L 292.49 329.98 L 294.76 327.69 L 296.95 325.34 L 299.05 322.95 L 301.07 320.52 L 303.01 318.05 L 304.85 315.54 L 306.62 313 L 308.29 310.42 L 309.89 307.8 L 311.39 305.14 L 312.82 302.45 L 314.17 299.72 L 315.44 296.94 L 316.63 294.12 L 316.68 294 L 212.8 252 Z" fill-rule="nonzero" stroke="none" stroke-opacity="0"/>
                </g>
                <g id="GRID.polyline.32.1">
                  <polyline id="GRID.polyline.32.1.1" points="316.68,210 316.68,210 315.49,207.18 314.23,204.4 312.88,201.67 311.46,198.97 309.95,196.32 308.36,193.7 306.69,191.11 304.93,188.57 303.09,186.06 301.16,183.58 299.14,181.15 297.04,178.76 294.86,176.42 292.59,174.12 290.24,171.87 287.81,169.67 285.3,167.53 282.72,165.45 280.07,163.43 277.35,161.48 274.57,159.6 271.73,157.79 268.83,156.06 265.89,154.4 262.9,152.83 259.87,151.35 256.8,149.95 253.71,148.64 250.59,147.42 247.46,146.29 244.31,145.26 241.15,144.32 237.98,143.48 234.81,142.73 231.65,142.08 228.49,141.52 225.34,141.06 222.2,140.69 219.08,140.41 215.97,140.23 212.87,140.14 209.79,140.14 206.73,140.24 203.68,140.42 200.64,140.69 197.62,141.05 194.6,141.5 191.59,142.04 191.46,142.06 191.46,142.06 188.46,142.69 185.5,143.4 182.56,144.2 179.64,145.08 176.74,146.05 173.87,147.11 171.01,148.26 168.18,149.5 165.36,150.83 162.56,152.25 159.79,153.77 157.04,155.37 154.32,157.07 151.63,158.86 148.98,160.74 146.36,162.7 143.78,164.75 141.24,166.89 138.76,169.11 136.32,171.4 133.94,173.77 131.62,176.22 129.37,178.73 127.19,181.3 125.07,183.94 123.03,186.63 121.08,189.37 119.2,192.15 117.41,194.98 115.7,197.84 114.09,200.74 112.56,203.66 111.13,206.61 109.79,209.57 108.54,212.55 107.39,215.55 106.34,218.55 105.38,221.56 104.51,224.58 103.74,227.59 103.06,230.62 102.47,233.64 101.98,236.66 101.58,239.69 101.26,242.72 101.04,245.76 100.9,248.81 100.85,251.87 100.85,252 100.85,252 100.9,255.06 101.03,258.11 101.25,261.15 101.56,264.18 101.96,267.21 102.45,270.23 103.03,273.25 103.71,276.28 104.47,279.29 105.34,282.31 106.29,285.32 107.35,288.32 108.49,291.32 109.73,294.3 111.07,297.27 112.5,300.21 114.02,303.14 115.63,306.03 117.33,308.9 119.12,311.73 120.99,314.52 122.95,317.26 124.98,319.95 127.09,322.59 129.27,325.16 131.53,327.68 133.84,330.12 136.22,332.5 138.65,334.8 141.13,337.02 143.67,339.16 146.25,341.21 148.86,343.18 151.52,345.06 154.21,346.85 156.93,348.56 159.67,350.17 162.44,351.68 165.24,353.11 168.05,354.44 170.89,355.69 173.74,356.84 176.62,357.9 179.51,358.88 182.43,359.76 185.37,360.57 188.33,361.28 191.33,361.91 191.46,361.94 191.46,361.94 194.47,362.48 197.49,362.93 200.51,363.3 203.55,363.57 206.6,363.76 209.66,363.85 212.74,363.86 215.83,363.77 218.94,363.6 222.07,363.33 225.2,362.96 228.35,362.5 231.51,361.95 234.68,361.3 237.84,360.56 241.01,359.72 244.17,358.78 247.32,357.76 250.46,356.63 253.58,355.42 256.67,354.11 259.73,352.72 262.77,351.23 265.76,349.67 268.7,348.02 271.6,346.29 274.44,344.48 277.23,342.6 279.95,340.65 282.61,338.64 285.19,336.56 287.7,334.42 290.13,332.23 292.49,329.98 294.76,327.69 296.95,325.34 299.05,322.95 301.07,320.52 303.01,318.05 304.85,315.54 306.62,313 308.29,310.42 309.89,307.8 311.39,305.14 312.82,302.45 314.17,299.72 315.44,296.94 316.63,294.12 316.68,294 212.8,252" fill="none" fill-opacity="0"/>
                </g>
              </g>
              <g id="GRID.picComplexPath.16.1" stroke="none" fill="rgb(255,215,0)" stroke-opacity="0" fill-opacity="1">
                <g id="GRID.pathgrob.33.1">
                  <path id="GRID.pathgrob.33.1.1" d="M 268.8 252 L 268.8 252 L 268.75 249.67 L 268.6 247.36 L 268.34 245.06 L 267.99 242.78 L 267.53 240.5 L 266.97 238.24 L 266.3 235.99 L 265.53 233.75 L 264.65 231.53 L 263.67 229.33 L 262.58 227.16 L 261.39 225.01 L 260.1 222.9 L 258.72 220.84 L 257.24 218.82 L 255.67 216.86 L 254.01 214.95 L 252.27 213.12 L 250.46 211.36 L 248.58 209.67 L 246.63 208.07 L 244.63 206.56 L 242.58 205.14 L 240.49 203.82 L 238.35 202.6 L 236.19 201.48 L 234 200.46 L 231.78 199.55 L 229.55 198.74 L 227.3 198.04 L 225.04 197.45 L 222.77 196.95 L 220.49 196.56 L 218.2 196.27 L 215.89 196.09 L 213.57 196.01 L 212.8 196 L 212.8 196 L 210.47 196.05 L 208.16 196.2 L 205.86 196.46 L 203.58 196.81 L 201.3 197.27 L 199.04 197.83 L 196.79 198.5 L 194.55 199.27 L 192.33 200.15 L 190.13 201.13 L 187.96 202.22 L 185.81 203.41 L 183.7 204.7 L 181.64 206.08 L 179.62 207.56 L 177.66 209.13 L 175.75 210.79 L 173.92 212.53 L 172.16 214.34 L 170.47 216.22 L 168.87 218.17 L 167.36 220.17 L 165.94 222.22 L 164.62 224.31 L 163.4 226.45 L 162.28 228.61 L 161.26 230.8 L 160.35 233.02 L 159.54 235.25 L 158.84 237.5 L 158.25 239.76 L 157.75 242.03 L 157.36 244.31 L 157.07 246.6 L 156.89 248.91 L 156.81 251.23 L 156.8 252 L 156.8 252 L 156.85 254.33 L 157 256.64 L 157.26 258.94 L 157.61 261.22 L 158.07 263.5 L 158.63 265.76 L 159.3 268.01 L 160.07 270.25 L 160.95 272.47 L 161.93 274.67 L 163.02 276.84 L 164.21 278.99 L 165.5 281.1 L 166.88 283.16 L 168.36 285.18 L 169.93 287.14 L 171.59 289.05 L 173.33 290.88 L 175.14 292.64 L 177.02 294.33 L 178.97 295.93 L 180.97 297.44 L 183.02 298.86 L 185.11 300.18 L 187.25 301.4 L 189.41 302.52 L 191.6 303.54 L 193.82 304.45 L 196.05 305.26 L 198.3 305.96 L 200.56 306.55 L 202.83 307.05 L 205.11 307.44 L 207.4 307.73 L 209.71 307.91 L 212.03 307.99 L 212.8 308 L 212.8 308 L 215.13 307.95 L 217.44 307.8 L 219.74 307.54 L 222.02 307.19 L 224.3 306.73 L 226.56 306.17 L 228.81 305.5 L 231.05 304.73 L 233.27 303.85 L 235.47 302.87 L 237.64 301.78 L 239.79 300.59 L 241.9 299.3 L 243.96 297.92 L 245.98 296.44 L 247.94 294.87 L 249.85 293.21 L 251.68 291.47 L 253.44 289.66 L 255.13 287.78 L 256.73 285.83 L 258.24 283.83 L 259.66 281.78 L 260.98 279.69 L 262.2 277.55 L 263.32 275.39 L 264.34 273.2 L 265.25 270.98 L 266.06 268.75 L 266.76 266.5 L 267.35 264.24 L 267.85 261.97 L 268.24 259.69 L 268.53 257.4 L 268.71 255.09 L 268.79 252.77 L 268.8 252 Z" fill-rule="nonzero" stroke="none" stroke-opacity="0"/>
                </g>
                <g id="GRID.polyline.34.1">
                  <polyline id="GRID.polyline.34.1.1" points="268.8,252 268.8,252 268.75,249.67 268.6,247.36 268.34,245.06 267.99,242.78 267.53,240.5 266.97,238.24 266.3,235.99 265.53,233.75 264.65,231.53 263.67,229.33 262.58,227.16 261.39,225.01 260.1,222.9 258.72,220.84 257.24,218.82 255.67,216.86 254.01,214.95 252.27,213.12 250.46,211.36 248.58,209.67 246.63,208.07 244.63,206.56 242.58,205.14 240.49,203.82 238.35,202.6 236.19,201.48 234,200.46 231.78,199.55 229.55,198.74 227.3,198.04 225.04,197.45 222.77,196.95 220.49,196.56 218.2,196.27 215.89,196.09 213.57,196.01 212.8,196 212.8,196 210.47,196.05 208.16,196.2 205.86,196.46 203.58,196.81 201.3,197.27 199.04,197.83 196.79,198.5 194.55,199.27 192.33,200.15 190.13,201.13 187.96,202.22 185.81,203.41 183.7,204.7 181.64,206.08 179.62,207.56 177.66,209.13 175.75,210.79 173.92,212.53 172.16,214.34 170.47,216.22 168.87,218.17 167.36,220.17 165.94,222.22 164.62,224.31 163.4,226.45 162.28,228.61 161.26,230.8 160.35,233.02 159.54,235.25 158.84,237.5 158.25,239.76 157.75,242.03 157.36,244.31 157.07,246.6 156.89,248.91 156.81,251.23 156.8,252 156.8,252 156.85,254.33 157,256.64 157.26,258.94 157.61,261.22 158.07,263.5 158.63,265.76 159.3,268.01 160.07,270.25 160.95,272.47 161.93,274.67 163.02,276.84 164.21,278.99 165.5,281.1 166.88,283.16 168.36,285.18 169.93,287.14 171.59,289.05 173.33,290.88 175.14,292.64 177.02,294.33 178.97,295.93 180.97,297.44 183.02,298.86 185.11,300.18 187.25,301.4 189.41,302.52 191.6,303.54 193.82,304.45 196.05,305.26 198.3,305.96 200.56,306.55 202.83,307.05 205.11,307.44 207.4,307.73 209.71,307.91 212.03,307.99 212.8,308 212.8,308 215.13,307.95 217.44,307.8 219.74,307.54 222.02,307.19 224.3,306.73 226.56,306.17 228.81,305.5 231.05,304.73 233.27,303.85 235.47,302.87 237.64,301.78 239.79,300.59 241.9,299.3 243.96,297.92 245.98,296.44 247.94,294.87 249.85,293.21 251.68,291.47 253.44,289.66 255.13,287.78 256.73,285.83 258.24,283.83 259.66,281.78 260.98,279.69 262.2,277.55 263.32,275.39 264.34,273.2 265.25,270.98 266.06,268.75 266.76,266.5 267.35,264.24 267.85,261.97 268.24,259.69 268.53,257.4 268.71,255.09 268.79,252.77 268.8,252 268.8,252" fill="none" fill-opacity="0"/>
                </g>
              </g>
            </g>
          </g>
        </g>
      </g>
    </g>
  </g>
</svg>