<?xml version="1.0" encoding="UTF-8"?>
<svg xmlns="http://www.w3.org/2000/svg" xmlns:xlink="http://www.w3.org/1999/xlink" width="504px" height="504px" viewBox="0 0 504 504" version="1.1">
  <metadata xmlns:gridsvg="http://www.stat.auckland.ac.nz/~paul/R/gridSVG/">
    <gridsvg:generator name="gridSVG" version="1.3-0" time="2013-09-05 23:49:43"/>
    <gridsvg:argument name="name" value="grImport2-gridSVG/Georgia.svg"/>
    <gridsvg:argument name="exportCoords" value="none"/>
    <gridsvg:argument name="exportMappings" value="none"/>
    <gridsvg:argument name="exportJS" value="none"/>
    <gridsvg:argument name="res" value="72"/>
    <gridsvg:argument name="prefix" value=""/>
    <gridsvg:argument name="addClasses" value="FALSE"/>
    <gridsvg:argument name="indent" value="TRUE"/>
    <gridsvg:argument name="htmlWrapper" value="FALSE"/>
    <gridsvg:argument name="usePaths" value="vpPaths"/>
    <gridsvg:argument name="uniqueNames" value="TRUE"/>
    <gridsvg:separator name="id.sep" value="."/>
    <gridsvg:separator name="gPath.sep" value="::"/>
    <gridsvg:separator name="vpPath.sep" value="::"/>
  </metadata>
  <g transform="translate(0, 504) scale(1, -1)">
    <g id="gridSVG" fill="none" stroke="rgb(0,0,0)" stroke-dasharray="none" stroke-width="0.75" font-size="12" font-family="Helvetica, Arial, FreeSans, Liberation Sans, Nimbus Sans L, sans-serif" opacity="1" stroke-linecap="round" stroke-linejoin="round" stroke-miterlimit="10" stroke-opacity="1" fill-opacity="0" font-weight="normal" font-style="normal">
      <defs>
        <clipPath id="import.1.clip1.1">
          <path id="import.1.clip1::GRID.gTree.68.1::GRID.picComplexPath.65.1::GRID.pathgrob.69.1.1" d="M 15.68 420 L 201.04 420 L 201.04 229.04 L 15.68 229.04 Z" fill-rule="nonzero" stroke="none" stroke-opacity="0"/>
          <polyline id="import.1.clip1::GRID.gTree.68.1::GRID.picComplexPath.65.1::GRID.polyline.70.1.1" points="15.68,420 201.04,420 201.04,229.04 15.68,229.04 15.68,420" fill="none" fill-opacity="0"/>
        </clipPath>
        <clipPath id="import.1.clip2.1">
          <path id="import.1.clip2::GRID.gTree.74.1::GRID.picComplexPath.71.1::GRID.pathgrob.75.1.1" d="M -74.84 179 L -74.84 179 L -68.95 179.11 L -63.1 179.42 L -57.28 179.94 L -51.49 180.66 L -45.73 181.6 L -39.98 182.75 L -34.26 184.1 L -28.56 185.68 L -22.89 187.46 L -17.24 189.47 L -11.64 191.68 L -6.07 194.11 L -0.55 196.76 L 4.91 199.61 L 10.3 202.67 L 15.62 205.94 L 20.86 209.41 L 26 213.07 L 31.03 216.92 L 35.95 220.95 L 40.74 225.15 L 45.4 229.52 L 49.9 234.05 L 54.25 238.72 L 58.44 243.53 L 62.44 248.46 L 66.27 253.51 L 69.91 258.66 L 73.35 263.9 L 76.59 269.23 L 79.63 274.64 L 82.46 280.11 L 85.08 285.63 L 87.48 291.2 L 89.67 296.81 L 91.65 302.46 L 93.41 308.14 L 94.95 313.84 L 96.29 319.56 L 97.41 325.31 L 98.32 331.08 L 99.02 336.87 L 99.51 342.7 L 99.8 348.55 L 99.88 353.72 L 99.88 353.72 L 99.77 359.61 L 99.46 365.46 L 98.94 371.28 L 98.22 377.07 L 97.28 382.84 L 96.13 388.59 L 94.78 394.31 L 93.2 400.01 L 91.42 405.68 L 89.41 411.32 L 87.2 416.93 L 84.77 422.5 L 82.12 428.01 L 79.27 433.47 L 76.21 438.87 L 72.94 444.19 L 69.47 449.42 L 65.81 454.56 L 61.96 459.6 L 57.93 464.52 L 53.73 469.31 L 49.36 473.96 L 44.83 478.47 L 40.16 482.82 L 35.35 487 L 30.42 491.01 L 25.37 494.84 L 20.22 498.48 L 14.98 501.92 L 9.65 505.16 L 4.24 508.2 L -1.23 511.03 L -6.75 513.64 L -12.32 516.05 L -17.93 518.24 L -23.58 520.21 L -29.26 521.97 L -34.96 523.52 L -40.68 524.85 L -46.43 525.97 L -52.2 526.88 L -57.99 527.59 L -63.82 528.08 L -69.67 528.36 L -74.84 528.44 L 291.4 528.44 L 291.4 528.44 L 285.51 528.34 L 279.66 528.03 L 273.84 527.51 L 268.05 526.78 L 262.28 525.85 L 256.53 524.7 L 250.81 523.34 L 245.11 521.77 L 239.44 519.98 L 233.8 517.98 L 228.19 515.76 L 222.62 513.33 L 217.11 510.69 L 211.65 507.84 L 206.25 504.77 L 200.93 501.51 L 195.7 498.04 L 190.56 494.38 L 185.52 490.53 L 180.6 486.5 L 175.81 482.29 L 171.16 477.92 L 166.65 473.4 L 162.3 468.73 L 158.12 463.92 L 154.11 458.99 L 150.28 453.94 L 146.64 448.79 L 143.2 443.54 L 139.96 438.21 L 136.92 432.81 L 134.09 427.34 L 131.48 421.82 L 129.07 416.25 L 126.88 410.63 L 124.91 404.99 L 123.15 399.31 L 121.6 393.61 L 120.27 387.88 L 119.15 382.14 L 118.24 376.37 L 117.53 370.57 L 117.04 364.75 L 116.76 358.89 L 116.68 353.72 L 116.68 353.72 L 116.78 347.83 L 117.09 341.98 L 117.61 336.16 L 118.34 330.37 L 119.27 324.61 L 120.42 318.86 L 121.78 313.14 L 123.35 307.44 L 125.14 301.77 L 127.14 296.12 L 129.36 290.52 L 131.79 284.95 L 134.43 279.43 L 137.28 273.97 L 140.35 268.58 L 143.61 263.26 L 147.08 258.02 L 150.74 252.88 L 154.59 247.85 L 158.62 242.93 L 162.83 238.14 L 167.2 233.48 L 171.72 228.98 L 176.39 224.63 L 181.2 220.44 L 186.13 216.44 L 191.18 212.61 L 196.33 208.97 L 201.58 205.53 L 206.91 202.29 L 212.31 199.25 L 217.78 196.42 L 223.3 193.8 L 228.87 191.4 L 234.49 189.21 L 240.13 187.23 L 245.81 185.47 L 251.51 183.93 L 257.24 182.59 L 262.98 181.47 L 268.75 180.56 L 274.55 179.86 L 280.37 179.37 L 286.23 179.08 L 291.4 179 Z" fill-rule="nonzero" stroke="none" stroke-opacity="0"/>
          <polyline id="import.1.clip2::GRID.gTree.74.1::GRID.picComplexPath.71.1::GRID.polyline.76.1.1" points="-74.84,179 -74.84,179 -68.95,179.11 -63.1,179.42 -57.28,179.94 -51.49,180.66 -45.73,181.6 -39.98,182.75 -34.26,184.1 -28.56,185.68 -22.89,187.46 -17.24,189.47 -11.64,191.68 -6.07,194.11 -0.55,196.76 4.91,199.61 10.3,202.67 15.62,205.94 20.86,209.41 26,213.07 31.03,216.92 35.95,220.95 40.74,225.15 45.4,229.52 49.9,234.05 54.25,238.72 58.44,243.53 62.44,248.46 66.27,253.51 69.91,258.66 73.35,263.9 76.59,269.23 79.63,274.64 82.46,280.11 85.08,285.63 87.48,291.2 89.67,296.81 91.65,302.46 93.41,308.14 94.95,313.84 96.29,319.56 97.41,325.31 98.32,331.08 99.02,336.87 99.51,342.7 99.8,348.55 99.88,353.72 99.88,353.72 99.77,359.61 99.46,365.46 98.94,371.28 98.22,377.07 97.28,382.84 96.13,388.59 94.78,394.31 93.2,400.01 91.42,405.68 89.41,411.32 87.2,416.93 84.77,422.5 82.12,428.01 79.27,433.47 76.21,438.87 72.94,444.19 69.47,449.42 65.81,454.56 61.96,459.6 57.93,464.52 53.73,469.31 49.36,473.96 44.83,478.47 40.16,482.82 35.35,487 30.42,491.01 25.37,494.84 20.22,498.48 14.98,501.92 9.65,505.16 4.24,508.2 -1.23,511.03 -6.75,513.64 -12.32,516.05 -17.93,518.24 -23.58,520.21 -29.26,521.97 -34.96,523.52 -40.68,524.85 -46.43,525.97 -52.2,526.88 -57.99,527.59 -63.82,528.08 -69.67,528.36 -74.84,528.44 291.4,528.44 291.4,528.44 285.51,528.34 279.66,528.03 273.84,527.51 268.05,526.78 262.28,525.85 256.53,524.7 250.81,523.34 245.11,521.77 239.44,519.98 233.8,517.98 228.19,515.76 222.62,513.33 217.11,510.69 211.65,507.84 206.25,504.77 200.93,501.51 195.7,498.04 190.56,494.38 185.52,490.53 180.6,486.5 175.81,482.29 171.16,477.92 166.65,473.4 162.3,468.73 158.12,463.92 154.11,458.99 150.28,453.94 146.64,448.79 143.2,443.54 139.96,438.21 136.92,432.81 134.09,427.34 131.48,421.82 129.07,416.25 126.88,410.63 124.91,404.99 123.15,399.31 121.6,393.61 120.27,387.88 119.15,382.14 118.24,376.37 117.53,370.57 117.04,364.75 116.76,358.89 116.68,353.72 116.68,353.72 116.78,347.83 117.09,341.98 117.61,336.16 118.34,330.37 119.27,324.61 120.42,318.86 121.78,313.14 123.35,307.44 125.14,301.77 127.14,296.12 129.36,290.52 131.79,284.95 134.43,279.43 137.28,273.97 140.35,268.58 143.61,263.26 147.08,258.02 150.74,252.88 154.59,247.85 158.62,242.93 162.83,238.14 167.2,233.48 171.72,228.98 176.39,224.63 181.2,220.44 186.13,216.44 191.18,212.61 196.33,208.97 201.58,205.53 206.91,202.29 212.31,199.25 217.78,196.42 223.3,193.8 228.87,191.4 234.49,189.21 240.13,187.23 245.81,185.47 251.51,183.93 257.24,182.59 262.98,181.47 268.75,180.56 274.55,179.86 280.37,179.37 286.23,179.08 291.4,179 -74.84,179" fill="none" fill-opacity="0"/>
        </clipPath>
        <clipPath id="import.1.clip3.1">
          <path id="import.1.clip3::GRID.gTree.80.1::GRID.picComplexPath.77.1::GRID.pathgrob.81.1.1" d="M 0 420 L 232.96 420 L 232.96 260.96 L 0 260.96 Z" fill-rule="nonzero" stroke="none" stroke-opacity="0"/>
          <polyline id="import.1.clip3::GRID.gTree.80.1::GRID.picComplexPath.77.1::GRID.polyline.82.1.1" points="0,420 232.96,420 232.96,260.96 0,260.96 0,420" fill="none" fill-opacity="0"/>
        </clipPath>
        <clipPath id="import.1.clip4.1">
          <path id="import.1.clip4::GRID.gTree.86.1::GRID.picComplexPath.83.1::GRID.pathgrob.87.1.1" d="M -66.44 536.84 L -66.44 536.84 L -66.34 530.95 L -66.03 525.1 L -65.51 519.28 L -64.78 513.49 L -63.85 507.73 L -62.7 501.98 L -61.34 496.26 L -59.77 490.56 L -57.98 484.89 L -55.98 479.24 L -53.76 473.64 L -51.33 468.07 L -48.69 462.55 L -45.84 457.09 L -42.77 451.7 L -39.51 446.38 L -36.04 441.14 L -32.38 436 L -28.53 430.97 L -24.5 426.05 L -20.29 421.26 L -15.92 416.6 L -11.4 412.1 L -6.73 407.75 L -1.92 403.56 L 3.01 399.56 L 8.06 395.73 L 13.21 392.09 L 18.46 388.65 L 23.79 385.41 L 29.19 382.37 L 34.66 379.54 L 40.18 376.92 L 45.75 374.52 L 51.37 372.33 L 57.01 370.35 L 62.69 368.59 L 68.39 367.05 L 74.12 365.71 L 79.86 364.59 L 85.63 363.68 L 91.43 362.98 L 97.25 362.49 L 103.11 362.2 L 108.28 362.12 L 108.28 362.12 L 114.17 362.23 L 120.02 362.54 L 125.84 363.06 L 131.63 363.78 L 137.39 364.72 L 143.14 365.87 L 148.86 367.22 L 154.56 368.8 L 160.23 370.58 L 165.88 372.59 L 171.48 374.8 L 177.05 377.23 L 182.57 379.88 L 188.03 382.73 L 193.42 385.79 L 198.74 389.06 L 203.98 392.53 L 209.12 396.19 L 214.15 400.04 L 219.07 404.07 L 223.86 408.27 L 228.52 412.64 L 233.02 417.17 L 237.37 421.84 L 241.56 426.65 L 245.56 431.58 L 249.39 436.63 L 253.03 441.78 L 256.47 447.02 L 259.71 452.35 L 262.75 457.76 L 265.58 463.23 L 268.2 468.75 L 270.6 474.32 L 272.79 479.93 L 274.77 485.58 L 276.53 491.26 L 278.07 496.96 L 279.41 502.68 L 280.53 508.43 L 281.44 514.2 L 282.14 519.99 L 282.63 525.82 L 282.92 531.67 L 283 536.84 L 283 170.6 L 283 170.6 L 282.89 176.49 L 282.58 182.34 L 282.06 188.16 L 281.34 193.95 L 280.4 199.72 L 279.25 205.47 L 277.9 211.19 L 276.32 216.89 L 274.54 222.56 L 272.53 228.2 L 270.32 233.81 L 267.89 239.38 L 265.24 244.89 L 262.39 250.35 L 259.33 255.75 L 256.06 261.07 L 252.59 266.3 L 248.93 271.44 L 245.08 276.48 L 241.05 281.4 L 236.85 286.19 L 232.48 290.84 L 227.95 295.35 L 223.28 299.7 L 218.47 303.88 L 213.54 307.89 L 208.49 311.72 L 203.34 315.36 L 198.1 318.8 L 192.77 322.04 L 187.36 325.08 L 181.89 327.91 L 176.37 330.52 L 170.8 332.93 L 165.19 335.12 L 159.54 337.09 L 153.86 338.85 L 148.16 340.4 L 142.44 341.73 L 136.69 342.85 L 130.92 343.76 L 125.13 344.47 L 119.3 344.96 L 113.45 345.24 L 108.28 345.32 L 108.28 345.32 L 102.39 345.22 L 96.54 344.91 L 90.72 344.39 L 84.93 343.66 L 79.16 342.73 L 73.41 341.58 L 67.69 340.22 L 61.99 338.65 L 56.32 336.86 L 50.68 334.86 L 45.07 332.64 L 39.5 330.21 L 33.99 327.57 L 28.53 324.72 L 23.13 321.65 L 17.81 318.39 L 12.58 314.92 L 7.44 311.26 L 2.4 307.41 L -2.52 303.38 L -7.31 299.17 L -11.96 294.8 L -16.47 290.28 L -20.82 285.61 L -25 280.8 L -29.01 275.87 L -32.84 270.82 L -36.48 265.67 L -39.92 260.42 L -43.16 255.09 L -46.2 249.69 L -49.03 244.22 L -51.64 238.7 L -54.05 233.13 L -56.24 227.51 L -58.21 221.87 L -59.97 216.19 L -61.52 210.49 L -62.85 204.76 L -63.97 199.02 L -64.88 193.25 L -65.59 187.45 L -66.08 181.63 L -66.36 175.77 L -66.44 170.6 Z" fill-rule="nonzero" stroke="none" stroke-opacity="0"/>
          <polyline id="import.1.clip4::GRID.gTree.86.1::GRID.picComplexPath.83.1::GRID.polyline.88.1.1" points="-66.44,536.84 -66.44,536.84 -66.34,530.95 -66.03,525.1 -65.51,519.28 -64.78,513.49 -63.85,507.73 -62.7,501.98 -61.34,496.26 -59.77,490.56 -57.98,484.89 -55.98,479.24 -53.76,473.64 -51.33,468.07 -48.69,462.55 -45.84,457.09 -42.77,451.7 -39.51,446.38 -36.04,441.14 -32.38,436 -28.53,430.97 -24.5,426.05 -20.29,421.26 -15.92,416.6 -11.4,412.1 -6.73,407.75 -1.92,403.56 3.01,399.56 8.06,395.73 13.21,392.09 18.46,388.65 23.79,385.41 29.19,382.37 34.66,379.54 40.18,376.92 45.75,374.52 51.37,372.33 57.01,370.35 62.69,368.59 68.39,367.05 74.12,365.71 79.86,364.59 85.63,363.68 91.43,362.98 97.25,362.49 103.11,362.2 108.28,362.12 108.28,362.12 114.17,362.23 120.02,362.54 125.84,363.06 131.63,363.78 137.39,364.72 143.14,365.87 148.86,367.22 154.56,368.8 160.23,370.58 165.88,372.59 171.48,374.8 177.05,377.23 182.57,379.88 188.03,382.73 193.42,385.79 198.74,389.06 203.98,392.53 209.12,396.19 214.15,400.04 219.07,404.07 223.86,408.27 228.52,412.64 233.02,417.17 237.37,421.84 241.56,426.65 245.56,431.58 249.39,436.63 253.03,441.78 256.47,447.02 259.71,452.35 262.75,457.76 265.58,463.23 268.2,468.75 270.6,474.32 272.79,479.93 274.77,485.58 276.53,491.26 278.07,496.96 279.41,502.68 280.53,508.43 281.44,514.2 282.14,519.99 282.63,525.82 282.92,531.67 283,536.84 283,170.6 283,170.6 282.89,176.49 282.58,182.34 282.06,188.16 281.34,193.95 280.4,199.72 279.25,205.47 277.9,211.19 276.32,216.89 274.54,222.56 272.53,228.2 270.32,233.81 267.89,239.38 265.24,244.89 262.39,250.35 259.33,255.75 256.06,261.07 252.59,266.3 248.93,271.44 245.08,276.48 241.05,281.4 236.85,286.19 232.48,290.84 227.95,295.35 223.28,299.7 218.47,303.88 213.54,307.89 208.49,311.72 203.34,315.36 198.1,318.8 192.77,322.04 187.36,325.08 181.89,327.91 176.37,330.52 170.8,332.93 165.19,335.12 159.54,337.09 153.86,338.85 148.16,340.4 142.44,341.73 136.69,342.85 130.92,343.76 125.13,344.47 119.3,344.96 113.45,345.24 108.28,345.32 108.28,345.32 102.39,345.22 96.54,344.91 90.72,344.39 84.93,343.66 79.16,342.73 73.41,341.58 67.69,340.22 61.99,338.65 56.32,336.86 50.68,334.86 45.07,332.64 39.5,330.21 33.99,327.57 28.53,324.72 23.13,321.65 17.81,318.39 12.58,314.92 7.44,311.26 2.4,307.41 -2.52,303.38 -7.31,299.17 -11.96,294.8 -16.47,290.28 -20.82,285.61 -25,280.8 -29.01,275.87 -32.84,270.82 -36.48,265.67 -39.92,260.42 -43.16,255.09 -46.2,249.69 -49.03,244.22 -51.64,238.7 -54.05,233.13 -56.24,227.51 -58.21,221.87 -59.97,216.19 -61.52,210.49 -62.85,204.76 -63.97,199.02 -64.88,193.25 -65.59,187.45 -66.08,181.63 -66.36,175.77 -66.44,170.6 -66.44,536.84" fill="none" fill-opacity="0"/>
        </clipPath>
        <clipPath id="import.1.clip5.1">
          <path id="import.1.clip5::GRID.gTree.92.1::GRID.picComplexPath.89.1::GRID.pathgrob.93.1.1" d="M 302.96 274.96 L 488.32 274.96 L 488.32 84 L 302.96 84 Z" fill-rule="nonzero" stroke="none" stroke-opacity="0"/>
          <polyline id="import.1.clip5::GRID.gTree.92.1::GRID.picComplexPath.89.1::GRID.polyline.94.1.1" points="302.96,274.96 488.32,274.96 488.32,84 302.96,84 302.96,274.96" fill="none" fill-opacity="0"/>
        </clipPath>
        <clipPath id="import.1.clip6.1">
          <path id="import.1.clip6::GRID.gTree.98.1::GRID.picComplexPath.95.1::GRID.pathgrob.99.1.1" d="M 212.6 -24.44 L 212.6 -24.44 L 218.49 -24.34 L 224.34 -24.03 L 230.16 -23.51 L 235.95 -22.78 L 241.72 -21.85 L 247.47 -20.7 L 253.19 -19.34 L 258.89 -17.77 L 264.56 -15.98 L 270.2 -13.98 L 275.81 -11.76 L 281.38 -9.33 L 286.89 -6.69 L 292.35 -3.84 L 297.75 -0.77 L 303.07 2.49 L 308.3 5.96 L 313.44 9.62 L 318.48 13.47 L 323.4 17.5 L 328.19 21.71 L 332.84 26.08 L 337.35 30.6 L 341.7 35.27 L 345.88 40.08 L 349.89 45.01 L 353.72 50.06 L 357.36 55.21 L 360.8 60.46 L 364.04 65.79 L 367.08 71.19 L 369.91 76.66 L 372.52 82.18 L 374.93 87.75 L 377.12 93.37 L 379.09 99.01 L 380.85 104.69 L 382.4 110.39 L 383.73 116.12 L 384.85 121.86 L 385.76 127.63 L 386.47 133.43 L 386.96 139.25 L 387.24 145.11 L 387.32 150.28 L 387.32 150.28 L 387.22 156.17 L 386.91 162.02 L 386.39 167.84 L 385.66 173.63 L 384.73 179.39 L 383.58 185.14 L 382.22 190.86 L 380.65 196.56 L 378.86 202.23 L 376.86 207.88 L 374.64 213.48 L 372.21 219.05 L 369.57 224.57 L 366.72 230.03 L 363.65 235.42 L 360.39 240.74 L 356.92 245.98 L 353.26 251.12 L 349.41 256.15 L 345.38 261.07 L 341.17 265.86 L 336.8 270.52 L 332.28 275.02 L 327.61 279.37 L 322.8 283.56 L 317.87 287.56 L 312.82 291.39 L 307.67 295.03 L 302.42 298.47 L 297.09 301.71 L 291.69 304.75 L 286.22 307.58 L 280.7 310.2 L 275.13 312.6 L 269.51 314.79 L 263.87 316.77 L 258.19 318.53 L 252.49 320.07 L 246.76 321.41 L 241.02 322.53 L 235.25 323.44 L 229.45 324.14 L 223.63 324.63 L 217.77 324.92 L 212.6 325 L 578.84 325 L 578.84 325 L 572.95 324.89 L 567.1 324.58 L 561.28 324.06 L 555.49 323.34 L 549.73 322.4 L 543.98 321.25 L 538.26 319.9 L 532.56 318.32 L 526.89 316.54 L 521.24 314.53 L 515.64 312.32 L 510.07 309.89 L 504.55 307.24 L 499.09 304.39 L 493.7 301.33 L 488.38 298.06 L 483.14 294.59 L 478 290.93 L 472.97 287.08 L 468.05 283.05 L 463.26 278.85 L 458.6 274.48 L 454.1 269.95 L 449.75 265.28 L 445.56 260.47 L 441.56 255.54 L 437.73 250.49 L 434.09 245.34 L 430.65 240.1 L 427.41 234.77 L 424.37 229.36 L 421.54 223.89 L 418.92 218.37 L 416.52 212.8 L 414.33 207.19 L 412.35 201.54 L 410.59 195.86 L 409.05 190.16 L 407.71 184.44 L 406.59 178.69 L 405.68 172.92 L 404.98 167.13 L 404.49 161.3 L 404.2 155.45 L 404.12 150.28 L 404.12 150.28 L 404.23 144.39 L 404.54 138.54 L 405.06 132.72 L 405.78 126.93 L 406.72 121.16 L 407.87 115.41 L 409.22 109.69 L 410.8 103.99 L 412.58 98.32 L 414.59 92.68 L 416.8 87.07 L 419.23 81.5 L 421.88 75.99 L 424.73 70.53 L 427.79 65.13 L 431.06 59.81 L 434.53 54.58 L 438.19 49.44 L 442.04 44.4 L 446.07 39.48 L 450.27 34.69 L 454.64 30.04 L 459.17 25.53 L 463.84 21.18 L 468.65 17 L 473.58 12.99 L 478.63 9.16 L 483.78 5.52 L 489.02 2.08 L 494.35 -1.16 L 499.76 -4.2 L 505.23 -7.03 L 510.75 -9.64 L 516.32 -12.05 L 521.93 -14.24 L 527.58 -16.21 L 533.26 -17.97 L 538.96 -19.52 L 544.68 -20.85 L 550.43 -21.97 L 556.2 -22.88 L 561.99 -23.59 L 567.82 -24.08 L 573.67 -24.36 L 578.84 -24.44 Z" fill-rule="nonzero" stroke="none" stroke-opacity="0"/>
          <polyline id="import.1.clip6::GRID.gTree.98.1::GRID.picComplexPath.95.1::GRID.polyline.100.1.1" points="212.6,-24.44 212.6,-24.44 218.49,-24.34 224.34,-24.03 230.16,-23.51 235.95,-22.78 241.72,-21.85 247.47,-20.7 253.19,-19.34 258.89,-17.77 264.56,-15.98 270.2,-13.98 275.81,-11.76 281.38,-9.33 286.89,-6.69 292.35,-3.84 297.75,-0.77 303.07,2.49 308.3,5.96 313.44,9.62 318.48,13.47 323.4,17.5 328.19,21.71 332.84,26.08 337.35,30.6 341.7,35.27 345.88,40.08 349.89,45.01 353.72,50.06 357.36,55.21 360.8,60.46 364.04,65.79 367.08,71.19 369.91,76.66 372.52,82.18 374.93,87.75 377.12,93.37 379.09,99.01 380.85,104.69 382.4,110.39 383.73,116.12 384.85,121.86 385.76,127.63 386.47,133.43 386.96,139.25 387.24,145.11 387.32,150.28 387.32,150.28 387.22,156.17 386.91,162.02 386.39,167.84 385.66,173.63 384.73,179.39 383.58,185.14 382.22,190.86 380.65,196.56 378.86,202.23 376.86,207.88 374.64,213.48 372.21,219.05 369.57,224.57 366.72,230.03 363.65,235.42 360.39,240.74 356.92,245.98 353.26,251.12 349.41,256.15 345.38,261.07 341.17,265.86 336.8,270.52 332.28,275.02 327.61,279.37 322.8,283.56 317.87,287.56 312.82,291.39 307.67,295.03 302.42,298.47 297.09,301.71 291.69,304.75 286.22,307.58 280.7,310.2 275.13,312.6 269.51,314.79 263.87,316.77 258.19,318.53 252.49,320.07 246.76,321.41 241.02,322.53 235.25,323.44 229.45,324.14 223.63,324.63 217.77,324.92 212.6,325 578.84,325 578.84,325 572.95,324.89 567.1,324.58 561.28,324.06 555.49,323.34 549.73,322.4 543.98,321.25 538.26,319.9 532.56,318.32 526.89,316.54 521.24,314.53 515.64,312.32 510.07,309.89 504.55,307.24 499.09,304.39 493.7,301.33 488.38,298.06 483.14,294.59 478,290.93 472.97,287.08 468.05,283.05 463.26,278.85 458.6,274.48 454.1,269.95 449.75,265.28 445.56,260.47 441.56,255.54 437.73,250.49 434.09,245.34 430.65,240.1 427.41,234.77 424.37,229.36 421.54,223.89 418.92,218.37 416.52,212.8 414.33,207.19 412.35,201.54 410.59,195.86 409.05,190.16 407.71,184.44 406.59,178.69 405.68,172.92 404.98,167.13 404.49,161.3 404.2,155.45 404.12,150.28 404.12,150.28 404.23,144.39 404.54,138.54 405.06,132.72 405.78,126.93 406.72,121.16 407.87,115.41 409.22,109.69 410.8,103.99 412.58,98.32 414.59,92.68 416.8,87.07 419.23,81.5 421.88,75.99 424.73,70.53 427.79,65.13 431.06,59.81 434.53,54.58 438.19,49.44 442.04,44.4 446.07,39.48 450.27,34.69 454.64,30.04 459.17,25.53 463.84,21.18 468.65,17 473.58,12.99 478.63,9.16 483.78,5.52 489.02,2.08 494.35,-1.16 499.76,-4.2 505.23,-7.03 510.75,-9.64 516.32,-12.05 521.93,-14.24 527.58,-16.21 533.26,-17.97 538.96,-19.52 544.68,-20.85 550.43,-21.97 556.2,-22.88 561.99,-23.59 567.82,-24.08 573.67,-24.36 578.84,-24.44 212.6,-24.44" fill="none" fill-opacity="0"/>
        </clipPath>
        <clipPath id="import.1.clip7.1">
          <path id="import.1.clip7::GRID.gTree.104.1::GRID.picComplexPath.101.1::GRID.pathgrob.105.1.1" d="M 271.04 243.04 L 504 243.04 L 504 84 L 271.04 84 Z" fill-rule="nonzero" stroke="none" stroke-opacity="0"/>
          <polyline id="import.1.clip7::GRID.gTree.104.1::GRID.picComplexPath.101.1::GRID.polyline.106.1.1" points="271.04,243.04 504,243.04 504,84 271.04,84 271.04,243.04" fill="none" fill-opacity="0"/>
        </clipPath>
        <clipPath id="import.1.clip8.1">
          <path id="import.1.clip8::GRID.gTree.110.1::GRID.picComplexPath.107.1::GRID.pathgrob.111.1.1" d="M 221 333.4 L 221 333.4 L 221.11 327.51 L 221.42 321.66 L 221.94 315.84 L 222.66 310.05 L 223.6 304.28 L 224.75 298.53 L 226.1 292.81 L 227.68 287.11 L 229.46 281.44 L 231.47 275.8 L 233.68 270.19 L 236.11 264.62 L 238.76 259.11 L 241.61 253.65 L 244.67 248.25 L 247.94 242.93 L 251.41 237.7 L 255.07 232.56 L 258.92 227.52 L 262.95 222.6 L 267.15 217.81 L 271.52 213.16 L 276.05 208.65 L 280.72 204.3 L 285.53 200.12 L 290.46 196.11 L 295.51 192.28 L 300.66 188.64 L 305.9 185.2 L 311.23 181.96 L 316.64 178.92 L 322.11 176.09 L 327.63 173.48 L 333.2 171.07 L 338.81 168.88 L 344.46 166.91 L 350.14 165.15 L 355.84 163.6 L 361.56 162.27 L 367.31 161.15 L 373.08 160.24 L 378.87 159.53 L 384.7 159.04 L 390.55 158.76 L 395.72 158.68 L 395.72 158.68 L 401.61 158.78 L 407.46 159.09 L 413.28 159.61 L 419.07 160.34 L 424.84 161.27 L 430.59 162.42 L 436.31 163.78 L 442.01 165.35 L 447.68 167.14 L 453.32 169.14 L 458.93 171.36 L 464.5 173.79 L 470.01 176.43 L 475.47 179.28 L 480.87 182.35 L 486.19 185.61 L 491.42 189.08 L 496.56 192.74 L 501.6 196.59 L 506.52 200.62 L 511.31 204.83 L 515.96 209.2 L 520.47 213.72 L 524.82 218.39 L 529 223.2 L 533.01 228.13 L 536.84 233.18 L 540.48 238.33 L 543.92 243.58 L 547.16 248.91 L 550.2 254.31 L 553.03 259.78 L 555.64 265.3 L 558.05 270.87 L 560.24 276.49 L 562.21 282.13 L 563.97 287.81 L 565.52 293.51 L 566.85 299.24 L 567.97 304.98 L 568.88 310.75 L 569.59 316.55 L 570.08 322.37 L 570.36 328.23 L 570.44 333.4 L 570.44 -32.84 L 570.44 -32.84 L 570.34 -26.95 L 570.03 -21.1 L 569.51 -15.28 L 568.78 -9.49 L 567.85 -3.73 L 566.7 2.02 L 565.34 7.74 L 563.77 13.44 L 561.98 19.11 L 559.98 24.76 L 557.76 30.36 L 555.33 35.93 L 552.69 41.45 L 549.84 46.91 L 546.77 52.3 L 543.51 57.62 L 540.04 62.86 L 536.38 68 L 532.53 73.03 L 528.5 77.95 L 524.29 82.74 L 519.92 87.4 L 515.4 91.9 L 510.73 96.25 L 505.92 100.44 L 500.99 104.44 L 495.94 108.27 L 490.79 111.91 L 485.54 115.35 L 480.21 118.59 L 474.81 121.63 L 469.34 124.46 L 463.82 127.08 L 458.25 129.48 L 452.63 131.67 L 446.99 133.65 L 441.31 135.41 L 435.61 136.95 L 429.88 138.29 L 424.14 139.41 L 418.37 140.32 L 412.57 141.02 L 406.75 141.51 L 400.89 141.8 L 395.72 141.88 L 395.72 141.88 L 389.83 141.77 L 383.98 141.46 L 378.16 140.94 L 372.37 140.22 L 366.61 139.28 L 360.86 138.13 L 355.14 136.78 L 349.44 135.2 L 343.77 133.42 L 338.12 131.41 L 332.52 129.2 L 326.95 126.77 L 321.43 124.12 L 315.97 121.27 L 310.58 118.21 L 305.26 114.94 L 300.02 111.47 L 294.88 107.81 L 289.85 103.96 L 284.93 99.93 L 280.14 95.73 L 275.48 91.36 L 270.98 86.83 L 266.63 82.16 L 262.44 77.35 L 258.44 72.42 L 254.61 67.37 L 250.97 62.22 L 247.53 56.98 L 244.29 51.65 L 241.25 46.24 L 238.42 40.77 L 235.8 35.25 L 233.4 29.68 L 231.21 24.07 L 229.23 18.42 L 227.47 12.74 L 225.93 7.04 L 224.59 1.32 L 223.47 -4.43 L 222.56 -10.2 L 221.86 -15.99 L 221.37 -21.82 L 221.08 -27.67 L 221 -32.84 Z" fill-rule="nonzero" stroke="none" stroke-opacity="0"/>
          <polyline id="import.1.clip8::GRID.gTree.110.1::GRID.picComplexPath.107.1::GRID.polyline.112.1.1" points="221,333.4 221,333.4 221.11,327.51 221.42,321.66 221.94,315.84 222.66,310.05 223.6,304.28 224.75,298.53 226.1,292.81 227.68,287.11 229.46,281.44 231.47,275.8 233.68,270.19 236.11,264.62 238.76,259.11 241.61,253.65 244.67,248.25 247.94,242.93 251.41,237.7 255.07,232.56 258.92,227.52 262.95,222.6 267.15,217.81 271.52,213.16 276.05,208.65 280.72,204.3 285.53,200.12 290.46,196.11 295.51,192.28 300.66,188.64 305.9,185.2 311.23,181.96 316.64,178.92 322.11,176.09 327.63,173.48 333.2,171.07 338.81,168.88 344.46,166.91 350.14,165.15 355.84,163.6 361.56,162.27 367.31,161.15 373.08,160.24 378.87,159.53 384.7,159.04 390.55,158.76 395.72,158.68 395.72,158.68 401.61,158.78 407.46,159.09 413.28,159.61 419.07,160.34 424.84,161.27 430.59,162.42 436.31,163.78 442.01,165.35 447.68,167.14 453.32,169.14 458.93,171.36 464.5,173.79 470.01,176.43 475.47,179.28 480.87,182.35 486.19,185.61 491.42,189.08 496.56,192.74 501.6,196.59 506.52,200.62 511.31,204.83 515.96,209.2 520.47,213.72 524.82,218.39 529,223.2 533.01,228.13 536.84,233.18 540.48,238.33 543.92,243.58 547.16,248.91 550.2,254.31 553.03,259.78 555.64,265.3 558.05,270.87 560.24,276.49 562.21,282.13 563.97,287.81 565.52,293.51 566.85,299.24 567.97,304.98 568.88,310.75 569.59,316.55 570.08,322.37 570.36,328.23 570.44,333.4 570.44,-32.84 570.44,-32.84 570.34,-26.95 570.03,-21.1 569.51,-15.28 568.78,-9.49 567.85,-3.73 566.7,2.02 565.34,7.74 563.77,13.44 561.98,19.11 559.98,24.76 557.76,30.36 555.33,35.93 552.69,41.45 549.84,46.91 546.77,52.3 543.51,57.62 540.04,62.86 536.38,68 532.53,73.03 528.5,77.95 524.29,82.74 519.92,87.4 515.4,91.9 510.73,96.25 505.92,100.44 500.99,104.44 495.94,108.27 490.79,111.91 485.54,115.35 480.21,118.59 474.81,121.63 469.34,124.46 463.82,127.08 458.25,129.48 452.63,131.67 446.99,133.65 441.31,135.41 435.61,136.95 429.88,138.29 424.14,139.41 418.37,140.32 412.57,141.02 406.75,141.51 400.89,141.8 395.72,141.88 395.72,141.88 389.83,141.77 383.98,141.46 378.16,140.94 372.37,140.22 366.61,139.28 360.86,138.13 355.14,136.78 349.44,135.2 343.77,133.42 338.12,131.41 332.52,129.2 326.95,126.77 321.43,124.12 315.97,121.27 310.58,118.21 305.26,114.94 300.02,111.47 294.88,107.81 289.85,103.96 284.93,99.93 280.14,95.73 275.48,91.36 270.98,86.83 266.63,82.16 262.44,77.35 258.44,72.42 254.61,67.37 250.97,62.22 247.53,56.98 244.29,51.65 241.25,46.24 238.42,40.77 235.8,35.25 233.4,29.68 231.21,24.07 229.23,18.42 227.47,12.74 225.93,7.04 224.59,1.32 223.47,-4.43 222.56,-10.2 221.86,-15.99 221.37,-21.82 221.08,-27.67 221,-32.84 221,333.4" fill="none" fill-opacity="0"/>
        </clipPath>
        <clipPath id="import.1.clip9.1">
          <path id="import.1.clip9::GRID.gTree.116.1::GRID.picComplexPath.113.1::GRID.pathgrob.117.1.1" d="M 302.96 420 L 488.32 420 L 488.32 229.04 L 302.96 229.04 Z" fill-rule="nonzero" stroke="none" stroke-opacity="0"/>
          <polyline id="import.1.clip9::GRID.gTree.116.1::GRID.picComplexPath.113.1::GRID.polyline.118.1.1" points="302.96,420 488.32,420 488.32,229.04 302.96,229.04 302.96,420" fill="none" fill-opacity="0"/>
        </clipPath>
        <clipPath id="import.1.clip10.1">
          <path id="import.1.clip10::GRID.gTree.122.1::GRID.picComplexPath.119.1::GRID.pathgrob.123.1.1" d="M 212.6 179 L 212.6 179 L 218.49 179.11 L 224.34 179.42 L 230.16 179.94 L 235.95 180.66 L 241.72 181.6 L 247.47 182.75 L 253.19 184.1 L 258.89 185.68 L 264.56 187.46 L 270.2 189.47 L 275.81 191.68 L 281.38 194.11 L 286.89 196.76 L 292.35 199.61 L 297.75 202.67 L 303.07 205.94 L 308.3 209.41 L 313.44 213.07 L 318.48 216.92 L 323.4 220.95 L 328.19 225.15 L 332.84 229.52 L 337.35 234.05 L 341.7 238.72 L 345.88 243.53 L 349.89 248.46 L 353.72 253.51 L 357.36 258.66 L 360.8 263.9 L 364.04 269.23 L 367.08 274.64 L 369.91 280.11 L 372.52 285.63 L 374.93 291.2 L 377.12 296.81 L 379.09 302.46 L 380.85 308.14 L 382.4 313.84 L 383.73 319.56 L 384.85 325.31 L 385.76 331.08 L 386.47 336.87 L 386.96 342.7 L 387.24 348.55 L 387.32 353.72 L 387.32 353.72 L 387.22 359.61 L 386.91 365.46 L 386.39 371.28 L 385.66 377.07 L 384.73 382.84 L 383.58 388.59 L 382.22 394.31 L 380.65 400.01 L 378.86 405.68 L 376.86 411.32 L 374.64 416.93 L 372.21 422.5 L 369.57 428.01 L 366.72 433.47 L 363.65 438.87 L 360.39 444.19 L 356.92 449.42 L 353.26 454.56 L 349.41 459.6 L 345.38 464.52 L 341.17 469.31 L 336.8 473.96 L 332.28 478.47 L 327.61 482.82 L 322.8 487 L 317.87 491.01 L 312.82 494.84 L 307.67 498.48 L 302.42 501.92 L 297.09 505.16 L 291.69 508.2 L 286.22 511.03 L 280.7 513.64 L 275.13 516.05 L 269.51 518.24 L 263.87 520.21 L 258.19 521.97 L 252.49 523.52 L 246.76 524.85 L 241.02 525.97 L 235.25 526.88 L 229.45 527.59 L 223.63 528.08 L 217.77 528.36 L 212.6 528.44 L 578.84 528.44 L 578.84 528.44 L 572.95 528.34 L 567.1 528.03 L 561.28 527.51 L 555.49 526.78 L 549.73 525.85 L 543.98 524.7 L 538.26 523.34 L 532.56 521.77 L 526.89 519.98 L 521.24 517.98 L 515.64 515.76 L 510.07 513.33 L 504.55 510.69 L 499.09 507.84 L 493.7 504.77 L 488.38 501.51 L 483.14 498.04 L 478 494.38 L 472.97 490.53 L 468.05 486.5 L 463.26 482.29 L 458.6 477.92 L 454.1 473.4 L 449.75 468.73 L 445.56 463.92 L 441.56 458.99 L 437.73 453.94 L 434.09 448.79 L 430.65 443.54 L 427.41 438.21 L 424.37 432.81 L 421.54 427.34 L 418.92 421.82 L 416.52 416.25 L 414.33 410.63 L 412.35 404.99 L 410.59 399.31 L 409.05 393.61 L 407.71 387.88 L 406.59 382.14 L 405.68 376.37 L 404.98 370.57 L 404.49 364.75 L 404.2 358.89 L 404.12 353.72 L 404.12 353.72 L 404.23 347.83 L 404.54 341.98 L 405.06 336.16 L 405.78 330.37 L 406.72 324.61 L 407.87 318.86 L 409.22 313.14 L 410.8 307.44 L 412.58 301.77 L 414.59 296.12 L 416.8 290.52 L 419.23 284.95 L 421.88 279.43 L 424.73 273.97 L 427.79 268.58 L 431.06 263.26 L 434.53 258.02 L 438.19 252.88 L 442.04 247.85 L 446.07 242.93 L 450.27 238.14 L 454.64 233.48 L 459.17 228.98 L 463.84 224.63 L 468.65 220.44 L 473.58 216.44 L 478.63 212.61 L 483.78 208.97 L 489.02 205.53 L 494.35 202.29 L 499.76 199.25 L 505.23 196.42 L 510.75 193.8 L 516.32 191.4 L 521.93 189.21 L 527.58 187.23 L 533.26 185.47 L 538.96 183.93 L 544.68 182.59 L 550.43 181.47 L 556.2 180.56 L 561.99 179.86 L 567.82 179.37 L 573.67 179.08 L 578.84 179 Z" fill-rule="nonzero" stroke="none" stroke-opacity="0"/>
          <polyline id="import.1.clip10::GRID.gTree.122.1::GRID.picComplexPath.119.1::GRID.polyline.124.1.1" points="212.6,179 212.6,179 218.49,179.11 224.34,179.42 230.16,179.94 235.95,180.66 241.72,181.6 247.47,182.75 253.19,184.1 258.89,185.68 264.56,187.46 270.2,189.47 275.81,191.68 281.38,194.11 286.89,196.76 292.35,199.61 297.75,202.67 303.07,205.94 308.3,209.41 313.44,213.07 318.48,216.92 323.4,220.95 328.19,225.15 332.84,229.52 337.35,234.05 341.7,238.72 345.88,243.53 349.89,248.46 353.72,253.51 357.36,258.66 360.8,263.9 364.04,269.23 367.08,274.64 369.91,280.11 372.52,285.63 374.93,291.2 377.12,296.81 379.09,302.46 380.85,308.14 382.4,313.84 383.73,319.56 384.85,325.31 385.76,331.08 386.47,336.87 386.96,342.7 387.24,348.55 387.32,353.72 387.32,353.72 387.22,359.61 386.91,365.46 386.39,371.28 385.66,377.07 384.73,382.84 383.58,388.59 382.22,394.31 380.65,400.01 378.86,405.68 376.86,411.32 374.64,416.93 372.21,422.5 369.57,428.01 366.72,433.47 363.65,438.87 360.39,444.19 356.92,449.42 353.26,454.56 349.41,459.6 345.38,464.52 341.17,469.31 336.8,473.96 332.28,478.47 327.61,482.82 322.8,487 317.87,491.01 312.82,494.84 307.67,498.48 302.42,501.92 297.09,505.16 291.69,508.2 286.22,511.03 280.7,513.64 275.13,516.05 269.51,518.24 263.87,520.21 258.19,521.97 252.49,523.52 246.76,524.85 241.02,525.97 235.25,526.88 229.45,527.59 223.63,528.08 217.77,528.36 212.6,528.44 578.84,528.44 578.84,528.44 572.95,528.34 567.1,528.03 561.28,527.51 555.49,526.78 549.73,525.85 543.98,524.7 538.26,523.34 532.56,521.77 526.89,519.98 521.24,517.98 515.64,515.76 510.07,513.33 504.55,510.69 499.09,507.84 493.7,504.77 488.38,501.51 483.14,498.04 478,494.38 472.97,490.53 468.05,486.5 463.26,482.29 458.6,477.92 454.1,473.4 449.75,468.73 445.56,463.92 441.56,458.99 437.73,453.94 434.09,448.79 430.65,443.54 427.41,438.21 424.37,432.81 421.54,427.34 418.92,421.82 416.52,416.25 414.33,410.63 412.35,404.99 410.59,399.31 409.05,393.61 407.71,387.88 406.59,382.14 405.68,376.37 404.98,370.57 404.49,364.75 404.2,358.89 404.12,353.72 404.12,353.72 404.23,347.83 404.54,341.98 405.06,336.16 405.78,330.37 406.72,324.61 407.87,318.86 409.22,313.14 410.8,307.44 412.58,301.77 414.59,296.12 416.8,290.52 419.23,284.95 421.88,279.43 424.73,273.97 427.79,268.58 431.06,263.26 434.53,258.02 438.19,252.88 442.04,247.85 446.07,242.93 450.27,238.14 454.64,233.48 459.17,228.98 463.84,224.63 468.65,220.44 473.58,216.44 478.63,212.61 483.78,208.97 489.02,205.53 494.35,202.29 499.76,199.25 505.23,196.42 510.75,193.8 516.32,191.4 521.93,189.21 527.58,187.23 533.26,185.47 538.96,183.93 544.68,182.59 550.43,181.47 556.2,180.56 561.99,179.86 567.82,179.37 573.67,179.08 578.84,179 212.6,179" fill="none" fill-opacity="0"/>
        </clipPath>
        <clipPath id="import.1.clip11.1">
          <path id="import.1.clip11::GRID.gTree.128.1::GRID.picComplexPath.125.1::GRID.pathgrob.129.1.1" d="M 271.04 420 L 504 420 L 504 260.96 L 271.04 260.96 Z" fill-rule="nonzero" stroke="none" stroke-opacity="0"/>
          <polyline id="import.1.clip11::GRID.gTree.128.1::GRID.picComplexPath.125.1::GRID.polyline.130.1.1" points="271.04,420 504,420 504,260.96 271.04,260.96 271.04,420" fill="none" fill-opacity="0"/>
        </clipPath>
        <clipPath id="import.1.clip12.1">
          <path id="import.1.clip12::GRID.gTree.134.1::GRID.picComplexPath.131.1::GRID.pathgrob.135.1.1" d="M 221 536.84 L 221 536.84 L 221.11 530.95 L 221.42 525.1 L 221.94 519.28 L 222.66 513.49 L 223.6 507.73 L 224.75 501.98 L 226.1 496.26 L 227.68 490.56 L 229.46 484.89 L 231.47 479.24 L 233.68 473.64 L 236.11 468.07 L 238.76 462.55 L 241.61 457.09 L 244.67 451.7 L 247.94 446.38 L 251.41 441.14 L 255.07 436 L 258.92 430.97 L 262.95 426.05 L 267.15 421.26 L 271.52 416.6 L 276.05 412.1 L 280.72 407.75 L 285.53 403.56 L 290.46 399.56 L 295.51 395.73 L 300.66 392.09 L 305.9 388.65 L 311.23 385.41 L 316.64 382.37 L 322.11 379.54 L 327.63 376.92 L 333.2 374.52 L 338.81 372.33 L 344.46 370.35 L 350.14 368.59 L 355.84 367.05 L 361.56 365.71 L 367.31 364.59 L 373.08 363.68 L 378.87 362.98 L 384.7 362.49 L 390.55 362.2 L 395.72 362.12 L 395.72 362.12 L 401.61 362.23 L 407.46 362.54 L 413.28 363.06 L 419.07 363.78 L 424.84 364.72 L 430.59 365.87 L 436.31 367.22 L 442.01 368.8 L 447.68 370.58 L 453.32 372.59 L 458.93 374.8 L 464.5 377.23 L 470.01 379.88 L 475.47 382.73 L 480.87 385.79 L 486.19 389.06 L 491.42 392.53 L 496.56 396.19 L 501.6 400.04 L 506.52 404.07 L 511.31 408.27 L 515.96 412.64 L 520.47 417.17 L 524.82 421.84 L 529 426.65 L 533.01 431.58 L 536.84 436.63 L 540.48 441.78 L 543.92 447.02 L 547.16 452.35 L 550.2 457.76 L 553.03 463.23 L 555.64 468.75 L 558.05 474.32 L 560.24 479.93 L 562.21 485.58 L 563.97 491.26 L 565.52 496.96 L 566.85 502.68 L 567.97 508.43 L 568.88 514.2 L 569.59 519.99 L 570.08 525.82 L 570.36 531.67 L 570.44 536.84 L 570.44 170.6 L 570.44 170.6 L 570.34 176.49 L 570.03 182.34 L 569.51 188.16 L 568.78 193.95 L 567.85 199.72 L 566.7 205.47 L 565.34 211.19 L 563.77 216.89 L 561.98 222.56 L 559.98 228.2 L 557.76 233.81 L 555.33 239.38 L 552.69 244.89 L 549.84 250.35 L 546.77 255.75 L 543.51 261.07 L 540.04 266.3 L 536.38 271.44 L 532.53 276.48 L 528.5 281.4 L 524.29 286.19 L 519.92 290.84 L 515.4 295.35 L 510.73 299.7 L 505.92 303.88 L 500.99 307.89 L 495.94 311.72 L 490.79 315.36 L 485.54 318.8 L 480.21 322.04 L 474.81 325.08 L 469.34 327.91 L 463.82 330.52 L 458.25 332.93 L 452.63 335.12 L 446.99 337.09 L 441.31 338.85 L 435.61 340.4 L 429.88 341.73 L 424.14 342.85 L 418.37 343.76 L 412.57 344.47 L 406.75 344.96 L 400.89 345.24 L 395.72 345.32 L 395.72 345.32 L 389.83 345.22 L 383.98 344.91 L 378.16 344.39 L 372.37 343.66 L 366.61 342.73 L 360.86 341.58 L 355.14 340.22 L 349.44 338.65 L 343.77 336.86 L 338.12 334.86 L 332.52 332.64 L 326.95 330.21 L 321.43 327.57 L 315.97 324.72 L 310.58 321.65 L 305.26 318.39 L 300.02 314.92 L 294.88 311.26 L 289.85 307.41 L 284.93 303.38 L 280.14 299.17 L 275.48 294.8 L 270.98 290.28 L 266.63 285.61 L 262.44 280.8 L 258.44 275.87 L 254.61 270.82 L 250.97 265.67 L 247.53 260.42 L 244.29 255.09 L 241.25 249.69 L 238.42 244.22 L 235.8 238.7 L 233.4 233.13 L 231.21 227.51 L 229.23 221.87 L 227.47 216.19 L 225.93 210.49 L 224.59 204.76 L 223.47 199.02 L 222.56 193.25 L 221.86 187.45 L 221.37 181.63 L 221.08 175.77 L 221 170.6 Z" fill-rule="nonzero" stroke="none" stroke-opacity="0"/>
          <polyline id="import.1.clip12::GRID.gTree.134.1::GRID.picComplexPath.131.1::GRID.polyline.136.1.1" points="221,536.84 221,536.84 221.11,530.95 221.42,525.1 221.94,519.28 222.66,513.49 223.6,507.73 224.75,501.98 226.1,496.26 227.68,490.56 229.46,484.89 231.47,479.24 233.68,473.64 236.11,468.07 238.76,462.55 241.61,457.09 244.67,451.7 247.94,446.38 251.41,441.14 255.07,436 258.92,430.97 262.95,426.05 267.15,421.26 271.52,416.6 276.05,412.1 280.72,407.75 285.53,403.56 290.46,399.56 295.51,395.73 300.66,392.09 305.9,388.65 311.23,385.41 316.64,382.37 322.11,379.54 327.63,376.92 333.2,374.52 338.81,372.33 344.46,370.35 350.14,368.59 355.84,367.05 361.56,365.71 367.31,364.59 373.08,363.68 378.87,362.98 384.7,362.49 390.55,362.2 395.72,362.12 395.72,362.12 401.61,362.23 407.46,362.54 413.28,363.06 419.07,363.78 424.84,364.72 430.59,365.87 436.31,367.22 442.01,368.8 447.68,370.58 453.32,372.59 458.93,374.8 464.5,377.23 470.01,379.88 475.47,382.73 480.87,385.79 486.19,389.06 491.42,392.53 496.56,396.19 501.6,400.04 506.52,404.07 511.31,408.27 515.96,412.64 520.47,417.17 524.82,421.84 529,426.65 533.01,431.58 536.84,436.63 540.48,441.78 543.92,447.02 547.16,452.35 550.2,457.76 553.03,463.23 555.64,468.75 558.05,474.32 560.24,479.93 562.21,485.58 563.97,491.26 565.52,496.96 566.85,502.68 567.97,508.43 568.88,514.2 569.59,519.99 570.08,525.82 570.36,531.67 570.44,536.84 570.44,170.6 570.44,170.6 570.34,176.49 570.03,182.34 569.51,188.16 568.78,193.95 567.85,199.72 566.7,205.47 565.34,211.19 563.77,216.89 561.98,222.56 559.98,228.2 557.76,233.81 555.33,239.38 552.69,244.89 549.84,250.35 546.77,255.75 543.51,261.07 540.04,266.3 536.38,271.44 532.53,276.48 528.5,281.4 524.29,286.19 519.92,290.84 515.4,295.35 510.73,299.7 505.92,303.88 500.99,307.89 495.94,311.72 490.79,315.36 485.54,318.8 480.21,322.04 474.81,325.08 469.34,327.91 463.82,330.52 458.25,332.93 452.63,335.12 446.99,337.09 441.31,338.85 435.61,340.4 429.88,341.73 424.14,342.85 418.37,343.76 412.57,344.47 406.75,344.96 400.89,345.24 395.72,345.32 395.72,345.32 389.83,345.22 383.98,344.91 378.16,344.39 372.37,343.66 366.61,342.73 360.86,341.58 355.14,340.22 349.44,338.65 343.77,336.86 338.12,334.86 332.52,332.64 326.95,330.21 321.43,327.57 315.97,324.72 310.58,321.65 305.26,318.39 300.02,314.92 294.88,311.26 289.85,307.41 284.93,303.38 280.14,299.17 275.48,294.8 270.98,290.28 266.63,285.61 262.44,280.8 258.44,275.87 254.61,270.82 250.97,265.67 247.53,260.42 244.29,255.09 241.25,249.69 238.42,244.22 235.8,238.7 233.4,233.13 231.21,227.51 229.23,221.87 227.47,216.19 225.93,210.49 224.59,204.76 223.47,199.02 222.56,193.25 221.86,187.45 221.37,181.63 221.08,175.77 221,170.6 221,536.84" fill="none" fill-opacity="0"/>
        </clipPath>
        <clipPath id="import.1.clip13.1">
          <path id="import.1.clip13::GRID.gTree.140.1::GRID.picComplexPath.137.1::GRID.pathgrob.141.1.1" d="M 15.68 274.96 L 201.04 274.96 L 201.04 84 L 15.68 84 Z" fill-rule="nonzero" stroke="none" stroke-opacity="0"/>
          <polyline id="import.1.clip13::GRID.gTree.140.1::GRID.picComplexPath.137.1::GRID.polyline.142.1.1" points="15.68,274.96 201.04,274.96 201.04,84 15.68,84 15.68,274.96" fill="none" fill-opacity="0"/>
        </clipPath>
        <clipPath id="import.1.clip14.1">
          <path id="import.1.clip14::GRID.gTree.146.1::GRID.picComplexPath.143.1::GRID.pathgrob.147.1.1" d="M -74.84 -24.44 L -74.84 -24.44 L -68.95 -24.34 L -63.1 -24.03 L -57.28 -23.51 L -51.49 -22.78 L -45.73 -21.85 L -39.98 -20.7 L -34.26 -19.34 L -28.56 -17.77 L -22.89 -15.98 L -17.24 -13.98 L -11.64 -11.76 L -6.07 -9.33 L -0.55 -6.69 L 4.91 -3.84 L 10.3 -0.77 L 15.62 2.49 L 20.86 5.96 L 26 9.62 L 31.03 13.47 L 35.95 17.5 L 40.74 21.71 L 45.4 26.08 L 49.9 30.6 L 54.25 35.27 L 58.44 40.08 L 62.44 45.01 L 66.27 50.06 L 69.91 55.21 L 73.35 60.46 L 76.59 65.79 L 79.63 71.19 L 82.46 76.66 L 85.08 82.18 L 87.48 87.75 L 89.67 93.37 L 91.65 99.01 L 93.41 104.69 L 94.95 110.39 L 96.29 116.12 L 97.41 121.86 L 98.32 127.63 L 99.02 133.43 L 99.51 139.25 L 99.8 145.11 L 99.88 150.28 L 99.88 150.28 L 99.77 156.17 L 99.46 162.02 L 98.94 167.84 L 98.22 173.63 L 97.28 179.39 L 96.13 185.14 L 94.78 190.86 L 93.2 196.56 L 91.42 202.23 L 89.41 207.88 L 87.2 213.48 L 84.77 219.05 L 82.12 224.57 L 79.27 230.03 L 76.21 235.42 L 72.94 240.74 L 69.47 245.98 L 65.81 251.12 L 61.96 256.15 L 57.93 261.07 L 53.73 265.86 L 49.36 270.52 L 44.83 275.02 L 40.16 279.37 L 35.35 283.56 L 30.42 287.56 L 25.37 291.39 L 20.22 295.03 L 14.98 298.47 L 9.65 301.71 L 4.24 304.75 L -1.23 307.58 L -6.75 310.2 L -12.32 312.6 L -17.93 314.79 L -23.58 316.77 L -29.26 318.53 L -34.96 320.07 L -40.68 321.41 L -46.43 322.53 L -52.2 323.44 L -57.99 324.14 L -63.82 324.63 L -69.67 324.92 L -74.84 325 L 291.4 325 L 291.4 325 L 285.51 324.89 L 279.66 324.58 L 273.84 324.06 L 268.05 323.34 L 262.28 322.4 L 256.53 321.25 L 250.81 319.9 L 245.11 318.32 L 239.44 316.54 L 233.8 314.53 L 228.19 312.32 L 222.62 309.89 L 217.11 307.24 L 211.65 304.39 L 206.25 301.33 L 200.93 298.06 L 195.7 294.59 L 190.56 290.93 L 185.52 287.08 L 180.6 283.05 L 175.81 278.85 L 171.16 274.48 L 166.65 269.95 L 162.3 265.28 L 158.12 260.47 L 154.11 255.54 L 150.28 250.49 L 146.64 245.34 L 143.2 240.1 L 139.96 234.77 L 136.92 229.36 L 134.09 223.89 L 131.48 218.37 L 129.07 212.8 L 126.88 207.19 L 124.91 201.54 L 123.15 195.86 L 121.6 190.16 L 120.27 184.44 L 119.15 178.69 L 118.24 172.92 L 117.53 167.13 L 117.04 161.3 L 116.76 155.45 L 116.68 150.28 L 116.68 150.28 L 116.78 144.39 L 117.09 138.54 L 117.61 132.72 L 118.34 126.93 L 119.27 121.16 L 120.42 115.41 L 121.78 109.69 L 123.35 103.99 L 125.14 98.32 L 127.14 92.68 L 129.36 87.07 L 131.79 81.5 L 134.43 75.99 L 137.28 70.53 L 140.35 65.13 L 143.61 59.81 L 147.08 54.58 L 150.74 49.44 L 154.59 44.4 L 158.62 39.48 L 162.83 34.69 L 167.2 30.04 L 171.72 25.53 L 176.39 21.18 L 181.2 17 L 186.13 12.99 L 191.18 9.16 L 196.33 5.52 L 201.58 2.08 L 206.91 -1.16 L 212.31 -4.2 L 217.78 -7.03 L 223.3 -9.64 L 228.87 -12.05 L 234.49 -14.24 L 240.13 -16.21 L 245.81 -17.97 L 251.51 -19.52 L 257.24 -20.85 L 262.98 -21.97 L 268.75 -22.88 L 274.55 -23.59 L 280.37 -24.08 L 286.23 -24.36 L 291.4 -24.44 Z" fill-rule="nonzero" stroke="none" stroke-opacity="0"/>
          <polyline id="import.1.clip14::GRID.gTree.146.1::GRID.picComplexPath.143.1::GRID.polyline.148.1.1" points="-74.84,-24.44 -74.84,-24.44 -68.95,-24.34 -63.1,-24.03 -57.28,-23.51 -51.49,-22.78 -45.73,-21.85 -39.98,-20.7 -34.26,-19.34 -28.56,-17.77 -22.89,-15.98 -17.24,-13.98 -11.64,-11.76 -6.07,-9.33 -0.55,-6.69 4.91,-3.84 10.3,-0.77 15.62,2.49 20.86,5.96 26,9.62 31.03,13.47 35.95,17.5 40.74,21.71 45.4,26.08 49.9,30.6 54.25,35.27 58.44,40.08 62.44,45.01 66.27,50.06 69.91,55.21 73.35,60.46 76.59,65.79 79.63,71.19 82.46,76.66 85.08,82.18 87.48,87.75 89.67,93.37 91.65,99.01 93.41,104.69 94.95,110.39 96.29,116.12 97.41,121.86 98.32,127.63 99.02,133.43 99.51,139.25 99.8,145.11 99.88,150.28 99.88,150.28 99.77,156.17 99.46,162.02 98.94,167.84 98.22,173.63 97.28,179.39 96.13,185.14 94.78,190.86 93.2,196.56 91.42,202.23 89.41,207.88 87.2,213.48 84.77,219.05 82.12,224.57 79.27,230.03 76.21,235.42 72.94,240.74 69.47,245.98 65.81,251.12 61.96,256.15 57.93,261.07 53.73,265.86 49.36,270.52 44.83,275.02 40.16,279.37 35.35,283.56 30.42,287.56 25.37,291.39 20.22,295.03 14.98,298.47 9.65,301.71 4.24,304.75 -1.23,307.58 -6.75,310.2 -12.32,312.6 -17.93,314.79 -23.58,316.77 -29.26,318.53 -34.96,320.07 -40.68,321.41 -46.43,322.53 -52.2,323.44 -57.99,324.14 -63.82,324.63 -69.67,324.92 -74.84,325 291.4,325 291.4,325 285.51,324.89 279.66,324.58 273.84,324.06 268.05,323.34 262.28,322.4 256.53,321.25 250.81,319.9 245.11,318.32 239.44,316.54 233.8,314.53 228.19,312.32 222.62,309.89 217.11,307.24 211.65,304.39 206.25,301.33 200.93,298.06 195.7,294.59 190.56,290.93 185.52,287.08 180.6,283.05 175.81,278.85 171.16,274.48 166.65,269.95 162.3,265.28 158.12,260.47 154.11,255.54 150.28,250.49 146.64,245.34 143.2,240.1 139.96,234.77 136.92,229.36 134.09,223.89 131.48,218.37 129.07,212.8 126.88,207.19 124.91,201.54 123.15,195.86 121.6,190.16 120.27,184.44 119.15,178.69 118.24,172.92 117.53,167.13 117.04,161.3 116.76,155.45 116.68,150.28 116.68,150.28 116.78,144.39 117.09,138.54 117.61,132.72 118.34,126.93 119.27,121.16 120.42,115.41 121.78,109.69 123.35,103.99 125.14,98.32 127.14,92.68 129.36,87.07 131.79,81.5 134.43,75.99 137.28,70.53 140.35,65.13 143.61,59.81 147.08,54.58 150.74,49.44 154.59,44.4 158.62,39.48 162.83,34.69 167.2,30.04 171.72,25.53 176.39,21.18 181.2,17 186.13,12.99 191.18,9.16 196.33,5.52 201.58,2.08 206.91,-1.16 212.31,-4.2 217.78,-7.03 223.3,-9.64 228.87,-12.05 234.49,-14.24 240.13,-16.21 245.81,-17.97 251.51,-19.52 257.24,-20.85 262.98,-21.97 268.75,-22.88 274.55,-23.59 280.37,-24.08 286.23,-24.36 291.4,-24.44 -74.84,-24.44" fill="none" fill-opacity="0"/>
        </clipPath>
        <clipPath id="import.1.clip15.1">
          <path id="import.1.clip15::GRID.gTree.152.1::GRID.picComplexPath.149.1::GRID.pathgrob.153.1.1" d="M 0 243.04 L 232.96 243.04 L 232.96 84 L 0 84 Z" fill-rule="nonzero" stroke="none" stroke-opacity="0"/>
          <polyline id="import.1.clip15::GRID.gTree.152.1::GRID.picComplexPath.149.1::GRID.polyline.154.1.1" points="0,243.04 232.96,243.04 232.96,84 0,84 0,243.04" fill="none" fill-opacity="0"/>
        </clipPath>
        <clipPath id="import.1.clip16.1">
          <path id="import.1.clip16::GRID.gTree.158.1::GRID.picComplexPath.155.1::GRID.pathgrob.159.1.1" d="M -66.44 333.4 L -66.44 333.4 L -66.34 327.51 L -66.03 321.66 L -65.51 315.84 L -64.78 310.05 L -63.85 304.28 L -62.7 298.53 L -61.34 292.81 L -59.77 287.11 L -57.98 281.44 L -55.98 275.8 L -53.76 270.19 L -51.33 264.62 L -48.69 259.11 L -45.84 253.65 L -42.77 248.25 L -39.51 242.93 L -36.04 237.7 L -32.38 232.56 L -28.53 227.52 L -24.5 222.6 L -20.29 217.81 L -15.92 213.16 L -11.4 208.65 L -6.73 204.3 L -1.92 200.12 L 3.01 196.11 L 8.06 192.28 L 13.21 188.64 L 18.46 185.2 L 23.79 181.96 L 29.19 178.92 L 34.66 176.09 L 40.18 173.48 L 45.75 171.07 L 51.37 168.88 L 57.01 166.91 L 62.69 165.15 L 68.39 163.6 L 74.12 162.27 L 79.86 161.15 L 85.63 160.24 L 91.43 159.53 L 97.25 159.04 L 103.11 158.76 L 108.28 158.68 L 108.28 158.68 L 114.17 158.78 L 120.02 159.09 L 125.84 159.61 L 131.63 160.34 L 137.39 161.27 L 143.14 162.42 L 148.86 163.78 L 154.56 165.35 L 160.23 167.14 L 165.88 169.14 L 171.48 171.36 L 177.05 173.79 L 182.57 176.43 L 188.03 179.28 L 193.42 182.35 L 198.74 185.61 L 203.98 189.08 L 209.12 192.74 L 214.15 196.59 L 219.07 200.62 L 223.86 204.83 L 228.52 209.2 L 233.02 213.72 L 237.37 218.39 L 241.56 223.2 L 245.56 228.13 L 249.39 233.18 L 253.03 238.33 L 256.47 243.58 L 259.71 248.91 L 262.75 254.31 L 265.58 259.78 L 268.2 265.3 L 270.6 270.87 L 272.79 276.49 L 274.77 282.13 L 276.53 287.81 L 278.07 293.51 L 279.41 299.24 L 280.53 304.98 L 281.44 310.75 L 282.14 316.55 L 282.63 322.37 L 282.92 328.23 L 283 333.4 L 283 -32.84 L 283 -32.84 L 282.89 -26.95 L 282.58 -21.1 L 282.06 -15.28 L 281.34 -9.49 L 280.4 -3.73 L 279.25 2.02 L 277.9 7.74 L 276.32 13.44 L 274.54 19.11 L 272.53 24.76 L 270.32 30.36 L 267.89 35.93 L 265.24 41.45 L 262.39 46.91 L 259.33 52.3 L 256.06 57.62 L 252.59 62.86 L 248.93 68 L 245.08 73.03 L 241.05 77.95 L 236.85 82.74 L 232.48 87.4 L 227.95 91.9 L 223.28 96.25 L 218.47 100.44 L 213.54 104.44 L 208.49 108.27 L 203.34 111.91 L 198.1 115.35 L 192.77 118.59 L 187.36 121.63 L 181.89 124.46 L 176.37 127.08 L 170.8 129.48 L 165.19 131.67 L 159.54 133.65 L 153.86 135.41 L 148.16 136.95 L 142.44 138.29 L 136.69 139.41 L 130.92 140.32 L 125.13 141.02 L 119.3 141.51 L 113.45 141.8 L 108.28 141.88 L 108.28 141.88 L 102.39 141.77 L 96.54 141.46 L 90.72 140.94 L 84.93 140.22 L 79.16 139.28 L 73.41 138.13 L 67.69 136.78 L 61.99 135.2 L 56.32 133.42 L 50.68 131.41 L 45.07 129.2 L 39.5 126.77 L 33.99 124.12 L 28.53 121.27 L 23.13 118.21 L 17.81 114.94 L 12.58 111.47 L 7.44 107.81 L 2.4 103.96 L -2.52 99.93 L -7.31 95.73 L -11.96 91.36 L -16.47 86.83 L -20.82 82.16 L -25 77.35 L -29.01 72.42 L -32.84 67.37 L -36.48 62.22 L -39.92 56.98 L -43.16 51.65 L -46.2 46.24 L -49.03 40.77 L -51.64 35.25 L -54.05 29.68 L -56.24 24.07 L -58.21 18.42 L -59.97 12.74 L -61.52 7.04 L -62.85 1.32 L -63.97 -4.43 L -64.88 -10.2 L -65.59 -15.99 L -66.08 -21.82 L -66.36 -27.67 L -66.44 -32.84 Z" fill-rule="nonzero" stroke="none" stroke-opacity="0"/>
          <polyline id="import.1.clip16::GRID.gTree.158.1::GRID.picComplexPath.155.1::GRID.polyline.160.1.1" points="-66.44,333.4 -66.44,333.4 -66.34,327.51 -66.03,321.66 -65.51,315.84 -64.78,310.05 -63.85,304.28 -62.7,298.53 -61.34,292.81 -59.77,287.11 -57.98,281.44 -55.98,275.8 -53.76,270.19 -51.33,264.62 -48.69,259.11 -45.84,253.65 -42.77,248.25 -39.51,242.93 -36.04,237.7 -32.38,232.56 -28.53,227.52 -24.5,222.6 -20.29,217.81 -15.92,213.16 -11.4,208.65 -6.73,204.3 -1.92,200.12 3.01,196.11 8.06,192.28 13.21,188.64 18.46,185.2 23.79,181.96 29.19,178.92 34.66,176.09 40.18,173.48 45.75,171.07 51.37,168.88 57.01,166.91 62.69,165.15 68.39,163.6 74.12,162.27 79.86,161.15 85.63,160.24 91.43,159.53 97.25,159.04 103.11,158.76 108.28,158.68 108.28,158.68 114.17,158.78 120.02,159.09 125.84,159.61 131.63,160.34 137.39,161.27 143.14,162.42 148.86,163.78 154.56,165.35 160.23,167.14 165.88,169.14 171.48,171.36 177.05,173.79 182.57,176.43 188.03,179.28 193.42,182.35 198.74,185.61 203.98,189.08 209.12,192.74 214.15,196.59 219.07,200.62 223.86,204.83 228.52,209.2 233.02,213.72 237.37,218.39 241.56,223.2 245.56,228.13 249.39,233.18 253.03,238.33 256.47,243.58 259.71,248.91 262.75,254.31 265.58,259.78 268.2,265.3 270.6,270.87 272.79,276.49 274.77,282.13 276.53,287.81 278.07,293.51 279.41,299.24 280.53,304.98 281.44,310.75 282.14,316.55 282.63,322.37 282.92,328.23 283,333.4 283,-32.84 283,-32.84 282.89,-26.95 282.58,-21.1 282.06,-15.28 281.34,-9.49 280.4,-3.73 279.25,2.02 277.9,7.74 276.32,13.44 274.54,19.11 272.53,24.76 270.32,30.36 267.89,35.93 265.24,41.45 262.39,46.91 259.33,52.3 256.06,57.62 252.59,62.86 248.93,68 245.08,73.03 241.05,77.95 236.85,82.74 232.48,87.4 227.95,91.9 223.28,96.25 218.47,100.44 213.54,104.44 208.49,108.27 203.34,111.91 198.1,115.35 192.77,118.59 187.36,121.63 181.89,124.46 176.37,127.08 170.8,129.48 165.19,131.67 159.54,133.65 153.86,135.41 148.16,136.95 142.44,138.29 136.69,139.41 130.92,140.32 125.13,141.02 119.3,141.51 113.45,141.8 108.28,141.88 108.28,141.88 102.39,141.77 96.54,141.46 90.72,140.94 84.93,140.22 79.16,139.28 73.41,138.13 67.69,136.78 61.99,135.2 56.32,133.42 50.68,131.41 45.07,129.2 39.5,126.77 33.99,124.12 28.53,121.27 23.13,118.21 17.81,114.94 12.58,111.47 7.44,107.81 2.4,103.96 -2.52,99.93 -7.31,95.73 -11.96,91.36 -16.47,86.83 -20.82,82.16 -25,77.35 -29.01,72.42 -32.84,67.37 -36.48,62.22 -39.92,56.98 -43.16,51.65 -46.2,46.24 -49.03,40.77 -51.64,35.25 -54.05,29.68 -56.24,24.07 -58.21,18.42 -59.97,12.74 -61.52,7.04 -62.85,1.32 -63.97,-4.43 -64.88,-10.2 -65.59,-15.99 -66.08,-21.82 -66.36,-27.67 -66.44,-32.84 -66.44,333.4" fill="none" fill-opacity="0"/>
        </clipPath>
      </defs>
      <g id="picture.shape::picture.scale.1">
        <defs>
          <clipPath id="picture.shape::picture.scale.2.clipPath">
            <rect x="0" y="84" width="504" height="336" fill="none" stroke="none"/>
          </clipPath>
        </defs>
        <g id="picture.shape::picture.scale.2" clip-path="url(#picture.shape::picture.scale.2.clipPath)">
          <g id="import.1.GRID.gTree.206.1">
            <g id="GRID.gTree.205.1">
              <g id="GRID.rect.226.1">
                <rect id="GRID.rect.226.1.1" x="0" y="84" width="504" height="336" fill="rgb(255,255,255)" stroke="none" stroke-opacity="0" fill-opacity="1"/>
              </g>
              <g id="GRID.picComplexPath.162.1" stroke="none" fill="rgb(255,0,0)" stroke-opacity="0" fill-opacity="1">
                <g id="GRID.pathgrob.227.1">
                  <path id="GRID.pathgrob.227.1.1" d="M 218.4 420 L 218.4 285.6 L 0 285.6 L 0 218.4 L 218.4 218.4 L 218.4 84 L 285.6 84 L 285.6 218.4 L 504 218.4 L 504 285.6 L 285.6 285.6 L 285.6 420 Z" fill-rule="nonzero" stroke="none" stroke-opacity="0"/>
                </g>
                <g id="GRID.polyline.228.1">
                  <polyline id="GRID.polyline.228.1.1" points="218.4,420 218.4,285.6 0,285.6 0,218.4 218.4,218.4 218.4,84 285.6,84 285.6,218.4 504,218.4 504,285.6 285.6,285.6 285.6,420 218.4,420" fill="none" fill-opacity="0"/>
                </g>
              </g>
              <g id="GRID.gTree.169.1" clip-path="url(#import.1.clip1.1)">
                <g id="GRID.gTree.168.1" clip-path="url(#import.1.clip2.1)">
                  <g id="GRID.picComplexPath.165.1" stroke="none" fill="rgb(255,0,0)" stroke-opacity="0" fill-opacity="1">
                    <g id="GRID.pathgrob.229.1">
                      <path id="GRID.pathgrob.229.1.1" d="M 15.88 229.4 L 15.88 229.4 L 15.98 233.61 L 16.28 237.78 L 16.78 241.93 L 17.48 246.05 L 18.39 250.15 L 19.51 254.23 L 20.83 258.28 L 22.36 262.3 L 24.1 266.28 L 26.04 270.21 L 28.19 274.09 L 30.53 277.89 L 33.07 281.6 L 35.79 285.22 L 38.69 288.73 L 41.75 292.11 L 44.97 295.36 L 48.33 298.45 L 51.81 301.38 L 55.41 304.13 L 59.11 306.7 L 62.9 309.08 L 66.76 311.26 L 70.68 313.24 L 74.66 315.02 L 78.67 316.59 L 82.72 317.95 L 86.79 319.1 L 90.89 320.05 L 95 320.79 L 99.14 321.33 L 103.31 321.66 L 107.51 321.8 L 108.28 321.8 L 108.28 321.8 L 112.48 321.7 L 116.66 321.4 L 120.8 320.9 L 124.92 320.2 L 129.02 319.29 L 133.1 318.17 L 137.15 316.85 L 141.17 315.32 L 145.15 313.58 L 149.08 311.64 L 152.96 309.49 L 156.76 307.15 L 160.48 304.61 L 164.1 301.89 L 167.6 298.99 L 170.99 295.93 L 174.23 292.71 L 177.32 289.35 L 180.25 285.87 L 183 282.27 L 185.57 278.57 L 187.95 274.78 L 190.14 270.92 L 192.12 267 L 193.89 263.02 L 195.46 259.01 L 196.82 254.96 L 197.97 250.89 L 198.92 246.79 L 199.66 242.68 L 200.2 238.54 L 200.54 234.37 L 200.67 230.17 L 200.68 229.4 L 200.68 478.04 L 200.68 478.04 L 200.58 473.84 L 200.28 469.66 L 199.77 465.52 L 199.07 461.4 L 198.16 457.3 L 197.04 453.22 L 195.72 449.17 L 194.19 445.15 L 192.45 441.17 L 190.51 437.24 L 188.36 433.36 L 186.02 429.56 L 183.48 425.84 L 180.76 422.22 L 177.86 418.72 L 174.8 415.33 L 171.59 412.09 L 168.23 409 L 164.74 406.07 L 161.14 403.32 L 157.44 400.75 L 153.65 398.37 L 149.79 396.18 L 145.87 394.2 L 141.9 392.43 L 137.88 390.86 L 133.84 389.5 L 129.76 388.35 L 125.67 387.4 L 121.55 386.66 L 117.41 386.12 L 113.24 385.78 L 109.04 385.65 L 108.28 385.64 L 108.28 385.64 L 104.07 385.74 L 99.9 386.04 L 95.75 386.55 L 91.63 387.25 L 87.53 388.16 L 83.45 389.28 L 79.4 390.6 L 75.38 392.13 L 71.4 393.87 L 67.47 395.81 L 63.59 397.96 L 59.79 400.3 L 56.08 402.84 L 52.46 405.56 L 48.95 408.46 L 45.57 411.52 L 42.32 414.73 L 39.23 418.09 L 36.3 421.58 L 33.55 425.18 L 30.98 428.88 L 28.6 432.67 L 26.42 436.53 L 24.44 440.45 L 22.66 444.42 L 21.09 448.44 L 19.73 452.48 L 18.58 456.56 L 17.63 460.65 L 16.89 464.77 L 16.35 468.91 L 16.02 473.08 L 15.88 477.28 L 15.88 478.04 Z" fill-rule="nonzero" stroke="none" stroke-opacity="0"/>
                    </g>
                    <g id="GRID.polyline.230.1">
                      <polyline id="GRID.polyline.230.1.1" points="15.88,229.4 15.88,229.4 15.98,233.61 16.28,237.78 16.78,241.93 17.48,246.05 18.39,250.15 19.51,254.23 20.83,258.28 22.36,262.3 24.1,266.28 26.04,270.21 28.19,274.09 30.53,277.89 33.07,281.6 35.79,285.22 38.69,288.73 41.75,292.11 44.97,295.36 48.33,298.45 51.81,301.38 55.41,304.13 59.11,306.7 62.9,309.08 66.76,311.26 70.68,313.24 74.66,315.02 78.67,316.59 82.72,317.95 86.79,319.1 90.89,320.05 95,320.79 99.14,321.33 103.31,321.66 107.51,321.8 108.28,321.8 108.28,321.8 112.48,321.7 116.66,321.4 120.8,320.9 124.92,320.2 129.02,319.29 133.1,318.17 137.15,316.85 141.17,315.32 145.15,313.58 149.08,311.64 152.96,309.49 156.76,307.15 160.48,304.61 164.1,301.89 167.6,298.99 170.99,295.93 174.23,292.71 177.32,289.35 180.25,285.87 183,282.27 185.57,278.57 187.95,274.78 190.14,270.92 192.12,267 193.89,263.02 195.46,259.01 196.82,254.96 197.97,250.89 198.92,246.79 199.66,242.68 200.2,238.54 200.54,234.37 200.67,230.17 200.68,229.4 200.68,478.04 200.68,478.04 200.58,473.84 200.28,469.66 199.77,465.52 199.07,461.4 198.16,457.3 197.04,453.22 195.72,449.17 194.19,445.15 192.45,441.17 190.51,437.24 188.36,433.36 186.02,429.56 183.48,425.84 180.76,422.22 177.86,418.72 174.8,415.33 171.59,412.09 168.23,409 164.74,406.07 161.14,403.32 157.44,400.75 153.65,398.37 149.79,396.18 145.87,394.2 141.9,392.43 137.88,390.86 133.84,389.5 129.76,388.35 125.67,387.4 121.55,386.66 117.41,386.12 113.24,385.78 109.04,385.65 108.28,385.64 108.28,385.64 104.07,385.74 99.9,386.04 95.75,386.55 91.63,387.25 87.53,388.16 83.45,389.28 79.4,390.6 75.38,392.13 71.4,393.87 67.47,395.81 63.59,397.96 59.79,400.3 56.08,402.84 52.46,405.56 48.95,408.46 45.57,411.52 42.32,414.73 39.23,418.09 36.3,421.58 33.55,425.18 30.98,428.88 28.6,432.67 26.42,436.53 24.44,440.45 22.66,444.42 21.09,448.44 19.73,452.48 18.58,456.56 17.63,460.65 16.89,464.77 16.35,468.91 16.02,473.08 15.88,477.28 15.88,478.04 15.88,229.4" fill="none" fill-opacity="0"/>
                    </g>
                  </g>
                </g>
              </g>
              <g id="GRID.gTree.174.1" clip-path="url(#import.1.clip3.1)">
                <g id="GRID.gTree.173.1" clip-path="url(#import.1.clip4.1)">
                  <g id="GRID.picComplexPath.170.1" stroke="none" fill="rgb(255,0,0)" stroke-opacity="0" fill-opacity="1">
                    <g id="GRID.pathgrob.231.1">
                      <path id="GRID.pathgrob.231.1.1" d="M -16.04 446.12 L -16.04 446.12 L -11.84 446.02 L -7.66 445.72 L -3.52 445.22 L 0.6 444.52 L 4.7 443.61 L 8.78 442.49 L 12.83 441.17 L 16.85 439.64 L 20.83 437.9 L 24.76 435.96 L 28.64 433.81 L 32.44 431.47 L 36.16 428.93 L 39.78 426.21 L 43.28 423.31 L 46.67 420.25 L 49.91 417.03 L 53 413.67 L 55.93 410.19 L 58.68 406.59 L 61.25 402.89 L 63.63 399.1 L 65.82 395.24 L 67.8 391.32 L 69.57 387.34 L 71.14 383.33 L 72.5 379.28 L 73.65 375.21 L 74.6 371.11 L 75.34 367 L 75.88 362.86 L 76.22 358.69 L 76.35 354.49 L 76.36 353.72 L 76.36 353.72 L 76.26 349.52 L 75.96 345.34 L 75.45 341.2 L 74.75 337.08 L 73.84 332.98 L 72.72 328.9 L 71.4 324.85 L 69.87 320.83 L 68.13 316.85 L 66.19 312.92 L 64.04 309.04 L 61.7 305.24 L 59.16 301.52 L 56.44 297.9 L 53.54 294.4 L 50.48 291.01 L 47.27 287.77 L 43.91 284.68 L 40.42 281.75 L 36.82 279 L 33.12 276.43 L 29.33 274.05 L 25.47 271.86 L 21.55 269.88 L 17.58 268.11 L 13.56 266.54 L 9.52 265.18 L 5.44 264.03 L 1.35 263.08 L -2.77 262.34 L -6.91 261.8 L -11.08 261.46 L -15.28 261.33 L -16.04 261.32 L 232.6 261.32 L 232.6 261.32 L 228.39 261.42 L 224.22 261.72 L 220.07 262.23 L 215.95 262.93 L 211.85 263.84 L 207.77 264.96 L 203.72 266.28 L 199.7 267.81 L 195.72 269.55 L 191.79 271.49 L 187.91 273.64 L 184.11 275.98 L 180.4 278.52 L 176.78 281.24 L 173.27 284.14 L 169.89 287.2 L 166.64 290.41 L 163.55 293.77 L 160.62 297.26 L 157.87 300.86 L 155.3 304.56 L 152.92 308.35 L 150.74 312.21 L 148.76 316.13 L 146.98 320.1 L 145.41 324.12 L 144.05 328.16 L 142.9 332.24 L 141.95 336.33 L 141.21 340.45 L 140.67 344.59 L 140.34 348.76 L 140.2 352.96 L 140.2 353.72 L 140.2 353.72 L 140.3 357.93 L 140.6 362.1 L 141.1 366.25 L 141.8 370.37 L 142.71 374.47 L 143.83 378.55 L 145.15 382.6 L 146.68 386.62 L 148.42 390.6 L 150.36 394.53 L 152.51 398.41 L 154.85 402.21 L 157.39 405.92 L 160.11 409.54 L 163.01 413.05 L 166.07 416.43 L 169.29 419.68 L 172.65 422.77 L 176.13 425.7 L 179.73 428.45 L 183.43 431.02 L 187.22 433.4 L 191.08 435.58 L 195 437.56 L 198.98 439.34 L 202.99 440.91 L 207.04 442.27 L 211.11 443.42 L 215.21 444.37 L 219.32 445.11 L 223.46 445.65 L 227.63 445.98 L 231.83 446.12 L 232.6 446.12 Z" fill-rule="nonzero" stroke="none" stroke-opacity="0"/>
                    </g>
                    <g id="GRID.polyline.232.1">
                      <polyline id="GRID.polyline.232.1.1" points="-16.04,446.12 -16.04,446.12 -11.84,446.02 -7.66,445.72 -3.52,445.22 0.6,444.52 4.7,443.61 8.78,442.49 12.83,441.17 16.85,439.64 20.83,437.9 24.76,435.96 28.64,433.81 32.44,431.47 36.16,428.93 39.78,426.21 43.28,423.31 46.67,420.25 49.91,417.03 53,413.67 55.93,410.19 58.68,406.59 61.25,402.89 63.63,399.1 65.82,395.24 67.8,391.32 69.57,387.34 71.14,383.33 72.5,379.28 73.65,375.21 74.6,371.11 75.34,367 75.88,362.86 76.22,358.69 76.35,354.49 76.36,353.72 76.36,353.72 76.26,349.52 75.96,345.34 75.45,341.2 74.75,337.08 73.84,332.98 72.72,328.9 71.4,324.85 69.87,320.83 68.13,316.85 66.19,312.92 64.04,309.04 61.7,305.24 59.16,301.52 56.44,297.9 53.54,294.4 50.48,291.01 47.27,287.77 43.91,284.68 40.42,281.75 36.82,279 33.12,276.43 29.33,274.05 25.47,271.86 21.55,269.88 17.58,268.11 13.56,266.54 9.52,265.18 5.44,264.03 1.35,263.08 -2.77,262.34 -6.91,261.8 -11.08,261.46 -15.28,261.33 -16.04,261.32 232.6,261.32 232.6,261.32 228.39,261.42 224.22,261.72 220.07,262.23 215.95,262.93 211.85,263.84 207.77,264.96 203.72,266.28 199.7,267.81 195.72,269.55 191.79,271.49 187.91,273.64 184.11,275.98 180.4,278.52 176.78,281.24 173.27,284.14 169.89,287.2 166.64,290.41 163.55,293.77 160.62,297.26 157.87,300.86 155.3,304.56 152.92,308.35 150.74,312.21 148.76,316.13 146.98,320.1 145.41,324.12 144.05,328.16 142.9,332.24 141.95,336.33 141.21,340.45 140.67,344.59 140.34,348.76 140.2,352.96 140.2,353.72 140.2,353.72 140.3,357.93 140.6,362.1 141.1,366.25 141.8,370.37 142.71,374.47 143.83,378.55 145.15,382.6 146.68,386.62 148.42,390.6 150.36,394.53 152.51,398.41 154.85,402.21 157.39,405.92 160.11,409.54 163.01,413.05 166.07,416.43 169.29,419.68 172.65,422.77 176.13,425.7 179.73,428.45 183.43,431.02 187.22,433.4 191.08,435.58 195,437.56 198.98,439.34 202.99,440.91 207.04,442.27 211.11,443.42 215.21,444.37 219.32,445.11 223.46,445.65 227.63,445.98 231.83,446.12 232.6,446.12 -16.04,446.12" fill="none" fill-opacity="0"/>
                    </g>
                  </g>
                </g>
              </g>
              <g id="GRID.gTree.179.1" clip-path="url(#import.1.clip5.1)">
                <g id="GRID.gTree.178.1" clip-path="url(#import.1.clip6.1)">
                  <g id="GRID.picComplexPath.175.1" stroke="none" fill="rgb(255,0,0)" stroke-opacity="0" fill-opacity="1">
                    <g id="GRID.pathgrob.233.1">
                      <path id="GRID.pathgrob.233.1.1" d="M 303.32 25.96 L 303.32 25.96 L 303.42 30.16 L 303.72 34.34 L 304.23 38.48 L 304.93 42.6 L 305.84 46.7 L 306.96 50.78 L 308.28 54.83 L 309.81 58.85 L 311.55 62.83 L 313.49 66.76 L 315.64 70.64 L 317.98 74.44 L 320.52 78.16 L 323.24 81.78 L 326.14 85.28 L 329.2 88.67 L 332.41 91.91 L 335.77 95 L 339.26 97.93 L 342.86 100.68 L 346.56 103.25 L 350.35 105.63 L 354.21 107.82 L 358.13 109.8 L 362.1 111.57 L 366.12 113.14 L 370.16 114.5 L 374.24 115.65 L 378.33 116.6 L 382.45 117.34 L 386.59 117.88 L 390.76 118.22 L 394.96 118.35 L 395.72 118.36 L 395.72 118.36 L 399.93 118.26 L 404.1 117.96 L 408.25 117.45 L 412.37 116.75 L 416.47 115.84 L 420.55 114.72 L 424.6 113.4 L 428.62 111.87 L 432.6 110.13 L 436.53 108.19 L 440.41 106.04 L 444.21 103.7 L 447.92 101.16 L 451.54 98.44 L 455.05 95.54 L 458.43 92.48 L 461.68 89.27 L 464.77 85.91 L 467.7 82.42 L 470.45 78.82 L 473.02 75.12 L 475.4 71.33 L 477.58 67.47 L 479.56 63.55 L 481.34 59.58 L 482.91 55.56 L 484.27 51.52 L 485.42 47.44 L 486.37 43.35 L 487.11 39.23 L 487.65 35.09 L 487.98 30.92 L 488.12 26.72 L 488.12 25.96 L 488.12 274.6 L 488.12 274.6 L 488.02 270.39 L 487.72 266.22 L 487.22 262.07 L 486.52 257.95 L 485.61 253.85 L 484.49 249.77 L 483.17 245.72 L 481.64 241.7 L 479.9 237.72 L 477.96 233.79 L 475.81 229.91 L 473.47 226.11 L 470.93 222.4 L 468.21 218.78 L 465.31 215.27 L 462.25 211.89 L 459.03 208.64 L 455.67 205.55 L 452.19 202.62 L 448.59 199.87 L 444.89 197.3 L 441.1 194.92 L 437.24 192.74 L 433.32 190.76 L 429.34 188.98 L 425.33 187.41 L 421.28 186.05 L 417.21 184.9 L 413.11 183.95 L 409 183.21 L 404.86 182.67 L 400.69 182.34 L 396.49 182.2 L 395.72 182.2 L 395.72 182.2 L 391.52 182.3 L 387.34 182.6 L 383.2 183.1 L 379.08 183.8 L 374.98 184.71 L 370.9 185.83 L 366.85 187.15 L 362.83 188.68 L 358.85 190.42 L 354.92 192.36 L 351.04 194.51 L 347.24 196.85 L 343.52 199.39 L 339.9 202.11 L 336.4 205.01 L 333.01 208.07 L 329.77 211.29 L 326.68 214.65 L 323.75 218.13 L 321 221.73 L 318.43 225.43 L 316.05 229.22 L 313.86 233.08 L 311.88 237 L 310.11 240.98 L 308.54 244.99 L 307.18 249.04 L 306.03 253.11 L 305.08 257.21 L 304.34 261.32 L 303.8 265.46 L 303.46 269.63 L 303.33 273.83 L 303.32 274.6 Z" fill-rule="nonzero" stroke="none" stroke-opacity="0"/>
                    </g>
                    <g id="GRID.polyline.234.1">
                      <polyline id="GRID.polyline.234.1.1" points="303.32,25.96 303.32,25.96 303.42,30.16 303.72,34.34 304.23,38.48 304.93,42.6 305.84,46.7 306.96,50.78 308.28,54.83 309.81,58.85 311.55,62.83 313.49,66.76 315.64,70.64 317.98,74.44 320.52,78.16 323.24,81.78 326.14,85.28 329.2,88.67 332.41,91.91 335.77,95 339.26,97.93 342.86,100.68 346.56,103.25 350.35,105.63 354.21,107.82 358.13,109.8 362.1,111.57 366.12,113.14 370.16,114.5 374.24,115.65 378.33,116.6 382.45,117.34 386.59,117.88 390.76,118.22 394.96,118.35 395.72,118.36 395.72,118.36 399.93,118.26 404.1,117.96 408.25,117.45 412.37,116.75 416.47,115.84 420.55,114.72 424.6,113.4 428.62,111.87 432.6,110.13 436.53,108.19 440.41,106.04 444.21,103.7 447.92,101.16 451.54,98.44 455.05,95.54 458.43,92.48 461.68,89.27 464.77,85.91 467.7,82.42 470.45,78.82 473.02,75.12 475.4,71.33 477.58,67.47 479.56,63.55 481.34,59.58 482.91,55.56 484.27,51.52 485.42,47.44 486.37,43.35 487.11,39.23 487.65,35.09 487.98,30.92 488.12,26.72 488.12,25.96 488.12,274.6 488.12,274.6 488.02,270.39 487.72,266.22 487.22,262.07 486.52,257.95 485.61,253.85 484.49,249.77 483.17,245.72 481.64,241.7 479.9,237.72 477.96,233.79 475.81,229.91 473.47,226.11 470.93,222.4 468.21,218.78 465.31,215.27 462.25,211.89 459.03,208.64 455.67,205.55 452.19,202.62 448.59,199.87 444.89,197.3 441.1,194.92 437.24,192.74 433.32,190.76 429.34,188.98 425.33,187.41 421.28,186.05 417.21,184.9 413.11,183.95 409,183.21 404.86,182.67 400.69,182.34 396.49,182.2 395.72,182.2 395.72,182.2 391.52,182.3 387.34,182.6 383.2,183.1 379.08,183.8 374.98,184.71 370.9,185.83 366.85,187.15 362.83,188.68 358.85,190.42 354.92,192.36 351.04,194.51 347.24,196.85 343.52,199.39 339.9,202.11 336.4,205.01 333.01,208.07 329.77,211.29 326.68,214.65 323.75,218.13 321,221.73 318.43,225.43 316.05,229.22 313.86,233.08 311.88,237 310.11,240.98 308.54,244.99 307.18,249.04 306.03,253.11 305.08,257.21 304.34,261.32 303.8,265.46 303.46,269.63 303.33,273.83 303.32,274.6 303.32,25.96" fill="none" fill-opacity="0"/>
                    </g>
                  </g>
                </g>
              </g>
              <g id="GRID.gTree.184.1" clip-path="url(#import.1.clip7.1)">
                <g id="GRID.gTree.183.1" clip-path="url(#import.1.clip8.1)">
                  <g id="GRID.picComplexPath.180.1" stroke="none" fill="rgb(255,0,0)" stroke-opacity="0" fill-opacity="1">
                    <g id="GRID.pathgrob.235.1">
                      <path id="GRID.pathgrob.235.1.1" d="M 271.4 242.68 L 271.4 242.68 L 275.61 242.58 L 279.78 242.28 L 283.93 241.77 L 288.05 241.07 L 292.15 240.16 L 296.23 239.04 L 300.28 237.72 L 304.3 236.19 L 308.28 234.45 L 312.21 232.51 L 316.09 230.36 L 319.89 228.02 L 323.6 225.48 L 327.22 222.76 L 330.73 219.86 L 334.11 216.8 L 337.36 213.59 L 340.45 210.23 L 343.38 206.74 L 346.13 203.14 L 348.7 199.44 L 351.08 195.65 L 353.26 191.79 L 355.24 187.87 L 357.02 183.9 L 358.59 179.88 L 359.95 175.84 L 361.1 171.76 L 362.05 167.67 L 362.79 163.55 L 363.33 159.41 L 363.66 155.24 L 363.8 151.04 L 363.8 150.28 L 363.8 150.28 L 363.7 146.07 L 363.4 141.9 L 362.9 137.75 L 362.2 133.63 L 361.29 129.53 L 360.17 125.45 L 358.85 121.4 L 357.32 117.38 L 355.58 113.4 L 353.64 109.47 L 351.49 105.59 L 349.15 101.79 L 346.61 98.08 L 343.89 94.46 L 340.99 90.95 L 337.93 87.57 L 334.71 84.32 L 331.35 81.23 L 327.87 78.3 L 324.27 75.55 L 320.57 72.98 L 316.78 70.6 L 312.92 68.42 L 309 66.44 L 305.02 64.66 L 301.01 63.09 L 296.96 61.73 L 292.89 60.58 L 288.79 59.63 L 284.68 58.89 L 280.54 58.35 L 276.37 58.02 L 272.17 57.88 L 271.4 57.88 L 520.04 57.88 L 520.04 57.88 L 515.84 57.98 L 511.66 58.28 L 507.52 58.78 L 503.4 59.48 L 499.3 60.39 L 495.22 61.51 L 491.17 62.83 L 487.15 64.36 L 483.17 66.1 L 479.24 68.04 L 475.36 70.19 L 471.56 72.53 L 467.84 75.07 L 464.22 77.79 L 460.72 80.69 L 457.33 83.75 L 454.09 86.97 L 451 90.33 L 448.07 93.81 L 445.32 97.41 L 442.75 101.11 L 440.37 104.9 L 438.18 108.76 L 436.2 112.68 L 434.43 116.66 L 432.86 120.67 L 431.5 124.72 L 430.35 128.79 L 429.4 132.89 L 428.66 137 L 428.12 141.14 L 427.78 145.31 L 427.65 149.51 L 427.64 150.28 L 427.64 150.28 L 427.74 154.48 L 428.04 158.66 L 428.55 162.8 L 429.25 166.92 L 430.16 171.02 L 431.28 175.1 L 432.6 179.15 L 434.13 183.17 L 435.87 187.15 L 437.81 191.08 L 439.96 194.96 L 442.3 198.76 L 444.84 202.48 L 447.56 206.1 L 450.46 209.6 L 453.52 212.99 L 456.73 216.23 L 460.09 219.32 L 463.58 222.25 L 467.18 225 L 470.88 227.57 L 474.67 229.95 L 478.53 232.14 L 482.45 234.12 L 486.42 235.89 L 490.44 237.46 L 494.48 238.82 L 498.56 239.97 L 502.65 240.92 L 506.77 241.66 L 510.91 242.2 L 515.08 242.54 L 519.28 242.67 L 520.04 242.68 Z" fill-rule="nonzero" stroke="none" stroke-opacity="0"/>
                    </g>
                    <g id="GRID.polyline.236.1">
                      <polyline id="GRID.polyline.236.1.1" points="271.4,242.68 271.4,242.68 275.61,242.58 279.78,242.28 283.93,241.77 288.05,241.07 292.15,240.16 296.23,239.04 300.28,237.72 304.3,236.19 308.28,234.45 312.21,232.51 316.09,230.36 319.89,228.02 323.6,225.48 327.22,222.76 330.73,219.86 334.11,216.8 337.36,213.59 340.45,210.23 343.38,206.74 346.13,203.14 348.7,199.44 351.08,195.65 353.26,191.79 355.24,187.87 357.02,183.9 358.59,179.88 359.95,175.84 361.1,171.76 362.05,167.67 362.79,163.55 363.33,159.41 363.66,155.24 363.8,151.04 363.8,150.28 363.8,150.28 363.7,146.07 363.4,141.9 362.9,137.75 362.2,133.63 361.29,129.53 360.17,125.45 358.85,121.4 357.32,117.38 355.58,113.4 353.64,109.47 351.49,105.59 349.15,101.79 346.61,98.08 343.89,94.46 340.99,90.95 337.93,87.57 334.71,84.32 331.35,81.23 327.87,78.3 324.27,75.55 320.57,72.98 316.78,70.6 312.92,68.42 309,66.44 305.02,64.66 301.01,63.09 296.96,61.73 292.89,60.58 288.79,59.63 284.68,58.89 280.54,58.35 276.37,58.02 272.17,57.88 271.4,57.88 520.04,57.88 520.04,57.88 515.84,57.98 511.66,58.28 507.52,58.78 503.4,59.48 499.3,60.39 495.22,61.51 491.17,62.83 487.15,64.36 483.17,66.1 479.24,68.04 475.36,70.19 471.56,72.53 467.84,75.07 464.22,77.79 460.72,80.69 457.33,83.75 454.09,86.97 451,90.33 448.07,93.81 445.32,97.41 442.75,101.11 440.37,104.9 438.18,108.76 436.2,112.68 434.43,116.66 432.86,120.67 431.5,124.72 430.35,128.79 429.4,132.89 428.66,137 428.12,141.14 427.78,145.31 427.65,149.51 427.64,150.28 427.64,150.28 427.74,154.48 428.04,158.66 428.55,162.8 429.25,166.92 430.16,171.02 431.28,175.1 432.6,179.15 434.13,183.17 435.87,187.15 437.81,191.08 439.96,194.96 442.3,198.76 444.84,202.48 447.56,206.1 450.46,209.6 453.52,212.99 456.73,216.23 460.09,219.32 463.58,222.25 467.18,225 470.88,227.57 474.67,229.95 478.53,232.14 482.45,234.12 486.42,235.89 490.44,237.46 494.48,238.82 498.56,239.97 502.65,240.92 506.77,241.66 510.91,242.2 515.08,242.54 519.28,242.67 520.04,242.68 271.4,242.68" fill="none" fill-opacity="0"/>
                    </g>
                  </g>
                </g>
              </g>
              <g id="GRID.gTree.189.1" clip-path="url(#import.1.clip9.1)">
                <g id="GRID.gTree.188.1" clip-path="url(#import.1.clip10.1)">
                  <g id="GRID.picComplexPath.185.1" stroke="none" fill="rgb(255,0,0)" stroke-opacity="0" fill-opacity="1">
                    <g id="GRID.pathgrob.237.1">
                      <path id="GRID.pathgrob.237.1.1" d="M 303.32 229.4 L 303.32 229.4 L 303.42 233.61 L 303.72 237.78 L 304.23 241.93 L 304.93 246.05 L 305.84 250.15 L 306.96 254.23 L 308.28 258.28 L 309.81 262.3 L 311.55 266.28 L 313.49 270.21 L 315.64 274.09 L 317.98 277.89 L 320.52 281.6 L 323.24 285.22 L 326.14 288.73 L 329.2 292.11 L 332.41 295.36 L 335.77 298.45 L 339.26 301.38 L 342.86 304.13 L 346.56 306.7 L 350.35 309.08 L 354.21 311.26 L 358.13 313.24 L 362.1 315.02 L 366.12 316.59 L 370.16 317.95 L 374.24 319.1 L 378.33 320.05 L 382.45 320.79 L 386.59 321.33 L 390.76 321.66 L 394.96 321.8 L 395.72 321.8 L 395.72 321.8 L 399.93 321.7 L 404.1 321.4 L 408.25 320.9 L 412.37 320.2 L 416.47 319.29 L 420.55 318.17 L 424.6 316.85 L 428.62 315.32 L 432.6 313.58 L 436.53 311.64 L 440.41 309.49 L 444.21 307.15 L 447.92 304.61 L 451.54 301.89 L 455.05 298.99 L 458.43 295.93 L 461.68 292.71 L 464.77 289.35 L 467.7 285.87 L 470.45 282.27 L 473.02 278.57 L 475.4 274.78 L 477.58 270.92 L 479.56 267 L 481.34 263.02 L 482.91 259.01 L 484.27 254.96 L 485.42 250.89 L 486.37 246.79 L 487.11 242.68 L 487.65 238.54 L 487.98 234.37 L 488.12 230.17 L 488.12 229.4 L 488.12 478.04 L 488.12 478.04 L 488.02 473.84 L 487.72 469.66 L 487.22 465.52 L 486.52 461.4 L 485.61 457.3 L 484.49 453.22 L 483.17 449.17 L 481.64 445.15 L 479.9 441.17 L 477.96 437.24 L 475.81 433.36 L 473.47 429.56 L 470.93 425.84 L 468.21 422.22 L 465.31 418.72 L 462.25 415.33 L 459.03 412.09 L 455.67 409 L 452.19 406.07 L 448.59 403.32 L 444.89 400.75 L 441.1 398.37 L 437.24 396.18 L 433.32 394.2 L 429.34 392.43 L 425.33 390.86 L 421.28 389.5 L 417.21 388.35 L 413.11 387.4 L 409 386.66 L 404.86 386.12 L 400.69 385.78 L 396.49 385.65 L 395.72 385.64 L 395.72 385.64 L 391.52 385.74 L 387.34 386.04 L 383.2 386.55 L 379.08 387.25 L 374.98 388.16 L 370.9 389.28 L 366.85 390.6 L 362.83 392.13 L 358.85 393.87 L 354.92 395.81 L 351.04 397.96 L 347.24 400.3 L 343.52 402.84 L 339.9 405.56 L 336.4 408.46 L 333.01 411.52 L 329.77 414.73 L 326.68 418.09 L 323.75 421.58 L 321 425.18 L 318.43 428.88 L 316.05 432.67 L 313.86 436.53 L 311.88 440.45 L 310.11 444.42 L 308.54 448.44 L 307.18 452.48 L 306.03 456.56 L 305.08 460.65 L 304.34 464.77 L 303.8 468.91 L 303.46 473.08 L 303.33 477.28 L 303.32 478.04 Z" fill-rule="nonzero" stroke="none" stroke-opacity="0"/>
                    </g>
                    <g id="GRID.polyline.238.1">
                      <polyline id="GRID.polyline.238.1.1" points="303.32,229.4 303.32,229.4 303.42,233.61 303.72,237.78 304.23,241.93 304.93,246.05 305.84,250.15 306.96,254.23 308.28,258.28 309.81,262.3 311.55,266.28 313.49,270.21 315.64,274.09 317.98,277.89 320.52,281.6 323.24,285.22 326.14,288.73 329.2,292.11 332.41,295.36 335.77,298.45 339.26,301.38 342.86,304.13 346.56,306.7 350.35,309.08 354.21,311.26 358.13,313.24 362.1,315.02 366.12,316.59 370.16,317.95 374.24,319.1 378.33,320.05 382.45,320.79 386.59,321.33 390.76,321.66 394.96,321.8 395.72,321.8 395.72,321.8 399.93,321.7 404.1,321.4 408.25,320.9 412.37,320.2 416.47,319.29 420.55,318.17 424.6,316.85 428.62,315.32 432.6,313.58 436.53,311.64 440.41,309.49 444.21,307.15 447.92,304.61 451.54,301.89 455.05,298.99 458.43,295.93 461.68,292.71 464.77,289.35 467.7,285.87 470.45,282.27 473.02,278.57 475.4,274.78 477.58,270.92 479.56,267 481.34,263.02 482.91,259.01 484.27,254.96 485.42,250.89 486.37,246.79 487.11,242.68 487.65,238.54 487.98,234.37 488.12,230.17 488.12,229.4 488.12,478.04 488.12,478.04 488.02,473.84 487.72,469.66 487.22,465.52 486.52,461.4 485.61,457.3 484.49,453.22 483.17,449.17 481.64,445.15 479.9,441.17 477.96,437.24 475.81,433.36 473.47,429.56 470.93,425.84 468.21,422.22 465.31,418.72 462.25,415.33 459.03,412.09 455.67,409 452.19,406.07 448.59,403.32 444.89,400.75 441.1,398.37 437.24,396.18 433.32,394.2 429.34,392.43 425.33,390.86 421.28,389.5 417.21,388.35 413.11,387.4 409,386.66 404.86,386.12 400.69,385.78 396.49,385.65 395.72,385.64 395.72,385.64 391.52,385.74 387.34,386.04 383.2,386.55 379.08,387.25 374.98,388.16 370.9,389.28 366.85,390.6 362.83,392.13 358.85,393.87 354.92,395.81 351.04,397.96 347.24,400.3 343.52,402.84 339.9,405.56 336.4,408.46 333.01,411.52 329.77,414.73 326.68,418.09 323.75,421.58 321,425.18 318.43,428.88 316.05,432.67 313.86,436.53 311.88,440.45 310.11,444.42 308.54,448.44 307.18,452.48 306.03,456.56 305.08,460.65 304.34,464.77 303.8,468.91 303.46,473.08 303.33,477.28 303.32,478.04 303.32,229.4" fill="none" fill-opacity="0"/>
                    </g>
                  </g>
                </g>
              </g>
              <g id="GRID.gTree.194.1" clip-path="url(#import.1.clip11.1)">
                <g id="GRID.gTree.193.1" clip-path="url(#import.1.clip12.1)">
                  <g id="GRID.picComplexPath.190.1" stroke="none" fill="rgb(255,0,0)" stroke-opacity="0" fill-opacity="1">
                    <g id="GRID.pathgrob.239.1">
                      <path id="GRID.pathgrob.239.1.1" d="M 271.4 446.12 L 271.4 446.12 L 275.61 446.02 L 279.78 445.72 L 283.93 445.22 L 288.05 444.52 L 292.15 443.61 L 296.23 442.49 L 300.28 441.17 L 304.3 439.64 L 308.28 437.9 L 312.21 435.96 L 316.09 433.81 L 319.89 431.47 L 323.6 428.93 L 327.22 426.21 L 330.73 423.31 L 334.11 420.25 L 337.36 417.03 L 340.45 413.67 L 343.38 410.19 L 346.13 406.59 L 348.7 402.89 L 351.08 399.1 L 353.26 395.24 L 355.24 391.32 L 357.02 387.34 L 358.59 383.33 L 359.95 379.28 L 361.1 375.21 L 362.05 371.11 L 362.79 367 L 363.33 362.86 L 363.66 358.69 L 363.8 354.49 L 363.8 353.72 L 363.8 353.72 L 363.7 349.52 L 363.4 345.34 L 362.9 341.2 L 362.2 337.08 L 361.29 332.98 L 360.17 328.9 L 358.85 324.85 L 357.32 320.83 L 355.58 316.85 L 353.64 312.92 L 351.49 309.04 L 349.15 305.24 L 346.61 301.52 L 343.89 297.9 L 340.99 294.4 L 337.93 291.01 L 334.71 287.77 L 331.35 284.68 L 327.87 281.75 L 324.27 279 L 320.57 276.43 L 316.78 274.05 L 312.92 271.86 L 309 269.88 L 305.02 268.11 L 301.01 266.54 L 296.96 265.18 L 292.89 264.03 L 288.79 263.08 L 284.68 262.34 L 280.54 261.8 L 276.37 261.46 L 272.17 261.33 L 271.4 261.32 L 520.04 261.32 L 520.04 261.32 L 515.84 261.42 L 511.66 261.72 L 507.52 262.23 L 503.4 262.93 L 499.3 263.84 L 495.22 264.96 L 491.17 266.28 L 487.15 267.81 L 483.17 269.55 L 479.24 271.49 L 475.36 273.64 L 471.56 275.98 L 467.84 278.52 L 464.22 281.24 L 460.72 284.14 L 457.33 287.2 L 454.09 290.41 L 451 293.77 L 448.07 297.26 L 445.32 300.86 L 442.75 304.56 L 440.37 308.35 L 438.18 312.21 L 436.2 316.13 L 434.43 320.1 L 432.86 324.12 L 431.5 328.16 L 430.35 332.24 L 429.4 336.33 L 428.66 340.45 L 428.12 344.59 L 427.78 348.76 L 427.65 352.96 L 427.64 353.72 L 427.64 353.72 L 427.74 357.93 L 428.04 362.1 L 428.55 366.25 L 429.25 370.37 L 430.16 374.47 L 431.28 378.55 L 432.6 382.6 L 434.13 386.62 L 435.87 390.6 L 437.81 394.53 L 439.96 398.41 L 442.3 402.21 L 444.84 405.92 L 447.56 409.54 L 450.46 413.05 L 453.52 416.43 L 456.73 419.68 L 460.09 422.77 L 463.58 425.7 L 467.18 428.45 L 470.88 431.02 L 474.67 433.4 L 478.53 435.58 L 482.45 437.56 L 486.42 439.34 L 490.44 440.91 L 494.48 442.27 L 498.56 443.42 L 502.65 444.37 L 506.77 445.11 L 510.91 445.65 L 515.08 445.98 L 519.28 446.12 L 520.04 446.12 Z" fill-rule="nonzero" stroke="none" stroke-opacity="0"/>
                    </g>
                    <g id="GRID.polyline.240.1">
                      <polyline id="GRID.polyline.240.1.1" points="271.4,446.12 271.4,446.12 275.61,446.02 279.78,445.72 283.93,445.22 288.05,444.52 292.15,443.61 296.23,442.49 300.28,441.17 304.3,439.64 308.28,437.9 312.21,435.96 316.09,433.81 319.89,431.47 323.6,428.93 327.22,426.21 330.73,423.31 334.11,420.25 337.36,417.03 340.45,413.67 343.38,410.19 346.13,406.59 348.7,402.89 351.08,399.1 353.26,395.24 355.24,391.32 357.02,387.34 358.59,383.33 359.95,379.28 361.1,375.21 362.05,371.11 362.79,367 363.33,362.86 363.66,358.69 363.8,354.49 363.8,353.72 363.8,353.72 363.7,349.52 363.4,345.34 362.9,341.2 362.2,337.08 361.29,332.98 360.17,328.9 358.85,324.85 357.32,320.83 355.58,316.85 353.64,312.92 351.49,309.04 349.15,305.24 346.61,301.52 343.89,297.9 340.99,294.4 337.93,291.01 334.71,287.77 331.35,284.68 327.87,281.75 324.27,279 320.57,276.43 316.78,274.05 312.92,271.86 309,269.88 305.02,268.11 301.01,266.54 296.96,265.18 292.89,264.03 288.79,263.08 284.68,262.34 280.54,261.8 276.37,261.46 272.17,261.33 271.4,261.32 520.04,261.32 520.04,261.32 515.84,261.42 511.66,261.72 507.52,262.23 503.4,262.93 499.3,263.84 495.22,264.96 491.17,266.28 487.15,267.81 483.17,269.55 479.24,271.49 475.36,273.64 471.56,275.98 467.84,278.52 464.22,281.24 460.72,284.14 457.33,287.2 454.09,290.41 451,293.77 448.07,297.26 445.32,300.86 442.75,304.56 440.37,308.35 438.18,312.21 436.2,316.13 434.43,320.1 432.86,324.12 431.5,328.16 430.35,332.24 429.4,336.33 428.66,340.45 428.12,344.59 427.78,348.76 427.65,352.96 427.64,353.72 427.64,353.72 427.74,357.93 428.04,362.1 428.55,366.25 429.25,370.37 430.16,374.47 431.28,378.55 432.6,382.6 434.13,386.62 435.87,390.6 437.81,394.53 439.96,398.41 442.3,402.21 444.84,405.92 447.56,409.54 450.46,413.05 453.52,416.43 456.73,419.68 460.09,422.77 463.58,425.7 467.18,428.45 470.88,431.02 474.67,433.4 478.53,435.58 482.45,437.56 486.42,439.34 490.44,440.91 494.48,442.27 498.56,443.42 502.65,444.37 506.77,445.11 510.91,445.65 515.08,445.98 519.28,446.12 520.04,446.12 271.4,446.12" fill="none" fill-opacity="0"/>
                    </g>
                  </g>
                </g>
              </g>
              <g id="GRID.gTree.199.1" clip-path="url(#import.1.clip13.1)">
                <g id="GRID.gTree.198.1" clip-path="url(#import.1.clip14.1)">
                  <g id="GRID.picComplexPath.195.1" stroke="none" fill="rgb(255,0,0)" stroke-opacity="0" fill-opacity="1">
                    <g id="GRID.pathgrob.241.1">
                      <path id="GRID.pathgrob.241.1.1" d="M 15.88 25.96 L 15.88 25.96 L 15.98 30.16 L 16.28 34.34 L 16.78 38.48 L 17.48 42.6 L 18.39 46.7 L 19.51 50.78 L 20.83 54.83 L 22.36 58.85 L 24.1 62.83 L 26.04 66.76 L 28.19 70.64 L 30.53 74.44 L 33.07 78.16 L 35.79 81.78 L 38.69 85.28 L 41.75 88.67 L 44.97 91.91 L 48.33 95 L 51.81 97.93 L 55.41 100.68 L 59.11 103.25 L 62.9 105.63 L 66.76 107.82 L 70.68 109.8 L 74.66 111.57 L 78.67 113.14 L 82.72 114.5 L 86.79 115.65 L 90.89 116.6 L 95 117.34 L 99.14 117.88 L 103.31 118.22 L 107.51 118.35 L 108.28 118.36 L 108.28 118.36 L 112.48 118.26 L 116.66 117.96 L 120.8 117.45 L 124.92 116.75 L 129.02 115.84 L 133.1 114.72 L 137.15 113.4 L 141.17 111.87 L 145.15 110.13 L 149.08 108.19 L 152.96 106.04 L 156.76 103.7 L 160.48 101.16 L 164.1 98.44 L 167.6 95.54 L 170.99 92.48 L 174.23 89.27 L 177.32 85.91 L 180.25 82.42 L 183 78.82 L 185.57 75.12 L 187.95 71.33 L 190.14 67.47 L 192.12 63.55 L 193.89 59.58 L 195.46 55.56 L 196.82 51.52 L 197.97 47.44 L 198.92 43.35 L 199.66 39.23 L 200.2 35.09 L 200.54 30.92 L 200.67 26.72 L 200.68 25.96 L 200.68 274.6 L 200.68 274.6 L 200.58 270.39 L 200.28 266.22 L 199.77 262.07 L 199.07 257.95 L 198.16 253.85 L 197.04 249.77 L 195.72 245.72 L 194.19 241.7 L 192.45 237.72 L 190.51 233.79 L 188.36 229.91 L 186.02 226.11 L 183.48 222.4 L 180.76 218.78 L 177.86 215.27 L 174.8 211.89 L 171.59 208.64 L 168.23 205.55 L 164.74 202.62 L 161.14 199.87 L 157.44 197.3 L 153.65 194.92 L 149.79 192.74 L 145.87 190.76 L 141.9 188.98 L 137.88 187.41 L 133.84 186.05 L 129.76 184.9 L 125.67 183.95 L 121.55 183.21 L 117.41 182.67 L 113.24 182.34 L 109.04 182.2 L 108.28 182.2 L 108.28 182.2 L 104.07 182.3 L 99.9 182.6 L 95.75 183.1 L 91.63 183.8 L 87.53 184.71 L 83.45 185.83 L 79.4 187.15 L 75.38 188.68 L 71.4 190.42 L 67.47 192.36 L 63.59 194.51 L 59.79 196.85 L 56.08 199.39 L 52.46 202.11 L 48.95 205.01 L 45.57 208.07 L 42.32 211.29 L 39.23 214.65 L 36.3 218.13 L 33.55 221.73 L 30.98 225.43 L 28.6 229.22 L 26.42 233.08 L 24.44 237 L 22.66 240.98 L 21.09 244.99 L 19.73 249.04 L 18.58 253.11 L 17.63 257.21 L 16.89 261.32 L 16.35 265.46 L 16.02 269.63 L 15.88 273.83 L 15.88 274.6 Z" fill-rule="nonzero" stroke="none" stroke-opacity="0"/>
                    </g>
                    <g id="GRID.polyline.242.1">
                      <polyline id="GRID.polyline.242.1.1" points="15.88,25.96 15.88,25.96 15.98,30.16 16.28,34.34 16.78,38.48 17.48,42.6 18.39,46.7 19.51,50.78 20.83,54.83 22.36,58.85 24.1,62.83 26.04,66.76 28.19,70.64 30.53,74.44 33.07,78.16 35.79,81.78 38.69,85.28 41.75,88.67 44.97,91.91 48.33,95 51.81,97.93 55.41,100.68 59.11,103.25 62.9,105.63 66.76,107.82 70.68,109.8 74.66,111.57 78.67,113.14 82.72,114.5 86.79,115.65 90.89,116.6 95,117.34 99.14,117.88 103.31,118.22 107.51,118.35 108.28,118.36 108.28,118.36 112.48,118.26 116.66,117.96 120.8,117.45 124.92,116.75 129.02,115.84 133.1,114.72 137.15,113.4 141.17,111.87 145.15,110.13 149.08,108.19 152.96,106.04 156.76,103.7 160.48,101.16 164.1,98.44 167.6,95.54 170.99,92.48 174.23,89.27 177.32,85.91 180.25,82.42 183,78.82 185.57,75.12 187.95,71.33 190.14,67.47 192.12,63.55 193.89,59.58 195.46,55.56 196.82,51.52 197.97,47.44 198.92,43.35 199.66,39.23 200.2,35.09 200.54,30.92 200.67,26.72 200.68,25.96 200.68,274.6 200.68,274.6 200.58,270.39 200.28,266.22 199.77,262.07 199.07,257.95 198.16,253.85 197.04,249.77 195.72,245.72 194.19,241.7 192.45,237.72 190.51,233.79 188.36,229.91 186.02,226.11 183.48,222.4 180.76,218.78 177.86,215.27 174.8,211.89 171.59,208.64 168.23,205.55 164.74,202.62 161.14,199.87 157.44,197.3 153.65,194.92 149.79,192.74 145.87,190.76 141.9,188.98 137.88,187.41 133.84,186.05 129.76,184.9 125.67,183.95 121.55,183.21 117.41,182.67 113.24,182.34 109.04,182.2 108.28,182.2 108.28,182.2 104.07,182.3 99.9,182.6 95.75,183.1 91.63,183.8 87.53,184.71 83.45,185.83 79.4,187.15 75.38,188.68 71.4,190.42 67.47,192.36 63.59,194.51 59.79,196.85 56.08,199.39 52.46,202.11 48.95,205.01 45.57,208.07 42.32,211.29 39.23,214.65 36.3,218.13 33.55,221.73 30.98,225.43 28.6,229.22 26.42,233.08 24.44,237 22.66,240.98 21.09,244.99 19.73,249.04 18.58,253.11 17.63,257.21 16.89,261.32 16.35,265.46 16.02,269.63 15.88,273.83 15.88,274.6 15.88,25.96" fill="none" fill-opacity="0"/>
                    </g>
                  </g>
                </g>
              </g>
              <g id="GRID.gTree.204.1" clip-path="url(#import.1.clip15.1)">
                <g id="GRID.gTree.203.1" clip-path="url(#import.1.clip16.1)">
                  <g id="GRID.picComplexPath.200.1" stroke="none" fill="rgb(255,0,0)" stroke-opacity="0" fill-opacity="1">
                    <g id="GRID.pathgrob.243.1">
                      <path id="GRID.pathgrob.243.1.1" d="M -16.04 242.68 L -16.04 242.68 L -11.84 242.58 L -7.66 242.28 L -3.52 241.77 L 0.6 241.07 L 4.7 240.16 L 8.78 239.04 L 12.83 237.72 L 16.85 236.19 L 20.83 234.45 L 24.76 232.51 L 28.64 230.36 L 32.44 228.02 L 36.16 225.48 L 39.78 222.76 L 43.28 219.86 L 46.67 216.8 L 49.91 213.59 L 53 210.23 L 55.93 206.74 L 58.68 203.14 L 61.25 199.44 L 63.63 195.65 L 65.82 191.79 L 67.8 187.87 L 69.57 183.9 L 71.14 179.88 L 72.5 175.84 L 73.65 171.76 L 74.6 167.67 L 75.34 163.55 L 75.88 159.41 L 76.22 155.24 L 76.35 151.04 L 76.36 150.28 L 76.36 150.28 L 76.26 146.07 L 75.96 141.9 L 75.45 137.75 L 74.75 133.63 L 73.84 129.53 L 72.72 125.45 L 71.4 121.4 L 69.87 117.38 L 68.13 113.4 L 66.19 109.47 L 64.04 105.59 L 61.7 101.79 L 59.16 98.08 L 56.44 94.46 L 53.54 90.95 L 50.48 87.57 L 47.27 84.32 L 43.91 81.23 L 40.42 78.3 L 36.82 75.55 L 33.12 72.98 L 29.33 70.6 L 25.47 68.42 L 21.55 66.44 L 17.58 64.66 L 13.56 63.09 L 9.52 61.73 L 5.44 60.58 L 1.35 59.63 L -2.77 58.89 L -6.91 58.35 L -11.08 58.02 L -15.28 57.88 L -16.04 57.88 L 232.6 57.88 L 232.6 57.88 L 228.39 57.98 L 224.22 58.28 L 220.07 58.78 L 215.95 59.48 L 211.85 60.39 L 207.77 61.51 L 203.72 62.83 L 199.7 64.36 L 195.72 66.1 L 191.79 68.04 L 187.91 70.19 L 184.11 72.53 L 180.4 75.07 L 176.78 77.79 L 173.27 80.69 L 169.89 83.75 L 166.64 86.97 L 163.55 90.33 L 160.62 93.81 L 157.87 97.41 L 155.3 101.11 L 152.92 104.9 L 150.74 108.76 L 148.76 112.68 L 146.98 116.66 L 145.41 120.67 L 144.05 124.72 L 142.9 128.79 L 141.95 132.89 L 141.21 137 L 140.67 141.14 L 140.34 145.31 L 140.2 149.51 L 140.2 150.28 L 140.2 150.28 L 140.3 154.48 L 140.6 158.66 L 141.1 162.8 L 141.8 166.92 L 142.71 171.02 L 143.83 175.1 L 145.15 179.15 L 146.68 183.17 L 148.42 187.15 L 150.36 191.08 L 152.51 194.96 L 154.85 198.76 L 157.39 202.48 L 160.11 206.1 L 163.01 209.6 L 166.07 212.99 L 169.29 216.23 L 172.65 219.32 L 176.13 222.25 L 179.73 225 L 183.43 227.57 L 187.22 229.95 L 191.08 232.14 L 195 234.12 L 198.98 235.89 L 202.99 237.46 L 207.04 238.82 L 211.11 239.97 L 215.21 240.92 L 219.32 241.66 L 223.46 242.2 L 227.63 242.54 L 231.83 242.67 L 232.6 242.68 Z" fill-rule="nonzero" stroke="none" stroke-opacity="0"/>
                    </g>
                    <g id="GRID.polyline.244.1">
                      <polyline id="GRID.polyline.244.1.1" points="-16.04,242.68 -16.04,242.68 -11.84,242.58 -7.66,242.28 -3.52,241.77 0.6,241.07 4.7,240.16 8.78,239.04 12.83,237.72 16.85,236.19 20.83,234.45 24.76,232.51 28.64,230.36 32.44,228.02 36.16,225.48 39.78,222.76 43.28,219.86 46.67,216.8 49.91,213.59 53,210.23 55.93,206.74 58.68,203.14 61.25,199.44 63.63,195.65 65.82,191.79 67.8,187.87 69.57,183.9 71.14,179.88 72.5,175.84 73.65,171.76 74.6,167.67 75.34,163.55 75.88,159.41 76.22,155.24 76.35,151.04 76.36,150.28 76.36,150.28 76.26,146.07 75.96,141.9 75.45,137.75 74.75,133.63 73.84,129.53 72.72,125.45 71.4,121.4 69.87,117.38 68.13,113.4 66.19,109.47 64.04,105.59 61.7,101.79 59.16,98.08 56.44,94.46 53.54,90.95 50.48,87.57 47.27,84.32 43.91,81.23 40.42,78.3 36.82,75.55 33.12,72.98 29.33,70.6 25.47,68.42 21.55,66.44 17.58,64.66 13.56,63.09 9.52,61.73 5.44,60.58 1.35,59.63 -2.77,58.89 -6.91,58.35 -11.08,58.02 -15.28,57.88 -16.04,57.88 232.6,57.88 232.6,57.88 228.39,57.98 224.22,58.28 220.07,58.78 215.95,59.48 211.85,60.39 207.77,61.51 203.72,62.83 199.7,64.36 195.72,66.1 191.79,68.04 187.91,70.19 184.11,72.53 180.4,75.07 176.78,77.79 173.27,80.69 169.89,83.75 166.64,86.97 163.55,90.33 160.62,93.81 157.87,97.41 155.3,101.11 152.92,104.9 150.74,108.76 148.76,112.68 146.98,116.66 145.41,120.67 144.05,124.72 142.9,128.79 141.95,132.89 141.21,137 140.67,141.14 140.34,145.31 140.2,149.51 140.2,150.28 140.2,150.28 140.3,154.48 140.6,158.66 141.1,162.8 141.8,166.92 142.71,171.02 143.83,175.1 145.15,179.15 146.68,183.17 148.42,187.15 150.36,191.08 152.51,194.96 154.85,198.76 157.39,202.48 160.11,206.1 163.01,209.6 166.07,212.99 169.29,216.23 172.65,219.32 176.13,222.25 179.73,225 183.43,227.57 187.22,229.95 191.08,232.14 195,234.12 198.98,235.89 202.99,237.46 207.04,238.82 211.11,239.97 215.21,240.92 219.32,241.66 223.46,242.2 227.63,242.54 231.83,242.67 232.6,242.68 -16.04,242.68" fill="none" fill-opacity="0"/>
                    </g>
                  </g>
                </g>
              </g>
            </g>
          </g>
        </g>
      </g>
    </g>
  </g>
</svg>