<?xml version="1.0" encoding="UTF-8"?>
<svg xmlns="http://www.w3.org/2000/svg" xmlns:xlink="http://www.w3.org/1999/xlink" width="504px" height="504px" viewBox="0 0 504 504" version="1.1">
  <metadata xmlns:gridsvg="http://www.stat.auckland.ac.nz/~paul/R/gridSVG/">
    <gridsvg:generator name="gridSVG" version="1.3-0" time="2013-09-05 23:49:45"/>
    <gridsvg:argument name="name" value="grImport2-gridSVG/Hawaii.svg"/>
    <gridsvg:argument name="exportCoords" value="none"/>
    <gridsvg:argument name="exportMappings" value="none"/>
    <gridsvg:argument name="exportJS" value="none"/>
    <gridsvg:argument name="res" value="72"/>
    <gridsvg:argument name="prefix" value=""/>
    <gridsvg:argument name="addClasses" value="FALSE"/>
    <gridsvg:argument name="indent" value="TRUE"/>
    <gridsvg:argument name="htmlWrapper" value="FALSE"/>
    <gridsvg:argument name="usePaths" value="vpPaths"/>
    <gridsvg:argument name="uniqueNames" value="TRUE"/>
    <gridsvg:separator name="id.sep" value="."/>
    <gridsvg:separator name="gPath.sep" value="::"/>
    <gridsvg:separator name="vpPath.sep" value="::"/>
  </metadata>
  <g transform="translate(0, 504) scale(1, -1)">
    <g id="gridSVG" fill="none" stroke="rgb(0,0,0)" stroke-dasharray="none" stroke-width="0.75" font-size="12" font-family="Helvetica, Arial, FreeSans, Liberation Sans, Nimbus Sans L, sans-serif" opacity="1" stroke-linecap="round" stroke-linejoin="round" stroke-miterlimit="10" stroke-opacity="1" fill-opacity="0" font-weight="normal" font-style="normal">
      <defs>
        <clipPath id="import.1.clip1.1">
          <path id="import.1.clip1::GRID.gTree.8.1::GRID.picComplexPath.5.1::GRID.pathgrob.9.1.1" d="M 0 378 L 220.5 378 L 220.5 252 L 0 252 Z" fill-rule="nonzero" stroke="none" stroke-opacity="0"/>
          <polyline id="import.1.clip1::GRID.gTree.8.1::GRID.picComplexPath.5.1::GRID.polyline.10.1.1" points="0,378 220.5,378 220.5,252 0,252 0,378" fill="none" fill-opacity="0"/>
        </clipPath>
      </defs>
      <g id="picture.shape::picture.scale.1">
        <defs>
          <clipPath id="picture.shape::picture.scale.2.clipPath">
            <rect x="0" y="126" width="504" height="252" fill="none" stroke="none"/>
          </clipPath>
        </defs>
        <g id="picture.shape::picture.scale.2" clip-path="url(#picture.shape::picture.scale.2.clipPath)">
          <g id="import.1.GRID.gTree.47.1">
            <g id="GRID.gTree.46.1">
              <g id="GRID.rect.71.1">
                <rect id="GRID.rect.71.1.1" x="0" y="126" width="504" height="252" fill="rgb(207,20,43)" stroke="none" stroke-opacity="0" fill-opacity="1"/>
              </g>
              <g id="GRID.picComplexPath.12.1" fill="none" stroke-width="31.5" stroke-linecap="butt" stroke-linejoin="miter" stroke="rgb(255,255,255)" stroke-miterlimit="4" stroke-opacity="1" fill-opacity="0">
                <g id="GRID.pathgrob.72.1">
                  <path id="GRID.pathgrob.72.1.1" d="M 0 362.25 L 504 362.25 Z" fill-rule="nonzero" stroke="none" stroke-opacity="0"/>
                </g>
                <g id="GRID.polyline.73.1">
                  <polyline id="GRID.polyline.73.1.1" points="0,362.25 504,362.25" fill="none" fill-opacity="0"/>
                </g>
              </g>
              <g id="GRID.picComplexPath.15.1" fill="none" stroke-width="31.5" stroke-linecap="butt" stroke-linejoin="miter" stroke="rgb(0,36,125)" stroke-miterlimit="4" stroke-opacity="1" fill-opacity="0">
                <g id="GRID.pathgrob.74.1">
                  <path id="GRID.pathgrob.74.1.1" d="M 0 299.25 L 504 299.25 Z" fill-rule="nonzero" stroke="none" stroke-opacity="0"/>
                </g>
                <g id="GRID.polyline.75.1">
                  <polyline id="GRID.polyline.75.1.1" points="0,299.25 504,299.25" fill="none" fill-opacity="0"/>
                </g>
              </g>
              <g id="GRID.picComplexPath.18.1" fill="none" stroke-width="31.5" stroke-linecap="butt" stroke-linejoin="miter" stroke="rgb(255,255,255)" stroke-miterlimit="4" stroke-opacity="1" fill-opacity="0">
                <g id="GRID.pathgrob.76.1">
                  <path id="GRID.pathgrob.76.1.1" d="M 0 267.75 L 504 267.75 Z" fill-rule="nonzero" stroke="none" stroke-opacity="0"/>
                </g>
                <g id="GRID.polyline.77.1">
                  <polyline id="GRID.polyline.77.1.1" points="0,267.75 504,267.75" fill="none" fill-opacity="0"/>
                </g>
              </g>
              <g id="GRID.picComplexPath.21.1" fill="none" stroke-width="31.5" stroke-linecap="butt" stroke-linejoin="miter" stroke="rgb(0,36,125)" stroke-miterlimit="4" stroke-opacity="1" fill-opacity="0">
                <g id="GRID.pathgrob.78.1">
                  <path id="GRID.pathgrob.78.1.1" d="M 0 204.75 L 504 204.75 Z" fill-rule="nonzero" stroke="none" stroke-opacity="0"/>
                </g>
                <g id="GRID.polyline.79.1">
                  <polyline id="GRID.polyline.79.1.1" points="0,204.75 504,204.75" fill="none" fill-opacity="0"/>
                </g>
              </g>
              <g id="GRID.picComplexPath.24.1" fill="none" stroke-width="31.5" stroke-linecap="butt" stroke-linejoin="miter" stroke="rgb(255,255,255)" stroke-miterlimit="4" stroke-opacity="1" fill-opacity="0">
                <g id="GRID.pathgrob.80.1">
                  <path id="GRID.pathgrob.80.1.1" d="M 0 173.25 L 504 173.25 Z" fill-rule="nonzero" stroke="none" stroke-opacity="0"/>
                </g>
                <g id="GRID.polyline.81.1">
                  <polyline id="GRID.polyline.81.1.1" points="0,173.25 504,173.25" fill="none" fill-opacity="0"/>
                </g>
              </g>
              <g id="GRID.gTree.45.1" clip-path="url(#import.1.clip1.1)">
                <g id="GRID.picComplexPath.27.1" stroke="none" fill="rgb(0,36,125)" stroke-opacity="0" fill-opacity="1">
                  <g id="GRID.pathgrob.82.1">
                    <path id="GRID.pathgrob.82.1.1" d="M 244.65 315 L 244.65 315 L 244.57 310.52 L 244.34 306.08 L 243.95 301.65 L 243.4 297.25 L 242.7 292.87 L 241.84 288.5 L 240.82 284.15 L 239.64 279.82 L 238.3 275.5 L 236.8 271.21 L 235.13 266.95 L 233.31 262.71 L 231.32 258.51 L 229.18 254.36 L 226.88 250.25 L 224.43 246.19 L 221.82 242.2 L 219.07 238.28 L 216.17 234.43 L 213.14 230.68 L 209.98 227.01 L 206.69 223.45 L 203.28 219.99 L 199.76 216.65 L 196.14 213.43 L 192.42 210.34 L 188.61 207.39 L 184.72 204.58 L 180.76 201.91 L 176.73 199.39 L 172.64 197.03 L 168.5 194.82 L 164.32 192.76 L 160.1 190.87 L 155.85 189.14 L 151.57 187.57 L 147.26 186.16 L 142.94 184.91 L 138.59 183.82 L 134.23 182.89 L 129.86 182.12 L 125.46 181.51 L 121.05 181.06 L 116.61 180.76 L 112.15 180.61 L 110.25 180.6 L 110.25 180.6 L 105.77 180.68 L 101.33 180.91 L 96.9 181.3 L 92.5 181.85 L 88.12 182.55 L 83.75 183.41 L 79.4 184.43 L 75.07 185.61 L 70.75 186.95 L 66.46 188.45 L 62.2 190.12 L 57.96 191.94 L 53.76 193.93 L 49.61 196.07 L 45.5 198.37 L 41.44 200.82 L 37.45 203.43 L 33.53 206.18 L 29.68 209.08 L 25.93 212.11 L 22.26 215.27 L 18.7 218.56 L 15.24 221.97 L 11.9 225.49 L 8.68 229.11 L 5.59 232.83 L 2.64 236.64 L -0.17 240.53 L -2.84 244.49 L -5.36 248.52 L -7.72 252.61 L -9.93 256.75 L -11.99 260.93 L -13.88 265.15 L -15.61 269.4 L -17.18 273.68 L -18.59 277.99 L -19.84 282.31 L -20.93 286.66 L -21.86 291.02 L -22.63 295.39 L -23.24 299.79 L -23.69 304.2 L -23.99 308.64 L -24.14 313.1 L -24.15 315 L -24.15 315 L -24.07 319.48 L -23.84 323.92 L -23.45 328.35 L -22.9 332.75 L -22.2 337.13 L -21.34 341.5 L -20.32 345.85 L -19.14 350.18 L -17.8 354.5 L -16.3 358.79 L -14.63 363.05 L -12.81 367.29 L -10.82 371.49 L -8.68 375.64 L -6.38 379.75 L -3.93 383.81 L -1.32 387.8 L 1.43 391.72 L 4.33 395.57 L 7.36 399.32 L 10.52 402.99 L 13.81 406.55 L 17.22 410.01 L 20.74 413.35 L 24.36 416.57 L 28.08 419.66 L 31.89 422.61 L 35.78 425.42 L 39.74 428.09 L 43.77 430.61 L 47.86 432.97 L 52 435.18 L 56.18 437.24 L 60.4 439.13 L 64.65 440.86 L 68.93 442.43 L 73.24 443.84 L 77.56 445.09 L 81.91 446.18 L 86.27 447.11 L 90.64 447.88 L 95.04 448.49 L 99.45 448.94 L 103.89 449.24 L 108.35 449.39 L 110.25 449.4 L 110.25 449.4 L 114.73 449.32 L 119.17 449.09 L 123.6 448.7 L 128 448.15 L 132.38 447.45 L 136.75 446.59 L 141.1 445.57 L 145.43 444.39 L 149.75 443.05 L 154.04 441.55 L 158.3 439.88 L 162.54 438.06 L 166.74 436.07 L 170.89 433.93 L 175 431.63 L 179.06 429.18 L 183.05 426.57 L 186.97 423.82 L 190.82 420.92 L 194.57 417.89 L 198.24 414.73 L 201.8 411.44 L 205.26 408.03 L 208.6 404.51 L 211.82 400.89 L 214.91 397.17 L 217.86 393.36 L 220.67 389.47 L 223.34 385.51 L 225.86 381.48 L 228.22 377.39 L 230.43 373.25 L 232.49 369.07 L 234.38 364.85 L 236.11 360.6 L 237.68 356.32 L 239.09 352.01 L 240.34 347.69 L 241.43 343.34 L 242.36 338.98 L 243.13 334.61 L 243.74 330.21 L 244.19 325.8 L 244.49 321.36 L 244.64 316.9 L 244.65 315 Z" fill-rule="nonzero" stroke="none" stroke-opacity="0"/>
                  </g>
                  <g id="GRID.polyline.83.1">
                    <polyline id="GRID.polyline.83.1.1" points="244.65,315 244.65,315 244.57,310.52 244.34,306.08 243.95,301.65 243.4,297.25 242.7,292.87 241.84,288.5 240.82,284.15 239.64,279.82 238.3,275.5 236.8,271.21 235.13,266.95 233.31,262.71 231.32,258.51 229.18,254.36 226.88,250.25 224.43,246.19 221.82,242.2 219.07,238.28 216.17,234.43 213.14,230.68 209.98,227.01 206.69,223.45 203.28,219.99 199.76,216.65 196.14,213.43 192.42,210.34 188.61,207.39 184.72,204.58 180.76,201.91 176.73,199.39 172.64,197.03 168.5,194.82 164.32,192.76 160.1,190.87 155.85,189.14 151.57,187.57 147.26,186.16 142.94,184.91 138.59,183.82 134.23,182.89 129.86,182.12 125.46,181.51 121.05,181.06 116.61,180.76 112.15,180.61 110.25,180.6 110.25,180.6 105.77,180.68 101.33,180.91 96.9,181.3 92.5,181.85 88.12,182.55 83.75,183.41 79.4,184.43 75.07,185.61 70.75,186.95 66.46,188.45 62.2,190.12 57.96,191.94 53.76,193.93 49.61,196.07 45.5,198.37 41.44,200.82 37.45,203.43 33.53,206.18 29.68,209.08 25.93,212.11 22.26,215.27 18.7,218.56 15.24,221.97 11.9,225.49 8.68,229.11 5.59,232.83 2.64,236.64 -0.17,240.53 -2.84,244.49 -5.36,248.52 -7.72,252.61 -9.93,256.75 -11.99,260.93 -13.88,265.15 -15.61,269.4 -17.18,273.68 -18.59,277.99 -19.84,282.31 -20.93,286.66 -21.86,291.02 -22.63,295.39 -23.24,299.79 -23.69,304.2 -23.99,308.64 -24.14,313.1 -24.15,315 -24.15,315 -24.07,319.48 -23.84,323.92 -23.45,328.35 -22.9,332.75 -22.2,337.13 -21.34,341.5 -20.32,345.85 -19.14,350.18 -17.8,354.5 -16.3,358.79 -14.63,363.05 -12.81,367.29 -10.82,371.49 -8.68,375.64 -6.38,379.75 -3.93,383.81 -1.32,387.8 1.43,391.72 4.33,395.57 7.36,399.32 10.52,402.99 13.81,406.55 17.22,410.01 20.74,413.35 24.36,416.57 28.08,419.66 31.89,422.61 35.78,425.42 39.74,428.09 43.77,430.61 47.86,432.97 52,435.18 56.18,437.24 60.4,439.13 64.65,440.86 68.93,442.43 73.24,443.84 77.56,445.09 81.91,446.18 86.27,447.11 90.64,447.88 95.04,448.49 99.45,448.94 103.89,449.24 108.35,449.39 110.25,449.4 110.25,449.4 114.73,449.32 119.17,449.09 123.6,448.7 128,448.15 132.38,447.45 136.75,446.59 141.1,445.57 145.43,444.39 149.75,443.05 154.04,441.55 158.3,439.88 162.54,438.06 166.74,436.07 170.89,433.93 175,431.63 179.06,429.18 183.05,426.57 186.97,423.82 190.82,420.92 194.57,417.89 198.24,414.73 201.8,411.44 205.26,408.03 208.6,404.51 211.82,400.89 214.91,397.17 217.86,393.36 220.67,389.47 223.34,385.51 225.86,381.48 228.22,377.39 230.43,373.25 232.49,369.07 234.38,364.85 236.11,360.6 237.68,356.32 239.09,352.01 240.34,347.69 241.43,343.34 242.36,338.98 243.13,334.61 243.74,330.21 244.19,325.8 244.49,321.36 244.64,316.9 244.65,315 244.65,315" fill="none" fill-opacity="0"/>
                  </g>
                </g>
                <g id="GRID.picComplexPath.30.1" fill="rgb(0,0,0)" stroke-width="25.2" stroke-linecap="butt" stroke-linejoin="miter" stroke="rgb(255,255,255)" stroke-miterlimit="4" stroke-opacity="1" fill-opacity="1">
                  <g id="GRID.pathgrob.84.1">
                    <path id="GRID.pathgrob.84.1.1" d="M -36.75 399 L 257.25 231 Z M -36.75 231 L 257.25 399 Z" fill-rule="nonzero" stroke="none" stroke-opacity="0"/>
                  </g>
                  <g id="GRID.polyline.85.1">
                    <polyline id="GRID.polyline.85.1.1" points="-36.75,399 257.25,231" fill="none" fill-opacity="0"/>
                    <polyline id="GRID.polyline.85.1.2" points="-36.75,231 257.25,399" fill="none" fill-opacity="0"/>
                  </g>
                </g>
                <g id="GRID.picComplexPath.33.1" fill="rgb(0,0,0)" stroke-width="16.8" stroke-linecap="butt" stroke-linejoin="miter" stroke="rgb(207,20,43)" stroke-miterlimit="4" stroke-opacity="1" fill-opacity="1">
                  <g id="GRID.pathgrob.86.1">
                    <path id="GRID.pathgrob.86.1.1" d="M -36.75 399 L 257.25 231 Z M -36.75 231 L 257.25 399 Z" fill-rule="nonzero" stroke="none" stroke-opacity="0"/>
                  </g>
                  <g id="GRID.polyline.87.1">
                    <polyline id="GRID.polyline.87.1.1" points="-36.75,399 257.25,231" fill="none" fill-opacity="0"/>
                    <polyline id="GRID.polyline.87.1.2" points="-36.75,231 257.25,399" fill="none" fill-opacity="0"/>
                  </g>
                </g>
                <g id="GRID.picComplexPath.36.1" stroke="none" fill="rgb(255,255,255)" stroke-opacity="0" fill-opacity="1">
                  <g id="GRID.pathgrob.88.1">
                    <path id="GRID.pathgrob.88.1.1" d="M 110.25 315 L 257.25 231 L 238.35 231 L 91.35 315 Z M 110.25 315 L 257.25 399 L 276.15 399 L 129.15 315 Z M 110.25 315 L -36.75 231 L -55.65 231 L 91.35 315 Z M 110.25 315 L -36.75 399 L -17.85 399 L 129.15 315 Z" fill-rule="nonzero" stroke="none" stroke-opacity="0"/>
                  </g>
                  <g id="GRID.polyline.89.1">
                    <polyline id="GRID.polyline.89.1.1" points="110.25,315 257.25,231 238.35,231 91.35,315" fill="none" fill-opacity="0"/>
                    <polyline id="GRID.polyline.89.1.2" points="110.25,315 257.25,399 276.15,399 129.15,315" fill="none" fill-opacity="0"/>
                    <polyline id="GRID.polyline.89.1.3" points="110.25,315 -36.75,231 -55.65,231 91.35,315" fill="none" fill-opacity="0"/>
                    <polyline id="GRID.polyline.89.1.4" points="110.25,315 -36.75,399 -17.85,399 129.15,315" fill="none" fill-opacity="0"/>
                  </g>
                </g>
                <g id="GRID.picComplexPath.39.1" fill="rgb(0,0,0)" stroke-width="42" stroke-linecap="butt" stroke-linejoin="miter" stroke="rgb(255,255,255)" stroke-miterlimit="4" stroke-opacity="1" fill-opacity="1">
                  <g id="GRID.pathgrob.90.1">
                    <path id="GRID.pathgrob.90.1.1" d="M -36.75 315 L 257.25 315 Z M 110.25 399 L 110.25 231 Z" fill-rule="nonzero" stroke="none" stroke-opacity="0"/>
                  </g>
                  <g id="GRID.polyline.91.1">
                    <polyline id="GRID.polyline.91.1.1" points="-36.75,315 257.25,315" fill="none" fill-opacity="0"/>
                    <polyline id="GRID.polyline.91.1.2" points="110.25,399 110.25,231" fill="none" fill-opacity="0"/>
                  </g>
                </g>
                <g id="GRID.picComplexPath.42.1" fill="rgb(0,0,0)" stroke-width="25.2" stroke-linecap="butt" stroke-linejoin="miter" stroke="rgb(207,20,43)" stroke-miterlimit="4" stroke-opacity="1" fill-opacity="1">
                  <g id="GRID.pathgrob.92.1">
                    <path id="GRID.pathgrob.92.1.1" d="M -36.75 315 L 257.25 315 Z M 110.25 399 L 110.25 231 Z" fill-rule="nonzero" stroke="none" stroke-opacity="0"/>
                  </g>
                  <g id="GRID.polyline.93.1">
                    <polyline id="GRID.polyline.93.1.1" points="-36.75,315 257.25,315" fill="none" fill-opacity="0"/>
                    <polyline id="GRID.polyline.93.1.2" points="110.25,399 110.25,231" fill="none" fill-opacity="0"/>
                  </g>
                </g>
              </g>
            </g>
          </g>
        </g>
      </g>
    </g>
  </g>
</svg>