<?xml version="1.0" encoding="UTF-8"?>
<svg xmlns="http://www.w3.org/2000/svg" xmlns:xlink="http://www.w3.org/1999/xlink" width="504px" height="504px" viewBox="0 0 504 504" version="1.1">
  <metadata xmlns:gridsvg="http://www.stat.auckland.ac.nz/~paul/R/gridSVG/">
    <gridsvg:generator name="gridSVG" version="1.3-0" time="2013-09-05 23:52:41"/>
    <gridsvg:argument name="name" value="grImport2-gridSVG/Indiana.svg"/>
    <gridsvg:argument name="exportCoords" value="none"/>
    <gridsvg:argument name="exportMappings" value="none"/>
    <gridsvg:argument name="exportJS" value="none"/>
    <gridsvg:argument name="res" value="72"/>
    <gridsvg:argument name="prefix" value=""/>
    <gridsvg:argument name="addClasses" value="FALSE"/>
    <gridsvg:argument name="indent" value="TRUE"/>
    <gridsvg:argument name="htmlWrapper" value="FALSE"/>
    <gridsvg:argument name="usePaths" value="vpPaths"/>
    <gridsvg:argument name="uniqueNames" value="TRUE"/>
    <gridsvg:separator name="id.sep" value="."/>
    <gridsvg:separator name="gPath.sep" value="::"/>
    <gridsvg:separator name="vpPath.sep" value="::"/>
  </metadata>
  <g transform="translate(0, 504) scale(1, -1)">
    <g id="gridSVG" fill="none" stroke="rgb(0,0,0)" stroke-dasharray="none" stroke-width="0.75" font-size="12" font-family="Helvetica, Arial, FreeSans, Liberation Sans, Nimbus Sans L, sans-serif" opacity="1" stroke-linecap="round" stroke-linejoin="round" stroke-miterlimit="10" stroke-opacity="1" fill-opacity="0" font-weight="normal" font-style="normal">
      <g id="picture.shape::picture.scale.1">
        <defs>
          <clipPath id="picture.shape::picture.scale.2.clipPath">
            <rect x="0" y="84" width="504" height="336" fill="none" stroke="none"/>
          </clipPath>
        </defs>
        <g id="picture.shape::picture.scale.2" clip-path="url(#picture.shape::picture.scale.2.clipPath)">
          <g id="import.1.GRID.gTree.140.1">
            <g id="GRID.gTree.139.1">
              <g id="GRID.rect.212.1">
                <rect id="GRID.rect.212.1.1" x="0" y="84" width="504" height="336" fill="rgb(0,15,93)" stroke="none" stroke-opacity="0" fill-opacity="1"/>
              </g>
              <g id="GRID.picComplexPath.34.1" stroke="none" fill="rgb(255,231,0)" stroke-opacity="0" fill-opacity="1">
                <g id="GRID.pathgrob.213.1">
                  <path id="GRID.pathgrob.213.1.1" d="M 262.46 269.66 L 262.46 269.66 L 263.11 270.49 L 263.67 271.78 L 264.15 273.48 L 264.54 275.54 L 264.84 277.91 L 265.04 280.49 L 265.13 283.16 L 265.12 285.82 L 265.02 288.35 L 264.82 290.67 L 264.54 292.7 L 264.19 294.41 L 263.97 295.19 L 263.97 295.19 L 263.24 296.26 L 262.47 297.32 L 261.7 298.39 L 260.99 299.44 L 260.42 300.46 L 260.03 301.43 L 259.86 302.37 L 259.85 302.57 L 259.85 302.57 L 259.92 303.87 L 260.33 305.3 L 261.02 306.82 L 261.91 308.37 L 262.89 309.82 L 263.83 311.07 L 264.63 312.05 L 265.2 312.72 L 265.39 312.93 L 265.39 312.93 L 265.8 313.58 L 265.42 313.8 L 264.33 313.61 L 262.65 313.05 L 260.51 312.16 L 258.09 311 L 255.58 309.66 L 253.18 308.21 L 251.06 306.75 L 249.33 305.32 L 248.2 304.1 L 248.2 304.1 L 248 303.92 L 247.81 303.77 L 247.62 303.64 L 247.43 303.54 L 247.25 303.45 L 247.08 303.4 L 246.93 303.36 L 246.78 303.35 L 246.66 303.36 L 246.56 303.39 L 246.48 303.44 L 246.43 303.51 L 246.41 303.59 L 246.41 303.69 L 246.45 303.81 L 246.52 303.93 L 246.62 304.06 L 246.75 304.21 L 246.91 304.36 L 247.05 304.47 L 247.05 304.47 L 246.76 304.84 L 246.26 304.86 L 245.59 304.51 L 244.77 303.83 L 243.87 302.81 L 242.94 301.52 L 242.05 299.99 L 241.25 298.31 L 240.61 296.53 L 240.15 294.7 L 239.91 292.85 L 239.88 292.19 L 239.88 292.19 L 239.92 290.75 L 240.06 289.08 L 240.29 287.17 L 240.64 285.07 L 241.09 282.84 L 241.66 280.54 L 242.31 278.26 L 243.06 276.09 L 243.87 274.1 L 244.73 272.35 L 245.65 270.86 L 246.62 269.65 L 246.67 269.61 Z" fill-rule="nonzero" stroke="none" stroke-opacity="0"/>
                </g>
                <g id="GRID.polyline.214.1">
                  <polyline id="GRID.polyline.214.1.1" points="262.46,269.66 262.46,269.66 263.11,270.49 263.67,271.78 264.15,273.48 264.54,275.54 264.84,277.91 265.04,280.49 265.13,283.16 265.12,285.82 265.02,288.35 264.82,290.67 264.54,292.7 264.19,294.41 263.97,295.19 263.97,295.19 263.24,296.26 262.47,297.32 261.7,298.39 260.99,299.44 260.42,300.46 260.03,301.43 259.86,302.37 259.85,302.57 259.85,302.57 259.92,303.87 260.33,305.3 261.02,306.82 261.91,308.37 262.89,309.82 263.83,311.07 264.63,312.05 265.2,312.72 265.39,312.93 265.39,312.93 265.8,313.58 265.42,313.8 264.33,313.61 262.65,313.05 260.51,312.16 258.09,311 255.58,309.66 253.18,308.21 251.06,306.75 249.33,305.32 248.2,304.1 248.2,304.1 248,303.92 247.81,303.77 247.62,303.64 247.43,303.54 247.25,303.45 247.08,303.4 246.93,303.36 246.78,303.35 246.66,303.36 246.56,303.39 246.48,303.44 246.43,303.51 246.41,303.59 246.41,303.69 246.45,303.81 246.52,303.93 246.62,304.06 246.75,304.21 246.91,304.36 247.05,304.47 247.05,304.47 246.76,304.84 246.26,304.86 245.59,304.51 244.77,303.83 243.87,302.81 242.94,301.52 242.05,299.99 241.25,298.31 240.61,296.53 240.15,294.7 239.91,292.85 239.88,292.19 239.88,292.19 239.92,290.75 240.06,289.08 240.29,287.17 240.64,285.07 241.09,282.84 241.66,280.54 242.31,278.26 243.06,276.09 243.87,274.1 244.73,272.35 245.65,270.86 246.62,269.65 246.67,269.61" fill="none" fill-opacity="0"/>
                </g>
              </g>
              <g id="GRID.picComplexPath.37.1" stroke="none" fill="rgb(255,231,0)" stroke-opacity="0" fill-opacity="1">
                <g id="GRID.pathgrob.215.1">
                  <path id="GRID.pathgrob.215.1.1" d="M 233.16 300.87 L 233.16 300.87 L 232.69 299.43 L 232.14 297.72 L 231.52 295.75 L 230.87 293.55 L 230.22 291.16 L 229.62 288.63 L 229.12 286.03 L 228.75 283.43 L 228.56 280.9 L 228.58 278.52 L 228.83 276.34 L 229.35 274.41 L 230.14 272.76 L 231.25 271.41 L 232.1 270.73 L 232.1 270.73 L 233.13 270.2 L 234.39 269.83 L 235.85 269.59 L 237.47 269.48 L 239.14 269.45 L 240.77 269.49 L 242.25 269.55 L 243.56 269.6 L 244.34 269.61 L 244.34 269.61 L 243.39 271.38 L 242.44 273.24 L 241.48 275.22 L 240.52 277.31 L 239.56 279.51 L 238.61 281.82 L 237.7 284.19 L 236.84 286.59 L 236.04 289 L 235.31 291.37 L 234.67 293.69 L 234.11 295.94 L 233.64 298.12 L 233.25 300.26 L 233.16 300.87 Z" fill-rule="nonzero" stroke="none" stroke-opacity="0"/>
                </g>
                <g id="GRID.polyline.216.1">
                  <polyline id="GRID.polyline.216.1.1" points="233.16,300.87 233.16,300.87 232.69,299.43 232.14,297.72 231.52,295.75 230.87,293.55 230.22,291.16 229.62,288.63 229.12,286.03 228.75,283.43 228.56,280.9 228.58,278.52 228.83,276.34 229.35,274.41 230.14,272.76 231.25,271.41 232.1,270.73 232.1,270.73 233.13,270.2 234.39,269.83 235.85,269.59 237.47,269.48 239.14,269.45 240.77,269.49 242.25,269.55 243.56,269.6 244.34,269.61 244.34,269.61 243.39,271.38 242.44,273.24 241.48,275.22 240.52,277.31 239.56,279.51 238.61,281.82 237.7,284.19 236.84,286.59 236.04,289 235.31,291.37 234.67,293.69 234.11,295.94 233.64,298.12 233.25,300.26 233.16,300.87 233.16,300.87" fill="none" fill-opacity="0"/>
                </g>
              </g>
              <g id="GRID.picComplexPath.40.1" stroke="none" fill="rgb(255,231,0)" stroke-opacity="0" fill-opacity="1">
                <g id="GRID.pathgrob.217.1">
                  <path id="GRID.pathgrob.217.1.1" d="M 228.98 267.55 L 228.98 262.65 L 275.76 262.65 L 275.76 267.55 Z" fill-rule="nonzero" stroke="none" stroke-opacity="0"/>
                </g>
                <g id="GRID.polyline.218.1">
                  <polyline id="GRID.polyline.218.1.1" points="228.98,267.55 228.98,262.65 275.76,262.65 275.76,267.55 228.98,267.55" fill="none" fill-opacity="0"/>
                </g>
              </g>
              <g id="GRID.picComplexPath.43.1" stroke="none" fill="rgb(255,231,0)" stroke-opacity="0" fill-opacity="1">
                <g id="GRID.pathgrob.219.1">
                  <path id="GRID.pathgrob.219.1.1" d="M 234.06 259.05 L 234.06 259.05 L 234.81 257.83 L 235.64 256.24 L 236.57 254.32 L 237.55 252.1 L 238.57 249.62 L 239.59 246.97 L 240.56 244.21 L 241.46 241.45 L 242.24 238.78 L 242.87 236.28 L 243.32 234.02 L 243.58 232.05 L 243.64 230.4 L 243.51 229.25 L 261.64 229.22 L 261.64 229.22 L 261.4 230.57 L 261.39 232.28 L 261.59 234.32 L 261.99 236.65 L 262.56 239.22 L 263.28 241.94 L 264.12 244.74 L 265.03 247.5 L 265.97 250.14 L 266.9 252.57 L 267.78 254.72 L 268.6 256.54 L 269.32 258 L 269.78 258.84 Z" fill-rule="nonzero" stroke="none" stroke-opacity="0"/>
                </g>
                <g id="GRID.polyline.220.1">
                  <polyline id="GRID.polyline.220.1.1" points="234.06,259.05 234.06,259.05 234.81,257.83 235.64,256.24 236.57,254.32 237.55,252.1 238.57,249.62 239.59,246.97 240.56,244.21 241.46,241.45 242.24,238.78 242.87,236.28 243.32,234.02 243.58,232.05 243.64,230.4 243.51,229.25 261.64,229.22 261.64,229.22 261.4,230.57 261.39,232.28 261.59,234.32 261.99,236.65 262.56,239.22 263.28,241.94 264.12,244.74 265.03,247.5 265.97,250.14 266.9,252.57 267.78,254.72 268.6,256.54 269.32,258 269.78,258.84 234.06,259.05" fill="none" fill-opacity="0"/>
                </g>
              </g>
              <g id="GRID.picComplexPath.46.1" stroke="none" fill="rgb(255,231,0)" stroke-opacity="0" fill-opacity="1">
                <g id="GRID.pathgrob.221.1">
                  <path id="GRID.pathgrob.221.1.1" d="M 241.18 227.48 L 241.18 223.01 L 263.56 223.01 L 263.56 227.48 Z" fill-rule="nonzero" stroke="none" stroke-opacity="0"/>
                </g>
                <g id="GRID.polyline.222.1">
                  <polyline id="GRID.polyline.222.1.1" points="241.18,227.48 241.18,223.01 263.56,223.01 263.56,227.48 241.18,227.48" fill="none" fill-opacity="0"/>
                </g>
              </g>
              <g id="GRID.picComplexPath.49.1" stroke="none" fill="rgb(255,231,0)" stroke-opacity="0" fill-opacity="1">
                <g id="GRID.pathgrob.223.1">
                  <path id="GRID.pathgrob.223.1.1" d="M 244.23 221.49 L 248.3 171.51 L 237.11 171.51 L 237.11 170.53 L 246.27 165.63 L 242.2 153.87 L 246.27 155.83 L 246.27 155.83 L 246.31 153.54 L 246.34 151.16 L 246.37 148.67 L 246.42 146.08 L 246.49 143.38 L 246.59 140.6 L 246.74 137.75 L 246.94 134.88 L 247.21 132.03 L 247.55 129.22 L 247.97 126.49 L 248.47 123.87 L 249.05 121.37 L 249.72 119 L 250.5 116.75 L 251.35 114.67 L 253.39 114.67 L 253.39 114.67 L 254.32 116.76 L 255.09 118.99 L 255.71 121.37 L 256.21 123.9 L 256.58 126.57 L 256.84 129.36 L 257 132.25 L 257.07 135.19 L 257.06 138.15 L 257 141.08 L 256.9 143.95 L 256.78 146.72 L 256.66 149.37 L 256.55 151.88 L 256.47 154.27 L 256.44 156.54 L 256.44 156.81 L 261.52 153.87 L 257.46 165.63 L 266.61 170.53 L 266.61 171.51 L 255.42 173.47 L 257.72 184.25 L 260.51 221.49 Z" fill-rule="nonzero" stroke="none" stroke-opacity="0"/>
                </g>
                <g id="GRID.polyline.224.1">
                  <polyline id="GRID.polyline.224.1.1" points="244.23,221.49 248.3,171.51 237.11,171.51 237.11,170.53 246.27,165.63 242.2,153.87 246.27,155.83 246.27,155.83 246.31,153.54 246.34,151.16 246.37,148.67 246.42,146.08 246.49,143.38 246.59,140.6 246.74,137.75 246.94,134.88 247.21,132.03 247.55,129.22 247.97,126.49 248.47,123.87 249.05,121.37 249.72,119 250.5,116.75 251.35,114.67 253.39,114.67 253.39,114.67 254.32,116.76 255.09,118.99 255.71,121.37 256.21,123.9 256.58,126.57 256.84,129.36 257,132.25 257.07,135.19 257.06,138.15 257,141.08 256.9,143.95 256.78,146.72 256.66,149.37 256.55,151.88 256.47,154.27 256.44,156.54 256.44,156.81 261.52,153.87 257.46,165.63 266.61,170.53 266.61,171.51 255.42,173.47 257.72,184.25 260.51,221.49 244.23,221.49" fill="none" fill-opacity="0"/>
                </g>
              </g>
              <g id="GRID.picComplexPath.52.1" stroke="none" fill="rgb(255,231,0)" stroke-opacity="0" fill-opacity="1">
                <g id="GRID.pathgrob.225.1">
                  <path id="GRID.pathgrob.225.1.1" d="M 132.39 183.9 L 122.38 191.32 L 112.28 184.03 L 116.19 195.92 L 106.19 203.35 L 118.61 203.28 L 122.53 215.17 L 126.3 203.23 L 138.72 203.15 L 128.63 195.84 Z" fill-rule="evenodd" stroke="none" stroke-opacity="0"/>
                </g>
                <g id="GRID.polyline.226.1">
                  <polyline id="GRID.polyline.226.1.1" points="132.39,183.9 122.38,191.32 112.28,184.03 116.19,195.92 106.19,203.35 118.61,203.28 122.53,215.17 126.3,203.23 138.72,203.15 128.63,195.84 132.39,183.9" fill="none" fill-opacity="0"/>
                </g>
              </g>
              <g id="GRID.picComplexPath.55.1" stroke="none" fill="rgb(255,231,0)" stroke-opacity="0" fill-opacity="1">
                <g id="GRID.pathgrob.227.1">
                  <path id="GRID.pathgrob.227.1.1" d="M 169.97 136.5 L 159.96 143.92 L 149.86 136.62 L 153.76 148.52 L 143.76 155.95 L 156.18 155.88 L 160.1 167.77 L 163.87 155.83 L 176.3 155.75 L 166.2 148.44 Z" fill-rule="evenodd" stroke="none" stroke-opacity="0"/>
                </g>
                <g id="GRID.polyline.228.1">
                  <polyline id="GRID.polyline.228.1.1" points="169.97,136.5 159.96,143.92 149.86,136.62 153.76,148.52 143.76,155.95 156.18,155.88 160.1,167.77 163.87,155.83 176.3,155.75 166.2,148.44 169.97,136.5" fill="none" fill-opacity="0"/>
                </g>
              </g>
              <g id="GRID.picComplexPath.58.1" stroke="none" fill="rgb(255,231,0)" stroke-opacity="0" fill-opacity="1">
                <g id="GRID.pathgrob.229.1">
                  <path id="GRID.pathgrob.229.1.1" d="M 352.42 136.5 L 342.41 143.92 L 332.31 136.62 L 336.22 148.52 L 326.22 155.95 L 338.64 155.88 L 342.56 167.77 L 346.33 155.83 L 358.75 155.75 L 348.66 148.44 Z" fill-rule="evenodd" stroke="none" stroke-opacity="0"/>
                </g>
                <g id="GRID.polyline.230.1">
                  <polyline id="GRID.polyline.230.1.1" points="352.42,136.5 342.41,143.92 332.31,136.62 336.22,148.52 326.22,155.95 338.64,155.88 342.56,167.77 346.33,155.83 358.75,155.75 348.66,148.44 352.42,136.5" fill="none" fill-opacity="0"/>
                </g>
              </g>
              <g id="GRID.picComplexPath.61.1" stroke="none" fill="rgb(255,231,0)" stroke-opacity="0" fill-opacity="1">
                <g id="GRID.pathgrob.231.1">
                  <path id="GRID.pathgrob.231.1.1" d="M 224.97 102.53 L 214.96 109.95 L 204.87 102.65 L 208.77 114.55 L 198.77 121.98 L 211.19 121.91 L 215.11 133.8 L 218.88 121.86 L 231.31 121.78 L 221.21 114.47 Z" fill-rule="evenodd" stroke="none" stroke-opacity="0"/>
                </g>
                <g id="GRID.polyline.232.1">
                  <polyline id="GRID.polyline.232.1.1" points="224.97,102.53 214.96,109.95 204.87,102.65 208.77,114.55 198.77,121.98 211.19,121.91 215.11,133.8 218.88,121.86 231.31,121.78 221.21,114.47 224.97,102.53" fill="none" fill-opacity="0"/>
                </g>
              </g>
              <g id="GRID.picComplexPath.64.1" stroke="none" fill="rgb(255,231,0)" stroke-opacity="0" fill-opacity="1">
                <g id="GRID.pathgrob.233.1">
                  <path id="GRID.pathgrob.233.1.1" d="M 295.48 102.53 L 285.47 109.95 L 275.37 102.65 L 279.28 114.55 L 269.27 121.98 L 281.7 121.91 L 285.61 133.8 L 289.39 121.86 L 301.81 121.78 L 291.72 114.47 Z" fill-rule="evenodd" stroke="none" stroke-opacity="0"/>
                </g>
                <g id="GRID.polyline.234.1">
                  <polyline id="GRID.polyline.234.1.1" points="295.48,102.53 285.47,109.95 275.37,102.65 279.28,114.55 269.27,121.98 281.7,121.91 285.61,133.8 289.39,121.86 301.81,121.78 291.72,114.47 295.48,102.53" fill="none" fill-opacity="0"/>
                </g>
              </g>
              <g id="GRID.picComplexPath.67.1" stroke="none" fill="rgb(255,231,0)" stroke-opacity="0" fill-opacity="1">
                <g id="GRID.pathgrob.235.1">
                  <path id="GRID.pathgrob.235.1.1" d="M 320.76 176.81 L 310.75 184.23 L 300.65 176.93 L 304.56 188.83 L 294.55 196.26 L 306.98 196.19 L 310.89 208.08 L 314.66 196.14 L 327.09 196.06 L 317 188.75 Z" fill-rule="evenodd" stroke="none" stroke-opacity="0"/>
                </g>
                <g id="GRID.polyline.236.1">
                  <polyline id="GRID.polyline.236.1.1" points="320.76,176.81 310.75,184.23 300.65,176.93 304.56,188.83 294.55,196.26 306.98,196.19 310.89,208.08 314.66,196.14 327.09,196.06 317,188.75 320.76,176.81" fill="none" fill-opacity="0"/>
                </g>
              </g>
              <g id="GRID.picComplexPath.70.1" stroke="none" fill="rgb(255,231,0)" stroke-opacity="0" fill-opacity="1">
                <g id="GRID.pathgrob.237.1">
                  <path id="GRID.pathgrob.237.1.1" d="M 202.41 177.18 L 192.4 184.6 L 182.3 177.31 L 186.2 189.2 L 176.2 196.63 L 188.62 196.56 L 192.54 208.45 L 196.31 196.51 L 208.74 196.43 L 198.64 189.12 Z" fill-rule="evenodd" stroke="none" stroke-opacity="0"/>
                </g>
                <g id="GRID.polyline.238.1">
                  <polyline id="GRID.polyline.238.1.1" points="202.41,177.18 192.4,184.6 182.3,177.31 186.2,189.2 176.2,196.63 188.62,196.56 192.54,208.45 196.31,196.51 208.74,196.43 198.64,189.12 202.41,177.18" fill="none" fill-opacity="0"/>
                </g>
              </g>
              <g id="GRID.picComplexPath.73.1" stroke="none" fill="rgb(0,15,93)" stroke-opacity="0" fill-opacity="1">
                <g id="GRID.pathgrob.239.1">
                  <path id="GRID.pathgrob.239.1.1" d="M 268.24 144.76 L 251.91 156.87 L 235.44 144.96 L 241.81 164.36 L 225.5 176.48 L 245.76 176.36 L 252.15 195.76 L 258.3 176.29 L 278.57 176.16 L 262.1 164.24 Z" fill-rule="evenodd" stroke="none" stroke-opacity="0"/>
                </g>
                <g id="GRID.polyline.240.1">
                  <polyline id="GRID.polyline.240.1.1" points="268.24,144.76 251.91,156.87 235.44,144.96 241.81,164.36 225.5,176.48 245.76,176.36 252.15,195.76 258.3,176.29 278.57,176.16 262.1,164.24 268.24,144.76" fill="none" fill-opacity="0"/>
                </g>
              </g>
              <g id="GRID.picComplexPath.76.1" stroke="none" fill="rgb(255,231,0)" stroke-opacity="0" fill-opacity="1">
                <g id="GRID.pathgrob.241.1">
                  <path id="GRID.pathgrob.241.1.1" d="M 261.58 154.41 L 251.57 161.84 L 241.47 154.54 L 245.38 166.43 L 235.38 173.86 L 247.8 173.79 L 251.72 185.68 L 255.49 173.74 L 267.91 173.66 L 257.82 166.36 Z" fill-rule="evenodd" stroke="none" stroke-opacity="0"/>
                </g>
                <g id="GRID.polyline.242.1">
                  <polyline id="GRID.polyline.242.1.1" points="261.58,154.41 251.57,161.84 241.47,154.54 245.38,166.43 235.38,173.86 247.8,173.79 251.72,185.68 255.49,173.74 267.91,173.66 257.82,166.36 261.58,154.41" fill="none" fill-opacity="0"/>
                </g>
              </g>
              <g id="GRID.picComplexPath.79.1" stroke="none" fill="rgb(255,231,0)" stroke-opacity="0" fill-opacity="1">
                <g id="GRID.pathgrob.243.1">
                  <path id="GRID.pathgrob.243.1.1" d="M 390.77 183.9 L 380.76 191.32 L 370.66 184.03 L 374.57 195.92 L 364.57 203.35 L 376.99 203.28 L 380.91 215.17 L 384.68 203.23 L 397.11 203.15 L 387.01 195.84 Z" fill-rule="evenodd" stroke="none" stroke-opacity="0"/>
                </g>
                <g id="GRID.polyline.244.1">
                  <polyline id="GRID.polyline.244.1.1" points="390.77,183.9 380.76,191.32 370.66,184.03 374.57,195.92 364.57,203.35 376.99,203.28 380.91,215.17 384.68,203.23 397.11,203.15 387.01,195.84 390.77,183.9" fill="none" fill-opacity="0"/>
                </g>
              </g>
              <g id="GRID.picComplexPath.82.1" stroke="none" fill="rgb(255,231,0)" stroke-opacity="0" fill-opacity="1">
                <g id="GRID.pathgrob.245.1">
                  <path id="GRID.pathgrob.245.1.1" d="M 400.84 249.97 L 390.84 257.39 L 380.74 250.09 L 384.64 261.99 L 374.64 269.42 L 387.06 269.35 L 390.98 281.24 L 394.75 269.3 L 407.18 269.22 L 397.08 261.91 Z" fill-rule="evenodd" stroke="none" stroke-opacity="0"/>
                </g>
                <g id="GRID.polyline.246.1">
                  <polyline id="GRID.polyline.246.1.1" points="400.84,249.97 390.84,257.39 380.74,250.09 384.64,261.99 374.64,269.42 387.06,269.35 390.98,281.24 394.75,269.3 407.18,269.22 397.08,261.91 400.84,249.97" fill="none" fill-opacity="0"/>
                </g>
              </g>
              <g id="GRID.picComplexPath.85.1" stroke="none" fill="rgb(255,231,0)" stroke-opacity="0" fill-opacity="1">
                <g id="GRID.pathgrob.247.1">
                  <path id="GRID.pathgrob.247.1.1" d="M 348.94 233.82 L 338.93 241.24 L 328.83 233.95 L 332.73 245.84 L 322.73 253.27 L 335.16 253.2 L 339.07 265.09 L 342.84 253.15 L 355.27 253.07 L 345.17 245.76 Z" fill-rule="evenodd" stroke="none" stroke-opacity="0"/>
                </g>
                <g id="GRID.polyline.248.1">
                  <polyline id="GRID.polyline.248.1.1" points="348.94,233.82 338.93,241.24 328.83,233.95 332.73,245.84 322.73,253.27 335.16,253.2 339.07,265.09 342.84,253.15 355.27,253.07 345.17,245.76 348.94,233.82" fill="none" fill-opacity="0"/>
                </g>
              </g>
              <g id="GRID.picComplexPath.88.1" stroke="none" fill="rgb(255,231,0)" stroke-opacity="0" fill-opacity="1">
                <g id="GRID.pathgrob.249.1">
                  <path id="GRID.pathgrob.249.1.1" d="M 376.05 308.94 L 366.04 316.37 L 355.94 309.07 L 359.85 320.96 L 349.85 328.39 L 362.27 328.32 L 366.19 340.21 L 369.96 328.27 L 382.38 328.19 L 372.29 320.89 Z" fill-rule="evenodd" stroke="none" stroke-opacity="0"/>
                </g>
                <g id="GRID.polyline.250.1">
                  <polyline id="GRID.polyline.250.1.1" points="376.05,308.94 366.04,316.37 355.94,309.07 359.85,320.96 349.85,328.39 362.27,328.32 366.19,340.21 369.96,328.27 382.38,328.19 372.29,320.89 376.05,308.94" fill="none" fill-opacity="0"/>
                </g>
              </g>
              <g id="GRID.picComplexPath.91.1" stroke="none" fill="rgb(255,231,0)" stroke-opacity="0" fill-opacity="1">
                <g id="GRID.pathgrob.251.1">
                  <path id="GRID.pathgrob.251.1.1" d="M 327.24 350 L 317.23 357.42 L 307.13 350.13 L 311.04 362.02 L 301.04 369.45 L 313.46 369.38 L 317.38 381.27 L 321.15 369.33 L 333.57 369.25 L 323.48 361.94 Z" fill-rule="evenodd" stroke="none" stroke-opacity="0"/>
                </g>
                <g id="GRID.polyline.252.1">
                  <polyline id="GRID.polyline.252.1.1" points="327.24,350 317.23,357.42 307.13,350.13 311.04,362.02 301.04,369.45 313.46,369.38 317.38,381.27 321.15,369.33 333.57,369.25 323.48,361.94 327.24,350" fill="none" fill-opacity="0"/>
                </g>
              </g>
              <g id="GRID.picComplexPath.94.1" stroke="none" fill="rgb(255,231,0)" stroke-opacity="0" fill-opacity="1">
                <g id="GRID.pathgrob.253.1">
                  <path id="GRID.pathgrob.253.1.1" d="M 260.61 370.16 L 250.6 377.58 L 240.51 370.28 L 244.41 382.18 L 234.41 389.61 L 246.83 389.53 L 250.75 401.43 L 254.52 389.49 L 266.95 389.4 L 256.85 382.1 Z" fill-rule="evenodd" stroke="none" stroke-opacity="0"/>
                </g>
                <g id="GRID.polyline.254.1">
                  <polyline id="GRID.polyline.254.1.1" points="260.61,370.16 250.6,377.58 240.51,370.28 244.41,382.18 234.41,389.61 246.83,389.53 250.75,401.43 254.52,389.49 266.95,389.4 256.85,382.1 260.61,370.16" fill="none" fill-opacity="0"/>
                </g>
              </g>
              <g id="GRID.picComplexPath.97.1" stroke="none" fill="rgb(255,231,0)" stroke-opacity="0" fill-opacity="1">
                <g id="GRID.pathgrob.255.1">
                  <path id="GRID.pathgrob.255.1.1" d="M 195.53 350 L 185.52 357.42 L 175.43 350.13 L 179.33 362.02 L 169.33 369.45 L 181.75 369.38 L 185.67 381.27 L 189.44 369.33 L 201.87 369.25 L 191.77 361.94 Z" fill-rule="evenodd" stroke="none" stroke-opacity="0"/>
                </g>
                <g id="GRID.polyline.256.1">
                  <polyline id="GRID.polyline.256.1.1" points="195.53,350 185.52,357.42 175.43,350.13 179.33,362.02 169.33,369.45 181.75,369.38 185.67,381.27 189.44,369.33 201.87,369.25 191.77,361.94 195.53,350" fill="none" fill-opacity="0"/>
                </g>
              </g>
              <g id="GRID.picComplexPath.100.1" stroke="none" fill="rgb(255,231,0)" stroke-opacity="0" fill-opacity="1">
                <g id="GRID.pathgrob.257.1">
                  <path id="GRID.pathgrob.257.1.1" d="M 150.21 308.94 L 140.2 316.37 L 130.1 309.07 L 134.01 320.96 L 124 328.39 L 136.43 328.32 L 140.34 340.21 L 144.12 328.27 L 156.54 328.19 L 146.45 320.89 Z" fill-rule="evenodd" stroke="none" stroke-opacity="0"/>
                </g>
                <g id="GRID.polyline.258.1">
                  <polyline id="GRID.polyline.258.1.1" points="150.21,308.94 140.2,316.37 130.1,309.07 134.01,320.96 124,328.39 136.43,328.32 140.34,340.21 144.12,328.27 156.54,328.19 146.45,320.89 150.21,308.94" fill="none" fill-opacity="0"/>
                </g>
              </g>
              <g id="GRID.picComplexPath.103.1" stroke="none" fill="rgb(255,231,0)" stroke-opacity="0" fill-opacity="1">
                <g id="GRID.pathgrob.259.1">
                  <path id="GRID.pathgrob.259.1.1" d="M 177.71 233.07 L 167.7 240.5 L 157.61 233.2 L 161.51 245.09 L 151.51 252.52 L 163.93 252.45 L 167.85 264.34 L 171.62 252.4 L 184.05 252.32 L 173.95 245.02 Z" fill-rule="evenodd" stroke="none" stroke-opacity="0"/>
                </g>
                <g id="GRID.polyline.260.1">
                  <polyline id="GRID.polyline.260.1.1" points="177.71,233.07 167.7,240.5 157.61,233.2 161.51,245.09 151.51,252.52 163.93,252.45 167.85,264.34 171.62,252.4 184.05,252.32 173.95,245.02 177.71,233.07" fill="none" fill-opacity="0"/>
                </g>
              </g>
              <g id="GRID.picComplexPath.106.1" stroke="none" fill="rgb(255,231,0)" stroke-opacity="0" fill-opacity="1">
                <g id="GRID.pathgrob.261.1">
                  <path id="GRID.pathgrob.261.1.1" d="M 123.09 249.97 L 113.08 257.39 L 102.98 250.09 L 106.89 261.99 L 96.89 269.42 L 109.31 269.35 L 113.23 281.24 L 117 269.3 L 129.42 269.22 L 119.33 261.91 Z" fill-rule="evenodd" stroke="none" stroke-opacity="0"/>
                </g>
                <g id="GRID.polyline.262.1">
                  <polyline id="GRID.polyline.262.1.1" points="123.09,249.97 113.08,257.39 102.98,250.09 106.89,261.99 96.89,269.42 109.31,269.35 113.23,281.24 117,269.3 129.42,269.22 119.33,261.91 123.09,249.97" fill="none" fill-opacity="0"/>
                </g>
              </g>
              <g id="GRID.picComplexPath.109.1" stroke="none" fill="rgb(255,231,0)" stroke-opacity="0" fill-opacity="1">
                <g id="GRID.pathgrob.263.1">
                  <path id="GRID.pathgrob.263.1.1" d="M 263.4 317.3 L 250.65 326.76 L 237.78 317.46 L 242.76 332.61 L 230.02 342.08 L 245.85 341.99 L 250.84 357.13 L 255.64 341.92 L 271.47 341.82 L 258.61 332.51 Z" fill-rule="evenodd" stroke="none" stroke-opacity="0"/>
                </g>
                <g id="GRID.polyline.264.1">
                  <polyline id="GRID.polyline.264.1.1" points="263.4,317.3 250.65,326.76 237.78,317.46 242.76,332.61 230.02,342.08 245.85,341.99 250.84,357.13 255.64,341.92 271.47,341.82 258.61,332.51 263.4,317.3" fill="none" fill-opacity="0"/>
                </g>
              </g>
              <g id="GRID.picComplexPath.112.1" stroke="none" fill="rgb(255,231,0)" stroke-opacity="0" fill-opacity="1">
                <g id="GRID.pathgrob.265.1">
                  <path id="GRID.pathgrob.265.1.1" d="M 273.36 269.65 L 273.36 269.65 L 273.97 270.16 L 274.55 270.88 L 275.11 271.87 L 275.65 273.14 L 276.15 274.71 L 276.61 276.56 L 277.03 278.68 L 277.38 281.01 L 277.67 283.54 L 277.9 286.23 L 278.08 289.1 L 278.15 290.63 L 276.22 289.54 L 275.21 289.63 L 270.04 301.85 L 270.04 301.85 L 269.17 300.75 L 268.52 299.2 L 268.04 297.23 L 267.72 294.88 L 267.51 292.22 L 267.38 289.33 L 267.3 286.31 L 267.22 283.27 L 267.11 280.32 L 266.94 277.55 L 266.66 275.06 L 266.24 272.92 L 265.65 271.16 L 264.87 269.84 L 264.71 269.66 Z" fill-rule="nonzero" stroke="none" stroke-opacity="0"/>
                </g>
                <g id="GRID.polyline.266.1">
                  <polyline id="GRID.polyline.266.1.1" points="273.36,269.65 273.36,269.65 273.97,270.16 274.55,270.88 275.11,271.87 275.65,273.14 276.15,274.71 276.61,276.56 277.03,278.68 277.38,281.01 277.67,283.54 277.9,286.23 278.08,289.1 278.15,290.63 276.22,289.54 275.21,289.63 270.04,301.85 270.04,301.85 269.17,300.75 268.52,299.2 268.04,297.23 267.72,294.88 267.51,292.22 267.38,289.33 267.3,286.31 267.22,283.27 267.11,280.32 266.94,277.55 266.66,275.06 266.24,272.92 265.65,271.16 264.87,269.84 264.71,269.66" fill="none" fill-opacity="0"/>
                </g>
              </g>
              <g id="GRID.picComplexPath.115.1" stroke="none" fill="rgb(255,231,0)" stroke-opacity="0" fill-opacity="1">
                <g id="GRID.pathgrob.267.1">
                  <path id="GRID.pathgrob.267.1.1" d="M 251.84 311.09 L 249.86 311.09 L 250.04 323.05 L 252.02 323.05 Z" fill-rule="evenodd" stroke="none" stroke-opacity="0"/>
                </g>
                <g id="GRID.polyline.268.1">
                  <polyline id="GRID.polyline.268.1.1" points="251.84,311.09 249.86,311.09 250.04,323.05 252.02,323.05 251.84,311.09" fill="none" fill-opacity="0"/>
                </g>
              </g>
              <g id="GRID.picComplexPath.118.1" stroke="none" fill="rgb(255,231,0)" stroke-opacity="0" fill-opacity="1">
                <g id="GRID.pathgrob.269.1">
                  <path id="GRID.pathgrob.269.1.1" d="M 286.34 295.11 L 285.88 298.45 L 349.79 319.79 L 350.24 316.45 Z" fill-rule="evenodd" stroke="none" stroke-opacity="0"/>
                </g>
                <g id="GRID.polyline.270.1">
                  <polyline id="GRID.polyline.270.1.1" points="286.34,295.11 285.88,298.45 349.79,319.79 350.24,316.45 286.34,295.11" fill="none" fill-opacity="0"/>
                </g>
              </g>
              <g id="GRID.picComplexPath.121.1" stroke="none" fill="rgb(255,231,0)" stroke-opacity="0" fill-opacity="1">
                <g id="GRID.pathgrob.271.1">
                  <path id="GRID.pathgrob.271.1.1" d="M 231.29 310.39 L 229.54 308.48 L 197.17 348.25 L 198.92 350.16 Z" fill-rule="evenodd" stroke="none" stroke-opacity="0"/>
                </g>
                <g id="GRID.polyline.272.1">
                  <polyline id="GRID.polyline.272.1.1" points="231.29,310.39 229.54,308.48 197.17,348.25 198.92,350.16 231.29,310.39" fill="none" fill-opacity="0"/>
                </g>
              </g>
              <g id="GRID.picComplexPath.124.1" stroke="none" fill="rgb(255,231,0)" stroke-opacity="0" fill-opacity="1">
                <g id="GRID.pathgrob.273.1">
                  <path id="GRID.pathgrob.273.1.1" d="M 220.51 295.34 L 217.16 294.19 L 155.36 318.25 L 158.71 319.41 Z" fill-rule="evenodd" stroke="none" stroke-opacity="0"/>
                </g>
                <g id="GRID.polyline.274.1">
                  <polyline id="GRID.polyline.274.1.1" points="220.51,295.34 217.16,294.19 155.36,318.25 158.71,319.41 220.51,295.34" fill="none" fill-opacity="0"/>
                </g>
              </g>
              <g id="GRID.picComplexPath.127.1" stroke="none" fill="rgb(255,231,0)" stroke-opacity="0" fill-opacity="1">
                <g id="GRID.pathgrob.275.1">
                  <path id="GRID.pathgrob.275.1.1" d="M 371.22 269.5 L 369.82 267.2 L 283.78 277.4 L 285.18 279.7 Z" fill-rule="evenodd" stroke="none" stroke-opacity="0"/>
                </g>
                <g id="GRID.polyline.276.1">
                  <polyline id="GRID.polyline.276.1.1" points="371.22,269.5 369.82,267.2 283.78,277.4 285.18,279.7 371.22,269.5" fill="none" fill-opacity="0"/>
                </g>
              </g>
              <g id="GRID.picComplexPath.130.1" stroke="none" fill="rgb(255,231,0)" stroke-opacity="0" fill-opacity="1">
                <g id="GRID.pathgrob.277.1">
                  <path id="GRID.pathgrob.277.1.1" d="M 134.53 266.79 L 135.27 269.29 L 222.46 280.54 L 221.72 278.04 Z" fill-rule="evenodd" stroke="none" stroke-opacity="0"/>
                </g>
                <g id="GRID.polyline.278.1">
                  <polyline id="GRID.polyline.278.1.1" points="134.53,266.79 135.27,269.29 222.46,280.54 221.72,278.04 134.53,266.79" fill="none" fill-opacity="0"/>
                </g>
              </g>
              <g id="GRID.picComplexPath.133.1" stroke="none" fill="rgb(255,231,0)" stroke-opacity="0" fill-opacity="1">
                <g id="GRID.pathgrob.279.1">
                  <path id="GRID.pathgrob.279.1.1" d="M 275.7 303.79 L 274.35 305.98 L 303.63 347.56 L 304.98 345.36 Z" fill-rule="evenodd" stroke="none" stroke-opacity="0"/>
                </g>
                <g id="GRID.polyline.280.1">
                  <polyline id="GRID.polyline.280.1.1" points="275.7,303.79 274.35,305.98 303.63,347.56 304.98,345.36 275.7,303.79" fill="none" fill-opacity="0"/>
                </g>
              </g>
              <g id="GRID.picComplexPath.136.1" stroke="none" fill="rgb(255,231,0)" stroke-opacity="0" fill-opacity="1">
                <g id="GRID.pathgrob.281.1">
                  <path id="GRID.pathgrob.281.1.1" d="M 226.4 342.72 L 216 348.05 L 216.72 349.47 L 227.13 344.13 L 226.4 342.72 Z M 228.18 346.56 L 219.77 354.69 L 220.98 355.94 L 230.88 353.96 L 230.88 353.96 L 231 353.94 L 231.13 353.91 L 231.26 353.88 L 231.37 353.85 L 231.48 353.82 L 231.48 353.82 L 231.58 353.8 L 231.68 353.76 L 231.78 353.73 L 231.88 353.69 L 231.96 353.66 L 225.14 360.25 L 226.2 361.34 L 234.6 353.21 L 233.41 351.97 L 223.33 353.94 L 223.33 353.94 L 223.25 353.96 L 223.15 353.98 L 223.05 354.01 L 222.96 354.04 L 222.87 354.06 L 222.87 354.06 L 222.79 354.09 L 222.69 354.12 L 222.59 354.16 L 222.5 354.2 L 222.41 354.23 L 229.22 347.64 L 228.18 346.56 Z M 237.05 365.84 L 234.51 364.85 L 237.75 356.54 L 240.29 357.53 L 240.29 357.53 L 240.84 357.79 L 241.34 358.12 L 241.77 358.53 L 242.1 358.99 L 242.32 359.45 L 242.35 359.56 L 242.35 359.56 L 242.46 360.1 L 242.48 360.76 L 242.39 361.5 L 242.22 362.27 L 241.96 363.03 L 241.96 363.03 L 241.65 363.72 L 241.27 364.38 L 240.83 364.96 L 240.38 365.42 L 239.92 365.74 L 239.92 365.74 L 239.45 365.96 L 238.92 366.09 L 238.33 366.12 L 237.74 366.05 L 237.17 365.88 L 237.05 365.84 Z M 236.78 354.63 L 232.54 365.53 L 236.69 367.15 L 236.69 367.15 L 237.52 367.41 L 238.39 367.56 L 239.25 367.56 L 240.03 367.41 L 240.7 367.15 L 240.7 367.15 L 241.3 366.77 L 241.9 366.23 L 242.47 365.53 L 242.97 364.73 L 243.37 363.88 L 243.44 363.69 L 243.44 363.69 L 243.75 362.78 L 243.96 361.84 L 244.05 360.91 L 244.02 360.05 L 243.87 359.3 L 243.8 359.06 L 243.8 359.06 L 243.49 358.37 L 243.01 357.7 L 242.39 357.1 L 241.66 356.6 L 240.88 356.23 L 240.88 356.23 L 236.78 354.63 Z M 247.78 357.95 L 246.86 369.61 L 248.44 369.73 L 249.36 358.07 L 247.78 357.95 Z M 254.93 362.73 L 258.51 362.05 L 257.71 367.46 L 254.93 362.73 Z M 250.7 358.6 L 257.17 369.26 L 258.89 368.94 L 260.97 356.63 L 259.27 356.96 L 258.72 360.62 L 254.2 361.49 L 252.31 358.29 L 250.7 358.6 Z M 262.13 356.01 L 268.74 365.65 L 270.17 364.67 L 269.88 354.58 L 269.88 354.58 L 269.87 354.45 L 269.87 354.32 L 269.86 354.19 L 269.85 354.07 L 269.84 353.96 L 269.84 353.96 L 269.83 353.86 L 269.82 353.76 L 269.8 353.65 L 269.78 353.55 L 269.76 353.46 L 275.12 361.28 L 276.37 360.43 L 269.76 350.78 L 268.34 351.75 L 268.6 362.01 L 268.6 362.01 L 268.61 362.1 L 268.61 362.2 L 268.62 362.3 L 268.63 362.4 L 268.64 362.49 L 268.64 362.49 L 268.65 362.58 L 268.67 362.68 L 268.69 362.78 L 268.71 362.88 L 268.73 362.98 L 263.37 355.16 L 262.13 356.01 Z M 276.67 349.64 L 278.61 346.56 L 282.01 350.84 L 276.67 349.64 Z M 270.75 349.92 L 282.96 352.47 L 283.9 350.99 L 276.32 341.07 L 275.41 342.53 L 277.7 345.44 L 275.25 349.33 L 271.63 348.53 L 270.75 349.92 Z" fill-rule="nonzero" stroke="none" stroke-opacity="0"/>
                </g>
                <g id="GRID.polyline.282.1">
                  <polyline id="GRID.polyline.282.1.1" points="226.4,342.72 216,348.05 216.72,349.47 227.13,344.13 226.4,342.72" fill="none" fill-opacity="0"/>
                  <polyline id="GRID.polyline.282.1.2" points="228.18,346.56 219.77,354.69 220.98,355.94 230.88,353.96 230.88,353.96 231,353.94 231.13,353.91 231.26,353.88 231.37,353.85 231.48,353.82 231.48,353.82 231.58,353.8 231.68,353.76 231.78,353.73 231.88,353.69 231.96,353.66 225.14,360.25 226.2,361.34 234.6,353.21 233.41,351.97 223.33,353.94 223.33,353.94 223.25,353.96 223.15,353.98 223.05,354.01 222.96,354.04 222.87,354.06 222.87,354.06 222.79,354.09 222.69,354.12 222.59,354.16 222.5,354.2 222.41,354.23 229.22,347.64 228.18,346.56" fill="none" fill-opacity="0"/>
                  <polyline id="GRID.polyline.282.1.3" points="237.05,365.84 234.51,364.85 237.75,356.54 240.29,357.53 240.29,357.53 240.84,357.79 241.34,358.12 241.77,358.53 242.1,358.99 242.32,359.45 242.35,359.56 242.35,359.56 242.46,360.1 242.48,360.76 242.39,361.5 242.22,362.27 241.96,363.03 241.96,363.03 241.65,363.72 241.27,364.38 240.83,364.96 240.38,365.42 239.92,365.74 239.92,365.74 239.45,365.96 238.92,366.09 238.33,366.12 237.74,366.05 237.17,365.88 237.05,365.84" fill="none" fill-opacity="0"/>
                  <polyline id="GRID.polyline.282.1.4" points="236.78,354.63 232.54,365.53 236.69,367.15 236.69,367.15 237.52,367.41 238.39,367.56 239.25,367.56 240.03,367.41 240.7,367.15 240.7,367.15 241.3,366.77 241.9,366.23 242.47,365.53 242.97,364.73 243.37,363.88 243.44,363.69 243.44,363.69 243.75,362.78 243.96,361.84 244.05,360.91 244.02,360.05 243.87,359.3 243.8,359.06 243.8,359.06 243.49,358.37 243.01,357.7 242.39,357.1 241.66,356.6 240.88,356.23 240.88,356.23 236.78,354.63" fill="none" fill-opacity="0"/>
                  <polyline id="GRID.polyline.282.1.5" points="247.78,357.95 246.86,369.61 248.44,369.73 249.36,358.07 247.78,357.95" fill="none" fill-opacity="0"/>
                  <polyline id="GRID.polyline.282.1.6" points="254.93,362.73 258.51,362.05 257.71,367.46 254.93,362.73" fill="none" fill-opacity="0"/>
                  <polyline id="GRID.polyline.282.1.7" points="250.7,358.6 257.17,369.26 258.89,368.94 260.97,356.63 259.27,356.96 258.72,360.62 254.2,361.49 252.31,358.29 250.7,358.6" fill="none" fill-opacity="0"/>
                  <polyline id="GRID.polyline.282.1.8" points="262.13,356.01 268.74,365.65 270.17,364.67 269.88,354.58 269.88,354.58 269.87,354.45 269.87,354.32 269.86,354.19 269.85,354.07 269.84,353.96 269.84,353.96 269.83,353.86 269.82,353.76 269.8,353.65 269.78,353.55 269.76,353.46 275.12,361.28 276.37,360.43 269.76,350.78 268.34,351.75 268.6,362.01 268.6,362.01 268.61,362.1 268.61,362.2 268.62,362.3 268.63,362.4 268.64,362.49 268.64,362.49 268.65,362.58 268.67,362.68 268.69,362.78 268.71,362.88 268.73,362.98 263.37,355.16 262.13,356.01" fill="none" fill-opacity="0"/>
                  <polyline id="GRID.polyline.282.1.9" points="276.67,349.64 278.61,346.56 282.01,350.84 276.67,349.64" fill="none" fill-opacity="0"/>
                  <polyline id="GRID.polyline.282.1.10" points="270.75,349.92 282.96,352.47 283.9,350.99 276.32,341.07 275.41,342.53 277.7,345.44 275.25,349.33 271.63,348.53 270.75,349.92" fill="none" fill-opacity="0"/>
                </g>
              </g>
            </g>
          </g>
        </g>
      </g>
    </g>
  </g>
</svg>