<?xml version="1.0" encoding="UTF-8"?>
<svg xmlns="http://www.w3.org/2000/svg" xmlns:xlink="http://www.w3.org/1999/xlink" width="504px" height="504px" viewBox="0 0 504 504" version="1.1">
  <metadata xmlns:gridsvg="http://www.stat.auckland.ac.nz/~paul/R/gridSVG/">
    <gridsvg:generator name="gridSVG" version="1.3-0" time="2013-09-05 23:54:30"/>
    <gridsvg:argument name="name" value="grImport2-gridSVG/Maryland.svg"/>
    <gridsvg:argument name="exportCoords" value="none"/>
    <gridsvg:argument name="exportMappings" value="none"/>
    <gridsvg:argument name="exportJS" value="none"/>
    <gridsvg:argument name="res" value="72"/>
    <gridsvg:argument name="prefix" value=""/>
    <gridsvg:argument name="addClasses" value="FALSE"/>
    <gridsvg:argument name="indent" value="TRUE"/>
    <gridsvg:argument name="htmlWrapper" value="FALSE"/>
    <gridsvg:argument name="usePaths" value="vpPaths"/>
    <gridsvg:argument name="uniqueNames" value="TRUE"/>
    <gridsvg:separator name="id.sep" value="."/>
    <gridsvg:separator name="gPath.sep" value="::"/>
    <gridsvg:separator name="vpPath.sep" value="::"/>
  </metadata>
  <g transform="translate(0, 504) scale(1, -1)">
    <g id="gridSVG" fill="none" stroke="rgb(0,0,0)" stroke-dasharray="none" stroke-width="0.75" font-size="12" font-family="Helvetica, Arial, FreeSans, Liberation Sans, Nimbus Sans L, sans-serif" opacity="1" stroke-linecap="round" stroke-linejoin="round" stroke-miterlimit="10" stroke-opacity="1" fill-opacity="0" font-weight="normal" font-style="normal">
      <g id="picture.shape::picture.scale.1">
        <defs>
          <clipPath id="picture.shape::picture.scale.2.clipPath">
            <rect x="0" y="84" width="504" height="336" fill="none" stroke="none"/>
          </clipPath>
        </defs>
        <g id="picture.shape::picture.scale.2" clip-path="url(#picture.shape::picture.scale.2.clipPath)">
          <g id="import.1.GRID.gTree.98.1">
            <g id="GRID.gTree.97.1">
              <g id="GRID.picComplexPath.49.1" stroke="none" fill="rgb(0,0,0)" stroke-opacity="0" fill-opacity="1">
                <g id="GRID.pathgrob.131.1">
                  <path id="GRID.pathgrob.131.1.1" d="M 0 420 L 252 420 L 252 252 L 0 252 Z" fill-rule="nonzero" stroke="none" stroke-opacity="0"/>
                </g>
                <g id="GRID.polyline.132.1">
                  <polyline id="GRID.polyline.132.1.1" points="0,420 252,420 252,252 0,252 0,420" fill="none" fill-opacity="0"/>
                </g>
              </g>
              <g id="GRID.picComplexPath.52.1" stroke="none" fill="rgb(234,171,0)" stroke-opacity="0" fill-opacity="1">
                <g id="GRID.pathgrob.133.1">
                  <path id="GRID.pathgrob.133.1.1" d="M 0 252 L 0 392 L 42 364 L 42 252 L 84 252 L 84 420 L 126 420 L 126 252 L 168 252 L 168 420 L 210 420 L 210 252 L 252 252 L 252 280 L 42 420 L 42 364 L 210 252 Z" fill-rule="nonzero" stroke="none" stroke-opacity="0"/>
                </g>
                <g id="GRID.polyline.134.1">
                  <polyline id="GRID.polyline.134.1.1" points="0,252 0,392 42,364 42,252 84,252 84,420 126,420 126,252 168,252 168,420 210,420 210,252 252,252 252,280 42,420 42,364 210,252 0,252" fill="none" fill-opacity="0"/>
                </g>
              </g>
              <g id="GRID.picComplexPath.55.1" stroke="none" fill="rgb(255,255,255)" stroke-opacity="0" fill-opacity="1">
                <g id="GRID.pathgrob.135.1">
                  <path id="GRID.pathgrob.135.1.1" d="M 252 420 L 504 420 L 504 252 L 252 252 Z" fill-rule="nonzero" stroke="none" stroke-opacity="0"/>
                </g>
                <g id="GRID.polyline.136.1">
                  <polyline id="GRID.polyline.136.1.1" points="252,420 504,420 504,252 252,252 252,420" fill="none" fill-opacity="0"/>
                </g>
              </g>
              <g id="GRID.picComplexPath.58.1" stroke="none" fill="rgb(152,30,50)" stroke-opacity="0" fill-opacity="1">
                <g id="GRID.pathgrob.137.1">
                  <path id="GRID.pathgrob.137.1.1" d="M 378 420 L 504 420 L 504 336 L 252 336 L 252 252 L 378 252 Z" fill-rule="nonzero" stroke="none" stroke-opacity="0"/>
                </g>
                <g id="GRID.polyline.138.1">
                  <polyline id="GRID.polyline.138.1.1" points="378,420 504,420 504,336 252,336 252,252 378,252 378,420" fill="none" fill-opacity="0"/>
                </g>
              </g>
              <g id="GRID.picComplexPath.61.1" stroke="none" fill="rgb(152,30,50)" stroke-opacity="0" fill-opacity="1">
                <g id="GRID.pathgrob.139.1">
                  <path id="GRID.pathgrob.139.1.1" d="M 378 263.76 L 378 263.76 L 379.38 263.85 L 380.73 264.14 L 382.06 264.61 L 383.35 265.28 L 384.56 266.13 L 385.68 267.15 L 386.64 268.29 L 387.44 269.53 L 388.06 270.83 L 388.48 272.17 L 388.7 273.53 L 388.75 274.51 L 388.75 279.89 L 399.17 279.89 L 399.17 279.89 L 400.55 279.98 L 401.9 280.26 L 403.23 280.74 L 404.52 281.41 L 405.73 282.26 L 406.84 283.27 L 407.81 284.42 L 408.61 285.66 L 409.23 286.96 L 409.65 288.3 L 409.87 289.66 L 409.92 290.64 L 409.92 290.64 L 409.83 292.02 L 409.54 293.37 L 409.07 294.7 L 408.4 295.99 L 407.55 297.2 L 406.53 298.32 L 405.39 299.28 L 404.15 300.08 L 402.85 300.7 L 401.51 301.12 L 400.15 301.34 L 399.17 301.39 L 388.75 301.39 L 388.75 325.25 L 455.62 325.25 L 455.62 314.83 L 455.62 314.83 L 455.71 313.45 L 455.99 312.1 L 456.47 310.77 L 457.14 309.48 L 457.99 308.27 L 459 307.16 L 460.15 306.19 L 461.39 305.39 L 462.69 304.77 L 464.03 304.35 L 465.39 304.13 L 466.37 304.08 L 466.37 304.08 L 467.75 304.17 L 469.1 304.46 L 470.43 304.93 L 471.72 305.6 L 472.93 306.45 L 474.04 307.47 L 475.01 308.61 L 475.81 309.85 L 476.43 311.15 L 476.85 312.49 L 477.07 313.85 L 477.12 314.83 L 477.12 325.25 L 486.53 325.25 L 486.53 325.25 L 487.91 325.34 L 489.26 325.62 L 490.59 326.1 L 491.88 326.77 L 493.09 327.62 L 494.2 328.63 L 495.17 329.78 L 495.97 331.02 L 496.59 332.32 L 497.01 333.66 L 497.23 335.02 L 497.28 336 L 378 336 Z" fill-rule="nonzero" stroke="none" stroke-opacity="0"/>
                </g>
                <g id="GRID.polyline.140.1">
                  <polyline id="GRID.polyline.140.1.1" points="378,263.76 378,263.76 379.38,263.85 380.73,264.14 382.06,264.61 383.35,265.28 384.56,266.13 385.68,267.15 386.64,268.29 387.44,269.53 388.06,270.83 388.48,272.17 388.7,273.53 388.75,274.51 388.75,279.89 399.17,279.89 399.17,279.89 400.55,279.98 401.9,280.26 403.23,280.74 404.52,281.41 405.73,282.26 406.84,283.27 407.81,284.42 408.61,285.66 409.23,286.96 409.65,288.3 409.87,289.66 409.92,290.64 409.92,290.64 409.83,292.02 409.54,293.37 409.07,294.7 408.4,295.99 407.55,297.2 406.53,298.32 405.39,299.28 404.15,300.08 402.85,300.7 401.51,301.12 400.15,301.34 399.17,301.39 388.75,301.39 388.75,325.25 455.62,325.25 455.62,314.83 455.62,314.83 455.71,313.45 455.99,312.1 456.47,310.77 457.14,309.48 457.99,308.27 459,307.16 460.15,306.19 461.39,305.39 462.69,304.77 464.03,304.35 465.39,304.13 466.37,304.08 466.37,304.08 467.75,304.17 469.1,304.46 470.43,304.93 471.72,305.6 472.93,306.45 474.04,307.47 475.01,308.61 475.81,309.85 476.43,311.15 476.85,312.49 477.07,313.85 477.12,314.83 477.12,325.25 486.53,325.25 486.53,325.25 487.91,325.34 489.26,325.62 490.59,326.1 491.88,326.77 493.09,327.62 494.2,328.63 495.17,329.78 495.97,331.02 496.59,332.32 497.01,333.66 497.23,335.02 497.28,336 378,336 378,263.76" fill="none" fill-opacity="0"/>
                </g>
              </g>
              <g id="GRID.picComplexPath.64.1" stroke="none" fill="rgb(255,255,255)" stroke-opacity="0" fill-opacity="1">
                <g id="GRID.pathgrob.141.1">
                  <path id="GRID.pathgrob.141.1.1" d="M 378 263.76 L 378 263.76 L 376.62 263.85 L 375.27 264.14 L 373.94 264.61 L 372.65 265.28 L 371.44 266.13 L 370.32 267.15 L 369.36 268.29 L 368.56 269.53 L 367.94 270.83 L 367.52 272.17 L 367.3 273.53 L 367.25 274.51 L 367.25 279.89 L 356.83 279.89 L 356.83 279.89 L 355.45 279.98 L 354.1 280.26 L 352.77 280.74 L 351.48 281.41 L 350.27 282.26 L 349.16 283.27 L 348.19 284.42 L 347.39 285.66 L 346.77 286.96 L 346.35 288.3 L 346.13 289.66 L 346.08 290.64 L 346.08 290.64 L 346.17 292.02 L 346.46 293.37 L 346.93 294.7 L 347.6 295.99 L 348.45 297.2 L 349.47 298.32 L 350.61 299.28 L 351.85 300.08 L 353.15 300.7 L 354.49 301.12 L 355.85 301.34 L 356.83 301.39 L 367.25 301.39 L 367.25 325.25 L 300.38 325.25 L 300.38 314.83 L 300.38 314.83 L 300.29 313.45 L 300.01 312.1 L 299.53 310.77 L 298.86 309.48 L 298.01 308.27 L 297 307.16 L 295.85 306.19 L 294.61 305.39 L 293.31 304.77 L 291.97 304.35 L 290.61 304.13 L 289.63 304.08 L 289.63 304.08 L 288.25 304.17 L 286.9 304.46 L 285.57 304.93 L 284.28 305.6 L 283.07 306.45 L 281.96 307.47 L 280.99 308.61 L 280.19 309.85 L 279.57 311.15 L 279.15 312.49 L 278.93 313.85 L 278.88 314.83 L 278.88 325.25 L 269.47 325.25 L 269.47 325.25 L 268.09 325.34 L 266.74 325.62 L 265.41 326.1 L 264.12 326.77 L 262.91 327.62 L 261.8 328.63 L 260.83 329.78 L 260.03 331.02 L 259.41 332.32 L 258.99 333.66 L 258.77 335.02 L 258.72 336 L 378 336 Z" fill-rule="nonzero" stroke="none" stroke-opacity="0"/>
                </g>
                <g id="GRID.polyline.142.1">
                  <polyline id="GRID.polyline.142.1.1" points="378,263.76 378,263.76 376.62,263.85 375.27,264.14 373.94,264.61 372.65,265.28 371.44,266.13 370.32,267.15 369.36,268.29 368.56,269.53 367.94,270.83 367.52,272.17 367.3,273.53 367.25,274.51 367.25,279.89 356.83,279.89 356.83,279.89 355.45,279.98 354.1,280.26 352.77,280.74 351.48,281.41 350.27,282.26 349.16,283.27 348.19,284.42 347.39,285.66 346.77,286.96 346.35,288.3 346.13,289.66 346.08,290.64 346.08,290.64 346.17,292.02 346.46,293.37 346.93,294.7 347.6,295.99 348.45,297.2 349.47,298.32 350.61,299.28 351.85,300.08 353.15,300.7 354.49,301.12 355.85,301.34 356.83,301.39 367.25,301.39 367.25,325.25 300.38,325.25 300.38,314.83 300.38,314.83 300.29,313.45 300.01,312.1 299.53,310.77 298.86,309.48 298.01,308.27 297,307.16 295.85,306.19 294.61,305.39 293.31,304.77 291.97,304.35 290.61,304.13 289.63,304.08 289.63,304.08 288.25,304.17 286.9,304.46 285.57,304.93 284.28,305.6 283.07,306.45 281.96,307.47 280.99,308.61 280.19,309.85 279.57,311.15 279.15,312.49 278.93,313.85 278.88,314.83 278.88,325.25 269.47,325.25 269.47,325.25 268.09,325.34 266.74,325.62 265.41,326.1 264.12,326.77 262.91,327.62 261.8,328.63 260.83,329.78 260.03,331.02 259.41,332.32 258.99,333.66 258.77,335.02 258.72,336 378,336 378,263.76" fill="none" fill-opacity="0"/>
                </g>
              </g>
              <g id="GRID.picComplexPath.67.1" stroke="none" fill="rgb(255,255,255)" stroke-opacity="0" fill-opacity="1">
                <g id="GRID.pathgrob.143.1">
                  <path id="GRID.pathgrob.143.1.1" d="M 378 408.24 L 378 408.24 L 379.38 408.15 L 380.73 407.86 L 382.06 407.39 L 383.35 406.72 L 384.56 405.87 L 385.68 404.85 L 386.64 403.71 L 387.44 402.47 L 388.06 401.17 L 388.48 399.83 L 388.7 398.47 L 388.75 397.49 L 388.75 392.11 L 399.17 392.11 L 399.17 392.11 L 400.55 392.02 L 401.9 391.74 L 403.23 391.26 L 404.52 390.59 L 405.73 389.74 L 406.84 388.73 L 407.81 387.58 L 408.61 386.34 L 409.23 385.04 L 409.65 383.7 L 409.87 382.34 L 409.92 381.36 L 409.92 381.36 L 409.83 379.98 L 409.54 378.63 L 409.07 377.3 L 408.4 376.01 L 407.55 374.8 L 406.53 373.68 L 405.39 372.72 L 404.15 371.92 L 402.85 371.3 L 401.51 370.88 L 400.15 370.66 L 399.17 370.61 L 388.75 370.61 L 388.75 346.75 L 455.62 346.75 L 455.62 357.17 L 455.62 357.17 L 455.71 358.55 L 455.99 359.9 L 456.47 361.23 L 457.14 362.52 L 457.99 363.73 L 459 364.84 L 460.15 365.81 L 461.39 366.61 L 462.69 367.23 L 464.03 367.65 L 465.39 367.87 L 466.37 367.92 L 466.37 367.92 L 467.75 367.83 L 469.1 367.54 L 470.43 367.07 L 471.72 366.4 L 472.93 365.55 L 474.04 364.53 L 475.01 363.39 L 475.81 362.15 L 476.43 360.85 L 476.85 359.51 L 477.07 358.15 L 477.12 357.17 L 477.12 346.75 L 486.53 346.75 L 486.53 346.75 L 487.91 346.66 L 489.26 346.38 L 490.59 345.9 L 491.88 345.23 L 493.09 344.38 L 494.2 343.37 L 495.17 342.22 L 495.97 340.98 L 496.59 339.68 L 497.01 338.34 L 497.23 336.98 L 497.28 336 L 378 336 Z" fill-rule="nonzero" stroke="none" stroke-opacity="0"/>
                </g>
                <g id="GRID.polyline.144.1">
                  <polyline id="GRID.polyline.144.1.1" points="378,408.24 378,408.24 379.38,408.15 380.73,407.86 382.06,407.39 383.35,406.72 384.56,405.87 385.68,404.85 386.64,403.71 387.44,402.47 388.06,401.17 388.48,399.83 388.7,398.47 388.75,397.49 388.75,392.11 399.17,392.11 399.17,392.11 400.55,392.02 401.9,391.74 403.23,391.26 404.52,390.59 405.73,389.74 406.84,388.73 407.81,387.58 408.61,386.34 409.23,385.04 409.65,383.7 409.87,382.34 409.92,381.36 409.92,381.36 409.83,379.98 409.54,378.63 409.07,377.3 408.4,376.01 407.55,374.8 406.53,373.68 405.39,372.72 404.15,371.92 402.85,371.3 401.51,370.88 400.15,370.66 399.17,370.61 388.75,370.61 388.75,346.75 455.62,346.75 455.62,357.17 455.62,357.17 455.71,358.55 455.99,359.9 456.47,361.23 457.14,362.52 457.99,363.73 459,364.84 460.15,365.81 461.39,366.61 462.69,367.23 464.03,367.65 465.39,367.87 466.37,367.92 466.37,367.92 467.75,367.83 469.1,367.54 470.43,367.07 471.72,366.4 472.93,365.55 474.04,364.53 475.01,363.39 475.81,362.15 476.43,360.85 476.85,359.51 477.07,358.15 477.12,357.17 477.12,346.75 486.53,346.75 486.53,346.75 487.91,346.66 489.26,346.38 490.59,345.9 491.88,345.23 493.09,344.38 494.2,343.37 495.17,342.22 495.97,340.98 496.59,339.68 497.01,338.34 497.23,336.98 497.28,336 378,336 378,408.24" fill="none" fill-opacity="0"/>
                </g>
              </g>
              <g id="GRID.picComplexPath.70.1" stroke="none" fill="rgb(152,30,50)" stroke-opacity="0" fill-opacity="1">
                <g id="GRID.pathgrob.145.1">
                  <path id="GRID.pathgrob.145.1.1" d="M 378 408.24 L 378 408.24 L 376.62 408.15 L 375.27 407.86 L 373.94 407.39 L 372.65 406.72 L 371.44 405.87 L 370.32 404.85 L 369.36 403.71 L 368.56 402.47 L 367.94 401.17 L 367.52 399.83 L 367.3 398.47 L 367.25 397.49 L 367.25 392.11 L 356.83 392.11 L 356.83 392.11 L 355.45 392.02 L 354.1 391.74 L 352.77 391.26 L 351.48 390.59 L 350.27 389.74 L 349.16 388.73 L 348.19 387.58 L 347.39 386.34 L 346.77 385.04 L 346.35 383.7 L 346.13 382.34 L 346.08 381.36 L 346.08 381.36 L 346.17 379.98 L 346.46 378.63 L 346.93 377.3 L 347.6 376.01 L 348.45 374.8 L 349.47 373.68 L 350.61 372.72 L 351.85 371.92 L 353.15 371.3 L 354.49 370.88 L 355.85 370.66 L 356.83 370.61 L 367.25 370.61 L 367.25 346.75 L 300.38 346.75 L 300.38 357.17 L 300.38 357.17 L 300.29 358.55 L 300.01 359.9 L 299.53 361.23 L 298.86 362.52 L 298.01 363.73 L 297 364.84 L 295.85 365.81 L 294.61 366.61 L 293.31 367.23 L 291.97 367.65 L 290.61 367.87 L 289.63 367.92 L 289.63 367.92 L 288.25 367.83 L 286.9 367.54 L 285.57 367.07 L 284.28 366.4 L 283.07 365.55 L 281.96 364.53 L 280.99 363.39 L 280.19 362.15 L 279.57 360.85 L 279.15 359.51 L 278.93 358.15 L 278.88 357.17 L 278.88 346.75 L 269.47 346.75 L 269.47 346.75 L 268.09 346.66 L 266.74 346.38 L 265.41 345.9 L 264.12 345.23 L 262.91 344.38 L 261.8 343.37 L 260.83 342.22 L 260.03 340.98 L 259.41 339.68 L 258.99 338.34 L 258.77 336.98 L 258.72 336 L 378 336 Z" fill-rule="nonzero" stroke="none" stroke-opacity="0"/>
                </g>
                <g id="GRID.polyline.146.1">
                  <polyline id="GRID.polyline.146.1.1" points="378,408.24 378,408.24 376.62,408.15 375.27,407.86 373.94,407.39 372.65,406.72 371.44,405.87 370.32,404.85 369.36,403.71 368.56,402.47 367.94,401.17 367.52,399.83 367.3,398.47 367.25,397.49 367.25,392.11 356.83,392.11 356.83,392.11 355.45,392.02 354.1,391.74 352.77,391.26 351.48,390.59 350.27,389.74 349.16,388.73 348.19,387.58 347.39,386.34 346.77,385.04 346.35,383.7 346.13,382.34 346.08,381.36 346.08,381.36 346.17,379.98 346.46,378.63 346.93,377.3 347.6,376.01 348.45,374.8 349.47,373.68 350.61,372.72 351.85,371.92 353.15,371.3 354.49,370.88 355.85,370.66 356.83,370.61 367.25,370.61 367.25,346.75 300.38,346.75 300.38,357.17 300.38,357.17 300.29,358.55 300.01,359.9 299.53,361.23 298.86,362.52 298.01,363.73 297,364.84 295.85,365.81 294.61,366.61 293.31,367.23 291.97,367.65 290.61,367.87 289.63,367.92 289.63,367.92 288.25,367.83 286.9,367.54 285.57,367.07 284.28,366.4 283.07,365.55 281.96,364.53 280.99,363.39 280.19,362.15 279.57,360.85 279.15,359.51 278.93,358.15 278.88,357.17 278.88,346.75 269.47,346.75 269.47,346.75 268.09,346.66 266.74,346.38 265.41,345.9 264.12,345.23 262.91,344.38 261.8,343.37 260.83,342.22 260.03,340.98 259.41,339.68 258.99,338.34 258.77,336.98 258.72,336 378,336 378,408.24" fill="none" fill-opacity="0"/>
                </g>
              </g>
              <g id="GRID.picComplexPath.73.1" stroke="none" fill="rgb(255,255,255)" stroke-opacity="0" fill-opacity="1">
                <g id="GRID.pathgrob.147.1">
                  <path id="GRID.pathgrob.147.1.1" d="M 0 252 L 252 252 L 252 84 L 0 84 Z" fill-rule="nonzero" stroke="none" stroke-opacity="0"/>
                </g>
                <g id="GRID.polyline.148.1">
                  <polyline id="GRID.polyline.148.1.1" points="0,252 252,252 252,84 0,84 0,252" fill="none" fill-opacity="0"/>
                </g>
              </g>
              <g id="GRID.picComplexPath.76.1" stroke="none" fill="rgb(152,30,50)" stroke-opacity="0" fill-opacity="1">
                <g id="GRID.pathgrob.149.1">
                  <path id="GRID.pathgrob.149.1.1" d="M 126 252 L 252 252 L 252 168 L 0 168 L 0 84 L 126 84 Z" fill-rule="nonzero" stroke="none" stroke-opacity="0"/>
                </g>
                <g id="GRID.polyline.150.1">
                  <polyline id="GRID.polyline.150.1.1" points="126,252 252,252 252,168 0,168 0,84 126,84 126,252" fill="none" fill-opacity="0"/>
                </g>
              </g>
              <g id="GRID.picComplexPath.79.1" stroke="none" fill="rgb(152,30,50)" stroke-opacity="0" fill-opacity="1">
                <g id="GRID.pathgrob.151.1">
                  <path id="GRID.pathgrob.151.1.1" d="M 126 95.76 L 126 95.76 L 127.38 95.85 L 128.73 96.14 L 130.06 96.61 L 131.35 97.28 L 132.56 98.13 L 133.68 99.15 L 134.64 100.29 L 135.44 101.53 L 136.06 102.83 L 136.48 104.17 L 136.7 105.53 L 136.75 106.51 L 136.75 111.89 L 147.17 111.89 L 147.17 111.89 L 148.55 111.98 L 149.9 112.26 L 151.23 112.74 L 152.52 113.41 L 153.73 114.26 L 154.84 115.27 L 155.81 116.42 L 156.61 117.66 L 157.23 118.96 L 157.65 120.3 L 157.87 121.66 L 157.92 122.64 L 157.92 122.64 L 157.83 124.02 L 157.54 125.37 L 157.07 126.7 L 156.4 127.99 L 155.55 129.2 L 154.53 130.32 L 153.39 131.28 L 152.15 132.08 L 150.85 132.7 L 149.51 133.12 L 148.15 133.34 L 147.17 133.39 L 136.75 133.39 L 136.75 157.25 L 203.62 157.25 L 203.62 146.83 L 203.62 146.83 L 203.71 145.45 L 203.99 144.1 L 204.47 142.77 L 205.14 141.48 L 205.99 140.27 L 207 139.16 L 208.15 138.19 L 209.39 137.39 L 210.69 136.77 L 212.03 136.35 L 213.39 136.13 L 214.37 136.08 L 214.37 136.08 L 215.75 136.17 L 217.1 136.46 L 218.43 136.93 L 219.72 137.6 L 220.93 138.45 L 222.04 139.47 L 223.01 140.61 L 223.81 141.85 L 224.43 143.15 L 224.85 144.49 L 225.07 145.85 L 225.12 146.83 L 225.12 157.25 L 234.53 157.25 L 234.53 157.25 L 235.91 157.34 L 237.26 157.62 L 238.59 158.1 L 239.88 158.77 L 241.09 159.62 L 242.2 160.63 L 243.17 161.78 L 243.97 163.02 L 244.59 164.32 L 245.01 165.66 L 245.23 167.02 L 245.28 168 L 126 168 Z" fill-rule="nonzero" stroke="none" stroke-opacity="0"/>
                </g>
                <g id="GRID.polyline.152.1">
                  <polyline id="GRID.polyline.152.1.1" points="126,95.76 126,95.76 127.38,95.85 128.73,96.14 130.06,96.61 131.35,97.28 132.56,98.13 133.68,99.15 134.64,100.29 135.44,101.53 136.06,102.83 136.48,104.17 136.7,105.53 136.75,106.51 136.75,111.89 147.17,111.89 147.17,111.89 148.55,111.98 149.9,112.26 151.23,112.74 152.52,113.41 153.73,114.26 154.84,115.27 155.81,116.42 156.61,117.66 157.23,118.96 157.65,120.3 157.87,121.66 157.92,122.64 157.92,122.64 157.83,124.02 157.54,125.37 157.07,126.7 156.4,127.99 155.55,129.2 154.53,130.32 153.39,131.28 152.15,132.08 150.85,132.7 149.51,133.12 148.15,133.34 147.17,133.39 136.75,133.39 136.75,157.25 203.62,157.25 203.62,146.83 203.62,146.83 203.71,145.45 203.99,144.1 204.47,142.77 205.14,141.48 205.99,140.27 207,139.16 208.15,138.19 209.39,137.39 210.69,136.77 212.03,136.35 213.39,136.13 214.37,136.08 214.37,136.08 215.75,136.17 217.1,136.46 218.43,136.93 219.72,137.6 220.93,138.45 222.04,139.47 223.01,140.61 223.81,141.85 224.43,143.15 224.85,144.49 225.07,145.85 225.12,146.83 225.12,157.25 234.53,157.25 234.53,157.25 235.91,157.34 237.26,157.62 238.59,158.1 239.88,158.77 241.09,159.62 242.2,160.63 243.17,161.78 243.97,163.02 244.59,164.32 245.01,165.66 245.23,167.02 245.28,168 126,168 126,95.76" fill="none" fill-opacity="0"/>
                </g>
              </g>
              <g id="GRID.picComplexPath.82.1" stroke="none" fill="rgb(255,255,255)" stroke-opacity="0" fill-opacity="1">
                <g id="GRID.pathgrob.153.1">
                  <path id="GRID.pathgrob.153.1.1" d="M 126 95.76 L 126 95.76 L 124.62 95.85 L 123.27 96.14 L 121.94 96.61 L 120.65 97.28 L 119.44 98.13 L 118.32 99.15 L 117.36 100.29 L 116.56 101.53 L 115.94 102.83 L 115.52 104.17 L 115.3 105.53 L 115.25 106.51 L 115.25 111.89 L 104.83 111.89 L 104.83 111.89 L 103.45 111.98 L 102.1 112.26 L 100.77 112.74 L 99.48 113.41 L 98.27 114.26 L 97.16 115.27 L 96.19 116.42 L 95.39 117.66 L 94.77 118.96 L 94.35 120.3 L 94.13 121.66 L 94.08 122.64 L 94.08 122.64 L 94.17 124.02 L 94.46 125.37 L 94.93 126.7 L 95.6 127.99 L 96.45 129.2 L 97.47 130.32 L 98.61 131.28 L 99.85 132.08 L 101.15 132.7 L 102.49 133.12 L 103.85 133.34 L 104.83 133.39 L 115.25 133.39 L 115.25 157.25 L 48.38 157.25 L 48.38 146.83 L 48.38 146.83 L 48.29 145.45 L 48.01 144.1 L 47.53 142.77 L 46.86 141.48 L 46.01 140.27 L 45 139.16 L 43.85 138.19 L 42.61 137.39 L 41.31 136.77 L 39.97 136.35 L 38.61 136.13 L 37.63 136.08 L 37.63 136.08 L 36.25 136.17 L 34.9 136.46 L 33.57 136.93 L 32.28 137.6 L 31.07 138.45 L 29.96 139.47 L 28.99 140.61 L 28.19 141.85 L 27.57 143.15 L 27.15 144.49 L 26.93 145.85 L 26.88 146.83 L 26.88 157.25 L 17.47 157.25 L 17.47 157.25 L 16.09 157.34 L 14.74 157.62 L 13.41 158.1 L 12.12 158.77 L 10.91 159.62 L 9.8 160.63 L 8.83 161.78 L 8.03 163.02 L 7.41 164.32 L 6.99 165.66 L 6.77 167.02 L 6.72 168 L 126 168 Z" fill-rule="nonzero" stroke="none" stroke-opacity="0"/>
                </g>
                <g id="GRID.polyline.154.1">
                  <polyline id="GRID.polyline.154.1.1" points="126,95.76 126,95.76 124.62,95.85 123.27,96.14 121.94,96.61 120.65,97.28 119.44,98.13 118.32,99.15 117.36,100.29 116.56,101.53 115.94,102.83 115.52,104.17 115.3,105.53 115.25,106.51 115.25,111.89 104.83,111.89 104.83,111.89 103.45,111.98 102.1,112.26 100.77,112.74 99.48,113.41 98.27,114.26 97.16,115.27 96.19,116.42 95.39,117.66 94.77,118.96 94.35,120.3 94.13,121.66 94.08,122.64 94.08,122.64 94.17,124.02 94.46,125.37 94.93,126.7 95.6,127.99 96.45,129.2 97.47,130.32 98.61,131.28 99.85,132.08 101.15,132.7 102.49,133.12 103.85,133.34 104.83,133.39 115.25,133.39 115.25,157.25 48.38,157.25 48.38,146.83 48.38,146.83 48.29,145.45 48.01,144.1 47.53,142.77 46.86,141.48 46.01,140.27 45,139.16 43.85,138.19 42.61,137.39 41.31,136.77 39.97,136.35 38.61,136.13 37.63,136.08 37.63,136.08 36.25,136.17 34.9,136.46 33.57,136.93 32.28,137.6 31.07,138.45 29.96,139.47 28.99,140.61 28.19,141.85 27.57,143.15 27.15,144.49 26.93,145.85 26.88,146.83 26.88,157.25 17.47,157.25 17.47,157.25 16.09,157.34 14.74,157.62 13.41,158.1 12.12,158.77 10.91,159.62 9.8,160.63 8.83,161.78 8.03,163.02 7.41,164.32 6.99,165.66 6.77,167.02 6.72,168 126,168 126,95.76" fill="none" fill-opacity="0"/>
                </g>
              </g>
              <g id="GRID.picComplexPath.85.1" stroke="none" fill="rgb(255,255,255)" stroke-opacity="0" fill-opacity="1">
                <g id="GRID.pathgrob.155.1">
                  <path id="GRID.pathgrob.155.1.1" d="M 126 240.24 L 126 240.24 L 127.38 240.15 L 128.73 239.86 L 130.06 239.39 L 131.35 238.72 L 132.56 237.87 L 133.68 236.85 L 134.64 235.71 L 135.44 234.47 L 136.06 233.17 L 136.48 231.83 L 136.7 230.47 L 136.75 229.49 L 136.75 224.11 L 147.17 224.11 L 147.17 224.11 L 148.55 224.02 L 149.9 223.74 L 151.23 223.26 L 152.52 222.59 L 153.73 221.74 L 154.84 220.73 L 155.81 219.58 L 156.61 218.34 L 157.23 217.04 L 157.65 215.7 L 157.87 214.34 L 157.92 213.36 L 157.92 213.36 L 157.83 211.98 L 157.54 210.63 L 157.07 209.3 L 156.4 208.01 L 155.55 206.8 L 154.53 205.68 L 153.39 204.72 L 152.15 203.92 L 150.85 203.3 L 149.51 202.88 L 148.15 202.66 L 147.17 202.61 L 136.75 202.61 L 136.75 178.75 L 203.62 178.75 L 203.62 189.17 L 203.62 189.17 L 203.71 190.55 L 203.99 191.9 L 204.47 193.23 L 205.14 194.52 L 205.99 195.73 L 207 196.84 L 208.15 197.81 L 209.39 198.61 L 210.69 199.23 L 212.03 199.65 L 213.39 199.87 L 214.37 199.92 L 214.37 199.92 L 215.75 199.83 L 217.1 199.54 L 218.43 199.07 L 219.72 198.4 L 220.93 197.55 L 222.04 196.53 L 223.01 195.39 L 223.81 194.15 L 224.43 192.85 L 224.85 191.51 L 225.07 190.15 L 225.12 189.17 L 225.12 178.75 L 234.53 178.75 L 234.53 178.75 L 235.91 178.66 L 237.26 178.38 L 238.59 177.9 L 239.88 177.23 L 241.09 176.38 L 242.2 175.37 L 243.17 174.22 L 243.97 172.98 L 244.59 171.68 L 245.01 170.34 L 245.23 168.98 L 245.28 168 L 126 168 Z" fill-rule="nonzero" stroke="none" stroke-opacity="0"/>
                </g>
                <g id="GRID.polyline.156.1">
                  <polyline id="GRID.polyline.156.1.1" points="126,240.24 126,240.24 127.38,240.15 128.73,239.86 130.06,239.39 131.35,238.72 132.56,237.87 133.68,236.85 134.64,235.71 135.44,234.47 136.06,233.17 136.48,231.83 136.7,230.47 136.75,229.49 136.75,224.11 147.17,224.11 147.17,224.11 148.55,224.02 149.9,223.74 151.23,223.26 152.52,222.59 153.73,221.74 154.84,220.73 155.81,219.58 156.61,218.34 157.23,217.04 157.65,215.7 157.87,214.34 157.92,213.36 157.92,213.36 157.83,211.98 157.54,210.63 157.07,209.3 156.4,208.01 155.55,206.8 154.53,205.68 153.39,204.72 152.15,203.92 150.85,203.3 149.51,202.88 148.15,202.66 147.17,202.61 136.75,202.61 136.75,178.75 203.62,178.75 203.62,189.17 203.62,189.17 203.71,190.55 203.99,191.9 204.47,193.23 205.14,194.52 205.99,195.73 207,196.84 208.15,197.81 209.39,198.61 210.69,199.23 212.03,199.65 213.39,199.87 214.37,199.92 214.37,199.92 215.75,199.83 217.1,199.54 218.43,199.07 219.72,198.4 220.93,197.55 222.04,196.53 223.01,195.39 223.81,194.15 224.43,192.85 224.85,191.51 225.07,190.15 225.12,189.17 225.12,178.75 234.53,178.75 234.53,178.75 235.91,178.66 237.26,178.38 238.59,177.9 239.88,177.23 241.09,176.38 242.2,175.37 243.17,174.22 243.97,172.98 244.59,171.68 245.01,170.34 245.23,168.98 245.28,168 126,168 126,240.24" fill="none" fill-opacity="0"/>
                </g>
              </g>
              <g id="GRID.picComplexPath.88.1" stroke="none" fill="rgb(152,30,50)" stroke-opacity="0" fill-opacity="1">
                <g id="GRID.pathgrob.157.1">
                  <path id="GRID.pathgrob.157.1.1" d="M 126 240.24 L 126 240.24 L 124.62 240.15 L 123.27 239.86 L 121.94 239.39 L 120.65 238.72 L 119.44 237.87 L 118.32 236.85 L 117.36 235.71 L 116.56 234.47 L 115.94 233.17 L 115.52 231.83 L 115.3 230.47 L 115.25 229.49 L 115.25 224.11 L 104.83 224.11 L 104.83 224.11 L 103.45 224.02 L 102.1 223.74 L 100.77 223.26 L 99.48 222.59 L 98.27 221.74 L 97.16 220.73 L 96.19 219.58 L 95.39 218.34 L 94.77 217.04 L 94.35 215.7 L 94.13 214.34 L 94.08 213.36 L 94.08 213.36 L 94.17 211.98 L 94.46 210.63 L 94.93 209.3 L 95.6 208.01 L 96.45 206.8 L 97.47 205.68 L 98.61 204.72 L 99.85 203.92 L 101.15 203.3 L 102.49 202.88 L 103.85 202.66 L 104.83 202.61 L 115.25 202.61 L 115.25 178.75 L 48.38 178.75 L 48.38 189.17 L 48.38 189.17 L 48.29 190.55 L 48.01 191.9 L 47.53 193.23 L 46.86 194.52 L 46.01 195.73 L 45 196.84 L 43.85 197.81 L 42.61 198.61 L 41.31 199.23 L 39.97 199.65 L 38.61 199.87 L 37.63 199.92 L 37.63 199.92 L 36.25 199.83 L 34.9 199.54 L 33.57 199.07 L 32.28 198.4 L 31.07 197.55 L 29.96 196.53 L 28.99 195.39 L 28.19 194.15 L 27.57 192.85 L 27.15 191.51 L 26.93 190.15 L 26.88 189.17 L 26.88 178.75 L 17.47 178.75 L 17.47 178.75 L 16.09 178.66 L 14.74 178.38 L 13.41 177.9 L 12.12 177.23 L 10.91 176.38 L 9.8 175.37 L 8.83 174.22 L 8.03 172.98 L 7.41 171.68 L 6.99 170.34 L 6.77 168.98 L 6.72 168 L 126 168 Z" fill-rule="nonzero" stroke="none" stroke-opacity="0"/>
                </g>
                <g id="GRID.polyline.158.1">
                  <polyline id="GRID.polyline.158.1.1" points="126,240.24 126,240.24 124.62,240.15 123.27,239.86 121.94,239.39 120.65,238.72 119.44,237.87 118.32,236.85 117.36,235.71 116.56,234.47 115.94,233.17 115.52,231.83 115.3,230.47 115.25,229.49 115.25,224.11 104.83,224.11 104.83,224.11 103.45,224.02 102.1,223.74 100.77,223.26 99.48,222.59 98.27,221.74 97.16,220.73 96.19,219.58 95.39,218.34 94.77,217.04 94.35,215.7 94.13,214.34 94.08,213.36 94.08,213.36 94.17,211.98 94.46,210.63 94.93,209.3 95.6,208.01 96.45,206.8 97.47,205.68 98.61,204.72 99.85,203.92 101.15,203.3 102.49,202.88 103.85,202.66 104.83,202.61 115.25,202.61 115.25,178.75 48.38,178.75 48.38,189.17 48.38,189.17 48.29,190.55 48.01,191.9 47.53,193.23 46.86,194.52 46.01,195.73 45,196.84 43.85,197.81 42.61,198.61 41.31,199.23 39.97,199.65 38.61,199.87 37.63,199.92 37.63,199.92 36.25,199.83 34.9,199.54 33.57,199.07 32.28,198.4 31.07,197.55 29.96,196.53 28.99,195.39 28.19,194.15 27.57,192.85 27.15,191.51 26.93,190.15 26.88,189.17 26.88,178.75 17.47,178.75 17.47,178.75 16.09,178.66 14.74,178.38 13.41,177.9 12.12,177.23 10.91,176.38 9.8,175.37 8.83,174.22 8.03,172.98 7.41,171.68 6.99,170.34 6.77,168.98 6.72,168 126,168 126,240.24" fill="none" fill-opacity="0"/>
                </g>
              </g>
              <g id="GRID.picComplexPath.91.1" stroke="none" fill="rgb(0,0,0)" stroke-opacity="0" fill-opacity="1">
                <g id="GRID.pathgrob.159.1">
                  <path id="GRID.pathgrob.159.1.1" d="M 252 252 L 504 252 L 504 84 L 252 84 Z" fill-rule="nonzero" stroke="none" stroke-opacity="0"/>
                </g>
                <g id="GRID.polyline.160.1">
                  <polyline id="GRID.polyline.160.1.1" points="252,252 504,252 504,84 252,84 252,252" fill="none" fill-opacity="0"/>
                </g>
              </g>
              <g id="GRID.picComplexPath.94.1" stroke="none" fill="rgb(234,171,0)" stroke-opacity="0" fill-opacity="1">
                <g id="GRID.pathgrob.161.1">
                  <path id="GRID.pathgrob.161.1.1" d="M 252 84 L 252 224 L 294 196 L 294 84 L 336 84 L 336 252 L 378 252 L 378 84 L 420 84 L 420 252 L 462 252 L 462 84 L 504 84 L 504 112 L 294 252 L 294 196 L 462 84 Z" fill-rule="nonzero" stroke="none" stroke-opacity="0"/>
                </g>
                <g id="GRID.polyline.162.1">
                  <polyline id="GRID.polyline.162.1.1" points="252,84 252,224 294,196 294,84 336,84 336,252 378,252 378,84 420,84 420,252 462,252 462,84 504,84 504,112 294,252 294,196 462,84 252,84" fill="none" fill-opacity="0"/>
                </g>
              </g>
            </g>
          </g>
        </g>
      </g>
    </g>
  </g>
</svg>