<?xml version="1.0" encoding="UTF-8"?>
<svg xmlns="http://www.w3.org/2000/svg" xmlns:xlink="http://www.w3.org/1999/xlink" width="504px" height="504px" viewBox="0 0 504 504" version="1.1">
  <metadata xmlns:gridsvg="http://www.stat.auckland.ac.nz/~paul/R/gridSVG/">
    <gridsvg:generator name="gridSVG" version="1.3-0" time="2013-09-05 23:57:51"/>
    <gridsvg:argument name="name" value="grImport2-gridSVG/New_Mexico.svg"/>
    <gridsvg:argument name="exportCoords" value="none"/>
    <gridsvg:argument name="exportMappings" value="none"/>
    <gridsvg:argument name="exportJS" value="none"/>
    <gridsvg:argument name="res" value="72"/>
    <gridsvg:argument name="prefix" value=""/>
    <gridsvg:argument name="addClasses" value="FALSE"/>
    <gridsvg:argument name="indent" value="TRUE"/>
    <gridsvg:argument name="htmlWrapper" value="FALSE"/>
    <gridsvg:argument name="usePaths" value="vpPaths"/>
    <gridsvg:argument name="uniqueNames" value="TRUE"/>
    <gridsvg:separator name="id.sep" value="."/>
    <gridsvg:separator name="gPath.sep" value="::"/>
    <gridsvg:separator name="vpPath.sep" value="::"/>
  </metadata>
  <g transform="translate(0, 504) scale(1, -1)">
    <g id="gridSVG" fill="none" stroke="rgb(0,0,0)" stroke-dasharray="none" stroke-width="0.75" font-size="12" font-family="Helvetica, Arial, FreeSans, Liberation Sans, Nimbus Sans L, sans-serif" opacity="1" stroke-linecap="round" stroke-linejoin="round" stroke-miterlimit="10" stroke-opacity="1" fill-opacity="0" font-weight="normal" font-style="normal">
      <g id="picture.shape::picture.scale.1">
        <defs>
          <clipPath id="picture.shape::picture.scale.2.clipPath">
            <rect x="0" y="84" width="504" height="336" fill="none" stroke="none"/>
          </clipPath>
        </defs>
        <g id="picture.shape::picture.scale.2" clip-path="url(#picture.shape::picture.scale.2.clipPath)">
          <g id="import.1.GRID.gTree.75.1">
            <g id="GRID.gTree.74.1">
              <g id="GRID.rect.79.1">
                <rect id="GRID.rect.79.1.1" x="0" y="84" width="504" height="336" fill="rgb(255,215,0)" stroke="none" stroke-opacity="0" fill-opacity="1"/>
              </g>
              <g id="GRID.picComplexPath.71.1" stroke="none" fill="rgb(191,10,48)" stroke-opacity="0" fill-opacity="1">
                <g id="GRID.pathgrob.80.1">
                  <path id="GRID.pathgrob.80.1.1" d="M 257.39 336.09 L 257.39 336.09 L 256.88 336.06 L 256.34 335.94 L 255.8 335.72 L 255.31 335.44 L 254.9 335.11 L 254.79 335.01 L 254.79 335.01 L 254.46 334.61 L 254.18 334.14 L 253.96 333.6 L 253.83 333.05 L 253.78 332.52 L 253.79 332.38 L 253.79 281.19 L 253.79 281.19 L 253.45 281.21 L 253.09 281.22 L 252.7 281.23 L 252.34 281.24 L 252 281.24 L 252 281.24 L 251.66 281.24 L 251.3 281.23 L 250.91 281.22 L 250.55 281.21 L 250.22 281.19 L 250.22 332.38 L 250.22 332.38 L 250.18 332.89 L 250.06 333.43 L 249.86 333.97 L 249.58 334.46 L 249.26 334.86 L 249.17 334.96 L 249.17 334.96 L 248.77 335.29 L 248.3 335.58 L 247.77 335.81 L 247.23 335.95 L 246.71 336 L 246.58 336 L 246.58 336 L 245.99 335.94 L 245.42 335.77 L 244.87 335.5 L 244.36 335.12 L 243.91 334.66 L 243.54 334.14 L 243.28 333.58 L 243.13 333.01 L 243.07 332.42 L 243.08 332.38 L 243.08 279.85 L 243.08 279.85 L 242.52 279.67 L 241.93 279.46 L 241.31 279.22 L 240.7 278.97 L 240.12 278.72 L 239.59 278.48 L 239.49 278.43 L 239.49 318.08 L 239.49 318.08 L 239.47 318.6 L 239.37 319.12 L 239.18 319.66 L 238.9 320.16 L 238.56 320.62 L 238.18 320.99 L 237.76 321.29 L 237.75 321.29 L 237.75 321.29 L 237.29 321.52 L 236.77 321.68 L 236.22 321.77 L 235.64 321.77 L 235.08 321.68 L 234.57 321.53 L 234.1 321.3 L 234.1 321.29 L 234.1 321.29 L 233.68 321 L 233.29 320.62 L 232.95 320.17 L 232.67 319.67 L 232.48 319.13 L 232.37 318.61 L 232.35 318.09 L 232.35 318.08 L 232.35 273.66 L 232.35 273.66 L 231.98 273.32 L 231.59 272.94 L 231.18 272.53 L 230.8 272.14 L 230.45 271.76 L 230.34 271.65 L 185.92 271.65 L 185.92 271.65 L 185.33 271.6 L 184.75 271.44 L 184.19 271.18 L 183.67 270.81 L 183.21 270.36 L 182.84 269.84 L 182.57 269.28 L 182.4 268.71 L 182.34 268.12 L 182.34 268.07 L 182.34 268.07 L 182.39 267.48 L 182.55 266.91 L 182.81 266.35 L 183.18 265.83 L 183.63 265.37 L 184.15 264.99 L 184.7 264.72 L 185.28 264.56 L 185.87 264.5 L 185.92 264.5 L 225.57 264.5 L 225.57 264.5 L 225.32 263.97 L 225.08 263.4 L 224.82 262.79 L 224.58 262.17 L 224.37 261.58 L 224.18 261.02 L 224.15 260.93 L 171.62 260.93 L 171.62 260.93 L 171.11 260.9 L 170.58 260.8 L 170.05 260.61 L 169.54 260.33 L 169.09 259.99 L 168.72 259.61 L 168.42 259.19 L 168.42 259.18 L 168.42 259.18 L 168.19 258.72 L 168.03 258.21 L 167.94 257.65 L 167.94 257.07 L 168.03 256.51 L 168.19 256 L 168.41 255.54 L 168.42 255.53 L 168.42 255.53 L 168.71 255.11 L 169.09 254.72 L 169.54 254.38 L 170.04 254.11 L 170.57 253.91 L 171.1 253.81 L 171.61 253.78 L 171.62 253.79 L 222.81 253.79 L 222.81 253.79 L 222.79 253.45 L 222.78 253.09 L 222.77 252.7 L 222.76 252.34 L 222.76 252 L 222.76 252 L 222.76 251.66 L 222.77 251.3 L 222.78 250.91 L 222.79 250.55 L 222.81 250.22 L 171.62 250.22 L 171.62 250.22 L 171.03 250.16 L 170.46 250.01 L 169.9 249.74 L 169.38 249.38 L 168.92 248.92 L 168.55 248.41 L 168.27 247.85 L 168.11 247.28 L 168.05 246.69 L 168.05 246.64 L 168.05 246.64 L 168.1 246.05 L 168.25 245.47 L 168.52 244.92 L 168.88 244.39 L 169.34 243.94 L 169.85 243.56 L 170.41 243.29 L 170.98 243.12 L 171.57 243.06 L 171.62 243.06 L 224.15 243.06 L 224.15 243.06 L 224.33 242.51 L 224.54 241.92 L 224.78 241.3 L 225.03 240.69 L 225.28 240.11 L 225.52 239.58 L 225.57 239.49 L 185.92 239.49 L 185.92 239.49 L 185.4 239.47 L 184.88 239.37 L 184.34 239.17 L 183.84 238.9 L 183.39 238.56 L 183.01 238.17 L 182.71 237.75 L 182.71 237.75 L 182.71 237.75 L 182.48 237.29 L 182.32 236.77 L 182.24 236.22 L 182.24 235.64 L 182.32 235.08 L 182.48 234.57 L 182.71 234.1 L 182.71 234.1 L 182.71 234.1 L 183.01 233.68 L 183.38 233.29 L 183.83 232.95 L 184.34 232.67 L 184.87 232.48 L 185.39 232.37 L 185.91 232.35 L 185.92 232.35 L 230.34 232.35 L 230.34 232.35 L 230.68 231.98 L 231.06 231.59 L 231.47 231.18 L 231.86 230.8 L 232.24 230.45 L 232.35 230.34 L 232.35 185.92 L 232.35 185.92 L 232.37 185.4 L 232.48 184.88 L 232.67 184.34 L 232.94 183.84 L 233.28 183.38 L 233.67 183.01 L 234.09 182.71 L 234.1 182.71 L 234.1 182.71 L 234.56 182.48 L 235.07 182.32 L 235.63 182.23 L 236.21 182.23 L 236.76 182.32 L 237.28 182.47 L 237.74 182.7 L 237.75 182.71 L 237.75 182.71 L 238.17 183 L 238.55 183.38 L 238.89 183.83 L 239.17 184.33 L 239.37 184.87 L 239.47 185.39 L 239.49 185.91 L 239.49 185.92 L 239.49 225.57 L 239.49 225.57 L 240.02 225.32 L 240.59 225.08 L 241.2 224.82 L 241.82 224.59 L 242.41 224.37 L 242.97 224.18 L 243.08 224.15 L 243.08 171.62 L 243.08 171.62 L 243.09 171.11 L 243.2 170.58 L 243.39 170.05 L 243.67 169.54 L 244.01 169.09 L 244.39 168.72 L 244.81 168.42 L 244.82 168.41 L 244.82 168.41 L 245.28 168.19 L 245.79 168.03 L 246.35 167.94 L 246.93 167.94 L 247.49 168.02 L 248 168.18 L 248.46 168.41 L 248.47 168.41 L 248.47 168.41 L 248.89 168.71 L 249.28 169.08 L 249.62 169.53 L 249.89 170.04 L 250.09 170.57 L 250.19 171.1 L 250.22 171.61 L 250.22 171.62 L 250.22 222.81 L 250.22 222.81 L 250.55 222.79 L 250.91 222.78 L 251.3 222.77 L 251.66 222.76 L 252 222.76 L 252 222.76 L 252.34 222.76 L 252.7 222.77 L 253.09 222.78 L 253.45 222.79 L 253.79 222.81 L 253.79 171.62 L 253.79 171.62 L 253.8 171.11 L 253.91 170.58 L 254.1 170.05 L 254.38 169.54 L 254.72 169.09 L 255.1 168.72 L 255.52 168.42 L 255.53 168.41 L 255.53 168.41 L 255.99 168.19 L 256.5 168.03 L 257.06 167.94 L 257.64 167.94 L 258.2 168.02 L 258.71 168.18 L 259.17 168.41 L 259.18 168.41 L 259.18 168.41 L 259.6 168.71 L 259.99 169.08 L 260.33 169.53 L 260.6 170.04 L 260.8 170.57 L 260.9 171.1 L 260.93 171.61 L 260.93 171.62 L 260.93 224.15 L 260.93 224.15 L 261.48 224.33 L 262.07 224.54 L 262.69 224.78 L 263.3 225.03 L 263.88 225.28 L 264.41 225.52 L 264.51 225.57 L 264.51 185.92 L 264.51 185.92 L 264.53 185.4 L 264.63 184.88 L 264.82 184.34 L 265.1 183.84 L 265.44 183.38 L 265.82 183.01 L 266.24 182.71 L 266.25 182.71 L 266.25 182.71 L 266.71 182.48 L 267.23 182.32 L 267.78 182.23 L 268.36 182.23 L 268.92 182.32 L 269.43 182.47 L 269.9 182.7 L 269.9 182.71 L 269.9 182.71 L 270.32 183 L 270.71 183.38 L 271.05 183.83 L 271.33 184.33 L 271.52 184.87 L 271.63 185.39 L 271.65 185.91 L 271.65 185.92 L 271.65 230.34 L 271.65 230.34 L 272.02 230.68 L 272.41 231.06 L 272.82 231.47 L 273.2 231.86 L 273.55 232.24 L 273.66 232.35 L 318.08 232.35 L 318.08 232.35 L 318.6 232.37 L 319.12 232.48 L 319.66 232.67 L 320.16 232.94 L 320.61 233.29 L 320.99 233.67 L 321.29 234.09 L 321.29 234.1 L 321.29 234.1 L 321.52 234.56 L 321.68 235.07 L 321.76 235.63 L 321.76 236.21 L 321.68 236.76 L 321.52 237.28 L 321.29 237.74 L 321.29 237.75 L 321.29 237.75 L 320.99 238.17 L 320.62 238.55 L 320.17 238.89 L 319.66 239.17 L 319.13 239.36 L 318.61 239.47 L 318.09 239.49 L 318.08 239.49 L 278.43 239.49 L 278.43 239.49 L 278.68 240.02 L 278.92 240.59 L 279.18 241.2 L 279.42 241.81 L 279.63 242.41 L 279.82 242.97 L 279.85 243.06 L 332.38 243.06 L 332.38 243.06 L 332.97 243.11 L 333.54 243.27 L 334.1 243.53 L 334.62 243.9 L 335.08 244.35 L 335.45 244.87 L 335.73 245.43 L 335.89 246 L 335.95 246.59 L 335.95 246.64 L 335.95 246.64 L 335.9 247.23 L 335.75 247.8 L 335.48 248.36 L 335.12 248.88 L 334.66 249.34 L 334.15 249.72 L 333.59 249.99 L 333.02 250.15 L 332.43 250.21 L 332.38 250.22 L 281.19 250.22 L 281.19 250.22 L 281.21 250.55 L 281.22 250.91 L 281.23 251.3 L 281.24 251.66 L 281.24 252 L 281.24 252 L 281.24 252.34 L 281.23 252.7 L 281.22 253.09 L 281.21 253.45 L 281.19 253.79 L 332.38 253.79 L 332.38 253.79 L 332.89 253.81 L 333.42 253.91 L 333.95 254.1 L 334.46 254.38 L 334.91 254.72 L 335.28 255.1 L 335.58 255.52 L 335.58 255.53 L 335.58 255.53 L 335.81 255.99 L 335.97 256.5 L 336.06 257.06 L 336.06 257.64 L 335.97 258.2 L 335.81 258.71 L 335.59 259.17 L 335.58 259.18 L 335.58 259.18 L 335.29 259.6 L 334.91 259.99 L 334.46 260.33 L 333.96 260.6 L 333.43 260.8 L 332.9 260.9 L 332.39 260.93 L 332.38 260.93 L 279.85 260.93 L 279.85 260.93 L 279.67 261.48 L 279.46 262.07 L 279.22 262.68 L 278.97 263.3 L 278.72 263.88 L 278.48 264.41 L 278.43 264.5 L 318.08 264.5 L 318.08 264.5 L 318.67 264.55 L 319.25 264.7 L 319.81 264.97 L 320.33 265.33 L 320.79 265.79 L 321.16 266.3 L 321.43 266.86 L 321.6 267.43 L 321.66 268.02 L 321.66 268.07 L 321.66 268.07 L 321.61 268.66 L 321.45 269.24 L 321.19 269.79 L 320.82 270.32 L 320.37 270.77 L 319.85 271.15 L 319.3 271.42 L 318.72 271.59 L 318.13 271.65 L 318.08 271.65 L 273.66 271.65 L 273.66 271.65 L 273.32 272.02 L 272.94 272.41 L 272.53 272.82 L 272.14 273.2 L 271.76 273.55 L 271.65 273.66 L 271.65 318.08 L 271.65 318.08 L 271.63 318.6 L 271.52 319.12 L 271.33 319.66 L 271.06 320.16 L 270.72 320.62 L 270.33 320.99 L 269.91 321.29 L 269.9 321.29 L 269.9 321.29 L 269.44 321.52 L 268.93 321.68 L 268.37 321.77 L 267.79 321.77 L 267.24 321.68 L 266.72 321.53 L 266.26 321.3 L 266.25 321.29 L 266.25 321.29 L 265.83 321 L 265.45 320.62 L 265.11 320.17 L 264.83 319.67 L 264.63 319.13 L 264.53 318.61 L 264.51 318.09 L 264.51 318.08 L 264.51 278.43 L 264.51 278.43 L 263.98 278.68 L 263.41 278.92 L 262.8 279.18 L 262.18 279.41 L 261.59 279.63 L 261.03 279.82 L 260.93 279.85 L 260.93 332.38 L 260.92 332.38 L 260.91 332.89 L 260.8 333.43 L 260.61 333.97 L 260.34 334.47 L 260.03 334.89 L 259.94 334.98 L 259.94 334.98 L 259.56 335.32 L 259.1 335.63 L 258.58 335.87 L 258.04 336.02 L 257.52 336.09 L 257.39 336.09 Z M 252 276.78 L 252 276.78 L 253.81 276.71 L 255.6 276.5 L 257.37 276.15 L 259.12 275.66 L 260.86 275.02 L 262.57 274.25 L 264.24 273.33 L 265.86 272.27 L 267.41 271.08 L 268.88 269.78 L 270.26 268.37 L 271.52 266.87 L 272.66 265.29 L 273.67 263.65 L 274.54 261.97 L 275.27 260.25 L 275.85 258.5 L 276.29 256.74 L 276.59 254.97 L 276.75 253.17 L 276.78 252 L 276.78 252 L 276.71 250.19 L 276.5 248.4 L 276.15 246.63 L 275.66 244.88 L 275.02 243.14 L 274.25 241.43 L 273.33 239.76 L 272.27 238.14 L 271.08 236.59 L 269.78 235.12 L 268.37 233.74 L 266.87 232.48 L 265.29 231.34 L 263.65 230.33 L 261.97 229.46 L 260.25 228.73 L 258.5 228.15 L 256.74 227.71 L 254.97 227.41 L 253.17 227.25 L 252 227.22 L 252 227.22 L 250.19 227.29 L 248.4 227.5 L 246.63 227.85 L 244.88 228.34 L 243.14 228.98 L 241.43 229.75 L 239.76 230.67 L 238.14 231.73 L 236.59 232.92 L 235.12 234.22 L 233.74 235.63 L 232.48 237.13 L 231.34 238.71 L 230.33 240.35 L 229.46 242.03 L 228.73 243.75 L 228.15 245.5 L 227.71 247.26 L 227.41 249.03 L 227.25 250.83 L 227.22 252 L 227.22 252 L 227.29 253.81 L 227.5 255.6 L 227.85 257.37 L 228.34 259.12 L 228.98 260.86 L 229.75 262.57 L 230.67 264.24 L 231.73 265.86 L 232.92 267.41 L 234.22 268.88 L 235.63 270.26 L 237.13 271.52 L 238.71 272.66 L 240.35 273.67 L 242.03 274.54 L 243.75 275.27 L 245.5 275.85 L 247.26 276.29 L 249.03 276.59 L 250.83 276.75 L 252 276.78 Z" fill-rule="nonzero" stroke="none" stroke-opacity="0"/>
                </g>
                <g id="GRID.polyline.81.1">
                  <polyline id="GRID.polyline.81.1.1" points="257.39,336.09 257.39,336.09 256.88,336.06 256.34,335.94 255.8,335.72 255.31,335.44 254.9,335.11 254.79,335.01 254.79,335.01 254.46,334.61 254.18,334.14 253.96,333.6 253.83,333.05 253.78,332.52 253.79,332.38 253.79,281.19 253.79,281.19 253.45,281.21 253.09,281.22 252.7,281.23 252.34,281.24 252,281.24 252,281.24 251.66,281.24 251.3,281.23 250.91,281.22 250.55,281.21 250.22,281.19 250.22,332.38 250.22,332.38 250.18,332.89 250.06,333.43 249.86,333.97 249.58,334.46 249.26,334.86 249.17,334.96 249.17,334.96 248.77,335.29 248.3,335.58 247.77,335.81 247.23,335.95 246.71,336 246.58,336 246.58,336 245.99,335.94 245.42,335.77 244.87,335.5 244.36,335.12 243.91,334.66 243.54,334.14 243.28,333.58 243.13,333.01 243.07,332.42 243.08,332.38 243.08,279.85 243.08,279.85 242.52,279.67 241.93,279.46 241.31,279.22 240.7,278.97 240.12,278.72 239.59,278.48 239.49,278.43 239.49,318.08 239.49,318.08 239.47,318.6 239.37,319.12 239.18,319.66 238.9,320.16 238.56,320.62 238.18,320.99 237.76,321.29 237.75,321.29 237.75,321.29 237.29,321.52 236.77,321.68 236.22,321.77 235.64,321.77 235.08,321.68 234.57,321.53 234.1,321.3 234.1,321.29 234.1,321.29 233.68,321 233.29,320.62 232.95,320.17 232.67,319.67 232.48,319.13 232.37,318.61 232.35,318.09 232.35,318.08 232.35,273.66 232.35,273.66 231.98,273.32 231.59,272.94 231.18,272.53 230.8,272.14 230.45,271.76 230.34,271.65 185.92,271.65 185.92,271.65 185.33,271.6 184.75,271.44 184.19,271.18 183.67,270.81 183.21,270.36 182.84,269.84 182.57,269.28 182.4,268.71 182.34,268.12 182.34,268.07 182.34,268.07 182.39,267.48 182.55,266.91 182.81,266.35 183.18,265.83 183.63,265.37 184.15,264.99 184.7,264.72 185.28,264.56 185.87,264.5 185.92,264.5 225.57,264.5 225.57,264.5 225.32,263.97 225.08,263.4 224.82,262.79 224.58,262.17 224.37,261.58 224.18,261.02 224.15,260.93 171.62,260.93 171.62,260.93 171.11,260.9 170.58,260.8 170.05,260.61 169.54,260.33 169.09,259.99 168.72,259.61 168.42,259.19 168.42,259.18 168.42,259.18 168.19,258.72 168.03,258.21 167.94,257.65 167.94,257.07 168.03,256.51 168.19,256 168.41,255.54 168.42,255.53 168.42,255.53 168.71,255.11 169.09,254.72 169.54,254.38 170.04,254.11 170.57,253.91 171.1,253.81 171.61,253.78 171.62,253.79 222.81,253.79 222.81,253.79 222.79,253.45 222.78,253.09 222.77,252.7 222.76,252.34 222.76,252 222.76,252 222.76,251.66 222.77,251.3 222.78,250.91 222.79,250.55 222.81,250.22 171.62,250.22 171.62,250.22 171.03,250.16 170.46,250.01 169.9,249.74 169.38,249.38 168.92,248.92 168.55,248.41 168.27,247.85 168.11,247.28 168.05,246.69 168.05,246.64 168.05,246.64 168.1,246.05 168.25,245.47 168.52,244.92 168.88,244.39 169.34,243.94 169.85,243.56 170.41,243.29 170.98,243.12 171.57,243.06 171.62,243.06 224.15,243.06 224.15,243.06 224.33,242.51 224.54,241.92 224.78,241.3 225.03,240.69 225.28,240.11 225.52,239.58 225.57,239.49 185.92,239.49 185.92,239.49 185.4,239.47 184.88,239.37 184.34,239.17 183.84,238.9 183.39,238.56 183.01,238.17 182.71,237.75 182.71,237.75 182.71,237.75 182.48,237.29 182.32,236.77 182.24,236.22 182.24,235.64 182.32,235.08 182.48,234.57 182.71,234.1 182.71,234.1 182.71,234.1 183.01,233.68 183.38,233.29 183.83,232.95 184.34,232.67 184.87,232.48 185.39,232.37 185.91,232.35 185.92,232.35 230.34,232.35 230.34,232.35 230.68,231.98 231.06,231.59 231.47,231.18 231.86,230.8 232.24,230.45 232.35,230.34 232.35,185.92 232.35,185.92 232.37,185.4 232.48,184.88 232.67,184.34 232.94,183.84 233.28,183.38 233.67,183.01 234.09,182.71 234.1,182.71 234.1,182.71 234.56,182.48 235.07,182.32 235.63,182.23 236.21,182.23 236.76,182.32 237.28,182.47 237.74,182.7 237.75,182.71 237.75,182.71 238.17,183 238.55,183.38 238.89,183.83 239.17,184.33 239.37,184.87 239.47,185.39 239.49,185.91 239.49,185.92 239.49,225.57 239.49,225.57 240.02,225.32 240.59,225.08 241.2,224.82 241.82,224.59 242.41,224.37 242.97,224.18 243.08,224.15 243.08,171.62 243.08,171.62 243.09,171.11 243.2,170.58 243.39,170.05 243.67,169.54 244.01,169.09 244.39,168.72 244.81,168.42 244.82,168.41 244.82,168.41 245.28,168.19 245.79,168.03 246.35,167.94 246.93,167.94 247.49,168.02 248,168.18 248.46,168.41 248.47,168.41 248.47,168.41 248.89,168.71 249.28,169.08 249.62,169.53 249.89,170.04 250.09,170.57 250.19,171.1 250.22,171.61 250.22,171.62 250.22,222.81 250.22,222.81 250.55,222.79 250.91,222.78 251.3,222.77 251.66,222.76 252,222.76 252,222.76 252.34,222.76 252.7,222.77 253.09,222.78 253.45,222.79 253.79,222.81 253.79,171.62 253.79,171.62 253.8,171.11 253.91,170.58 254.1,170.05 254.38,169.54 254.72,169.09 255.1,168.72 255.52,168.42 255.53,168.41 255.53,168.41 255.99,168.19 256.5,168.03 257.06,167.94 257.64,167.94 258.2,168.02 258.71,168.18 259.17,168.41 259.18,168.41 259.18,168.41 259.6,168.71 259.99,169.08 260.33,169.53 260.6,170.04 260.8,170.57 260.9,171.1 260.93,171.61 260.93,171.62 260.93,224.15 260.93,224.15 261.48,224.33 262.07,224.54 262.69,224.78 263.3,225.03 263.88,225.28 264.41,225.52 264.51,225.57 264.51,185.92 264.51,185.92 264.53,185.4 264.63,184.88 264.82,184.34 265.1,183.84 265.44,183.38 265.82,183.01 266.24,182.71 266.25,182.71 266.25,182.71 266.71,182.48 267.23,182.32 267.78,182.23 268.36,182.23 268.92,182.32 269.43,182.47 269.9,182.7 269.9,182.71 269.9,182.71 270.32,183 270.71,183.38 271.05,183.83 271.33,184.33 271.52,184.87 271.63,185.39 271.65,185.91 271.65,185.92 271.65,230.34 271.65,230.34 272.02,230.68 272.41,231.06 272.82,231.47 273.2,231.86 273.55,232.24 273.66,232.35 318.08,232.35 318.08,232.35 318.6,232.37 319.12,232.48 319.66,232.67 320.16,232.94 320.61,233.29 320.99,233.67 321.29,234.09 321.29,234.1 321.29,234.1 321.52,234.56 321.68,235.07 321.76,235.63 321.76,236.21 321.68,236.76 321.52,237.28 321.29,237.74 321.29,237.75 321.29,237.75 320.99,238.17 320.62,238.55 320.17,238.89 319.66,239.17 319.13,239.36 318.61,239.47 318.09,239.49 318.08,239.49 278.43,239.49 278.43,239.49 278.68,240.02 278.92,240.59 279.18,241.2 279.42,241.81 279.63,242.41 279.82,242.97 279.85,243.06 332.38,243.06 332.38,243.06 332.97,243.11 333.54,243.27 334.1,243.53 334.62,243.9 335.08,244.35 335.45,244.87 335.73,245.43 335.89,246 335.95,246.59 335.95,246.64 335.95,246.64 335.9,247.23 335.75,247.8 335.48,248.36 335.12,248.88 334.66,249.34 334.15,249.72 333.59,249.99 333.02,250.15 332.43,250.21 332.38,250.22 281.19,250.22 281.19,250.22 281.21,250.55 281.22,250.91 281.23,251.3 281.24,251.66 281.24,252 281.24,252 281.24,252.34 281.23,252.7 281.22,253.09 281.21,253.45 281.19,253.79 332.38,253.79 332.38,253.79 332.89,253.81 333.42,253.91 333.95,254.1 334.46,254.38 334.91,254.72 335.28,255.1 335.58,255.52 335.58,255.53 335.58,255.53 335.81,255.99 335.97,256.5 336.06,257.06 336.06,257.64 335.97,258.2 335.81,258.71 335.59,259.17 335.58,259.18 335.58,259.18 335.29,259.6 334.91,259.99 334.46,260.33 333.96,260.6 333.43,260.8 332.9,260.9 332.39,260.93 332.38,260.93 279.85,260.93 279.85,260.93 279.67,261.48 279.46,262.07 279.22,262.68 278.97,263.3 278.72,263.88 278.48,264.41 278.43,264.5 318.08,264.5 318.08,264.5 318.67,264.55 319.25,264.7 319.81,264.97 320.33,265.33 320.79,265.79 321.16,266.3 321.43,266.86 321.6,267.43 321.66,268.02 321.66,268.07 321.66,268.07 321.61,268.66 321.45,269.24 321.19,269.79 320.82,270.32 320.37,270.77 319.85,271.15 319.3,271.42 318.72,271.59 318.13,271.65 318.08,271.65 273.66,271.65 273.66,271.65 273.32,272.02 272.94,272.41 272.53,272.82 272.14,273.2 271.76,273.55 271.65,273.66 271.65,318.08 271.65,318.08 271.63,318.6 271.52,319.12 271.33,319.66 271.06,320.16 270.72,320.62 270.33,320.99 269.91,321.29 269.9,321.29 269.9,321.29 269.44,321.52 268.93,321.68 268.37,321.77 267.79,321.77 267.24,321.68 266.72,321.53 266.26,321.3 266.25,321.29 266.25,321.29 265.83,321 265.45,320.62 265.11,320.17 264.83,319.67 264.63,319.13 264.53,318.61 264.51,318.09 264.51,318.08 264.51,278.43 264.51,278.43 263.98,278.68 263.41,278.92 262.8,279.18 262.18,279.41 261.59,279.63 261.03,279.82 260.93,279.85 260.93,332.38 260.92,332.38 260.91,332.89 260.8,333.43 260.61,333.97 260.34,334.47 260.03,334.89 259.94,334.98 259.94,334.98 259.56,335.32 259.1,335.63 258.58,335.87 258.04,336.02 257.52,336.09 257.39,336.09 257.39,336.09" fill="none" fill-opacity="0"/>
                  <polyline id="GRID.polyline.81.1.2" points="252,276.78 252,276.78 253.81,276.71 255.6,276.5 257.37,276.15 259.12,275.66 260.86,275.02 262.57,274.25 264.24,273.33 265.86,272.27 267.41,271.08 268.88,269.78 270.26,268.37 271.52,266.87 272.66,265.29 273.67,263.65 274.54,261.97 275.27,260.25 275.85,258.5 276.29,256.74 276.59,254.97 276.75,253.17 276.78,252 276.78,252 276.71,250.19 276.5,248.4 276.15,246.63 275.66,244.88 275.02,243.14 274.25,241.43 273.33,239.76 272.27,238.14 271.08,236.59 269.78,235.12 268.37,233.74 266.87,232.48 265.29,231.34 263.65,230.33 261.97,229.46 260.25,228.73 258.5,228.15 256.74,227.71 254.97,227.41 253.17,227.25 252,227.22 252,227.22 250.19,227.29 248.4,227.5 246.63,227.85 244.88,228.34 243.14,228.98 241.43,229.75 239.76,230.67 238.14,231.73 236.59,232.92 235.12,234.22 233.74,235.63 232.48,237.13 231.34,238.71 230.33,240.35 229.46,242.03 228.73,243.75 228.15,245.5 227.71,247.26 227.41,249.03 227.25,250.83 227.22,252 227.22,252 227.29,253.81 227.5,255.6 227.85,257.37 228.34,259.12 228.98,260.86 229.75,262.57 230.67,264.24 231.73,265.86 232.92,267.41 234.22,268.88 235.63,270.26 237.13,271.52 238.71,272.66 240.35,273.67 242.03,274.54 243.75,275.27 245.5,275.85 247.26,276.29 249.03,276.59 250.83,276.75 252,276.78 252,276.78" fill="none" fill-opacity="0"/>
                </g>
              </g>
            </g>
          </g>
        </g>
      </g>
    </g>
  </g>
</svg>