<?xml version="1.0" encoding="UTF-8"?>
<svg xmlns="http://www.w3.org/2000/svg" xmlns:xlink="http://www.w3.org/1999/xlink" width="504px" height="504px" viewBox="0 0 504 504" version="1.1">
  <metadata xmlns:gridsvg="http://www.stat.auckland.ac.nz/~paul/R/gridSVG/">
    <gridsvg:generator name="gridSVG" version="1.3-0" time="2013-09-05 23:58:32"/>
    <gridsvg:argument name="name" value="grImport2-gridSVG/North_Carolina.svg"/>
    <gridsvg:argument name="exportCoords" value="none"/>
    <gridsvg:argument name="exportMappings" value="none"/>
    <gridsvg:argument name="exportJS" value="none"/>
    <gridsvg:argument name="res" value="72"/>
    <gridsvg:argument name="prefix" value=""/>
    <gridsvg:argument name="addClasses" value="FALSE"/>
    <gridsvg:argument name="indent" value="TRUE"/>
    <gridsvg:argument name="htmlWrapper" value="FALSE"/>
    <gridsvg:argument name="usePaths" value="vpPaths"/>
    <gridsvg:argument name="uniqueNames" value="TRUE"/>
    <gridsvg:separator name="id.sep" value="."/>
    <gridsvg:separator name="gPath.sep" value="::"/>
    <gridsvg:separator name="vpPath.sep" value="::"/>
  </metadata>
  <g transform="translate(0, 504) scale(1, -1)">
    <g id="gridSVG" fill="none" stroke="rgb(0,0,0)" stroke-dasharray="none" stroke-width="0.75" font-size="12" font-family="Helvetica, Arial, FreeSans, Liberation Sans, Nimbus Sans L, sans-serif" opacity="1" stroke-linecap="round" stroke-linejoin="round" stroke-miterlimit="10" stroke-opacity="1" fill-opacity="0" font-weight="normal" font-style="normal">
      <g id="picture.shape::picture.scale.1">
        <defs>
          <clipPath id="picture.shape::picture.scale.2.clipPath">
            <rect x="0" y="84" width="504" height="336" fill="none" stroke="none"/>
          </clipPath>
        </defs>
        <g id="picture.shape::picture.scale.2" clip-path="url(#picture.shape::picture.scale.2.clipPath)">
          <g id="import.1.GRID.gTree.270.1">
            <g id="GRID.gTree.269.1">
              <g id="GRID.picComplexPath.113.1" stroke="none" fill="rgb(191,10,48)" stroke-opacity="0" fill-opacity="1">
                <g id="GRID.pathgrob.375.1">
                  <path id="GRID.pathgrob.375.1.1" d="M 168.02 419.97 L 504 419.97 L 504 251.93 L 168.02 251.93 Z" fill-rule="evenodd" stroke="none" stroke-opacity="0"/>
                </g>
                <g id="GRID.polyline.376.1">
                  <polyline id="GRID.polyline.376.1.1" points="168.02,419.97 504,419.97 504,251.93 168.02,251.93 168.02,419.97" fill="none" fill-opacity="0"/>
                </g>
              </g>
              <g id="GRID.picComplexPath.116.1" stroke="none" fill="rgb(0,40,104)" stroke-opacity="0" fill-opacity="1">
                <g id="GRID.pathgrob.377.1">
                  <path id="GRID.pathgrob.377.1.1" d="M 0 420 L 168.02 420 L 168.02 84 L 0 84 Z" fill-rule="evenodd" stroke="none" stroke-opacity="0"/>
                </g>
                <g id="GRID.polyline.378.1">
                  <polyline id="GRID.polyline.378.1.1" points="0,420 168.02,420 168.02,84 0,84 0,420" fill="none" fill-opacity="0"/>
                </g>
              </g>
              <g id="GRID.picComplexPath.119.1" stroke="none" fill="rgb(255,255,255)" stroke-opacity="0" fill-opacity="1">
                <g id="GRID.pathgrob.379.1">
                  <path id="GRID.pathgrob.379.1.1" d="M 168.05 251.89 L 503.96 251.89 L 503.96 84 L 168.05 84 Z" fill-rule="evenodd" stroke="none" stroke-opacity="0"/>
                </g>
                <g id="GRID.polyline.380.1">
                  <polyline id="GRID.polyline.380.1.1" points="168.05,251.89 503.96,251.89 503.96,84 168.05,84 168.05,251.89" fill="none" fill-opacity="0"/>
                </g>
              </g>
              <g id="GRID.picComplexPath.122.1" fill="rgb(255,202,0)" stroke-width="0.67" stroke-linecap="butt" stroke-linejoin="miter" stroke="rgb(0,40,104)" stroke-miterlimit="4" stroke-opacity="1" fill-opacity="1">
                <g id="GRID.pathgrob.381.1">
                  <path id="GRID.pathgrob.381.1.1" d="M 25.13 341.17 L 25.13 341.17 L 22.82 339.85 L 20.75 338.62 L 18.88 337.44 L 17.17 336.31 L 15.6 335.2 L 14.15 334.13 L 12.81 333.09 L 11.55 332.08 L 10.34 331.09 L 9.15 330.11 L 7.93 329.12 L 6.96 328.36 L 19.73 328.09 L 19.73 328.09 L 19.63 327.45 L 19.41 326.21 L 19.09 324.46 L 18.69 322.33 L 18.25 319.96 L 17.8 317.57 L 17.38 315.34 L 17.01 313.45 L 16.73 312.04 L 16.56 311.2 L 16.53 311.06 L 16.53 311.06 L 18.4 312.3 L 20.19 313.47 L 21.95 314.59 L 23.7 315.67 L 25.49 316.71 L 27.32 317.72 L 29.2 318.68 L 31.14 319.6 L 33.15 320.47 L 35.22 321.29 L 37.38 322.07 L 39.65 322.82 L 42.05 323.56 L 43.81 324.07 L 43.81 324.07 L 44.88 324.51 L 45.55 325.1 L 45.87 325.84 L 45.88 326.69 L 45.64 327.61 L 45.21 328.57 L 44.67 329.5 L 44.1 330.36 L 43.57 331.11 L 43.14 331.72 L 42.88 332.17 L 42.86 332.21 L 42.86 332.21 L 41.68 331.65 L 40.5 331.03 L 39.32 330.35 L 38.14 329.6 L 37 328.82 L 35.94 328.03 L 34.96 327.25 L 34.05 326.47 L 33.93 326.36 Z" fill-rule="evenodd" stroke="none" stroke-opacity="0"/>
                </g>
                <g id="GRID.polyline.382.1">
                  <polyline id="GRID.polyline.382.1.1" points="25.13,341.17 25.13,341.17 22.82,339.85 20.75,338.62 18.88,337.44 17.17,336.31 15.6,335.2 14.15,334.13 12.81,333.09 11.55,332.08 10.34,331.09 9.15,330.11 7.93,329.12 6.96,328.36 19.73,328.09 19.73,328.09 19.63,327.45 19.41,326.21 19.09,324.46 18.69,322.33 18.25,319.96 17.8,317.57 17.38,315.34 17.01,313.45 16.73,312.04 16.56,311.2 16.53,311.06 16.53,311.06 18.4,312.3 20.19,313.47 21.95,314.59 23.7,315.67 25.49,316.71 27.32,317.72 29.2,318.68 31.14,319.6 33.15,320.47 35.22,321.29 37.38,322.07 39.65,322.82 42.05,323.56 43.81,324.07 43.81,324.07 44.88,324.51 45.55,325.1 45.87,325.84 45.88,326.69 45.64,327.61 45.21,328.57 44.67,329.5 44.1,330.36 43.57,331.11 43.14,331.72 42.88,332.17 42.86,332.21 42.86,332.21 41.68,331.65 40.5,331.03 39.32,330.35 38.14,329.6 37,328.82 35.94,328.03 34.96,327.25 34.05,326.47 33.93,326.36" fill="none" fill-opacity="0"/>
                </g>
              </g>
              <g id="GRID.picComplexPath.125.1" fill="rgb(255,202,0)" stroke-width="0.67" stroke-linecap="butt" stroke-linejoin="miter" stroke="rgb(0,40,104)" stroke-miterlimit="4" stroke-opacity="1" fill-opacity="1">
                <g id="GRID.pathgrob.383.1">
                  <path id="GRID.pathgrob.383.1.1" d="M 34.1 326.48 L 34.1 326.48 L 36.33 328.29 L 38.91 329.97 L 41.82 331.52 L 45.07 332.93 L 48.62 334.22 L 52.48 335.37 L 56.61 336.38 L 60.99 337.24 L 65.59 337.96 L 70.37 338.51 L 75.29 338.91 L 80.3 339.15 L 85.36 339.22 L 90.42 339.12 L 95.42 338.86 L 100.33 338.44 L 105.09 337.86 L 109.67 337.12 L 114.02 336.24 L 118.12 335.21 L 121.94 334.05 L 125.45 332.75 L 128.64 331.33 L 131.49 329.78 L 133.99 328.11 L 136.14 326.3 L 136.52 325.93 L 136.52 325.93 L 136.86 326.33 L 137.56 327.38 L 138.59 328.99 L 139.86 331.07 L 141.32 333.47 L 142.85 336.04 L 144.35 338.58 L 145.71 340.94 L 146.84 342.93 L 147.67 344.44 L 148.14 345.37 L 148.2 345.62 L 148.2 345.62 L 144.74 347.89 L 141.09 349.99 L 137.25 351.92 L 133.22 353.68 L 128.99 355.28 L 124.59 356.72 L 120.01 358 L 115.26 359.11 L 110.38 360.05 L 105.36 360.82 L 100.25 361.42 L 95.07 361.85 L 89.84 362.1 L 84.6 362.18 L 79.38 362.09 L 74.21 361.84 L 69.12 361.43 L 64.15 360.86 L 59.31 360.14 L 54.63 359.28 L 50.15 358.29 L 45.86 357.17 L 41.8 355.94 L 37.96 354.6 L 34.36 353.16 L 31.01 351.61 L 27.89 349.98 L 25.02 348.25 L 22.64 346.61 L 22.96 345.43 Z" fill-rule="evenodd" stroke="none" stroke-opacity="0"/>
                </g>
                <g id="GRID.polyline.384.1">
                  <polyline id="GRID.polyline.384.1.1" points="34.1,326.48 34.1,326.48 36.33,328.29 38.91,329.97 41.82,331.52 45.07,332.93 48.62,334.22 52.48,335.37 56.61,336.38 60.99,337.24 65.59,337.96 70.37,338.51 75.29,338.91 80.3,339.15 85.36,339.22 90.42,339.12 95.42,338.86 100.33,338.44 105.09,337.86 109.67,337.12 114.02,336.24 118.12,335.21 121.94,334.05 125.45,332.75 128.64,331.33 131.49,329.78 133.99,328.11 136.14,326.3 136.52,325.93 136.52,325.93 136.86,326.33 137.56,327.38 138.59,328.99 139.86,331.07 141.32,333.47 142.85,336.04 144.35,338.58 145.71,340.94 146.84,342.93 147.67,344.44 148.14,345.37 148.2,345.62 148.2,345.62 144.74,347.89 141.09,349.99 137.25,351.92 133.22,353.68 128.99,355.28 124.59,356.72 120.01,358 115.26,359.11 110.38,360.05 105.36,360.82 100.25,361.42 95.07,361.85 89.84,362.1 84.6,362.18 79.38,362.09 74.21,361.84 69.12,361.43 64.15,360.86 59.31,360.14 54.63,359.28 50.15,358.29 45.86,357.17 41.8,355.94 37.96,354.6 34.36,353.16 31.01,351.61 27.89,349.98 25.02,348.25 22.64,346.61 22.96,345.43 34.1,326.48" fill="none" fill-opacity="0"/>
                </g>
              </g>
              <g id="GRID.picComplexPath.128.1" fill="none" stroke-width="2.1" stroke-linecap="round" stroke-linejoin="round" stroke="rgb(0,40,104)" stroke-miterlimit="4" stroke-opacity="1" fill-opacity="0">
                <g id="GRID.pathgrob.385.1">
                  <path id="GRID.pathgrob.385.1.1" d="M 37.47 334.26 L 37.47 334.26 L 37.25 334.69 L 36.71 335.73 L 35.9 337.25 L 34.92 339.07 L 33.91 340.96 L 32.99 342.68 L 32.28 344.01 L 31.86 344.79 L 31.78 344.94 L 40.93 336.87 L 38.8 348.67 L 44.8 338.57 Z" fill-rule="nonzero" stroke="none" stroke-opacity="0"/>
                </g>
                <g id="GRID.polyline.386.1">
                  <polyline id="GRID.polyline.386.1.1" points="37.47,334.26 37.47,334.26 37.25,334.69 36.71,335.73 35.9,337.25 34.92,339.07 33.91,340.96 32.99,342.68 32.28,344.01 31.86,344.79 31.78,344.94 40.93,336.87 38.8,348.67 44.8,338.57" fill="none" fill-opacity="0"/>
                </g>
              </g>
              <g id="GRID.picComplexPath.131.1" fill="none" stroke-width="2.1" stroke-linecap="round" stroke-linejoin="round" stroke="rgb(0,40,104)" stroke-miterlimit="4" stroke-opacity="1" fill-opacity="0">
                <g id="GRID.pathgrob.387.1">
                  <path id="GRID.pathgrob.387.1.1" d="M 70.69 352.27 L 70.69 352.27 L 70.77 353.09 L 70.99 353.78 L 71.34 354.34 L 71.79 354.78 L 72.34 355.08 L 72.93 355.26 L 73.54 355.33 L 74.14 355.31 L 74.69 355.21 L 75.04 355.12 L 75.04 355.12 L 75.4 354.74 L 75.7 354.2 L 75.93 353.52 L 76.05 352.74 L 76.03 351.95 L 75.88 351.21 L 75.57 350.57 L 75.38 350.31 L 72.9 348.19 L 72.9 348.19 L 72.41 347.57 L 71.92 346.86 L 71.49 346.08 L 71.22 345.29 L 71.15 344.55 L 71.15 344.54 L 76.76 344.76 Z" fill-rule="nonzero" stroke="none" stroke-opacity="0"/>
                </g>
                <g id="GRID.polyline.388.1">
                  <polyline id="GRID.polyline.388.1.1" points="70.69,352.27 70.69,352.27 70.77,353.09 70.99,353.78 71.34,354.34 71.79,354.78 72.34,355.08 72.93,355.26 73.54,355.33 74.14,355.31 74.69,355.21 75.04,355.12 75.04,355.12 75.4,354.74 75.7,354.2 75.93,353.52 76.05,352.74 76.03,351.95 75.88,351.21 75.57,350.57 75.38,350.31 72.9,348.19 72.9,348.19 72.41,347.57 71.92,346.86 71.49,346.08 71.22,345.29 71.15,344.55 71.15,344.54 76.76,344.76" fill="none" fill-opacity="0"/>
                </g>
              </g>
              <g id="GRID.picComplexPath.134.1" fill="none" stroke-width="2.1" stroke-linecap="round" stroke-linejoin="round" stroke="rgb(0,40,104)" stroke-miterlimit="4" stroke-opacity="1" fill-opacity="0">
                <g id="GRID.pathgrob.389.1">
                  <path id="GRID.pathgrob.389.1.1" d="M 80.87 355.67 L 80.87 355.67 L 80.38 355.37 L 79.99 354.98 L 79.67 354.49 L 79.45 353.95 L 79.29 353.37 L 79.26 353.2 L 79.26 353.2 L 79.21 352.45 L 79.18 351.45 L 79.2 350.28 L 79.25 349.12 L 79.34 348.11 L 79.45 347.37 L 79.45 347.35 L 79.45 347.35 L 79.59 346.84 L 79.77 346.34 L 80.01 345.87 L 80.31 345.45 L 80.68 345.09 L 80.68 345.09 L 81.17 344.87 L 81.7 344.77 L 82.22 344.77 L 82.67 344.87 L 83.01 345.02 L 83.01 345.02 L 83.38 345.3 L 83.73 345.68 L 84.04 346.17 L 84.28 346.7 L 84.44 347.23 L 84.44 347.23 L 84.59 347.95 L 84.69 348.97 L 84.73 350.19 L 84.72 351.44 L 84.66 352.53 L 84.56 353.36 L 84.54 353.51 L 84.54 353.51 L 84.38 354 L 84.18 354.48 L 83.92 354.94 L 83.61 355.34 L 83.25 355.66 L 83.25 355.66 L 82.75 355.81 L 82.21 355.89 L 81.67 355.88 L 81.21 355.8 L 80.87 355.67 Z" fill-rule="nonzero" stroke="none" stroke-opacity="0"/>
                </g>
                <g id="GRID.polyline.390.1">
                  <polyline id="GRID.polyline.390.1.1" points="80.87,355.67 80.87,355.67 80.38,355.37 79.99,354.98 79.67,354.49 79.45,353.95 79.29,353.37 79.26,353.2 79.26,353.2 79.21,352.45 79.18,351.45 79.2,350.28 79.25,349.12 79.34,348.11 79.45,347.37 79.45,347.35 79.45,347.35 79.59,346.84 79.77,346.34 80.01,345.87 80.31,345.45 80.68,345.09 80.68,345.09 81.17,344.87 81.7,344.77 82.22,344.77 82.67,344.87 83.01,345.02 83.01,345.02 83.38,345.3 83.73,345.68 84.04,346.17 84.28,346.7 84.44,347.23 84.44,347.23 84.59,347.95 84.69,348.97 84.73,350.19 84.72,351.44 84.66,352.53 84.56,353.36 84.54,353.51 84.54,353.51 84.38,354 84.18,354.48 83.92,354.94 83.61,355.34 83.25,355.66 83.25,355.66 82.75,355.81 82.21,355.89 81.67,355.88 81.21,355.8 80.87,355.67 80.87,355.67" fill="none" fill-opacity="0"/>
                </g>
              </g>
              <g id="GRID.picComplexPath.137.1" fill="none" stroke-width="2.1" stroke-linecap="round" stroke-linejoin="round" stroke="rgb(0,40,104)" stroke-miterlimit="4" stroke-opacity="1" fill-opacity="0">
                <g id="GRID.pathgrob.391.1">
                  <path id="GRID.pathgrob.391.1.1" d="M 107.64 352.61 L 107.64 352.61 L 108.21 352.87 L 108.8 353.21 L 109.37 353.63 L 109.91 354.11 L 110.4 354.64 L 108.83 343.55 Z" fill-rule="nonzero" stroke="none" stroke-opacity="0"/>
                </g>
                <g id="GRID.polyline.392.1">
                  <polyline id="GRID.polyline.392.1.1" points="107.64,352.61 107.64,352.61 108.21,352.87 108.8,353.21 109.37,353.63 109.91,354.11 110.4,354.64 108.83,343.55" fill="none" fill-opacity="0"/>
                </g>
              </g>
              <g id="GRID.picComplexPath.140.1" fill="none" stroke-width="2.1" stroke-linecap="round" stroke-linejoin="round" stroke="rgb(0,40,104)" stroke-miterlimit="4" stroke-opacity="1" fill-opacity="0">
                <g id="GRID.pathgrob.393.1">
                  <path id="GRID.pathgrob.393.1.1" d="M 115.84 353.18 L 115.84 353.18 L 116.26 353.05 L 117.28 352.75 L 118.64 352.35 L 119.96 351.97 L 120.88 351.7 L 121.16 351.62 L 121.16 351.62 L 120.35 350.58 L 119.53 349.52 L 118.7 348.4 L 117.88 347.24 L 117.09 346.04 L 116.35 344.86 L 115.69 343.7 L 115.09 342.55 L 114.85 342.05 Z" fill-rule="nonzero" stroke="none" stroke-opacity="0"/>
                </g>
                <g id="GRID.polyline.394.1">
                  <polyline id="GRID.polyline.394.1.1" points="115.84,353.18 115.84,353.18 116.26,353.05 117.28,352.75 118.64,352.35 119.96,351.97 120.88,351.7 121.16,351.62 121.16,351.62 120.35,350.58 119.53,349.52 118.7,348.4 117.88,347.24 117.09,346.04 116.35,344.86 115.69,343.7 115.09,342.55 114.85,342.05" fill="none" fill-opacity="0"/>
                </g>
              </g>
              <g id="GRID.picComplexPath.143.1" fill="none" stroke-width="2.1" stroke-linecap="round" stroke-linejoin="round" stroke="rgb(0,40,104)" stroke-miterlimit="4" stroke-opacity="1" fill-opacity="0">
                <g id="GRID.pathgrob.395.1">
                  <path id="GRID.pathgrob.395.1.1" d="M 125.71 350.41 L 130.86 347.87 L 130.86 347.87 L 129.87 347.12 L 128.87 346.29 L 127.86 345.36 L 126.84 344.35 L 125.86 343.29 L 124.94 342.21 L 124.1 341.15 L 123.33 340.1 L 123.06 339.71 Z" fill-rule="nonzero" stroke="none" stroke-opacity="0"/>
                </g>
                <g id="GRID.polyline.396.1">
                  <polyline id="GRID.polyline.396.1.1" points="125.71,350.41 130.86,347.87 130.86,347.87 129.87,347.12 128.87,346.29 127.86,345.36 126.84,344.35 125.86,343.29 124.94,342.21 124.1,341.15 123.33,340.1 123.06,339.71" fill="none" fill-opacity="0"/>
                </g>
              </g>
              <g id="GRID.picComplexPath.146.1" fill="none" stroke-width="2.1" stroke-linecap="round" stroke-linejoin="round" stroke="rgb(0,40,104)" stroke-miterlimit="4" stroke-opacity="1" fill-opacity="0">
                <g id="GRID.pathgrob.397.1">
                  <path id="GRID.pathgrob.397.1.1" d="M 138.78 343.74 L 135.4 345.72 L 132.42 341.68 L 132.42 341.68 L 133.1 341.78 L 133.75 341.79 L 134.37 341.7 L 134.96 341.5 L 135.48 341.2 L 135.91 340.8 L 136.26 340.32 L 136.53 339.76 L 136.62 339.5 L 136.62 339.5 L 136.67 338.65 L 136.58 337.86 L 136.36 337.12 L 136.01 336.47 L 135.57 335.91 L 135.05 335.48 L 134.49 335.18 L 133.92 335.01 L 133.42 334.95 L 133.42 334.95 L 132.81 335.01 L 132.25 335.15 L 131.73 335.4 L 131.28 335.76 L 130.89 336.21 L 130.59 336.76 L 130.37 337.37 L 130.22 338.04 L 130.18 338.32 Z" fill-rule="nonzero" stroke="none" stroke-opacity="0"/>
                </g>
                <g id="GRID.polyline.398.1">
                  <polyline id="GRID.polyline.398.1.1" points="138.78,343.74 135.4,345.72 132.42,341.68 132.42,341.68 133.1,341.78 133.75,341.79 134.37,341.7 134.96,341.5 135.48,341.2 135.91,340.8 136.26,340.32 136.53,339.76 136.62,339.5 136.62,339.5 136.67,338.65 136.58,337.86 136.36,337.12 136.01,336.47 135.57,335.91 135.05,335.48 134.49,335.18 133.92,335.01 133.42,334.95 133.42,334.95 132.81,335.01 132.25,335.15 131.73,335.4 131.28,335.76 130.89,336.21 130.59,336.76 130.37,337.37 130.22,338.04 130.18,338.32" fill="none" fill-opacity="0"/>
                </g>
              </g>
              <g id="GRID.picComplexPath.149.1" fill="none" stroke-width="2.1" stroke-linecap="round" stroke-linejoin="round" stroke="rgb(0,40,104)" stroke-miterlimit="4" stroke-opacity="1" fill-opacity="0">
                <g id="GRID.pathgrob.399.1">
                  <path id="GRID.pathgrob.399.1.1" d="M 47.67 340.02 L 47.67 340.02 L 47.68 340.42 L 47.71 341.56 L 47.76 343.27 L 47.83 345.34 L 47.9 347.5 L 47.97 349.47 L 48.04 351 L 48.09 351.88 L 48.12 352.05 L 48.12 352.05 L 48.36 351.84 L 49.01 350.96 L 49.97 349.57 L 51.14 347.83 L 52.35 346 L 53.46 344.31 L 54.32 342.99 L 54.82 342.22 L 54.92 342.06 Z" fill-rule="nonzero" stroke="none" stroke-opacity="0"/>
                </g>
                <g id="GRID.polyline.400.1">
                  <polyline id="GRID.polyline.400.1.1" points="47.67,340.02 47.67,340.02 47.68,340.42 47.71,341.56 47.76,343.27 47.83,345.34 47.9,347.5 47.97,349.47 48.04,351 48.09,351.88 48.12,352.05 48.12,352.05 48.36,351.84 49.01,350.96 49.97,349.57 51.14,347.83 52.35,346 53.46,344.31 54.32,342.99 54.82,342.22 54.92,342.06" fill="none" fill-opacity="0"/>
                </g>
              </g>
              <g id="GRID.picComplexPath.152.1" fill="none" stroke-width="2.1" stroke-linecap="round" stroke-linejoin="round" stroke="rgb(0,40,104)" stroke-miterlimit="4" stroke-opacity="1" fill-opacity="0">
                <g id="GRID.pathgrob.401.1">
                  <path id="GRID.pathgrob.401.1.1" d="M 47.89 344.31 L 52.48 345.66 Z" fill-rule="nonzero" stroke="none" stroke-opacity="0"/>
                </g>
                <g id="GRID.polyline.402.1">
                  <polyline id="GRID.polyline.402.1.1" points="47.89,344.31 52.48,345.66" fill="none" fill-opacity="0"/>
                </g>
              </g>
              <g id="GRID.picComplexPath.155.1" stroke="none" fill="rgb(255,202,0)" stroke-opacity="0" fill-opacity="1">
                <g id="GRID.pathgrob.403.1">
                  <path id="GRID.pathgrob.403.1.1" d="M 21.13 226.37 L 27.83 226.28 L 27.62 255.3 L 40.45 226.13 L 47.43 226.13 L 47.43 268.82 L 40.62 268.72 L 40.72 241.74 L 28.72 268.6 L 21.23 268.51 Z" fill-rule="evenodd" stroke="none" stroke-opacity="0"/>
                </g>
                <g id="GRID.polyline.404.1">
                  <polyline id="GRID.polyline.404.1.1" points="21.13,226.37 27.83,226.28 27.62,255.3 40.45,226.13 47.43,226.13 47.43,268.82 40.62,268.72 40.72,241.74 28.72,268.6 21.23,268.51 21.13,226.37" fill="none" fill-opacity="0"/>
                </g>
              </g>
              <g id="GRID.picComplexPath.158.1" stroke="none" fill="rgb(255,202,0)" stroke-opacity="0" fill-opacity="1">
                <g id="GRID.pathgrob.405.1">
                  <path id="GRID.pathgrob.405.1.1" d="M 143.56 255.27 L 150.7 255.27 L 150.61 259.03 L 150.61 259.03 L 150.49 259.99 L 150.27 261.06 L 149.93 262.22 L 149.46 263.41 L 148.86 264.57 L 148.15 265.64 L 147.34 266.58 L 147.09 266.82 L 147.09 266.82 L 146.39 267.53 L 145.59 268.19 L 144.69 268.79 L 143.7 269.33 L 142.7 269.76 L 141.69 270.11 L 141.16 270.27 L 141.16 270.27 L 140.29 270.51 L 139.16 270.66 L 137.8 270.71 L 136.3 270.64 L 134.8 270.45 L 133.4 270.16 L 132.19 269.77 L 131.4 269.4 L 131.4 269.4 L 130.44 268.8 L 129.48 268.07 L 128.51 267.17 L 127.55 266.12 L 126.64 264.91 L 125.8 263.6 L 125.06 262.21 L 124.42 260.77 L 124.04 259.74 L 124.04 259.74 L 123.58 257.81 L 123.23 255.78 L 122.98 253.64 L 122.82 251.41 L 122.77 249.12 L 122.8 246.85 L 122.91 244.65 L 123.09 242.58 L 123.32 240.69 L 123.59 239.02 L 123.89 237.57 L 124.21 236.34 L 124.23 236.27 L 124.23 236.27 L 124.8 234.73 L 125.47 233.29 L 126.26 231.93 L 127.15 230.68 L 128.13 229.55 L 129.16 228.58 L 130.22 227.76 L 131.3 227.08 L 132.17 226.62 L 132.17 226.62 L 133.04 226.37 L 134.09 226.13 L 135.32 225.94 L 136.69 225.82 L 138.12 225.79 L 139.54 225.87 L 140.89 226.06 L 141.88 226.29 L 141.88 226.29 L 143.18 226.86 L 144.36 227.56 L 145.46 228.38 L 146.45 229.31 L 147.32 230.3 L 148.06 231.3 L 148.69 232.28 L 149.19 233.13 L 149.19 233.13 L 149.53 233.88 L 149.89 234.82 L 150.25 235.97 L 150.57 237.27 L 150.82 238.68 L 150.99 240.12 L 151.06 241.54 L 151.04 242.55 L 143.59 242.46 L 143.59 242.46 L 143.57 241.68 L 143.49 240.8 L 143.35 239.87 L 143.18 238.96 L 143 238.15 L 142.93 237.88 L 142.93 237.88 L 142.63 237.22 L 142.26 236.61 L 141.78 236.03 L 141.2 235.51 L 140.51 235.09 L 139.71 234.77 L 138.83 234.58 L 137.85 234.49 L 137.56 234.49 L 137.56 234.49 L 136.71 234.54 L 135.89 234.71 L 135.1 235.01 L 134.36 235.41 L 133.7 235.92 L 133.12 236.48 L 132.71 236.98 L 132.71 236.98 L 132.07 237.8 L 131.55 238.85 L 131.13 240.04 L 130.84 241.22 L 130.65 242.22 L 130.56 242.93 L 130.54 243.1 L 130.54 243.1 L 130.4 244.46 L 130.31 245.87 L 130.25 247.36 L 130.25 248.91 L 130.32 250.5 L 130.45 252.08 L 130.65 253.61 L 130.91 255.07 L 131.25 256.49 L 131.33 256.8 L 131.33 256.8 L 131.61 257.72 L 132 258.65 L 132.5 259.56 L 133.06 260.36 L 133.66 260.98 L 134.1 261.33 L 134.1 261.33 L 135.1 261.77 L 136.16 262.05 L 137.23 262.17 L 138.22 262.16 L 139.03 262.06 L 139.57 261.93 L 139.57 261.93 L 140.26 261.67 L 140.94 261.3 L 141.61 260.82 L 142.21 260.24 L 142.68 259.61 L 143.01 258.97 L 143.12 258.65 L 143.12 258.65 L 143.29 257.87 L 143.42 257.13 L 143.5 256.44 L 143.54 255.82 L 143.56 255.27 Z" fill-rule="evenodd" stroke="none" stroke-opacity="0"/>
                </g>
                <g id="GRID.polyline.406.1">
                  <polyline id="GRID.polyline.406.1.1" points="143.56,255.27 150.7,255.27 150.61,259.03 150.61,259.03 150.49,259.99 150.27,261.06 149.93,262.22 149.46,263.41 148.86,264.57 148.15,265.64 147.34,266.58 147.09,266.82 147.09,266.82 146.39,267.53 145.59,268.19 144.69,268.79 143.7,269.33 142.7,269.76 141.69,270.11 141.16,270.27 141.16,270.27 140.29,270.51 139.16,270.66 137.8,270.71 136.3,270.64 134.8,270.45 133.4,270.16 132.19,269.77 131.4,269.4 131.4,269.4 130.44,268.8 129.48,268.07 128.51,267.17 127.55,266.12 126.64,264.91 125.8,263.6 125.06,262.21 124.42,260.77 124.04,259.74 124.04,259.74 123.58,257.81 123.23,255.78 122.98,253.64 122.82,251.41 122.77,249.12 122.8,246.85 122.91,244.65 123.09,242.58 123.32,240.69 123.59,239.02 123.89,237.57 124.21,236.34 124.23,236.27 124.23,236.27 124.8,234.73 125.47,233.29 126.26,231.93 127.15,230.68 128.13,229.55 129.16,228.58 130.22,227.76 131.3,227.08 132.17,226.62 132.17,226.62 133.04,226.37 134.09,226.13 135.32,225.94 136.69,225.82 138.12,225.79 139.54,225.87 140.89,226.06 141.88,226.29 141.88,226.29 143.18,226.86 144.36,227.56 145.46,228.38 146.45,229.31 147.32,230.3 148.06,231.3 148.69,232.28 149.19,233.13 149.19,233.13 149.53,233.88 149.89,234.82 150.25,235.97 150.57,237.27 150.82,238.68 150.99,240.12 151.06,241.54 151.04,242.55 143.59,242.46 143.59,242.46 143.57,241.68 143.49,240.8 143.35,239.87 143.18,238.96 143,238.15 142.93,237.88 142.93,237.88 142.63,237.22 142.26,236.61 141.78,236.03 141.2,235.51 140.51,235.09 139.71,234.77 138.83,234.58 137.85,234.49 137.56,234.49 137.56,234.49 136.71,234.54 135.89,234.71 135.1,235.01 134.36,235.41 133.7,235.92 133.12,236.48 132.71,236.98 132.71,236.98 132.07,237.8 131.55,238.85 131.13,240.04 130.84,241.22 130.65,242.22 130.56,242.93 130.54,243.1 130.54,243.1 130.4,244.46 130.31,245.87 130.25,247.36 130.25,248.91 130.32,250.5 130.45,252.08 130.65,253.61 130.91,255.07 131.25,256.49 131.33,256.8 131.33,256.8 131.61,257.72 132,258.65 132.5,259.56 133.06,260.36 133.66,260.98 134.1,261.33 134.1,261.33 135.1,261.77 136.16,262.05 137.23,262.17 138.22,262.16 139.03,262.06 139.57,261.93 139.57,261.93 140.26,261.67 140.94,261.3 141.61,260.82 142.21,260.24 142.68,259.61 143.01,258.97 143.12,258.65 143.12,258.65 143.29,257.87 143.42,257.13 143.5,256.44 143.54,255.82 143.56,255.27 143.56,255.27" fill="none" fill-opacity="0"/>
                </g>
              </g>
              <g id="GRID.picComplexPath.161.1" stroke="none" fill="rgb(255,255,255)" stroke-opacity="0" fill-opacity="1">
                <g id="GRID.pathgrob.407.1">
                  <path id="GRID.pathgrob.407.1.1" d="M 102.14 224.97 L 86.15 237.4 L 69.74 225.05 L 76.24 244.39 L 59.6 256.64 L 79.61 256.16 L 85.74 276.08 L 91.6 256.44 L 112.03 256.51 L 95.64 244.85 Z" fill-rule="evenodd" stroke="none" stroke-opacity="0"/>
                </g>
                <g id="GRID.polyline.408.1">
                  <polyline id="GRID.polyline.408.1.1" points="102.14,224.97 86.15,237.4 69.74,225.05 76.24,244.39 59.6,256.64 79.61,256.16 85.74,276.08 91.6,256.44 112.03,256.51 95.64,244.85 102.14,224.97" fill="none" fill-opacity="0"/>
                </g>
              </g>
              <g id="GRID.picComplexPath.164.1" fill="none" stroke-width="0.84" stroke-linecap="butt" stroke-linejoin="miter" stroke="rgb(0,0,0)" stroke-miterlimit="4" stroke-opacity="1" fill-opacity="0">
                <g id="GRID.pathgrob.409.1">
                  <path id="GRID.pathgrob.409.1.1" d="M 34.11 326.41 L 34.11 326.41 Z" fill-rule="nonzero" stroke="none" stroke-opacity="0"/>
                </g>
                <g id="GRID.polyline.410.1">
                  <polyline id="GRID.polyline.410.1.1" points="34.11,326.41 34.11,326.41" fill="none" fill-opacity="0"/>
                </g>
              </g>
              <g id="GRID.picComplexPath.167.1" fill="none" stroke-width="0.67" stroke-linecap="butt" stroke-linejoin="miter" stroke="rgb(0,40,104)" stroke-miterlimit="4" stroke-opacity="1" fill-opacity="0">
                <g id="GRID.pathgrob.411.1">
                  <path id="GRID.pathgrob.411.1.1" d="M 34.16 326.47 L 34.16 326.47 L 34.63 326.16 L 35.31 326.01 L 36.18 326 L 37.16 326.11 L 38.18 326.29 L 38.18 326.29 L 39 326.38 L 39.9 326.46 L 40.86 326.53 L 41.76 326.6 L 42.56 326.68 L 42.83 326.71 L 42.83 326.71 L 43.41 326.65 L 43.95 326.57 L 44.45 326.46 L 44.88 326.33 L 45.25 326.17 L 45.52 325.98 L 45.7 325.77 L 45.77 325.54 L 45.73 325.3 L 45.58 325.04 L 45.48 324.91 Z" fill-rule="nonzero" stroke="none" stroke-opacity="0"/>
                </g>
                <g id="GRID.polyline.412.1">
                  <polyline id="GRID.polyline.412.1.1" points="34.16,326.47 34.16,326.47 34.63,326.16 35.31,326.01 36.18,326 37.16,326.11 38.18,326.29 38.18,326.29 39,326.38 39.9,326.46 40.86,326.53 41.76,326.6 42.56,326.68 42.83,326.71 42.83,326.71 43.41,326.65 43.95,326.57 44.45,326.46 44.88,326.33 45.25,326.17 45.52,325.98 45.7,325.77 45.77,325.54 45.73,325.3 45.58,325.04 45.48,324.91" fill="none" fill-opacity="0"/>
                </g>
              </g>
              <g id="GRID.picComplexPath.170.1" fill="rgb(255,202,0)" stroke-width="0.67" stroke-linecap="butt" stroke-linejoin="miter" stroke="rgb(0,40,104)" stroke-miterlimit="4" stroke-opacity="1" fill-opacity="1">
                <g id="GRID.pathgrob.413.1">
                  <path id="GRID.pathgrob.413.1.1" d="M 145.59 340.54 L 145.59 340.54 L 147.9 339.22 L 149.96 337.99 L 151.83 336.81 L 153.55 335.67 L 155.12 334.57 L 156.57 333.5 L 157.91 332.46 L 159.17 331.45 L 160.37 330.46 L 161.56 329.48 L 162.79 328.49 L 163.75 327.73 L 150.98 327.46 L 150.98 327.46 L 151.09 326.82 L 151.31 325.58 L 151.63 323.83 L 152.02 321.69 L 152.46 319.33 L 152.91 316.94 L 153.34 314.71 L 153.7 312.82 L 153.98 311.41 L 154.15 310.57 L 154.19 310.42 L 154.19 310.42 L 152.32 311.66 L 150.53 312.83 L 148.77 313.95 L 147.01 315.04 L 145.23 316.08 L 143.4 317.08 L 141.52 318.05 L 139.57 318.96 L 137.57 319.83 L 135.49 320.65 L 133.33 321.44 L 131.07 322.19 L 128.67 322.92 L 126.9 323.43 L 126.9 323.43 L 125.76 323.92 L 125.1 324.6 L 124.85 325.45 L 124.96 326.42 L 125.35 327.47 L 125.92 328.52 L 126.57 329.51 L 127.19 330.38 L 127.7 331.08 L 128.01 331.6 L 128.04 331.67 L 128.04 331.67 L 129.24 331.11 L 130.45 330.49 L 131.66 329.79 L 132.86 329.04 L 134 328.24 L 135.02 327.42 L 135.92 326.61 L 136.71 325.8 L 136.78 325.72 Z" fill-rule="evenodd" stroke="none" stroke-opacity="0"/>
                </g>
                <g id="GRID.polyline.414.1">
                  <polyline id="GRID.polyline.414.1.1" points="145.59,340.54 145.59,340.54 147.9,339.22 149.96,337.99 151.83,336.81 153.55,335.67 155.12,334.57 156.57,333.5 157.91,332.46 159.17,331.45 160.37,330.46 161.56,329.48 162.79,328.49 163.75,327.73 150.98,327.46 150.98,327.46 151.09,326.82 151.31,325.58 151.63,323.83 152.02,321.69 152.46,319.33 152.91,316.94 153.34,314.71 153.7,312.82 153.98,311.41 154.15,310.57 154.19,310.42 154.19,310.42 152.32,311.66 150.53,312.83 148.77,313.95 147.01,315.04 145.23,316.08 143.4,317.08 141.52,318.05 139.57,318.96 137.57,319.83 135.49,320.65 133.33,321.44 131.07,322.19 128.67,322.92 126.9,323.43 126.9,323.43 125.76,323.92 125.1,324.6 124.85,325.45 124.96,326.42 125.35,327.47 125.92,328.52 126.57,329.51 127.19,330.38 127.7,331.08 128.01,331.6 128.04,331.67 128.04,331.67 129.24,331.11 130.45,330.49 131.66,329.79 132.86,329.04 134,328.24 135.02,327.42 135.92,326.61 136.71,325.8 136.78,325.72" fill="none" fill-opacity="0"/>
                </g>
              </g>
              <g id="GRID.picComplexPath.173.1" fill="none" stroke-width="0.84" stroke-linecap="butt" stroke-linejoin="miter" stroke="rgb(0,0,0)" stroke-miterlimit="4" stroke-opacity="1" fill-opacity="0">
                <g id="GRID.pathgrob.415.1">
                  <path id="GRID.pathgrob.415.1.1" d="M 136.61 325.78 L 136.61 325.78 Z" fill-rule="nonzero" stroke="none" stroke-opacity="0"/>
                </g>
                <g id="GRID.polyline.416.1">
                  <polyline id="GRID.polyline.416.1.1" points="136.61,325.78 136.61,325.78" fill="none" fill-opacity="0"/>
                </g>
              </g>
              <g id="GRID.picComplexPath.176.1" fill="none" stroke-width="0.67" stroke-linecap="butt" stroke-linejoin="miter" stroke="rgb(0,40,104)" stroke-miterlimit="4" stroke-opacity="1" fill-opacity="0">
                <g id="GRID.pathgrob.417.1">
                  <path id="GRID.pathgrob.417.1.1" d="M 136.41 325.84 L 136.41 325.84 L 135.73 325.61 L 134.98 325.51 L 134.16 325.52 L 133.34 325.58 L 132.54 325.66 L 132.54 325.66 L 131.78 325.77 L 130.93 325.89 L 130.01 326 L 129.1 326.09 L 128.25 326.14 L 127.98 326.15 L 127.98 326.15 L 127.34 326.12 L 126.75 326.04 L 126.24 325.92 L 125.8 325.75 L 125.44 325.54 L 125.18 325.32 L 125.02 325.07 L 124.96 324.83 L 125 324.6 L 125.13 324.39 L 125.23 324.27 Z" fill-rule="nonzero" stroke="none" stroke-opacity="0"/>
                </g>
                <g id="GRID.polyline.418.1">
                  <polyline id="GRID.polyline.418.1.1" points="136.41,325.84 136.41,325.84 135.73,325.61 134.98,325.51 134.16,325.52 133.34,325.58 132.54,325.66 132.54,325.66 131.78,325.77 130.93,325.89 130.01,326 129.1,326.09 128.25,326.14 127.98,326.15 127.98,326.15 127.34,326.12 126.75,326.04 126.24,325.92 125.8,325.75 125.44,325.54 125.18,325.32 125.02,325.07 124.96,324.83 125,324.6 125.13,324.39 125.23,324.27" fill="none" fill-opacity="0"/>
                </g>
              </g>
              <g id="GRID.picComplexPath.179.1" fill="none" stroke-width="1.51" stroke-linecap="round" stroke-linejoin="round" stroke="rgb(0,40,104)" stroke-miterlimit="4" stroke-opacity="1" fill-opacity="0">
                <g id="GRID.pathgrob.419.1">
                  <path id="GRID.pathgrob.419.1.1" d="M 86.94 351.55 L 86.94 351.55 L 88.06 351.52 L 89.17 351.49 L 90.12 351.46 L 90.73 351.44 L 90.94 351.43 Z" fill-rule="nonzero" stroke="none" stroke-opacity="0"/>
                </g>
                <g id="GRID.polyline.420.1">
                  <polyline id="GRID.polyline.420.1.1" points="86.94,351.55 86.94,351.55 88.06,351.52 89.17,351.49 90.12,351.46 90.73,351.44 90.94,351.43" fill="none" fill-opacity="0"/>
                </g>
              </g>
              <g id="GRID.picComplexPath.182.1" fill="none" stroke-width="1.51" stroke-linecap="round" stroke-linejoin="round" stroke="rgb(0,40,104)" stroke-miterlimit="4" stroke-opacity="1" fill-opacity="0">
                <g id="GRID.pathgrob.421.1">
                  <path id="GRID.pathgrob.421.1.1" d="M 93.18 354.2 L 92.95 344.51 Z" fill-rule="nonzero" stroke="none" stroke-opacity="0"/>
                </g>
                <g id="GRID.polyline.422.1">
                  <polyline id="GRID.polyline.422.1.1" points="93.18,354.2 92.95,344.51" fill="none" fill-opacity="0"/>
                </g>
              </g>
              <g id="GRID.picComplexPath.185.1" fill="none" stroke-width="1.51" stroke-linecap="round" stroke-linejoin="round" stroke="rgb(0,40,104)" stroke-miterlimit="4" stroke-opacity="1" fill-opacity="0">
                <g id="GRID.pathgrob.423.1">
                  <path id="GRID.pathgrob.423.1.1" d="M 97.4 344.07 L 97.4 344.07 L 97.5 345.43 L 97.54 346.63 L 97.54 347.66 L 97.46 348.55 L 97.33 349.3 L 97.11 349.91 L 96.83 350.39 L 96.48 350.74 L 96.05 350.98 L 95.57 351.14 L 95.02 351.22 L 94.42 351.25 L 93.76 351.26 L 93.7 351.26 Z" fill-rule="nonzero" stroke="none" stroke-opacity="0"/>
                </g>
                <g id="GRID.polyline.424.1">
                  <polyline id="GRID.polyline.424.1.1" points="97.4,344.07 97.4,344.07 97.5,345.43 97.54,346.63 97.54,347.66 97.46,348.55 97.33,349.3 97.11,349.91 96.83,350.39 96.48,350.74 96.05,350.98 95.57,351.14 95.02,351.22 94.42,351.25 93.76,351.26 93.7,351.26" fill="none" fill-opacity="0"/>
                </g>
              </g>
              <g id="GRID.picComplexPath.188.1" fill="none" stroke-width="1.51" stroke-linecap="round" stroke-linejoin="round" stroke="rgb(0,40,104)" stroke-miterlimit="4" stroke-opacity="1" fill-opacity="0">
                <g id="GRID.pathgrob.425.1">
                  <path id="GRID.pathgrob.425.1.1" d="M 88.53 354.55 L 88.38 346.5 L 88.38 346.5 L 88.39 346.01 L 88.46 345.6 L 88.58 345.25 L 88.77 344.97 L 89.03 344.76 L 89.35 344.63 L 89.71 344.55 L 90.13 344.53 L 90.16 344.53 Z" fill-rule="nonzero" stroke="none" stroke-opacity="0"/>
                </g>
                <g id="GRID.polyline.426.1">
                  <polyline id="GRID.polyline.426.1.1" points="88.53,354.55 88.38,346.5 88.38,346.5 88.39,346.01 88.46,345.6 88.58,345.25 88.77,344.97 89.03,344.76 89.35,344.63 89.71,344.55 90.13,344.53 90.16,344.53" fill="none" fill-opacity="0"/>
                </g>
              </g>
              <g id="GRID.picComplexPath.191.1" fill="none" stroke-width="2.1" stroke-linecap="round" stroke-linejoin="round" stroke="rgb(0,40,104)" stroke-miterlimit="4" stroke-opacity="1" fill-opacity="0">
                <g id="GRID.pathgrob.427.1">
                  <path id="GRID.pathgrob.427.1.1" d="M 54.16 353.5 L 59.14 348.45 L 60.04 342.96 Z" fill-rule="nonzero" stroke="none" stroke-opacity="0"/>
                </g>
                <g id="GRID.polyline.428.1">
                  <polyline id="GRID.polyline.428.1.1" points="54.16,353.5 59.14,348.45 60.04,342.96" fill="none" fill-opacity="0"/>
                </g>
              </g>
              <g id="GRID.picComplexPath.194.1" fill="none" stroke-width="2.1" stroke-linecap="round" stroke-linejoin="round" stroke="rgb(0,40,104)" stroke-miterlimit="4" stroke-opacity="1" fill-opacity="0">
                <g id="GRID.pathgrob.429.1">
                  <path id="GRID.pathgrob.429.1.1" d="M 61.99 355.24 L 59.26 348.2 Z" fill-rule="nonzero" stroke="none" stroke-opacity="0"/>
                </g>
                <g id="GRID.polyline.430.1">
                  <polyline id="GRID.polyline.430.1.1" points="61.99,355.24 59.26,348.2" fill="none" fill-opacity="0"/>
                </g>
              </g>
              <g id="GRID.picComplexPath.197.1" fill="rgb(255,202,0)" stroke-width="0.67" stroke-linecap="butt" stroke-linejoin="miter" stroke="rgb(0,40,104)" stroke-miterlimit="4" stroke-opacity="1" fill-opacity="1">
                <g id="GRID.pathgrob.431.1">
                  <path id="GRID.pathgrob.431.1.1" d="M 25.55 159.63 L 25.55 159.63 L 23.23 160.93 L 21.16 162.14 L 19.28 163.29 L 17.57 164.4 L 15.99 165.49 L 14.54 166.54 L 13.2 167.56 L 11.93 168.55 L 10.73 169.52 L 9.53 170.48 L 8.3 171.46 L 7.39 172.16 L 20.15 172.42 L 20.15 172.42 L 20.05 173.06 L 19.83 174.29 L 19.5 176.03 L 19.1 178.16 L 18.65 180.5 L 18.2 182.86 L 17.77 185.04 L 17.41 186.88 L 17.13 188.22 L 16.97 188.99 L 16.95 189.08 L 16.95 189.08 L 18.82 187.86 L 20.62 186.72 L 22.38 185.62 L 24.14 184.56 L 25.93 183.54 L 27.76 182.55 L 29.65 181.61 L 31.6 180.71 L 33.61 179.86 L 35.69 179.06 L 37.86 178.29 L 40.13 177.56 L 42.54 176.84 L 44.24 176.36 L 44.24 176.36 L 45.31 175.93 L 45.98 175.34 L 46.29 174.61 L 46.3 173.77 L 46.05 172.86 L 45.61 171.92 L 45.07 171 L 44.49 170.16 L 43.96 169.43 L 43.54 168.84 L 43.29 168.41 L 43.28 168.39 L 43.28 168.39 L 42.1 168.94 L 40.92 169.55 L 39.73 170.22 L 38.55 170.95 L 37.41 171.72 L 36.34 172.5 L 35.37 173.27 L 34.45 174.03 L 34.36 174.12 Z" fill-rule="evenodd" stroke="none" stroke-opacity="0"/>
                </g>
                <g id="GRID.polyline.432.1">
                  <polyline id="GRID.polyline.432.1.1" points="25.55,159.63 25.55,159.63 23.23,160.93 21.16,162.14 19.28,163.29 17.57,164.4 15.99,165.49 14.54,166.54 13.2,167.56 11.93,168.55 10.73,169.52 9.53,170.48 8.3,171.46 7.39,172.16 20.15,172.42 20.15,172.42 20.05,173.06 19.83,174.29 19.5,176.03 19.1,178.16 18.65,180.5 18.2,182.86 17.77,185.04 17.41,186.88 17.13,188.22 16.97,188.99 16.95,189.08 16.95,189.08 18.82,187.86 20.62,186.72 22.38,185.62 24.14,184.56 25.93,183.54 27.76,182.55 29.65,181.61 31.6,180.71 33.61,179.86 35.69,179.06 37.86,178.29 40.13,177.56 42.54,176.84 44.24,176.36 44.24,176.36 45.31,175.93 45.98,175.34 46.29,174.61 46.3,173.77 46.05,172.86 45.61,171.92 45.07,171 44.49,170.16 43.96,169.43 43.54,168.84 43.29,168.41 43.28,168.39 43.28,168.39 42.1,168.94 40.92,169.55 39.73,170.22 38.55,170.95 37.41,171.72 36.34,172.5 35.37,173.27 34.45,174.03 34.36,174.12" fill="none" fill-opacity="0"/>
                </g>
              </g>
              <g id="GRID.picComplexPath.200.1" fill="rgb(255,202,0)" stroke-width="0.67" stroke-linecap="butt" stroke-linejoin="miter" stroke="rgb(0,40,104)" stroke-miterlimit="4" stroke-opacity="1" fill-opacity="1">
                <g id="GRID.pathgrob.433.1">
                  <path id="GRID.pathgrob.433.1.1" d="M 34.53 174 L 34.53 174 L 36.76 172.22 L 39.33 170.58 L 42.25 169.07 L 45.49 167.69 L 49.05 166.43 L 52.9 165.31 L 57.04 164.32 L 61.42 163.47 L 66.02 162.78 L 70.8 162.23 L 75.72 161.84 L 80.73 161.61 L 85.79 161.54 L 90.84 161.63 L 95.85 161.89 L 100.75 162.3 L 105.52 162.87 L 110.09 163.59 L 114.45 164.46 L 118.55 165.46 L 122.36 166.6 L 125.88 167.87 L 129.06 169.26 L 131.91 170.77 L 134.41 172.41 L 136.56 174.17 L 136.95 174.54 L 136.95 174.54 L 137.29 174.14 L 138 173.1 L 139.04 171.5 L 140.33 169.44 L 141.8 167.06 L 143.35 164.53 L 144.85 162.02 L 146.22 159.72 L 147.34 157.78 L 148.15 156.33 L 148.58 155.48 L 148.62 155.28 L 148.62 155.28 L 145.16 153.06 L 141.51 151.01 L 137.67 149.12 L 133.64 147.4 L 129.42 145.83 L 125.01 144.42 L 120.43 143.18 L 115.69 142.09 L 110.8 141.17 L 105.79 140.42 L 100.68 139.83 L 95.49 139.41 L 90.27 139.16 L 85.03 139.08 L 79.81 139.17 L 74.64 139.42 L 69.55 139.82 L 64.57 140.38 L 59.73 141.08 L 55.06 141.92 L 50.57 142.89 L 46.28 143.98 L 42.22 145.19 L 38.38 146.5 L 34.79 147.91 L 31.43 149.42 L 28.32 151.02 L 25.45 152.71 L 23.06 154.32 L 23.38 155.46 Z" fill-rule="evenodd" stroke="none" stroke-opacity="0"/>
                </g>
                <g id="GRID.polyline.434.1">
                  <polyline id="GRID.polyline.434.1.1" points="34.53,174 34.53,174 36.76,172.22 39.33,170.58 42.25,169.07 45.49,167.69 49.05,166.43 52.9,165.31 57.04,164.32 61.42,163.47 66.02,162.78 70.8,162.23 75.72,161.84 80.73,161.61 85.79,161.54 90.84,161.63 95.85,161.89 100.75,162.3 105.52,162.87 110.09,163.59 114.45,164.46 118.55,165.46 122.36,166.6 125.88,167.87 129.06,169.26 131.91,170.77 134.41,172.41 136.56,174.17 136.95,174.54 136.95,174.54 137.29,174.14 138,173.1 139.04,171.5 140.33,169.44 141.8,167.06 143.35,164.53 144.85,162.02 146.22,159.72 147.34,157.78 148.15,156.33 148.58,155.48 148.62,155.28 148.62,155.28 145.16,153.06 141.51,151.01 137.67,149.12 133.64,147.4 129.42,145.83 125.01,144.42 120.43,143.18 115.69,142.09 110.8,141.17 105.79,140.42 100.68,139.83 95.49,139.41 90.27,139.16 85.03,139.08 79.81,139.17 74.64,139.42 69.55,139.82 64.57,140.38 59.73,141.08 55.06,141.92 50.57,142.89 46.28,143.98 42.22,145.19 38.38,146.5 34.79,147.91 31.43,149.42 28.32,151.02 25.45,152.71 23.06,154.32 23.38,155.46 34.53,174" fill="none" fill-opacity="0"/>
                </g>
              </g>
              <g id="GRID.picComplexPath.203.1" fill="none" stroke-width="0.83" stroke-linecap="butt" stroke-linejoin="miter" stroke="rgb(0,0,0)" stroke-miterlimit="4" stroke-opacity="1" fill-opacity="0">
                <g id="GRID.pathgrob.435.1">
                  <path id="GRID.pathgrob.435.1.1" d="M 34.11 173.85 L 34.11 173.85 Z" fill-rule="nonzero" stroke="none" stroke-opacity="0"/>
                </g>
                <g id="GRID.polyline.436.1">
                  <polyline id="GRID.polyline.436.1.1" points="34.11,173.85 34.11,173.85" fill="none" fill-opacity="0"/>
                </g>
              </g>
              <g id="GRID.picComplexPath.206.1" fill="none" stroke-width="0.67" stroke-linecap="butt" stroke-linejoin="miter" stroke="rgb(0,40,104)" stroke-miterlimit="4" stroke-opacity="1" fill-opacity="0">
                <g id="GRID.pathgrob.437.1">
                  <path id="GRID.pathgrob.437.1.1" d="M 34.58 174.01 L 34.58 174.01 L 35.06 174.31 L 35.74 174.46 L 36.6 174.46 L 37.58 174.35 L 38.6 174.18 L 38.6 174.18 L 39.42 174.09 L 40.33 174.02 L 41.28 173.95 L 42.19 173.88 L 42.98 173.8 L 43.26 173.78 L 43.26 173.78 L 43.84 173.83 L 44.38 173.91 L 44.87 174.01 L 45.31 174.14 L 45.67 174.3 L 45.95 174.48 L 46.12 174.69 L 46.19 174.92 L 46.15 175.16 L 46 175.41 L 45.9 175.53 Z" fill-rule="nonzero" stroke="none" stroke-opacity="0"/>
                </g>
                <g id="GRID.polyline.438.1">
                  <polyline id="GRID.polyline.438.1.1" points="34.58,174.01 34.58,174.01 35.06,174.31 35.74,174.46 36.6,174.46 37.58,174.35 38.6,174.18 38.6,174.18 39.42,174.09 40.33,174.02 41.28,173.95 42.19,173.88 42.98,173.8 43.26,173.78 43.26,173.78 43.84,173.83 44.38,173.91 44.87,174.01 45.31,174.14 45.67,174.3 45.95,174.48 46.12,174.69 46.19,174.92 46.15,175.16 46,175.41 45.9,175.53" fill="none" fill-opacity="0"/>
                </g>
              </g>
              <g id="GRID.picComplexPath.209.1" fill="rgb(255,202,0)" stroke-width="0.67" stroke-linecap="butt" stroke-linejoin="miter" stroke="rgb(0,40,104)" stroke-miterlimit="4" stroke-opacity="1" fill-opacity="1">
                <g id="GRID.pathgrob.439.1">
                  <path id="GRID.pathgrob.439.1.1" d="M 146.01 160.25 L 146.01 160.25 L 148.33 161.55 L 150.4 162.75 L 152.28 163.91 L 153.99 165.02 L 155.57 166.11 L 157.02 167.16 L 158.36 168.18 L 159.63 169.17 L 160.83 170.14 L 162.03 171.1 L 163.26 172.08 L 164.17 172.78 L 151.41 173.04 L 151.41 173.04 L 151.51 173.68 L 151.74 174.91 L 152.06 176.65 L 152.46 178.77 L 152.91 181.12 L 153.37 183.48 L 153.79 185.66 L 154.15 187.5 L 154.42 188.84 L 154.59 189.61 L 154.61 189.7 L 154.61 189.7 L 152.74 188.48 L 150.94 187.34 L 149.18 186.24 L 147.42 185.18 L 145.63 184.16 L 143.8 183.17 L 141.91 182.23 L 139.96 181.33 L 137.95 180.48 L 135.87 179.68 L 133.7 178.91 L 131.43 178.18 L 129.02 177.46 L 127.33 176.98 L 127.33 176.98 L 126.26 176.55 L 125.6 175.96 L 125.3 175.23 L 125.31 174.38 L 125.58 173.46 L 126.04 172.51 L 126.61 171.58 L 127.21 170.73 L 127.75 169.99 L 128.19 169.39 L 128.45 168.95 L 128.46 168.92 L 128.46 168.92 L 129.67 169.47 L 130.88 170.08 L 132.1 170.76 L 133.3 171.51 L 134.44 172.29 L 135.47 173.09 L 136.37 173.88 L 137.15 174.68 L 137.2 174.74 Z" fill-rule="evenodd" stroke="none" stroke-opacity="0"/>
                </g>
                <g id="GRID.polyline.440.1">
                  <polyline id="GRID.polyline.440.1.1" points="146.01,160.25 146.01,160.25 148.33,161.55 150.4,162.75 152.28,163.91 153.99,165.02 155.57,166.11 157.02,167.16 158.36,168.18 159.63,169.17 160.83,170.14 162.03,171.1 163.26,172.08 164.17,172.78 151.41,173.04 151.41,173.04 151.51,173.68 151.74,174.91 152.06,176.65 152.46,178.77 152.91,181.12 153.37,183.48 153.79,185.66 154.15,187.5 154.42,188.84 154.59,189.61 154.61,189.7 154.61,189.7 152.74,188.48 150.94,187.34 149.18,186.24 147.42,185.18 145.63,184.16 143.8,183.17 141.91,182.23 139.96,181.33 137.95,180.48 135.87,179.68 133.7,178.91 131.43,178.18 129.02,177.46 127.33,176.98 127.33,176.98 126.26,176.55 125.6,175.96 125.3,175.23 125.31,174.38 125.58,173.46 126.04,172.51 126.61,171.58 127.21,170.73 127.75,169.99 128.19,169.39 128.45,168.95 128.46,168.92 128.46,168.92 129.67,169.47 130.88,170.08 132.1,170.76 133.3,171.51 134.44,172.29 135.47,173.09 136.37,173.88 137.15,174.68 137.2,174.74" fill="none" fill-opacity="0"/>
                </g>
              </g>
              <g id="GRID.picComplexPath.212.1" fill="none" stroke-width="0.83" stroke-linecap="butt" stroke-linejoin="miter" stroke="rgb(0,0,0)" stroke-miterlimit="4" stroke-opacity="1" fill-opacity="0">
                <g id="GRID.pathgrob.441.1">
                  <path id="GRID.pathgrob.441.1.1" d="M 136.61 174.47 L 136.61 174.47 Z" fill-rule="nonzero" stroke="none" stroke-opacity="0"/>
                </g>
                <g id="GRID.polyline.442.1">
                  <polyline id="GRID.polyline.442.1.1" points="136.61,174.47 136.61,174.47" fill="none" fill-opacity="0"/>
                </g>
              </g>
              <g id="GRID.picComplexPath.215.1" fill="none" stroke-width="0.67" stroke-linecap="butt" stroke-linejoin="miter" stroke="rgb(0,40,104)" stroke-miterlimit="4" stroke-opacity="1" fill-opacity="0">
                <g id="GRID.pathgrob.443.1">
                  <path id="GRID.pathgrob.443.1.1" d="M 136.83 174.63 L 136.83 174.63 L 136.16 174.85 L 135.4 174.94 L 134.59 174.94 L 133.76 174.87 L 132.96 174.8 L 132.96 174.8 L 132.2 174.69 L 131.35 174.58 L 130.43 174.47 L 129.52 174.38 L 128.67 174.33 L 128.41 174.32 L 128.41 174.32 L 127.76 174.35 L 127.17 174.42 L 126.66 174.55 L 126.22 174.71 L 125.86 174.91 L 125.6 175.14 L 125.44 175.37 L 125.39 175.61 L 125.42 175.84 L 125.55 176.05 L 125.66 176.15 Z" fill-rule="nonzero" stroke="none" stroke-opacity="0"/>
                </g>
                <g id="GRID.polyline.444.1">
                  <polyline id="GRID.polyline.444.1.1" points="136.83,174.63 136.83,174.63 136.16,174.85 135.4,174.94 134.59,174.94 133.76,174.87 132.96,174.8 132.96,174.8 132.2,174.69 131.35,174.58 130.43,174.47 129.52,174.38 128.67,174.33 128.41,174.32 128.41,174.32 127.76,174.35 127.17,174.42 126.66,174.55 126.22,174.71 125.86,174.91 125.6,175.14 125.44,175.37 125.39,175.61 125.42,175.84 125.55,176.05 125.66,176.15" fill="none" fill-opacity="0"/>
                </g>
              </g>
              <g id="GRID.picComplexPath.218.1" fill="none" stroke-width="2.1" stroke-linecap="round" stroke-linejoin="round" stroke="rgb(0,40,104)" stroke-miterlimit="4" stroke-opacity="1" fill-opacity="0">
                <g id="GRID.pathgrob.445.1">
                  <path id="GRID.pathgrob.445.1.1" d="M 85.16 150.99 L 85.16 150.99 L 85.47 151.81 L 85.87 152.45 L 86.36 152.9 L 86.92 153.2 L 87.53 153.35 L 88.15 153.37 L 88.75 153.31 L 89.33 153.2 L 89.64 153.13 L 89.64 153.13 L 90.09 152.72 L 90.43 152.15 L 90.66 151.44 L 90.75 150.66 L 90.69 149.86 L 90.49 149.11 L 90.15 148.45 L 89.9 148.12 L 87.48 146.28 L 87.48 146.28 L 87.01 145.92 L 86.53 145.44 L 86.09 144.85 L 85.74 144.2 L 85.54 143.54 L 85.49 142.94 L 91.33 143.06 Z" fill-rule="nonzero" stroke="none" stroke-opacity="0"/>
                </g>
                <g id="GRID.polyline.446.1">
                  <polyline id="GRID.polyline.446.1.1" points="85.16,150.99 85.16,150.99 85.47,151.81 85.87,152.45 86.36,152.9 86.92,153.2 87.53,153.35 88.15,153.37 88.75,153.31 89.33,153.2 89.64,153.13 89.64,153.13 90.09,152.72 90.43,152.15 90.66,151.44 90.75,150.66 90.69,149.86 90.49,149.11 90.15,148.45 89.9,148.12 87.48,146.28 87.48,146.28 87.01,145.92 86.53,145.44 86.09,144.85 85.74,144.2 85.54,143.54 85.49,142.94 91.33,143.06" fill="none" fill-opacity="0"/>
                </g>
              </g>
              <g id="GRID.picComplexPath.221.1" fill="none" stroke-width="2.1" stroke-linecap="round" stroke-linejoin="round" stroke="rgb(0,40,104)" stroke-miterlimit="4" stroke-opacity="1" fill-opacity="0">
                <g id="GRID.pathgrob.447.1">
                  <path id="GRID.pathgrob.447.1.1" d="M 79.26 151.38 L 79.26 151.38 L 79.78 151.68 L 80.21 151.98 L 80.6 152.35 L 80.98 152.8 L 81.38 153.36 L 80.93 142.9 Z" fill-rule="nonzero" stroke="none" stroke-opacity="0"/>
                </g>
                <g id="GRID.polyline.448.1">
                  <polyline id="GRID.polyline.448.1.1" points="79.26,151.38 79.26,151.38 79.78,151.68 80.21,151.98 80.6,152.35 80.98,152.8 81.38,153.36 80.93,142.9" fill="none" fill-opacity="0"/>
                </g>
              </g>
              <g id="GRID.picComplexPath.224.1" fill="none" stroke-width="2.1" stroke-linecap="round" stroke-linejoin="miter" stroke="rgb(0,40,104)" stroke-miterlimit="4" stroke-opacity="1" fill-opacity="0">
                <g id="GRID.pathgrob.449.1">
                  <path id="GRID.pathgrob.449.1.1" d="M 66.37 155.99 L 66.37 155.99 L 66.31 155.58 L 66.13 154.5 L 65.87 152.87 L 65.55 150.9 L 65.21 148.86 L 64.91 147.01 L 64.68 145.58 L 64.54 144.75 L 64.52 144.61 L 70.18 143.81 Z" fill-rule="nonzero" stroke="none" stroke-opacity="0"/>
                </g>
                <g id="GRID.polyline.450.1">
                  <polyline id="GRID.polyline.450.1.1" points="66.37,155.99 66.37,155.99 66.31,155.58 66.13,154.5 65.87,152.87 65.55,150.9 65.21,148.86 64.91,147.01 64.68,145.58 64.54,144.75 64.52,144.61 70.18,143.81" fill="none" fill-opacity="0"/>
                </g>
              </g>
              <g id="GRID.picComplexPath.227.1" fill="none" stroke-width="2.1" stroke-linecap="round" stroke-linejoin="round" stroke="rgb(0,40,104)" stroke-miterlimit="4" stroke-opacity="1" fill-opacity="0">
                <g id="GRID.pathgrob.451.1">
                  <path id="GRID.pathgrob.451.1.1" d="M 59.73 145.19 L 61.47 157.05 Z" fill-rule="nonzero" stroke="none" stroke-opacity="0"/>
                </g>
                <g id="GRID.polyline.452.1">
                  <polyline id="GRID.polyline.452.1.1" points="59.73,145.19 61.47,157.05" fill="none" fill-opacity="0"/>
                </g>
              </g>
              <g id="GRID.picComplexPath.230.1" fill="none" stroke-width="2.1" stroke-linecap="round" stroke-linejoin="miter" stroke="rgb(0,40,104)" stroke-miterlimit="4" stroke-opacity="1" fill-opacity="0">
                <g id="GRID.pathgrob.453.1">
                  <path id="GRID.pathgrob.453.1.1" d="M 39.51 151.4 L 43.82 162.37 L 43.82 162.37 L 44.51 162.07 L 45.31 161.76 L 46.18 161.42 L 47.05 161 L 47.84 160.49 L 48.22 160.18 L 48.22 160.18 L 48.45 159.7 L 48.59 159.14 L 48.64 158.51 L 48.59 157.83 L 48.42 157.16 L 48.14 156.53 L 47.74 155.98 L 47.24 155.56 L 46.63 155.27 L 46.05 155.15 L 46.05 155.15 L 45.27 155.31 L 44.46 155.57 L 43.64 155.9 L 42.86 156.26 L 42.15 156.6 L 42.06 156.64 Z" fill-rule="nonzero" stroke="none" stroke-opacity="0"/>
                </g>
                <g id="GRID.polyline.454.1">
                  <polyline id="GRID.polyline.454.1.1" points="39.51,151.4 43.82,162.37 43.82,162.37 44.51,162.07 45.31,161.76 46.18,161.42 47.05,161 47.84,160.49 48.22,160.18 48.22,160.18 48.45,159.7 48.59,159.14 48.64,158.51 48.59,157.83 48.42,157.16 48.14,156.53 47.74,155.98 47.24,155.56 46.63,155.27 46.05,155.15 46.05,155.15 45.27,155.31 44.46,155.57 43.64,155.9 42.86,156.26 42.15,156.6 42.06,156.64" fill="none" fill-opacity="0"/>
                </g>
              </g>
              <g id="GRID.picComplexPath.233.1" fill="none" stroke-width="2.07" stroke-linecap="round" stroke-linejoin="round" stroke="rgb(0,40,104)" stroke-miterlimit="4" stroke-opacity="1" fill-opacity="0">
                <g id="GRID.pathgrob.455.1">
                  <path id="GRID.pathgrob.455.1.1" d="M 110.15 153.63 L 110.15 153.63 L 110.6 154.1 L 111.03 154.64 L 111.44 155.27 L 111.78 155.94 L 112.07 156.66 L 114.28 145.02 Z" fill-rule="nonzero" stroke="none" stroke-opacity="0"/>
                </g>
                <g id="GRID.polyline.456.1">
                  <polyline id="GRID.polyline.456.1.1" points="110.15,153.63 110.15,153.63 110.6,154.1 111.03,154.64 111.44,155.27 111.78,155.94 112.07,156.66 114.28,145.02" fill="none" fill-opacity="0"/>
                </g>
              </g>
              <g id="GRID.picComplexPath.236.1" fill="none" stroke-width="2.1" stroke-linecap="round" stroke-linejoin="round" stroke="rgb(0,40,104)" stroke-miterlimit="4" stroke-opacity="1" fill-opacity="0">
                <g id="GRID.pathgrob.457.1">
                  <path id="GRID.pathgrob.457.1.1" d="M 115.13 156.98 L 115.13 156.98 L 115.55 157.12 L 116.57 157.47 L 117.94 157.95 L 119.32 158.43 L 120.35 158.79 L 120.78 158.94 L 120.78 158.94 L 120.78 158.94 L 120.71 157.59 L 120.65 156.19 L 120.61 154.73 L 120.6 153.23 L 120.61 151.74 L 120.67 150.3 L 120.76 148.94 L 120.88 147.68 L 120.98 146.92 Z" fill-rule="nonzero" stroke="none" stroke-opacity="0"/>
                </g>
                <g id="GRID.polyline.458.1">
                  <polyline id="GRID.polyline.458.1.1" points="115.13,156.98 115.13,156.98 115.55,157.12 116.57,157.47 117.94,157.95 119.32,158.43 120.35,158.79 120.78,158.94 120.78,158.94 120.78,158.94 120.71,157.59 120.65,156.19 120.61,154.73 120.6,153.23 120.61,151.74 120.67,150.3 120.76,148.94 120.88,147.68 120.98,146.92" fill="none" fill-opacity="0"/>
                </g>
              </g>
              <g id="GRID.picComplexPath.239.1" fill="none" stroke-width="2.1" stroke-linecap="round" stroke-linejoin="round" stroke="rgb(0,40,104)" stroke-miterlimit="4" stroke-opacity="1" fill-opacity="0">
                <g id="GRID.pathgrob.459.1">
                  <path id="GRID.pathgrob.459.1.1" d="M 123.68 159.94 L 129.33 162.15 L 129.33 162.15 L 129.25 160.77 L 129.18 159.32 L 129.13 157.8 L 129.1 156.24 L 129.11 154.71 L 129.17 153.26 L 129.29 151.95 L 129.46 150.78 L 129.61 150.1 Z" fill-rule="nonzero" stroke="none" stroke-opacity="0"/>
                </g>
                <g id="GRID.polyline.460.1">
                  <polyline id="GRID.polyline.460.1.1" points="123.68,159.94 129.33,162.15 129.33,162.15 129.25,160.77 129.18,159.32 129.13,157.8 129.1,156.24 129.11,154.71 129.17,153.26 129.29,151.95 129.46,150.78 129.61,150.1" fill="none" fill-opacity="0"/>
                </g>
              </g>
              <g id="GRID.picComplexPath.242.1" fill="none" stroke-width="2.1" stroke-linecap="round" stroke-linejoin="round" stroke="rgb(0,40,104)" stroke-miterlimit="4" stroke-opacity="1" fill-opacity="0">
                <g id="GRID.pathgrob.461.1">
                  <path id="GRID.pathgrob.461.1.1" d="M 137.11 164.37 L 137.11 164.37 L 136.81 164.79 L 136.44 165.13 L 135.98 165.39 L 135.47 165.54 L 134.92 165.59 L 134.36 165.53 L 134.09 165.46 L 134.09 165.46 L 133.48 164.85 L 133.02 164.2 L 132.72 163.51 L 132.55 162.8 L 132.48 162.07 L 132.48 162.07 L 132.54 161.22 L 132.69 160.31 L 132.92 159.37 L 133.21 158.46 L 133.55 157.64 L 133.77 157.19 L 133.77 157.19 L 134.13 156.45 L 134.63 155.77 L 135.22 155.19 L 135.8 154.78 L 136.31 154.57 L 136.31 154.57 L 136.83 154.42 L 137.36 154.38 L 137.88 154.46 L 138.36 154.67 L 138.8 154.98 L 138.8 154.98 L 139.1 155.46 L 139.35 156.06 L 139.52 156.74 L 139.61 157.39 L 139.62 157.96 L 139.62 157.96 L 139.49 158.56 L 139.28 159.17 L 138.95 159.78 L 138.53 160.32 L 138.02 160.77 L 137.57 161.05 L 137.57 161.05 L 137.06 161.24 L 136.6 161.36 L 136.15 161.39 L 135.72 161.32 L 135.25 161.15 L 135.25 161.15 L 134.7 160.73 L 134.28 160.18 L 133.98 159.51 L 133.82 158.78 L 133.78 158.05 L 133.83 157.34 L 133.84 157.32 Z" fill-rule="nonzero" stroke="none" stroke-opacity="0"/>
                </g>
                <g id="GRID.polyline.462.1">
                  <polyline id="GRID.polyline.462.1.1" points="137.11,164.37 137.11,164.37 136.81,164.79 136.44,165.13 135.98,165.39 135.47,165.54 134.92,165.59 134.36,165.53 134.09,165.46 134.09,165.46 133.48,164.85 133.02,164.2 132.72,163.51 132.55,162.8 132.48,162.07 132.48,162.07 132.54,161.22 132.69,160.31 132.92,159.37 133.21,158.46 133.55,157.64 133.77,157.19 133.77,157.19 134.13,156.45 134.63,155.77 135.22,155.19 135.8,154.78 136.31,154.57 136.31,154.57 136.83,154.42 137.36,154.38 137.88,154.46 138.36,154.67 138.8,154.98 138.8,154.98 139.1,155.46 139.35,156.06 139.52,156.74 139.61,157.39 139.62,157.96 139.62,157.96 139.49,158.56 139.28,159.17 138.95,159.78 138.53,160.32 138.02,160.77 137.57,161.05 137.57,161.05 137.06,161.24 136.6,161.36 136.15,161.39 135.72,161.32 135.25,161.15 135.25,161.15 134.7,160.73 134.28,160.18 133.98,159.51 133.82,158.78 133.78,158.05 133.83,157.34 133.84,157.32" fill="none" fill-opacity="0"/>
                </g>
              </g>
              <g id="GRID.picComplexPath.245.1" fill="none" stroke-width="1.51" stroke-linecap="round" stroke-linejoin="round" stroke="rgb(0,40,104)" stroke-miterlimit="4" stroke-opacity="1" fill-opacity="0">
                <g id="GRID.pathgrob.463.1">
                  <path id="GRID.pathgrob.463.1.1" d="M 92.74 150.05 L 92.74 150.05 L 93.86 150.1 L 94.97 150.14 L 95.91 150.17 L 96.53 150.19 L 96.74 150.19 Z" fill-rule="nonzero" stroke="none" stroke-opacity="0"/>
                </g>
                <g id="GRID.polyline.464.1">
                  <polyline id="GRID.polyline.464.1.1" points="92.74,150.05 92.74,150.05 93.86,150.1 94.97,150.14 95.91,150.17 96.53,150.19 96.74,150.19" fill="none" fill-opacity="0"/>
                </g>
              </g>
              <g id="GRID.picComplexPath.248.1" fill="none" stroke-width="1.51" stroke-linecap="round" stroke-linejoin="round" stroke="rgb(0,40,104)" stroke-miterlimit="4" stroke-opacity="1" fill-opacity="0">
                <g id="GRID.pathgrob.465.1">
                  <path id="GRID.pathgrob.465.1.1" d="M 94.13 153.16 L 94.5 145.11 L 94.5 145.11 L 94.54 144.63 L 94.63 144.22 L 94.78 143.88 L 94.99 143.61 L 95.26 143.42 L 95.59 143.3 L 95.96 143.26 L 96.38 143.26 L 96.4 143.26 Z" fill-rule="nonzero" stroke="none" stroke-opacity="0"/>
                </g>
                <g id="GRID.polyline.466.1">
                  <polyline id="GRID.polyline.466.1.1" points="94.13,153.16 94.5,145.11 94.5,145.11 94.54,144.63 94.63,144.22 94.78,143.88 94.99,143.61 95.26,143.42 95.59,143.3 95.96,143.26 96.38,143.26 96.4,143.26" fill="none" fill-opacity="0"/>
                </g>
              </g>
              <g id="GRID.picComplexPath.251.1" fill="none" stroke-width="1.51" stroke-linecap="round" stroke-linejoin="round" stroke="rgb(0,40,104)" stroke-miterlimit="4" stroke-opacity="1" fill-opacity="0">
                <g id="GRID.pathgrob.467.1">
                  <path id="GRID.pathgrob.467.1.1" d="M 98.06 153.24 L 99.18 143.61 Z" fill-rule="nonzero" stroke="none" stroke-opacity="0"/>
                </g>
                <g id="GRID.polyline.468.1">
                  <polyline id="GRID.polyline.468.1.1" points="98.06,153.24 99.18,143.61" fill="none" fill-opacity="0"/>
                </g>
              </g>
              <g id="GRID.picComplexPath.254.1" fill="none" stroke-width="1.51" stroke-linecap="round" stroke-linejoin="round" stroke="rgb(0,40,104)" stroke-miterlimit="4" stroke-opacity="1" fill-opacity="0">
                <g id="GRID.pathgrob.469.1">
                  <path id="GRID.pathgrob.469.1.1" d="M 103.66 143.79 L 103.66 143.79 L 103.56 145.16 L 103.44 146.35 L 103.29 147.37 L 103.09 148.24 L 102.85 148.96 L 102.56 149.54 L 102.21 149.97 L 101.81 150.27 L 101.36 150.45 L 100.85 150.54 L 100.3 150.55 L 99.7 150.49 L 99.04 150.41 L 98.99 150.4 Z" fill-rule="nonzero" stroke="none" stroke-opacity="0"/>
                </g>
                <g id="GRID.polyline.470.1">
                  <polyline id="GRID.polyline.470.1.1" points="103.66,143.79 103.66,143.79 103.56,145.16 103.44,146.35 103.29,147.37 103.09,148.24 102.85,148.96 102.56,149.54 102.21,149.97 101.81,150.27 101.36,150.45 100.85,150.54 100.3,150.55 99.7,150.49 99.04,150.41 98.99,150.4" fill="none" fill-opacity="0"/>
                </g>
              </g>
              <g id="GRID.picComplexPath.257.1" fill="none" stroke-width="2.1" stroke-linecap="round" stroke-linejoin="round" stroke="rgb(0,40,104)" stroke-miterlimit="4" stroke-opacity="1" fill-opacity="0">
                <g id="GRID.pathgrob.471.1">
                  <path id="GRID.pathgrob.471.1.1" d="M 29.41 156.3 L 29.41 156.3 L 29.69 156.6 L 30.47 157.42 L 31.66 158.66 L 33.11 160.18 L 34.65 161.77 L 36.07 163.24 L 37.21 164.41 L 37.93 165.12 L 38.14 165.3 L 38.14 165.3 L 38.18 164.98 L 38.08 163.9 L 37.86 162.21 L 37.57 160.12 L 37.23 157.89 L 36.91 155.82 L 36.65 154.16 L 36.49 153.12 L 36.44 152.83 Z" fill-rule="nonzero" stroke="none" stroke-opacity="0"/>
                </g>
                <g id="GRID.polyline.472.1">
                  <polyline id="GRID.polyline.472.1.1" points="29.41,156.3 29.41,156.3 29.69,156.6 30.47,157.42 31.66,158.66 33.11,160.18 34.65,161.77 36.07,163.24 37.21,164.41 37.93,165.12 38.14,165.3 38.14,165.3 38.18,164.98 38.08,163.9 37.86,162.21 37.57,160.12 37.23,157.89 36.91,155.82 36.65,154.16 36.49,153.12 36.44,152.83" fill="none" fill-opacity="0"/>
                </g>
              </g>
              <g id="GRID.picComplexPath.260.1" fill="none" stroke-width="2.1" stroke-linecap="round" stroke-linejoin="round" stroke="rgb(0,40,104)" stroke-miterlimit="4" stroke-opacity="1" fill-opacity="0">
                <g id="GRID.pathgrob.473.1">
                  <path id="GRID.pathgrob.473.1.1" d="M 32.57 159.47 L 37.06 157.31 Z" fill-rule="nonzero" stroke="none" stroke-opacity="0"/>
                </g>
                <g id="GRID.polyline.474.1">
                  <polyline id="GRID.polyline.474.1.1" points="32.57,159.47 37.06,157.31" fill="none" fill-opacity="0"/>
                </g>
              </g>
              <g id="GRID.picComplexPath.263.1" fill="none" stroke-width="2.1" stroke-linecap="round" stroke-linejoin="miter" stroke="rgb(0,40,104)" stroke-miterlimit="4" stroke-opacity="1" fill-opacity="0">
                <g id="GRID.pathgrob.475.1">
                  <path id="GRID.pathgrob.475.1.1" d="M 48.92 147.48 L 48.92 147.48 L 49.03 147.88 L 49.32 148.99 L 49.76 150.65 L 50.3 152.65 L 50.87 154.75 L 51.38 156.67 L 51.78 158.16 L 52.02 159.05 L 52.07 159.24 L 52.07 159.24 L 52.83 159.07 L 53.65 158.89 L 54.51 158.71 L 55.33 158.5 L 56.06 158.28 L 56.12 158.26 L 56.12 158.26 L 56.51 158.08 L 56.94 157.8 L 57.36 157.38 L 57.71 156.85 L 57.92 156.24 L 57.96 155.58 L 57.86 155.04 L 57.86 155.04 L 57.69 154.44 L 57.44 153.83 L 57.11 153.25 L 56.74 152.76 L 56.33 152.39 Z" fill-rule="nonzero" stroke="none" stroke-opacity="0"/>
                </g>
                <g id="GRID.polyline.476.1">
                  <polyline id="GRID.polyline.476.1.1" points="48.92,147.48 48.92,147.48 49.03,147.88 49.32,148.99 49.76,150.65 50.3,152.65 50.87,154.75 51.38,156.67 51.78,158.16 52.02,159.05 52.07,159.24 52.07,159.24 52.83,159.07 53.65,158.89 54.51,158.71 55.33,158.5 56.06,158.28 56.12,158.26 56.12,158.26 56.51,158.08 56.94,157.8 57.36,157.38 57.71,156.85 57.92,156.24 57.96,155.58 57.86,155.04 57.86,155.04 57.69,154.44 57.44,153.83 57.11,153.25 56.74,152.76 56.33,152.39" fill="none" fill-opacity="0"/>
                </g>
              </g>
              <g id="GRID.picComplexPath.266.1" fill="none" stroke-width="2.1" stroke-linecap="round" stroke-linejoin="round" stroke="rgb(0,40,104)" stroke-miterlimit="4" stroke-opacity="1" fill-opacity="0">
                <g id="GRID.pathgrob.477.1">
                  <path id="GRID.pathgrob.477.1.1" d="M 50.69 153.52 L 54.99 152.42 L 54.99 152.42 L 55.55 152.13 L 55.97 151.74 L 56.25 151.35 L 56.4 151.05 L 56.43 150.92 L 56.43 150.92 L 56.47 150.21 L 56.38 149.09 L 56.22 147.8 L 56.06 146.68 L 55.94 145.99 L 55.92 145.86 Z" fill-rule="nonzero" stroke="none" stroke-opacity="0"/>
                </g>
                <g id="GRID.polyline.478.1">
                  <polyline id="GRID.polyline.478.1.1" points="50.69,153.52 54.99,152.42 54.99,152.42 55.55,152.13 55.97,151.74 56.25,151.35 56.4,151.05 56.43,150.92 56.43,150.92 56.47,150.21 56.38,149.09 56.22,147.8 56.06,146.68 55.94,145.99 55.92,145.86" fill="none" fill-opacity="0"/>
                </g>
              </g>
            </g>
          </g>
        </g>
      </g>
    </g>
  </g>
</svg>