<?xml version="1.0" encoding="UTF-8"?>
<svg xmlns="http://www.w3.org/2000/svg" xmlns:xlink="http://www.w3.org/1999/xlink" width="504px" height="504px" viewBox="0 0 504 504" version="1.1">
  <metadata xmlns:gridsvg="http://www.stat.auckland.ac.nz/~paul/R/gridSVG/">
    <gridsvg:generator name="gridSVG" version="1.3-0" time="2013-09-05 23:59:55"/>
    <gridsvg:argument name="name" value="grImport2-gridSVG/Rhode_Island.svg"/>
    <gridsvg:argument name="exportCoords" value="none"/>
    <gridsvg:argument name="exportMappings" value="none"/>
    <gridsvg:argument name="exportJS" value="none"/>
    <gridsvg:argument name="res" value="72"/>
    <gridsvg:argument name="prefix" value=""/>
    <gridsvg:argument name="addClasses" value="FALSE"/>
    <gridsvg:argument name="indent" value="TRUE"/>
    <gridsvg:argument name="htmlWrapper" value="FALSE"/>
    <gridsvg:argument name="usePaths" value="vpPaths"/>
    <gridsvg:argument name="uniqueNames" value="TRUE"/>
    <gridsvg:separator name="id.sep" value="."/>
    <gridsvg:separator name="gPath.sep" value="::"/>
    <gridsvg:separator name="vpPath.sep" value="::"/>
  </metadata>
  <g transform="translate(0, 504) scale(1, -1)">
    <g id="gridSVG" fill="none" stroke="rgb(0,0,0)" stroke-dasharray="none" stroke-width="0.75" font-size="12" font-family="Helvetica, Arial, FreeSans, Liberation Sans, Nimbus Sans L, sans-serif" opacity="1" stroke-linecap="round" stroke-linejoin="round" stroke-miterlimit="10" stroke-opacity="1" fill-opacity="0" font-weight="normal" font-style="normal">
      <g id="picture.shape::picture.scale.1">
        <defs>
          <clipPath id="picture.shape::picture.scale.2.clipPath">
            <rect x="0" y="16.61" width="504" height="470.78" fill="none" stroke="none"/>
          </clipPath>
        </defs>
        <g id="picture.shape::picture.scale.2" clip-path="url(#picture.shape::picture.scale.2.clipPath)">
          <g id="import.1.GRID.gTree.141.1">
            <g id="GRID.gTree.140.1">
              <g id="GRID.rect.197.1">
                <rect id="GRID.rect.197.1.1" x="0" y="16.61" width="504" height="470.78" fill="rgb(254,197,0)" stroke="none" stroke-opacity="0" fill-opacity="1"/>
              </g>
              <g id="GRID.picComplexPath.59.1" stroke="none" fill="rgb(255,255,255)" stroke-opacity="0" fill-opacity="1">
                <g id="GRID.pathgrob.198.1">
                  <path id="GRID.pathgrob.198.1.1" d="M 0 470.58 L 487.66 470.58 L 487.66 33.36 L 0 33.36 Z" fill-rule="evenodd" stroke="none" stroke-opacity="0"/>
                </g>
                <g id="GRID.polyline.199.1">
                  <polyline id="GRID.polyline.199.1.1" points="0,470.58 487.66,470.58 487.66,33.36 0,33.36 0,470.58" fill="none" fill-opacity="0"/>
                </g>
              </g>
              <g id="GRID.picComplexPath.62.1" fill="rgb(0,50,113)" stroke-width="0.57" stroke-linecap="butt" stroke-linejoin="miter" stroke="rgb(255,255,255)" stroke-miterlimit="4" stroke-opacity="1" fill-opacity="1">
                <g id="GRID.pathgrob.200.1">
                  <path id="GRID.pathgrob.200.1.1" d="M 171.28 194.45 L 171.28 194.45 L 171.8 193.86 L 173.29 192.21 L 175.59 189.74 L 178.44 186.8 L 181.47 183.82 L 184.33 181.23 L 186.75 179.37 L 187.83 178.73 L 187.83 178.73 L 189.93 177.64 L 193.1 175.95 L 197.12 173.78 L 201.64 171.32 L 206.22 168.81 L 210.4 166.52 L 213.74 164.68 L 215.94 163.47 L 216.79 163.01 L 216.79 163.01 L 215.96 143.97 L 215.96 143.97 L 215.49 144.09 L 214.09 144.48 L 211.77 145.18 L 208.57 146.24 L 204.66 147.67 L 200.25 149.43 L 195.58 151.5 L 190.82 153.84 L 186.17 156.39 L 186.17 156.39 L 181.77 159.11 L 177.4 162.15 L 173.08 165.42 L 168.95 168.79 L 165.18 172.04 L 161.95 174.97 L 159.4 177.38 L 157.61 179.13 L 156.61 180.14 L 156.38 180.38 L 172.93 179.55 Z" fill-rule="evenodd" stroke="none" stroke-opacity="0"/>
                </g>
                <g id="GRID.polyline.201.1">
                  <polyline id="GRID.polyline.201.1.1" points="171.28,194.45 171.28,194.45 171.8,193.86 173.29,192.21 175.59,189.74 178.44,186.8 181.47,183.82 184.33,181.23 186.75,179.37 187.83,178.73 187.83,178.73 189.93,177.64 193.1,175.95 197.12,173.78 201.64,171.32 206.22,168.81 210.4,166.52 213.74,164.68 215.94,163.47 216.79,163.01 216.79,163.01 215.96,143.97 215.96,143.97 215.49,144.09 214.09,144.48 211.77,145.18 208.57,146.24 204.66,147.67 200.25,149.43 195.58,151.5 190.82,153.84 186.17,156.39 186.17,156.39 181.77,159.11 177.4,162.15 173.08,165.42 168.95,168.79 165.18,172.04 161.95,174.97 159.4,177.38 157.61,179.13 156.61,180.14 156.38,180.38 172.93,179.55 171.28,194.45" fill="none" fill-opacity="0"/>
                </g>
              </g>
              <g id="GRID.picComplexPath.65.1" fill="rgb(0,50,113)" stroke-width="0.57" stroke-linecap="butt" stroke-linejoin="miter" stroke="rgb(255,255,255)" stroke-miterlimit="4" stroke-opacity="1" fill-opacity="1">
                <g id="GRID.pathgrob.202.1">
                  <path id="GRID.pathgrob.202.1.1" d="M 267.26 144.8 L 267.26 144.8 L 267.83 144.93 L 269.49 145.36 L 272.18 146.12 L 275.76 147.25 L 280 148.76 L 284.63 150.61 L 289.33 152.75 L 293.86 155.16 L 298.07 157.81 L 299.53 158.87 L 299.53 158.87 L 303.49 161.89 L 307.51 165.04 L 311.52 168.25 L 315.36 171.4 L 318.85 174.29 L 321.77 176.75 L 323.98 178.63 L 325.39 179.85 L 325.99 180.37 L 326.01 180.38 L 310.29 178.73 L 311.94 194.45 L 311.94 194.45 L 311.47 193.98 L 310.1 192.64 L 307.9 190.54 L 305.05 187.86 L 301.77 184.87 L 298.36 181.88 L 295.07 179.14 L 292.07 176.82 L 291.26 176.25 L 291.26 176.25 L 288.18 174.35 L 284.48 172.49 L 280.35 170.68 L 276.12 169.02 L 272.2 167.61 L 268.97 166.53 L 266.74 165.82 L 265.68 165.51 L 265.61 165.49 Z" fill-rule="evenodd" stroke="none" stroke-opacity="0"/>
                </g>
                <g id="GRID.polyline.203.1">
                  <polyline id="GRID.polyline.203.1.1" points="267.26,144.8 267.26,144.8 267.83,144.93 269.49,145.36 272.18,146.12 275.76,147.25 280,148.76 284.63,150.61 289.33,152.75 293.86,155.16 298.07,157.81 299.53,158.87 299.53,158.87 303.49,161.89 307.51,165.04 311.52,168.25 315.36,171.4 318.85,174.29 321.77,176.75 323.98,178.63 325.39,179.85 325.99,180.37 326.01,180.38 310.29,178.73 311.94,194.45 311.94,194.45 311.47,193.98 310.1,192.64 307.9,190.54 305.05,187.86 301.77,184.87 298.36,181.88 295.07,179.14 292.07,176.82 291.26,176.25 291.26,176.25 288.18,174.35 284.48,172.49 280.35,170.68 276.12,169.02 272.2,167.61 268.97,166.53 266.74,165.82 265.68,165.51 265.61,165.49 267.26,144.8" fill="none" fill-opacity="0"/>
                </g>
              </g>
              <g id="GRID.picComplexPath.68.1" fill="rgb(0,50,113)" stroke-width="0.57" stroke-linecap="butt" stroke-linejoin="miter" stroke="rgb(255,255,255)" stroke-miterlimit="4" stroke-opacity="1" fill-opacity="1">
                <g id="GRID.pathgrob.204.1">
                  <path id="GRID.pathgrob.204.1.1" d="M 200.24 184.52 L 200.24 184.52 L 200.79 184.23 L 202.42 183.43 L 205.11 182.2 L 208.75 180.65 L 213.2 178.95 L 218.23 177.27 L 223.57 175.77 L 228.96 174.6 L 234.24 173.9 L 239.31 173.74 L 239.95 173.76 L 239.95 173.76 L 244.94 174.2 L 250.2 175.04 L 255.65 176.21 L 261.14 177.63 L 266.4 179.18 L 271.17 180.73 L 275.2 182.14 L 278.29 183.3 L 280.33 184.1 L 281.27 184.49 L 281.33 184.52 L 282.15 158.04 L 282.15 158.04 L 281.52 157.82 L 279.67 157.2 L 276.67 156.25 L 272.67 155.04 L 267.87 153.68 L 262.56 152.31 L 257.05 151.05 L 251.65 150.01 L 246.58 149.29 L 241.98 148.96 L 240.78 148.94 L 240.78 148.94 L 236.3 149.16 L 231.35 149.79 L 226.05 150.77 L 220.6 151.99 L 215.29 153.36 L 210.42 154.75 L 206.3 156.01 L 203.15 157.03 L 201.11 157.73 L 200.26 158.03 L 200.24 158.04 Z" fill-rule="evenodd" stroke="none" stroke-opacity="0"/>
                </g>
                <g id="GRID.polyline.205.1">
                  <polyline id="GRID.polyline.205.1.1" points="200.24,184.52 200.24,184.52 200.79,184.23 202.42,183.43 205.11,182.2 208.75,180.65 213.2,178.95 218.23,177.27 223.57,175.77 228.96,174.6 234.24,173.9 239.31,173.74 239.95,173.76 239.95,173.76 244.94,174.2 250.2,175.04 255.65,176.21 261.14,177.63 266.4,179.18 271.17,180.73 275.2,182.14 278.29,183.3 280.33,184.1 281.27,184.49 281.33,184.52 282.15,158.04 282.15,158.04 281.52,157.82 279.67,157.2 276.67,156.25 272.67,155.04 267.87,153.68 262.56,152.31 257.05,151.05 251.65,150.01 246.58,149.29 241.98,148.96 240.78,148.94 240.78,148.94 236.3,149.16 231.35,149.79 226.05,150.77 220.6,151.99 215.29,153.36 210.42,154.75 206.3,156.01 203.15,157.03 201.11,157.73 200.26,158.03 200.24,158.04 200.24,184.52" fill="none" fill-opacity="0"/>
                </g>
              </g>
              <g id="GRID.picComplexPath.71.1" fill="none" stroke-width="0.57" stroke-linecap="butt" stroke-linejoin="miter" stroke="rgb(255,255,255)" stroke-miterlimit="4" stroke-opacity="1" fill-opacity="0">
                <g id="GRID.pathgrob.206.1">
                  <path id="GRID.pathgrob.206.1.1" d="M 200.26 158.2 L 215.8 144.24 Z" fill-rule="nonzero" stroke="none" stroke-opacity="0"/>
                </g>
                <g id="GRID.polyline.207.1">
                  <polyline id="GRID.polyline.207.1.1" points="200.26,158.2 215.8,144.24" fill="none" fill-opacity="0"/>
                </g>
              </g>
              <g id="GRID.picComplexPath.74.1" fill="none" stroke-width="0.57" stroke-linecap="butt" stroke-linejoin="miter" stroke="rgb(255,255,255)" stroke-miterlimit="4" stroke-opacity="1" fill-opacity="0">
                <g id="GRID.pathgrob.208.1">
                  <path id="GRID.pathgrob.208.1.1" d="M 281.84 158.04 L 267.42 145.23 Z" fill-rule="nonzero" stroke="none" stroke-opacity="0"/>
                </g>
                <g id="GRID.polyline.209.1">
                  <polyline id="GRID.polyline.209.1.1" points="281.84,158.04 267.42,145.23" fill="none" fill-opacity="0"/>
                </g>
              </g>
              <g id="GRID.picComplexPath.77.1" stroke="none" fill="rgb(254,197,0)" stroke-opacity="0" fill-opacity="1">
                <g id="GRID.pathgrob.210.1">
                  <path id="GRID.pathgrob.210.1.1" d="M 205.67 175.5 L 205.4 160.73 L 209.7 159.12 L 209.7 165.03 L 216.14 164.76 L 215.87 157.78 L 220.17 156.97 L 220.44 172.55 L 216.68 172.82 L 216.14 167.99 L 209.97 168.52 L 209.97 174.43 Z" fill-rule="evenodd" stroke="none" stroke-opacity="0"/>
                </g>
                <g id="GRID.polyline.211.1">
                  <polyline id="GRID.polyline.211.1.1" points="205.67,175.5 205.4,160.73 209.7,159.12 209.7,165.03 216.14,164.76 215.87,157.78 220.17,156.97 220.44,172.55 216.68,172.82 216.14,167.99 209.97,168.52 209.97,174.43 205.67,175.5" fill="none" fill-opacity="0"/>
                </g>
              </g>
              <g id="GRID.picComplexPath.80.1" stroke="none" fill="rgb(254,197,0)" stroke-opacity="0" fill-opacity="1">
                <g id="GRID.pathgrob.212.1">
                  <path id="GRID.pathgrob.212.1.1" d="M 266.62 156.97 L 266.35 173.89 L 277.89 177.38 L 277.89 173.62 L 270.38 171.21 L 270.38 167.71 L 277.63 170.4 L 277.36 166.37 L 270.38 164.76 L 270.11 160.73 L 277.89 163.69 L 278.16 161 Z" fill-rule="evenodd" stroke="none" stroke-opacity="0"/>
                </g>
                <g id="GRID.polyline.213.1">
                  <polyline id="GRID.polyline.213.1.1" points="266.62,156.97 266.35,173.89 277.89,177.38 277.89,173.62 270.38,171.21 270.38,167.71 277.63,170.4 277.36,166.37 270.38,164.76 270.11,160.73 277.89,163.69 278.16,161 266.62,156.97" fill="none" fill-opacity="0"/>
                </g>
              </g>
              <g id="GRID.picComplexPath.83.1" stroke="none" fill="rgb(254,197,0)" stroke-opacity="0" fill-opacity="1">
                <g id="GRID.pathgrob.214.1">
                  <path id="GRID.pathgrob.214.1.1" d="M 230.37 162.61 L 230.37 162.61 L 230.37 162.87 L 230.41 163.58 L 230.55 164.61 L 230.88 165.79 L 231.43 166.91 L 232.24 167.76 L 233.34 168.21 L 233.86 168.25 L 233.86 168.25 L 234.95 168.11 L 235.86 167.68 L 236.6 167.02 L 237.17 166.17 L 237.58 165.21 L 237.82 164.23 L 237.93 163.31 L 237.93 162.53 L 237.89 162.08 L 237.89 162.08 L 237.74 161.16 L 237.5 160.1 L 237.09 158.97 L 236.5 157.95 L 235.72 157.18 L 234.74 156.76 L 234.4 156.71 L 234.4 156.71 L 233.59 156.71 L 232.87 156.9 L 232.22 157.29 L 231.66 157.89 L 231.2 158.68 L 230.85 159.63 L 230.6 160.69 L 230.44 161.86 L 230.37 162.61 Z M 234.13 153.48 L 234.13 153.48 L 235.37 153.6 L 236.53 153.88 L 237.6 154.35 L 238.57 155.02 L 239.42 155.89 L 240.12 156.95 L 240.67 158.16 L 241.05 159.5 L 241.29 160.96 L 241.38 162.52 L 241.38 162.88 L 241.38 162.88 L 241.24 164.58 L 240.84 166.12 L 240.19 167.52 L 239.33 168.74 L 238.3 169.75 L 237.18 170.53 L 236.05 171.06 L 234.96 171.37 L 233.94 171.47 L 233.86 171.47 L 233.86 171.47 L 232.86 171.34 L 231.8 170.95 L 230.7 170.29 L 229.63 169.38 L 228.64 168.26 L 227.8 166.97 L 227.16 165.6 L 226.77 164.18 L 226.61 162.74 L 226.61 162.61 L 226.61 162.61 L 226.67 161.32 L 226.86 160.02 L 227.19 158.74 L 227.69 157.5 L 228.35 156.36 L 229.18 155.36 L 230.16 154.56 L 231.27 153.97 L 232.49 153.61 L 233.84 153.48 L 234.13 153.48 Z" fill-rule="evenodd" stroke="none" stroke-opacity="0"/>
                </g>
                <g id="GRID.polyline.215.1">
                  <polyline id="GRID.polyline.215.1.1" points="230.37,162.61 230.37,162.61 230.37,162.87 230.41,163.58 230.55,164.61 230.88,165.79 231.43,166.91 232.24,167.76 233.34,168.21 233.86,168.25 233.86,168.25 234.95,168.11 235.86,167.68 236.6,167.02 237.17,166.17 237.58,165.21 237.82,164.23 237.93,163.31 237.93,162.53 237.89,162.08 237.89,162.08 237.74,161.16 237.5,160.1 237.09,158.97 236.5,157.95 235.72,157.18 234.74,156.76 234.4,156.71 234.4,156.71 233.59,156.71 232.87,156.9 232.22,157.29 231.66,157.89 231.2,158.68 230.85,159.63 230.6,160.69 230.44,161.86 230.37,162.61 230.37,162.61" fill="none" fill-opacity="0"/>
                  <polyline id="GRID.polyline.215.1.2" points="234.13,153.48 234.13,153.48 235.37,153.6 236.53,153.88 237.6,154.35 238.57,155.02 239.42,155.89 240.12,156.95 240.67,158.16 241.05,159.5 241.29,160.96 241.38,162.52 241.38,162.88 241.38,162.88 241.24,164.58 240.84,166.12 240.19,167.52 239.33,168.74 238.3,169.75 237.18,170.53 236.05,171.06 234.96,171.37 233.94,171.47 233.86,171.47 233.86,171.47 232.86,171.34 231.8,170.95 230.7,170.29 229.63,169.38 228.64,168.26 227.8,166.97 227.16,165.6 226.77,164.18 226.61,162.74 226.61,162.61 226.61,162.61 226.67,161.32 226.86,160.02 227.19,158.74 227.69,157.5 228.35,156.36 229.18,155.36 230.16,154.56 231.27,153.97 232.49,153.61 233.84,153.48 234.13,153.48 234.13,153.48" fill="none" fill-opacity="0"/>
                </g>
              </g>
              <g id="GRID.picComplexPath.86.1" stroke="none" fill="rgb(254,197,0)" stroke-opacity="0" fill-opacity="1">
                <g id="GRID.pathgrob.216.1">
                  <path id="GRID.pathgrob.216.1.1" d="M 252.12 167.99 L 252.12 163.95 L 252.12 163.95 L 252.48 163.95 L 253.46 163.99 L 254.8 164.17 L 256.18 164.56 L 257.25 165.21 L 257.74 166.15 L 257.76 166.37 L 257.76 166.37 L 257.43 167.33 L 256.54 167.85 L 255.28 168.05 L 253.94 168.03 L 252.82 167.96 L 252.15 167.98 L 252.12 167.99 Z M 248.36 153.48 L 247.83 170.13 L 254.27 170.67 L 254.27 170.67 L 255.35 170.69 L 256.54 170.56 L 257.79 170.27 L 258.98 169.82 L 260 169.23 L 260.76 168.51 L 261.18 167.71 L 261.25 166.91 L 261.25 166.91 L 261.16 166.07 L 261.02 165.23 L 260.79 164.39 L 260.44 163.59 L 259.93 162.87 L 259.24 162.25 L 258.37 161.77 L 257.31 161.43 L 256.42 161.27 L 252.39 160.73 L 252.12 153.75 Z" fill-rule="evenodd" stroke="none" stroke-opacity="0"/>
                </g>
                <g id="GRID.polyline.217.1">
                  <polyline id="GRID.polyline.217.1.1" points="252.12,167.99 252.12,163.95 252.12,163.95 252.48,163.95 253.46,163.99 254.8,164.17 256.18,164.56 257.25,165.21 257.74,166.15 257.76,166.37 257.76,166.37 257.43,167.33 256.54,167.85 255.28,168.05 253.94,168.03 252.82,167.96 252.15,167.98 252.12,167.99 252.12,167.99" fill="none" fill-opacity="0"/>
                  <polyline id="GRID.polyline.217.1.2" points="248.36,153.48 247.83,170.13 254.27,170.67 254.27,170.67 255.35,170.69 256.54,170.56 257.79,170.27 258.98,169.82 260,169.23 260.76,168.51 261.18,167.71 261.25,166.91 261.25,166.91 261.16,166.07 261.02,165.23 260.79,164.39 260.44,163.59 259.93,162.87 259.24,162.25 258.37,161.77 257.31,161.43 256.42,161.27 252.39,160.73 252.12,153.75 248.36,153.48" fill="none" fill-opacity="0"/>
                </g>
              </g>
              <g id="GRID.picComplexPath.89.1" fill="rgb(254,197,0)" stroke-width="1.19" stroke-linecap="butt" stroke-linejoin="miter" stroke="rgb(254,197,0)" stroke-miterlimit="10" stroke-opacity="1" fill-opacity="1">
                <g id="GRID.pathgrob.218.1">
                  <path id="GRID.pathgrob.218.1.1" d="M 237.47 329.32 L 237.47 329.32 L 237.46 328.35 L 237.44 325.55 L 237.4 321.07 L 237.35 315.09 L 237.28 307.81 L 237.21 299.49 L 237.13 290.45 L 237.04 281.02 L 236.96 271.59 L 236.88 262.5 L 236.81 254.11 L 236.75 246.71 L 236.7 240.55 L 236.67 235.83 L 236.65 232.72 L 236.65 231.68 L 236.65 231.68 L 236.64 229.65 L 236.57 227.47 L 236.37 225.21 L 235.99 223 L 235.36 220.99 L 234.46 219.33 L 233.24 218.15 L 231.72 217.52 L 229.84 217.5 L 229.2 217.62 L 229.2 217.62 L 226.81 218.09 L 224.18 218.56 L 221.22 219.13 L 217.95 219.89 L 214.4 220.91 L 210.67 222.26 L 206.85 223.97 L 202.96 226.09 L 199.41 228.37 L 199.41 228.37 L 194.56 231.8 L 190.96 234.54 L 188.48 236.61 L 187.01 238.01 L 186.35 238.79 L 186.18 239.1 L 186.17 239.13 L 198.58 243.26 L 198.58 243.26 L 198 243.39 L 196.32 243.8 L 193.65 244.55 L 190.25 245.64 L 186.5 247.04 L 182.76 248.71 L 179.33 250.6 L 177.9 251.54 L 177.9 251.54 L 174.61 253.86 L 171.42 256.14 L 168.48 258.27 L 166.01 260.07 L 164.23 261.39 L 163.23 262.13 L 163 262.3 L 163 262.3 L 162.97 261.7 L 162.95 259.96 L 163.02 257.19 L 163.27 253.65 L 163.78 249.71 L 164.6 245.75 L 165.78 242.06 L 166.31 240.78 L 166.31 240.78 L 168.08 237.37 L 170.2 233.98 L 172.52 230.73 L 174.79 227.85 L 176.71 225.59 L 178.06 224.1 L 178.69 223.44 L 178.73 223.41 L 178.73 234.17 L 178.73 234.17 L 179.3 233.64 L 180.93 232.15 L 183.4 229.93 L 186.37 227.33 L 189.41 224.74 L 192.11 222.58 L 194.18 221.09 L 194.45 220.93 L 194.45 220.93 L 196.18 219.99 L 198.75 218.76 L 202.02 217.26 L 205.81 215.54 L 209.81 213.71 L 213.71 211.89 L 217.21 210.18 L 220.12 208.65 L 221.75 207.69 L 221.75 207.69 L 224.32 205.95 L 227.38 203.67 L 230.76 201.02 L 234.16 198.26 L 237.22 195.71 L 239.62 193.68 L 241.12 192.39 L 241.61 191.97 L 241.61 191.97 L 242.08 192.49 L 243.45 193.97 L 245.65 196.23 L 248.5 199 L 251.77 201.94 L 255.15 204.69 L 258.4 206.93 L 261.39 208.48 L 261.47 208.51 L 261.47 208.51 L 264.38 209.7 L 267.55 211.06 L 270.94 212.57 L 274.4 214.18 L 277.72 215.8 L 280.7 217.33 L 283.21 218.71 L 285.2 219.93 L 285.46 220.1 L 285.46 220.1 L 287.58 221.66 L 290.33 223.91 L 293.51 226.63 L 296.77 229.52 L 299.72 232.18 L 301.99 234.27 L 303.35 235.52 L 303.67 235.82 L 303.67 221.75 L 303.67 221.75 L 304.1 222.27 L 305.3 223.79 L 307.12 226.18 L 309.3 229.23 L 311.52 232.59 L 313.46 235.92 L 314.9 239 L 315.25 239.96 L 315.25 239.96 L 316.12 243.08 L 316.87 246.73 L 317.49 250.64 L 317.97 254.39 L 318.3 257.52 L 318.49 259.66 L 318.56 260.61 L 318.56 260.64 L 318.56 260.64 L 318.08 260.29 L 316.67 259.3 L 314.46 257.82 L 311.74 256.13 L 308.9 254.52 L 306.17 253.21 L 306.15 253.2 L 306.15 253.2 L 303.64 252.14 L 300.31 250.77 L 296.42 249.18 L 292.41 247.56 L 288.75 246.08 L 285.91 244.94 L 284.21 244.26 L 283.81 244.1 L 297.05 240.78 L 297.05 240.78 L 296.42 240.3 L 294.6 238.93 L 291.75 236.79 L 288.07 234.09 L 283.88 231.07 L 279.55 228.02 L 275.43 225.24 L 271.82 222.95 L 268.93 221.33 L 268.09 220.93 L 268.09 220.93 L 265.73 220.03 L 262.93 219.27 L 259.8 218.7 L 256.5 218.39 L 253.24 218.43 L 250.28 218.87 L 247.84 219.74 L 246.08 221.06 L 245.1 222.84 L 244.92 224.24 L 244.92 224.24 L 244.93 226.52 L 244.95 230.46 L 244.99 235.92 L 245.04 242.74 L 245.1 250.71 L 245.17 259.59 L 245.24 269.07 L 245.32 278.84 L 245.4 288.54 L 245.48 297.82 L 245.55 306.37 L 245.61 313.88 L 245.67 320.11 L 245.71 324.86 L 245.73 327.97 L 245.74 329.28 L 245.75 329.32 Z" fill-rule="evenodd" stroke="none" stroke-opacity="0"/>
                </g>
                <g id="GRID.polyline.219.1">
                  <polyline id="GRID.polyline.219.1.1" points="237.47,329.32 237.47,329.32 237.46,328.35 237.44,325.55 237.4,321.07 237.35,315.09 237.28,307.81 237.21,299.49 237.13,290.45 237.04,281.02 236.96,271.59 236.88,262.5 236.81,254.11 236.75,246.71 236.7,240.55 236.67,235.83 236.65,232.72 236.65,231.68 236.65,231.68 236.64,229.65 236.57,227.47 236.37,225.21 235.99,223 235.36,220.99 234.46,219.33 233.24,218.15 231.72,217.52 229.84,217.5 229.2,217.62 229.2,217.62 226.81,218.09 224.18,218.56 221.22,219.13 217.95,219.89 214.4,220.91 210.67,222.26 206.85,223.97 202.96,226.09 199.41,228.37 199.41,228.37 194.56,231.8 190.96,234.54 188.48,236.61 187.01,238.01 186.35,238.79 186.18,239.1 186.17,239.13 198.58,243.26 198.58,243.26 198,243.39 196.32,243.8 193.65,244.55 190.25,245.64 186.5,247.04 182.76,248.71 179.33,250.6 177.9,251.54 177.9,251.54 174.61,253.86 171.42,256.14 168.48,258.27 166.01,260.07 164.23,261.39 163.23,262.13 163,262.3 163,262.3 162.97,261.7 162.95,259.96 163.02,257.19 163.27,253.65 163.78,249.71 164.6,245.75 165.78,242.06 166.31,240.78 166.31,240.78 168.08,237.37 170.2,233.98 172.52,230.73 174.79,227.85 176.71,225.59 178.06,224.1 178.69,223.44 178.73,223.41 178.73,234.17 178.73,234.17 179.3,233.64 180.93,232.15 183.4,229.93 186.37,227.33 189.41,224.74 192.11,222.58 194.18,221.09 194.45,220.93 194.45,220.93 196.18,219.99 198.75,218.76 202.02,217.26 205.81,215.54 209.81,213.71 213.71,211.89 217.21,210.18 220.12,208.65 221.75,207.69 221.75,207.69 224.32,205.95 227.38,203.67 230.76,201.02 234.16,198.26 237.22,195.71 239.62,193.68 241.12,192.39 241.61,191.97 241.61,191.97 242.08,192.49 243.45,193.97 245.65,196.23 248.5,199 251.77,201.94 255.15,204.69 258.4,206.93 261.39,208.48 261.47,208.51 261.47,208.51 264.38,209.7 267.55,211.06 270.94,212.57 274.4,214.18 277.72,215.8 280.7,217.33 283.21,218.71 285.2,219.93 285.46,220.1 285.46,220.1 287.58,221.66 290.33,223.91 293.51,226.63 296.77,229.52 299.72,232.18 301.99,234.27 303.35,235.52 303.67,235.82 303.67,221.75 303.67,221.75 304.1,222.27 305.3,223.79 307.12,226.18 309.3,229.23 311.52,232.59 313.46,235.92 314.9,239 315.25,239.96 315.25,239.96 316.12,243.08 316.87,246.73 317.49,250.64 317.97,254.39 318.3,257.52 318.49,259.66 318.56,260.61 318.56,260.64 318.56,260.64 318.08,260.29 316.67,259.3 314.46,257.82 311.74,256.13 308.9,254.52 306.17,253.21 306.15,253.2 306.15,253.2 303.64,252.14 300.31,250.77 296.42,249.18 292.41,247.56 288.75,246.08 285.91,244.94 284.21,244.26 283.81,244.1 297.05,240.78 297.05,240.78 296.42,240.3 294.6,238.93 291.75,236.79 288.07,234.09 283.88,231.07 279.55,228.02 275.43,225.24 271.82,222.95 268.93,221.33 268.09,220.93 268.09,220.93 265.73,220.03 262.93,219.27 259.8,218.7 256.5,218.39 253.24,218.43 250.28,218.87 247.84,219.74 246.08,221.06 245.1,222.84 244.92,224.24 244.92,224.24 244.93,226.52 244.95,230.46 244.99,235.92 245.04,242.74 245.1,250.71 245.17,259.59 245.24,269.07 245.32,278.84 245.4,288.54 245.48,297.82 245.55,306.37 245.61,313.88 245.67,320.11 245.71,324.86 245.73,327.97 245.74,329.28 245.75,329.32 237.47,329.32" fill="none" fill-opacity="0"/>
                </g>
              </g>
              <g id="GRID.picComplexPath.92.1" fill="rgb(254,197,0)" stroke-width="0.95" stroke-linecap="square" stroke-linejoin="miter" stroke="rgb(254,197,0)" stroke-miterlimit="10" stroke-opacity="1" fill-opacity="1">
                <g id="GRID.pathgrob.220.1">
                  <path id="GRID.pathgrob.220.1.1" d="M 238.3 359.93 L 244.09 359.93 L 244.09 335.11 L 238.3 335.11 Z" fill-rule="evenodd" stroke="none" stroke-opacity="0"/>
                </g>
                <g id="GRID.polyline.221.1">
                  <polyline id="GRID.polyline.221.1.1" points="238.3,359.93 244.09,359.93 244.09,335.11 238.3,335.11 238.3,359.93" fill="none" fill-opacity="0"/>
                </g>
              </g>
              <g id="GRID.picComplexPath.95.1" fill="rgb(254,197,0)" stroke-width="1.19" stroke-linecap="butt" stroke-linejoin="miter" stroke="rgb(255,255,255)" stroke-miterlimit="10" stroke-opacity="1" fill-opacity="1">
                <g id="GRID.pathgrob.222.1">
                  <path id="GRID.pathgrob.222.1.1" d="M 196.93 335.11 L 196.93 335.11 L 197.47 335.22 L 199.1 335.54 L 201.78 336.04 L 205.46 336.67 L 210.01 337.38 L 215.24 338.11 L 220.89 338.79 L 226.74 339.37 L 232.58 339.8 L 238.3 340.03 L 241.61 340.07 L 241.61 340.07 L 247.29 339.96 L 253.07 339.63 L 258.9 339.13 L 264.63 338.49 L 270.05 337.77 L 274.92 337.04 L 279.01 336.35 L 282.15 335.78 L 284.27 335.36 L 285.33 335.14 L 285.46 335.11 L 285.46 326.01 L 285.46 326.01 L 284.81 325.92 L 282.88 325.67 L 279.77 325.27 L 275.59 324.77 L 270.55 324.2 L 264.91 323.61 L 258.99 323.04 L 253.1 322.55 L 247.48 322.17 L 242.33 321.94 L 238.3 321.87 L 238.3 321.87 L 233.46 321.99 L 228.24 322.33 L 222.73 322.85 L 217.13 323.51 L 211.69 324.24 L 206.72 324.99 L 202.51 325.68 L 199.27 326.25 L 197.12 326.64 L 196.15 326.83 L 196.1 326.84 Z" fill-rule="evenodd" stroke="none" stroke-opacity="0"/>
                </g>
                <g id="GRID.polyline.223.1">
                  <polyline id="GRID.polyline.223.1.1" points="196.93,335.11 196.93,335.11 197.47,335.22 199.1,335.54 201.78,336.04 205.46,336.67 210.01,337.38 215.24,338.11 220.89,338.79 226.74,339.37 232.58,339.8 238.3,340.03 241.61,340.07 241.61,340.07 247.29,339.96 253.07,339.63 258.9,339.13 264.63,338.49 270.05,337.77 274.92,337.04 279.01,336.35 282.15,335.78 284.27,335.36 285.33,335.14 285.46,335.11 285.46,326.01 285.46,326.01 284.81,325.92 282.88,325.67 279.77,325.27 275.59,324.77 270.55,324.2 264.91,323.61 258.99,323.04 253.1,322.55 247.48,322.17 242.33,321.94 238.3,321.87 238.3,321.87 233.46,321.99 228.24,322.33 222.73,322.85 217.13,323.51 211.69,324.24 206.72,324.99 202.51,325.68 199.27,326.25 197.12,326.64 196.15,326.83 196.1,326.84 196.93,335.11" fill="none" fill-opacity="0"/>
                </g>
              </g>
              <g id="GRID.picComplexPath.98.1" fill="rgb(254,197,0)" stroke-width="1.19" stroke-linecap="square" stroke-linejoin="miter" stroke="rgb(255,255,255)" stroke-miterlimit="10" stroke-opacity="1" fill-opacity="1">
                <g id="GRID.pathgrob.224.1">
                  <path id="GRID.pathgrob.224.1.1" d="M 249.88 339.25 L 249.88 339.25 L 249.71 337.33 L 249.18 335.47 L 248.3 333.69 L 247.1 332.11 L 245.66 330.83 L 244.08 329.92 L 242.44 329.43 L 241.2 329.32 L 241.2 329.32 L 239.52 329.52 L 237.89 330.12 L 236.33 331.13 L 234.95 332.5 L 233.83 334.14 L 233.04 335.95 L 232.6 337.83 L 232.51 339.25 L 232.51 339.25 L 232.68 341.16 L 233.21 343.03 L 234.09 344.8 L 235.29 346.39 L 236.73 347.67 L 238.31 348.57 L 239.96 349.07 L 241.2 349.18 L 241.2 349.18 L 242.87 348.98 L 244.51 348.37 L 246.06 347.37 L 247.44 346 L 248.56 344.35 L 249.36 342.54 L 249.79 340.66 L 249.88 339.25 Z M 254.02 339.66 L 254.02 339.66 L 253.82 337.37 L 253.21 335.12 L 252.19 332.95 L 250.78 330.93 L 249.04 329.17 L 247.06 327.76 L 244.95 326.75 L 242.76 326.17 L 240.78 326.01 L 240.78 326.01 L 238.55 326.21 L 236.37 326.84 L 234.27 327.89 L 232.31 329.35 L 230.61 331.15 L 229.24 333.19 L 228.26 335.37 L 227.7 337.62 L 227.54 339.66 L 227.54 339.66 L 227.74 341.96 L 228.35 344.21 L 229.37 346.38 L 230.78 348.39 L 232.52 350.16 L 234.5 351.57 L 236.62 352.57 L 238.8 353.15 L 240.78 353.31 L 240.78 353.31 L 243.01 353.11 L 245.19 352.48 L 247.29 351.43 L 249.25 349.97 L 250.96 348.18 L 252.33 346.14 L 253.3 343.96 L 253.86 341.7 L 254.02 339.66 Z" fill-rule="evenodd" stroke="none" stroke-opacity="0"/>
                </g>
                <g id="GRID.polyline.225.1">
                  <polyline id="GRID.polyline.225.1.1" points="249.88,339.25 249.88,339.25 249.71,337.33 249.18,335.47 248.3,333.69 247.1,332.11 245.66,330.83 244.08,329.92 242.44,329.43 241.2,329.32 241.2,329.32 239.52,329.52 237.89,330.12 236.33,331.13 234.95,332.5 233.83,334.14 233.04,335.95 232.6,337.83 232.51,339.25 232.51,339.25 232.68,341.16 233.21,343.03 234.09,344.8 235.29,346.39 236.73,347.67 238.31,348.57 239.96,349.07 241.2,349.18 241.2,349.18 242.87,348.98 244.51,348.37 246.06,347.37 247.44,346 248.56,344.35 249.36,342.54 249.79,340.66 249.88,339.25 249.88,339.25" fill="none" fill-opacity="0"/>
                  <polyline id="GRID.polyline.225.1.2" points="254.02,339.66 254.02,339.66 253.82,337.37 253.21,335.12 252.19,332.95 250.78,330.93 249.04,329.17 247.06,327.76 244.95,326.75 242.76,326.17 240.78,326.01 240.78,326.01 238.55,326.21 236.37,326.84 234.27,327.89 232.31,329.35 230.61,331.15 229.24,333.19 228.26,335.37 227.7,337.62 227.54,339.66 227.54,339.66 227.74,341.96 228.35,344.21 229.37,346.38 230.78,348.39 232.52,350.16 234.5,351.57 236.62,352.57 238.8,353.15 240.78,353.31 240.78,353.31 243.01,353.11 245.19,352.48 247.29,351.43 249.25,349.97 250.96,348.18 252.33,346.14 253.3,343.96 253.86,341.7 254.02,339.66 254.02,339.66" fill="none" fill-opacity="0"/>
                </g>
              </g>
              <g id="GRID.picComplexPath.101.1" stroke="none" fill="rgb(254,197,0)" stroke-opacity="0" fill-opacity="1">
                <g id="GRID.pathgrob.226.1">
                  <path id="GRID.pathgrob.226.1.1" d="M 242 431.15 L 249.2 413.55 L 268.47 411.78 L 253.6 399.63 L 257.85 381.13 L 241.47 391.23 L 224.82 381.55 L 229.56 399.94 L 215.03 412.47 L 234.34 413.73 Z" fill-rule="evenodd" stroke="none" stroke-opacity="0"/>
                </g>
                <g id="GRID.polyline.227.1">
                  <polyline id="GRID.polyline.227.1.1" points="242,431.15 249.2,413.55 268.47,411.78 253.6,399.63 257.85,381.13 241.47,391.23 224.82,381.55 229.56,399.94 215.03,412.47 234.34,413.73 242,431.15" fill="none" fill-opacity="0"/>
                </g>
              </g>
              <g id="GRID.picComplexPath.104.1" stroke="none" fill="rgb(254,197,0)" stroke-opacity="0" fill-opacity="1">
                <g id="GRID.pathgrob.228.1">
                  <path id="GRID.pathgrob.228.1.1" d="M 327.25 410.32 L 324.71 391.47 L 340.53 380.34 L 321.6 377.21 L 316.05 359.05 L 306.88 375.97 L 287.63 375.88 L 300.9 389.46 L 294.55 407.56 L 311.92 399.04 Z" fill-rule="evenodd" stroke="none" stroke-opacity="0"/>
                </g>
                <g id="GRID.polyline.229.1">
                  <polyline id="GRID.polyline.229.1.1" points="327.25,410.32 324.71,391.47 340.53,380.34 321.6,377.21 316.05,359.05 306.88,375.97 287.63,375.88 300.9,389.46 294.55,407.56 311.92,399.04 327.25,410.32" fill="none" fill-opacity="0"/>
                </g>
              </g>
              <g id="GRID.picComplexPath.107.1" stroke="none" fill="rgb(254,197,0)" stroke-opacity="0" fill-opacity="1">
                <g id="GRID.pathgrob.230.1">
                  <path id="GRID.pathgrob.230.1.1" d="M 390.01 353.27 L 379.55 337.38 L 388.99 320.49 L 370.57 325.87 L 357.7 311.92 L 356.77 331.14 L 339.39 339.4 L 357.23 345.88 L 359.35 364.95 L 371.31 349.74 Z" fill-rule="evenodd" stroke="none" stroke-opacity="0"/>
                </g>
                <g id="GRID.polyline.231.1">
                  <polyline id="GRID.polyline.231.1.1" points="390.01,353.27 379.55,337.38 388.99,320.49 370.57,325.87 357.7,311.92 356.77,331.14 339.39,339.4 357.23,345.88 359.35,364.95 371.31,349.74 390.01,353.27" fill="none" fill-opacity="0"/>
                </g>
              </g>
              <g id="GRID.picComplexPath.110.1" stroke="none" fill="rgb(254,197,0)" stroke-opacity="0" fill-opacity="1">
                <g id="GRID.pathgrob.232.1">
                  <path id="GRID.pathgrob.232.1.1" d="M 419.86 269.94 L 403.32 260.54 L 404.05 241.21 L 390.09 254.38 L 372.28 247.8 L 380.19 265.34 L 368.46 280.6 L 387.31 278.27 L 397.86 294.29 L 401.6 275.31 Z" fill-rule="evenodd" stroke="none" stroke-opacity="0"/>
                </g>
                <g id="GRID.polyline.233.1">
                  <polyline id="GRID.polyline.233.1.1" points="419.86,269.94 403.32,260.54 404.05,241.21 390.09,254.38 372.28,247.8 380.19,265.34 368.46,280.6 387.31,278.27 397.86,294.29 401.6,275.31 419.86,269.94" fill="none" fill-opacity="0"/>
                </g>
              </g>
              <g id="GRID.picComplexPath.113.1" stroke="none" fill="rgb(254,197,0)" stroke-opacity="0" fill-opacity="1">
                <g id="GRID.pathgrob.234.1">
                  <path id="GRID.pathgrob.234.1.1" d="M 411.09 183.3 L 392.09 182.58 L 383.81 165.09 L 377.5 183.22 L 358.66 185.58 L 373.77 197.5 L 370.4 216.45 L 386.05 205.7 L 402.8 215.05 L 397.36 196.47 Z" fill-rule="evenodd" stroke="none" stroke-opacity="0"/>
                </g>
                <g id="GRID.polyline.235.1">
                  <polyline id="GRID.polyline.235.1.1" points="411.09,183.3 392.09,182.58 383.81,165.09 377.5,183.22 358.66,185.58 373.77,197.5 370.4,216.45 386.05,205.7 402.8,215.05 397.36,196.47 411.09,183.3" fill="none" fill-opacity="0"/>
                </g>
              </g>
              <g id="GRID.picComplexPath.116.1" stroke="none" fill="rgb(254,197,0)" stroke-opacity="0" fill-opacity="1">
                <g id="GRID.pathgrob.236.1">
                  <path id="GRID.pathgrob.236.1.1" d="M 156.51 410.51 L 170.71 397.86 L 188.8 404.75 L 180.79 387.3 L 192.73 372.55 L 173.58 374.41 L 162.88 358.41 L 159.05 377.01 L 140.5 381.87 L 157.28 391.5 Z" fill-rule="evenodd" stroke="none" stroke-opacity="0"/>
                </g>
                <g id="GRID.polyline.237.1">
                  <polyline id="GRID.polyline.237.1.1" points="156.51,410.51 170.71,397.86 188.8,404.75 180.79,387.3 192.73,372.55 173.58,374.41 162.88,358.41 159.05,377.01 140.5,381.87 157.28,391.5 156.51,410.51" fill="none" fill-opacity="0"/>
                </g>
              </g>
              <g id="GRID.picComplexPath.119.1" stroke="none" fill="rgb(254,197,0)" stroke-opacity="0" fill-opacity="1">
                <g id="GRID.pathgrob.238.1">
                  <path id="GRID.pathgrob.238.1.1" d="M 286.69 124.01 L 286.97 104.99 L 304.26 96.32 L 285.99 90.43 L 283.18 71.65 L 271.62 87.03 L 252.59 84.1 L 263.72 99.49 L 254.76 116.46 L 273.2 110.59 Z" fill-rule="evenodd" stroke="none" stroke-opacity="0"/>
                </g>
                <g id="GRID.polyline.239.1">
                  <polyline id="GRID.polyline.239.1.1" points="286.69,124.01 286.97,104.99 304.26,96.32 285.99,90.43 283.18,71.65 271.62,87.03 252.59,84.1 263.72,99.49 254.76,116.46 273.2,110.59 286.69,124.01" fill="none" fill-opacity="0"/>
                </g>
              </g>
              <g id="GRID.picComplexPath.122.1" stroke="none" fill="rgb(254,197,0)" stroke-opacity="0" fill-opacity="1">
                <g id="GRID.pathgrob.240.1">
                  <path id="GRID.pathgrob.240.1.1" d="M 122.09 362.9 L 123.65 343.94 L 141.5 336.46 L 123.67 329.34 L 122.15 310.42 L 109.57 324.98 L 90.78 320.76 L 100.83 336.87 L 90.74 353.19 L 109.54 348.59 Z" fill-rule="evenodd" stroke="none" stroke-opacity="0"/>
                </g>
                <g id="GRID.polyline.241.1">
                  <polyline id="GRID.polyline.241.1.1" points="122.09,362.9 123.65,343.94 141.5,336.46 123.67,329.34 122.15,310.42 109.57,324.98 90.78,320.76 100.83,336.87 90.74,353.19 109.54,348.59 122.09,362.9" fill="none" fill-opacity="0"/>
                </g>
              </g>
              <g id="GRID.picComplexPath.125.1" stroke="none" fill="rgb(254,197,0)" stroke-opacity="0" fill-opacity="1">
                <g id="GRID.pathgrob.242.1">
                  <path id="GRID.pathgrob.242.1.1" d="M 83.29 294.24 L 93.71 278.33 L 112.96 280.27 L 100.69 265.51 L 108.38 248.16 L 90.38 254.95 L 75.88 242.28 L 77.03 261.23 L 60.37 270.76 L 79.08 275.69 Z" fill-rule="evenodd" stroke="none" stroke-opacity="0"/>
                </g>
                <g id="GRID.polyline.243.1">
                  <polyline id="GRID.polyline.243.1.1" points="83.29,294.24 93.71,278.33 112.96,280.27 100.69,265.51 108.38,248.16 90.38,254.95 75.88,242.28 77.03,261.23 60.37,270.76 79.08,275.69 83.29,294.24" fill="none" fill-opacity="0"/>
                </g>
              </g>
              <g id="GRID.picComplexPath.128.1" stroke="none" fill="rgb(254,197,0)" stroke-opacity="0" fill-opacity="1">
                <g id="GRID.pathgrob.244.1">
                  <path id="GRID.pathgrob.244.1.1" d="M 80.24 216.13 L 97.07 207.26 L 112.96 218.29 L 109.39 199.43 L 124.53 187.98 L 105.49 185.19 L 98.95 167.08 L 90.76 184.22 L 71.58 184.48 L 85.56 197.86 Z" fill-rule="evenodd" stroke="none" stroke-opacity="0"/>
                </g>
                <g id="GRID.polyline.245.1">
                  <polyline id="GRID.polyline.245.1.1" points="80.24,216.13 97.07,207.26 112.96,218.29 109.39,199.43 124.53,187.98 105.49,185.19 98.95,167.08 90.76,184.22 71.58,184.48 85.56,197.86 80.24,216.13" fill="none" fill-opacity="0"/>
                </g>
              </g>
              <g id="GRID.picComplexPath.131.1" stroke="none" fill="rgb(254,197,0)" stroke-opacity="0" fill-opacity="1">
                <g id="GRID.pathgrob.246.1">
                  <path id="GRID.pathgrob.246.1.1" d="M 142.22 161.22 L 147.39 142.91 L 166.33 138.98 L 150.19 128.59 L 152.31 109.72 L 137.18 121.61 L 119.55 113.88 L 126.33 131.62 L 113.31 145.71 L 132.64 144.78 Z" fill-rule="evenodd" stroke="none" stroke-opacity="0"/>
                </g>
                <g id="GRID.polyline.247.1">
                  <polyline id="GRID.polyline.247.1.1" points="142.22,161.22 147.39,142.91 166.33,138.98 150.19,128.59 152.31,109.72 137.18,121.61 119.55,113.88 126.33,131.62 113.31,145.71 132.64,144.78 142.22,161.22" fill="none" fill-opacity="0"/>
                </g>
              </g>
              <g id="GRID.picComplexPath.134.1" stroke="none" fill="rgb(254,197,0)" stroke-opacity="0" fill-opacity="1">
                <g id="GRID.pathgrob.248.1">
                  <path id="GRID.pathgrob.248.1.1" d="M 224.57 115.99 L 215.81 99.1 L 226.93 83.28 L 208.05 86.74 L 196.7 71.52 L 193.79 90.55 L 175.64 96.97 L 192.73 105.27 L 192.87 124.45 L 206.33 110.55 Z" fill-rule="evenodd" stroke="none" stroke-opacity="0"/>
                </g>
                <g id="GRID.polyline.249.1">
                  <polyline id="GRID.polyline.249.1.1" points="224.57,115.99 215.81,99.1 226.93,83.28 208.05,86.74 196.7,71.52 193.79,90.55 175.64,96.97 192.73,105.27 192.87,124.45 206.33,110.55 224.57,115.99" fill="none" fill-opacity="0"/>
                </g>
              </g>
              <g id="GRID.picComplexPath.137.1" stroke="none" fill="rgb(254,197,0)" stroke-opacity="0" fill-opacity="1">
                <g id="GRID.pathgrob.250.1">
                  <path id="GRID.pathgrob.250.1.1" d="M 340.24 160.37 L 349.85 143.95 L 369.17 144.93 L 356.18 130.8 L 362.99 113.08 L 345.35 120.76 L 330.24 108.84 L 332.33 127.71 L 316.18 138.06 L 335.11 142.04 Z" fill-rule="evenodd" stroke="none" stroke-opacity="0"/>
                </g>
                <g id="GRID.polyline.251.1">
                  <polyline id="GRID.polyline.251.1.1" points="340.24,160.37 349.85,143.95 369.17,144.93 356.18,130.8 362.99,113.08 345.35,120.76 330.24,108.84 332.33,127.71 316.18,138.06 335.11,142.04 340.24,160.37" fill="none" fill-opacity="0"/>
                </g>
              </g>
            </g>
          </g>
        </g>
      </g>
    </g>
  </g>
</svg>